<svg id="&#x428;&#x430;&#x440;_1" enable-background="new 0 0 300 300" viewBox="0 0 300 300" xmlns="http://www.w3.org/2000/svg"><g><path d="m276.428 195.943h-11.561c4.423-3.783 7.529-9.347 8.438-15.851l6.779-48.548 1.036-7.434c0-.005 0-.005 0-.011.608-3.794.449-7.508-.433-10.99-1.981-1.062-4.132-1.786-6.362-2.14-.761-1.659-1.754-3.218-2.964-4.644-3.915-4.602-9.585-7.239-15.566-7.239-9.115 0-16.95 7.249-18.631 17.236l-.423 2.505-.005.026c-.005.053-.026.1-.042.148-.026.116-.048.233-.09.344-.037.09-.079.169-.122.254-.037.069-.069.143-.111.211-.074.122-.164.232-.259.338-.016.026-.032.053-.053.074l-.005.011c-.005.005-.011.011-.016.016l-4.481 4.803c-.925.988-2.441 1.125-3.524.322l-23.571-17.484c-1.622-1.205-3.572-1.664-5.479-1.295-2.05.396-3.831 1.686-5.02 3.625-2.489 4.058-1.538 9.564 2.114 12.269l13.997 10.383c.391.46.835.877 1.326 1.242l21.706 16.105c-.565.159-1.136.275-1.712.359l-3.371 20.031c-.005.016-.011.032-.016.048-.011.069-.032.132-.053.201-.026.095-.053.19-.085.285-.026.063-.058.122-.085.18-.048.09-.09.18-.143.259-.037.058-.074.111-.111.164-.063.079-.122.153-.19.222-.042.053-.09.095-.137.143-.074.063-.148.127-.222.18-.053.042-.111.085-.169.122-.079.048-.164.095-.254.137-.058.026-.116.058-.18.084-.1.037-.206.069-.317.095-.048.016-.1.032-.153.042-.164.032-.333.053-.502.053-.005 0-.005 0-.005 0h-32.369c-6.668 0-12.264 5.353-13.31 12.734l-9.12 64.409c-.528 3.741.518 7.44 2.874 10.155 1.997 2.298 4.671 3.567 7.529 3.567 1.738 0 3.382-.47 4.835-1.316-.164 1.918.09 3.815.724 5.553 5.231-2.103 9.167-7.112 10.087-13.421l.756-5.194 6.695-46.033c.164-1.152 1.004-2.024 1.944-2.024h9.183c-.988 1.638-1.564 3.551-1.564 5.601v.555c0 1.68.386 3.276 1.067 4.697.829-1.955 2.372-3.44 4.269-4.121 0 0 0 0 0-.005.745-.269 1.543-.412 2.367-.412h16.665c.211 0 .412.032.613.079.407-.047.824-.079 1.247-.079h26.107c4.919 0 9.384-2.219 12.586-5.881 1.152-1.321 2.145-2.827 2.922-4.481-1.513-.81-3.246-1.264-5.08-1.264zm-1.611-65.091v-.005c1.03-.634 2.399-.497 3.286.402 1.025 1.046 1.014 2.726-.032 3.757l-4.444 4.375zm-21.775-5.369c-.042.148-.085.296-.122.444-.011.037-.016.074-.026.111-.021.074-.037.143-.058.222v.005c-.021.09-.042.18-.063.27-.005.021-.011.047-.016.069-.011.047-.021.095-.032.137-.011.048-.021.095-.032.143-.026.122-.053.243-.074.365-.048.232-.095.465-.132.697l-.423 2.505-.005.026c-.005.053-.026.1-.042.148-.026.116-.048.233-.09.344-.037.09-.079.169-.122.254-.037.069-.069.143-.111.211-.074.122-.164.232-.259.338-.016.026-.032.053-.053.074l-.005.011c-.005.005-.011.011-.016.016l-4.481 4.803c-.925.988-2.441 1.125-3.524.322l-1.152-.856z" fill="#6ea9ff"/><path d="m131.604 263.602c-1.696 1.95-3.73 3.413-5.971 4.317-.291-.808-.507-1.664-.639-2.557l-.407-2.816c-1.39.745-2.927 1.141-4.518 1.141-5.189 0-9.558-4.185-10.398-9.949l-6.71-46.17h-5.363l-.624-4.291c-.169-1.152-1.009-2.024-1.95-2.024h-9.178c.983 1.638 1.559 3.551 1.559 5.601v.555c0 .053 0 .106-.005.159h-21.685c-5.109 0-9.733-2.394-12.951-6.314-1.284-1.554-2.341-3.35-3.117-5.331-.613-1.543-1.051-3.202-1.295-4.946l-7.82-55.977c0-.011-.005-.021-.005-.032v-.026c-.507-3.128-.375-6.187.365-9.035.011-.042.021-.084.037-.127.069-.264.143-.528.222-.787.011-.032.021-.063.032-.095.074-.232.148-.46.233-.687.016-.048.032-.09.048-.132.074-.206.153-.412.238-.613.011-.026.021-.048.032-.074.026-.074.058-.143.085-.217.079-.195.169-.391.254-.581.011-.021.016-.037.026-.058.053-.111.106-.217.159-.322.048-.111.1-.217.158-.322.053-.106.106-.206.159-.312.058-.106.122-.217.18-.322.058-.106.111-.211.174-.312.011-.026.026-.053.042-.079.037-.069.079-.138.122-.206.011-.011.016-.016.021-.026.56-.941 1.199-1.833 1.923-2.684 3.915-4.602 9.59-7.239 15.566-7.239.549 0 1.094.026 1.638.079 2.214.211 4.338.856 6.288 1.855.254.909.46 1.844.618 2.795l.296 1.744 2.341 2.51 2.822-2.092c1.11 1.347 2.061 2.869 2.827 4.518l19.18-14.229c1.627-1.205 3.572-1.664 5.479-1.295 2.05.396 3.831 1.686 5.02 3.625 2.489 4.058 1.538 9.564-2.108 12.269l-19.677 14.594c.914.602 2.129.592 3.038-.085l23.571-17.484c.454-.338.93-.613 1.427-.835-.75 3.181-2.52 6.092-5.199 8.074l-.888.66h16.524c-.111 1.944-.808 3.825-2.024 5.31h-18.789c-3.767 0-6.832 3.065-6.832 6.832v.93c0 .137.005.269.016.402v.005c-.005.011-.005.016 0 .026 0 .09.011.174.021.264.016.196.048.386.085.571.005.042.016.079.021.116s.016.079.026.116c.032.143.069.285.111.428.032.106.063.211.1.312.106.312.233.613.386.898.048.095.1.185.153.28.053.09.106.18.164.269.058.09.116.174.18.259.048.074.1.148.158.217.111.148.233.291.354.428.1.106.201.211.306.312.074.074.148.143.227.211.317.28.655.528 1.02.75.09.053.185.106.275.153.375.201.766.37 1.178.497.1.032.206.063.312.09.106.032.217.058.322.079.053.011.111.021.169.032.106.021.211.037.317.053.058.011.116.016.174.021.1.011.206.021.307.026l-5.252 3.9c-3.831-2.045-6.441-6.076-6.441-10.716v-.882l-11.392 8.443c-1.009.75-2.082 1.337-3.191 1.759l-4.475-4.401c-2.283.084-4.56-.851-6.309-2.753-.032-.026-.058-.058-.09-.09l-11.63-11.445c-.047.042-.095.085-.143.132-1.025 1.046-1.015 2.726.032 3.757l15.783 15.529h.005l.285.285 6.452 6.346v.005l1.744 10.34h7.979l.893 5.31h21.252c6.33 0 11.693 4.819 13.114 11.624h2.209c1.12 0 2.214.153 3.255.444l9.109 64.33c.745 5.263-.756 10.504-4.122 14.383z" fill="#6ea9ff"/><path d="m205.435 143.786v.771c0 3.139-2.779 5.691-6.193 5.691h-86.676c-2.325 0-4.354-1.184-5.411-2.933-.497-.819-.782-1.759-.782-2.758v-.771c0-3.139 2.779-5.691 6.193-5.691h86.676c2.832 0 5.231 1.76 5.96 4.153.154.492.233 1.005.233 1.538z" fill="#ffe471"/><path d="m276.428 201.253h-51.855c-3.086 0-5.596 2.515-5.596 5.601v.555c0 3.086 2.51 5.596 5.596 5.596h51.855c3.086 0 5.595-2.51 5.595-5.596v-.555c.001-3.086-2.509-5.601-5.595-5.601z" fill="#ffe471"/><path d="m82.095 207.408v-.555c0-3.086-2.51-5.601-5.596-5.601h-51.849c-3.086 0-5.601 2.515-5.601 5.601v.555c0 3.086 2.515 5.596 5.601 5.596h51.85c3.085 0 5.595-2.51 5.595-5.596z" fill="#ffe471"/><path d="m147.493 152.626h6.599v114.78h-6.599z" fill="#ffe471"/><path d="m142.183 236.1v33.959c0 .676.248 1.289.666 1.76.026-.021.048-.048.069-.074 2.357-2.716 3.403-6.414 2.874-10.155z" fill="#6ea9ff"/><path d="m268.735 31.088c-15.857 0-28.765 12.486-28.765 27.825 0 15.344 12.908 27.83 28.765 27.83 15.862 0 28.765-12.486 28.765-27.83 0-15.339-12.903-27.825-28.765-27.825zm0 50.344c-12.929 0-23.455-10.103-23.455-22.519 0-12.412 10.525-22.514 23.455-22.514 12.935 0 23.455 10.103 23.455 22.514 0 12.417-10.52 22.519-23.455 22.519z" fill="#160f60"/><path d="m292.19 58.913c0 12.417-10.52 22.519-23.455 22.519-12.929 0-23.455-10.103-23.455-22.519 0-12.412 10.525-22.514 23.455-22.514 12.935-.001 23.455 10.102 23.455 22.514z" fill="#fff"/><path d="m31.265 27.284c-15.862 0-28.765 12.48-28.765 27.824s12.903 27.825 28.765 27.825c15.857 0 28.765-12.48 28.765-27.825s-12.908-27.824-28.765-27.824zm0 50.338c-12.935 0-23.455-10.097-23.455-22.514s10.52-22.514 23.455-22.514c12.93 0 23.455 10.097 23.455 22.514s-10.525 22.514-23.455 22.514z" fill="#160f60"/><path d="m54.72 55.108c0 12.417-10.525 22.514-23.455 22.514-12.935 0-23.455-10.097-23.455-22.514s10.52-22.514 23.455-22.514c12.93 0 23.455 10.097 23.455 22.514z" fill="#fff"/><g fill="#160f60"><path d="m95.095 59.489c1.288-1.217 2.891-2.731 3.611-5.287 1.239-4.4-.722-9.767-5.996-16.407-.912-1.149-2.582-1.341-3.731-.428-1.148.912-1.34 2.582-.428 3.73 4.022 5.064 5.765 9.098 5.043 11.665-.306 1.087-1.015 1.797-2.146 2.865-1.409 1.331-3.162 2.987-3.57 5.909-.482 3.456 1.16 7.18 4.882 11.068.522.545 1.22.819 1.918.819.66 0 1.321-.245 1.836-.737 1.059-1.014 1.096-2.695.082-3.754-2.505-2.618-3.701-4.921-3.458-6.662.144-1.027.77-1.66 1.957-2.781z"/><path d="m110.201 59.489c1.288-1.217 2.891-2.731 3.611-5.287 1.239-4.4-.722-9.767-5.996-16.407-.912-1.149-2.583-1.341-3.73-.428-1.148.912-1.34 2.583-.428 3.731 4.022 5.064 5.765 9.098 5.043 11.665-.306 1.087-1.015 1.797-2.146 2.865-1.409 1.331-3.162 2.987-3.57 5.909-.482 3.456 1.16 7.18 4.882 11.068.522.545 1.22.819 1.918.819.66 0 1.321-.245 1.836-.737 1.059-1.014 1.096-2.695.082-3.754-2.505-2.618-3.701-4.921-3.458-6.662.143-1.028.769-1.661 1.956-2.782z"/><path d="m192.462 58.913c1.288-1.217 2.891-2.731 3.611-5.287 1.239-4.4-.722-9.766-5.996-16.407-.912-1.148-2.583-1.34-3.73-.428-1.148.912-1.34 2.583-.428 3.731 4.022 5.065 5.765 9.098 5.043 11.665-.306 1.087-1.015 1.797-2.146 2.865-1.409 1.331-3.162 2.987-3.57 5.91-.482 3.455 1.16 7.179 4.881 11.067.521.545 1.22.819 1.918.819.66 0 1.321-.245 1.836-.737 1.059-1.014 1.096-2.695.082-3.754-2.505-2.618-3.701-4.921-3.458-6.662.143-1.028.769-1.661 1.957-2.782z"/><path d="m207.568 58.913c1.288-1.217 2.891-2.731 3.611-5.287 1.239-4.4-.722-9.766-5.996-16.407-.913-1.148-2.583-1.34-3.73-.428-1.148.912-1.34 2.583-.428 3.731 4.022 5.065 5.765 9.098 5.043 11.665-.306 1.087-1.015 1.797-2.146 2.865-1.409 1.331-3.162 2.987-3.57 5.91-.482 3.456 1.16 7.179 4.881 11.067.521.545 1.22.819 1.918.819.66 0 1.321-.245 1.836-.737 1.059-1.014 1.096-2.695.082-3.754-2.505-2.618-3.701-4.921-3.458-6.662.143-1.028.77-1.661 1.957-2.782z"/><path d="m253.042 125.483-10.837 10.658 1.152.856c1.083.803 2.6.666 3.524-.322l4.481-4.803.016-.016.005-.011c.021-.021.037-.047.053-.074.095-.106.185-.217.259-.338.042-.069.074-.143.111-.211.042-.084.084-.164.122-.254.042-.111.063-.227.09-.344.016-.047.037-.095.042-.148l.005-.026.423-2.505c.037-.232.084-.465.132-.697.021-.122.048-.243.074-.365.011-.048.021-.095.032-.143.011-.042.021-.09.032-.137.005-.021.011-.048.016-.069.021-.09.042-.18.063-.27v-.005c.021-.079.037-.148.058-.222.048-.19.1-.375.153-.56zm-210.993-5.891c-1.046-1.025-2.726-1.014-3.757.032-1.025 1.046-1.015 2.726.032 3.757l2.568 2.526c.011-.042.021-.084.037-.127.069-.264.143-.528.222-.787.011-.032.021-.063.032-.095.074-.232.148-.46.233-.687.016-.048.032-.09.048-.132.074-.206.153-.412.238-.613.011-.026.021-.048.032-.074.026-.074.058-.143.085-.217.079-.195.169-.391.254-.581.011-.021.016-.037.026-.058.053-.111.106-.217.159-.322.048-.111.1-.217.158-.322.053-.106.106-.206.159-.312.058-.106.122-.217.18-.322.058-.106.111-.211.174-.312.011-.026.026-.053.042-.079.037-.069.079-.138.122-.206.011-.011.016-.016.021-.026zm200.156 16.549 1.152.856c1.083.803 2.6.666 3.524-.322l4.481-4.803.016-.016.005-.011c.021-.021.037-.047.053-.074.095-.106.185-.217.259-.338.042-.069.074-.143.111-.211.042-.084.084-.164.122-.254.042-.111.063-.227.09-.344.016-.047.037-.095.042-.148l.005-.026.423-2.505c.037-.232.084-.465.132-.697.021-.122.048-.243.074-.365.011-.048.021-.095.032-.143.011-.042.021-.09.032-.137.005-.021.011-.048.016-.069.021-.09.042-.18.063-.27v-.005c.021-.079.037-.148.058-.222.011-.037.016-.074.026-.111.037-.148.079-.296.122-.444zm-200.156-16.549c-1.046-1.025-2.726-1.014-3.757.032-1.025 1.046-1.015 2.726.032 3.757l2.568 2.526c.011-.042.021-.084.037-.127.069-.264.143-.528.222-.787.011-.032.021-.063.032-.095.074-.232.148-.46.233-.687.016-.048.032-.09.048-.132.074-.206.153-.412.238-.613.011-.026.021-.048.032-.074.026-.074.058-.143.085-.217.079-.195.169-.391.254-.581.011-.021.016-.037.026-.058.053-.111.106-.217.159-.322.048-.111.1-.217.158-.322.053-.106.106-.206.159-.312.058-.106.122-.217.18-.322.058-.106.111-.211.174-.312.011-.026.026-.053.042-.079.037-.069.079-.138.122-.206.011-.011.016-.016.021-.026zm200.156 16.549 1.152.856c1.083.803 2.6.666 3.524-.322l4.481-4.803.016-.016.005-.011c.021-.021.037-.047.053-.074.095-.106.185-.217.259-.338.042-.069.074-.143.111-.211.042-.084.084-.164.122-.254.042-.111.063-.227.09-.344.016-.047.037-.095.042-.148l.005-.026.423-2.505c.037-.232.084-.465.132-.697.021-.122.048-.243.074-.365.011-.048.021-.095.032-.143.011-.042.021-.09.032-.137.005-.021.011-.048.016-.069.021-.09.042-.18.063-.27v-.005c.021-.079.037-.148.058-.222.011-.037.016-.074.026-.111.037-.148.079-.296.122-.444zm-200.156-16.549c-1.046-1.025-2.726-1.014-3.757.032-1.025 1.046-1.015 2.726.032 3.757l2.568 2.526c.011-.042.021-.084.037-.127.069-.264.143-.528.222-.787.011-.032.021-.063.032-.095.074-.232.148-.46.233-.687.016-.048.032-.09.048-.132.074-.206.153-.412.238-.613.011-.026.021-.048.032-.074.026-.074.058-.143.085-.217.079-.195.169-.391.254-.581.011-.021.016-.037.026-.058.053-.111.106-.217.159-.322.048-.111.1-.217.158-.322.053-.106.106-.206.159-.312.058-.106.122-.217.18-.322.058-.106.111-.211.174-.312.011-.026.026-.053.042-.079.037-.069.079-.138.122-.206.011-.011.016-.016.021-.026zm200.156 16.549 1.152.856c1.083.803 2.6.666 3.524-.322l4.481-4.803.016-.016.005-.011c.021-.021.037-.047.053-.074.095-.106.185-.217.259-.338.042-.069.074-.143.111-.211.042-.084.084-.164.122-.254.042-.111.063-.227.09-.344.016-.047.037-.095.042-.148l.005-.026.423-2.505c.037-.232.084-.465.132-.697.021-.122.048-.243.074-.365.011-.048.021-.095.032-.143.011-.042.021-.09.032-.137.005-.021.011-.048.016-.069.021-.09.042-.18.063-.27v-.005c.021-.079.037-.148.058-.222.011-.037.016-.074.026-.111.037-.148.079-.296.122-.444zm-200.156-16.549c-1.046-1.025-2.726-1.014-3.757.032-1.025 1.046-1.015 2.726.032 3.757l2.568 2.526c.011-.042.021-.084.037-.127.069-.264.143-.528.222-.787.011-.032.021-.063.032-.095.074-.232.148-.46.233-.687.016-.048.032-.09.048-.132.074-.206.153-.412.238-.613.011-.026.021-.048.032-.074.026-.074.058-.143.085-.217.079-.195.169-.391.254-.581.011-.021.016-.037.026-.058.053-.111.106-.217.159-.322.048-.111.1-.217.158-.322.053-.106.106-.206.159-.312.058-.106.122-.217.18-.322.058-.106.111-.211.174-.312.011-.026.026-.053.042-.079.037-.069.079-.138.122-.206.011-.011.016-.016.021-.026zm200.156 16.549 1.152.856c1.083.803 2.6.666 3.524-.322l4.481-4.803.016-.016.005-.011c.021-.021.037-.047.053-.074.095-.106.185-.217.259-.338.042-.069.074-.143.111-.211.042-.084.084-.164.122-.254.042-.111.063-.227.09-.344.016-.047.037-.095.042-.148l.005-.026.423-2.505c.037-.232.084-.465.132-.697.021-.122.048-.243.074-.365.011-.048.021-.095.032-.143.011-.042.021-.09.032-.137.005-.021.011-.048.016-.069.021-.09.042-.18.063-.27v-.005c.021-.079.037-.148.058-.222.011-.037.016-.074.026-.111.037-.148.079-.296.122-.444zm-200.156-16.549c-1.046-1.025-2.726-1.014-3.757.032-1.025 1.046-1.015 2.726.032 3.757l2.568 2.526c.011-.042.021-.084.037-.127.069-.264.143-.528.222-.787.011-.032.021-.063.032-.095.074-.232.148-.46.233-.687.016-.048.032-.09.048-.132.074-.206.153-.412.238-.613.011-.026.021-.048.032-.074.026-.074.058-.143.085-.217.079-.195.169-.391.254-.581.011-.021.016-.037.026-.058.053-.111.106-.217.159-.322.048-.111.1-.217.158-.322.053-.106.106-.206.159-.312.058-.106.122-.217.18-.322.058-.106.111-.211.174-.312.011-.026.026-.053.042-.079.037-.069.079-.138.122-.206.011-.011.016-.016.021-.026zm200.156 16.549 1.152.856c1.083.803 2.6.666 3.524-.322l4.481-4.803.016-.016.005-.011c.021-.021.037-.047.053-.074.095-.106.185-.217.259-.338.042-.069.074-.143.111-.211.042-.084.084-.164.122-.254.042-.111.063-.227.09-.344.016-.047.037-.095.042-.148l.005-.026.423-2.505c.037-.232.084-.465.132-.697.021-.122.048-.243.074-.365.011-.048.021-.095.032-.143.011-.042.021-.09.032-.137.005-.021.011-.048.016-.069.021-.09.042-.18.063-.27v-.005c.021-.079.037-.148.058-.222.011-.037.016-.074.026-.111.037-.148.079-.296.122-.444zm-200.156-16.549c-1.046-1.025-2.726-1.014-3.757.032-1.025 1.046-1.015 2.726.032 3.757l2.568 2.526c.011-.042.021-.084.037-.127.069-.264.143-.528.222-.787.011-.032.021-.063.032-.095.074-.232.148-.46.233-.687.016-.048.032-.09.048-.132.074-.206.153-.412.238-.613.011-.026.021-.048.032-.074.026-.074.058-.143.085-.217.079-.195.169-.391.254-.581.011-.021.016-.037.026-.058.053-.111.106-.217.159-.322.048-.111.1-.217.158-.322.053-.106.106-.206.159-.312.058-.106.122-.217.18-.322.058-.106.111-.211.174-.312.011-.026.026-.053.042-.079.037-.069.079-.138.122-.206.011-.011.016-.016.021-.026zm0 0c-1.046-1.025-2.726-1.014-3.757.032-1.025 1.046-1.015 2.726.032 3.757l2.568 2.526c.011-.042.021-.084.037-.127.069-.264.143-.528.222-.787.011-.032.021-.063.032-.095.074-.232.148-.46.233-.687.016-.048.032-.09.048-.132.074-.206.153-.412.238-.613.011-.026.021-.048.032-.074.026-.074.058-.143.085-.217.079-.195.169-.391.254-.581.011-.021.016-.037.026-.058.053-.111.106-.217.159-.322.048-.111.1-.217.158-.322.053-.106.106-.206.159-.312.058-.106.122-.217.18-.322.058-.106.111-.211.174-.312.011-.026.026-.053.042-.079.037-.069.079-.138.122-.206.011-.011.016-.016.021-.026zm0 0c-1.046-1.025-2.726-1.014-3.757.032-1.025 1.046-1.015 2.726.032 3.757l2.568 2.526c.011-.042.021-.084.037-.127.069-.264.143-.528.222-.787.011-.032.021-.063.032-.095.074-.232.148-.46.233-.687.016-.048.032-.09.048-.132.074-.206.153-.412.238-.613.011-.026.021-.048.032-.074.026-.074.058-.143.085-.217.079-.195.169-.391.254-.581.011-.021.016-.037.026-.058.053-.111.106-.217.159-.322.048-.111.1-.217.158-.322.053-.106.106-.206.159-.312.058-.106.122-.217.18-.322.058-.106.111-.211.174-.312.011-.026.026-.053.042-.079.037-.069.079-.138.122-.206.011-.011.016-.016.021-.026zm0 0c-1.046-1.025-2.726-1.014-3.757.032-1.025 1.046-1.015 2.726.032 3.757l2.568 2.526c.011-.042.021-.084.037-.127.069-.264.143-.528.222-.787.011-.032.021-.063.032-.095.074-.232.148-.46.233-.687.016-.048.032-.09.048-.132.074-.206.153-.412.238-.613.011-.026.021-.048.032-.074.026-.074.058-.143.085-.217.079-.195.169-.391.254-.581.011-.021.016-.037.026-.058.053-.111.106-.217.159-.322.048-.111.1-.217.158-.322.053-.106.106-.206.159-.312.058-.106.122-.217.18-.322.058-.106.111-.211.174-.312.011-.026.026-.053.042-.079.037-.069.079-.138.122-.206.011-.011.016-.016.021-.026zm0 0c-1.046-1.025-2.726-1.014-3.757.032-1.025 1.046-1.015 2.726.032 3.757l2.568 2.526c.011-.042.021-.084.037-.127.069-.264.143-.528.222-.787.011-.032.021-.063.032-.095.074-.232.148-.46.233-.687.016-.048.032-.09.048-.132.074-.206.153-.412.238-.613.011-.026.021-.048.032-.074.026-.074.058-.143.085-.217.079-.195.169-.391.254-.581.011-.021.016-.037.026-.058.053-.111.106-.217.159-.322.048-.111.1-.217.158-.322.053-.106.106-.206.159-.312.058-.106.122-.217.18-.322.058-.106.111-.211.174-.312.011-.026.026-.053.042-.079.037-.069.079-.138.122-.206.011-.011.016-.016.021-.026zm0 0c-1.046-1.025-2.726-1.014-3.757.032-1.025 1.046-1.015 2.726.032 3.757l2.568 2.526c.011-.042.021-.084.037-.127.069-.264.143-.528.222-.787.011-.032.021-.063.032-.095.074-.232.148-.46.233-.687.016-.048.032-.09.048-.132.074-.206.153-.412.238-.613.011-.026.021-.048.032-.074.026-.074.058-.143.085-.217.079-.195.169-.391.254-.581.011-.021.016-.037.026-.058.053-.111.106-.217.159-.322.048-.111.1-.217.158-.322.053-.106.106-.206.159-.312.058-.106.122-.217.18-.322.058-.106.111-.211.174-.312.011-.026.026-.053.042-.079.037-.069.079-.138.122-.206.011-.011.016-.016.021-.026zm0 0c-1.046-1.025-2.726-1.014-3.757.032-1.025 1.046-1.015 2.726.032 3.757l2.568 2.526c.011-.042.021-.084.037-.127.069-.264.143-.528.222-.787.011-.032.021-.063.032-.095.074-.232.148-.46.233-.687.016-.048.032-.09.048-.132.074-.206.153-.412.238-.613.011-.026.021-.048.032-.074.026-.074.058-.143.085-.217.079-.195.169-.391.254-.581.011-.021.016-.037.026-.058.053-.111.106-.217.159-.322.048-.111.1-.217.158-.322.053-.106.106-.206.159-.312.058-.106.122-.217.18-.322.058-.106.111-.211.174-.312.011-.026.026-.053.042-.079.037-.069.079-.138.122-.206.011-.011.016-.016.021-.026zm0 0c-1.046-1.025-2.726-1.014-3.757.032-1.025 1.046-1.015 2.726.032 3.757l2.568 2.526c.011-.042.021-.084.037-.127.069-.264.143-.528.222-.787.011-.032.021-.063.032-.095.074-.232.148-.46.233-.687.016-.048.032-.09.048-.132.074-.206.153-.412.238-.613.011-.026.021-.048.032-.074.026-.074.058-.143.085-.217.079-.195.169-.391.254-.581.011-.021.016-.037.026-.058.053-.111.106-.217.159-.322.048-.111.1-.217.158-.322.053-.106.106-.206.159-.312.058-.106.122-.217.18-.322.058-.106.111-.211.174-.312.011-.026.026-.053.042-.079.037-.069.079-.138.122-.206.011-.011.016-.016.021-.026zm0 0c-1.046-1.025-2.726-1.014-3.757.032-1.025 1.046-1.015 2.726.032 3.757l2.568 2.526c.011-.042.021-.084.037-.127.069-.264.143-.528.222-.787.011-.032.021-.063.032-.095.074-.232.148-.46.233-.687.016-.048.032-.09.048-.132.074-.206.153-.412.238-.613.011-.026.021-.048.032-.074.026-.074.058-.143.085-.217.079-.195.169-.391.254-.581.011-.021.016-.037.026-.058.053-.111.106-.217.159-.322.048-.111.1-.217.158-.322.053-.106.106-.206.159-.312.058-.106.122-.217.18-.322.058-.106.111-.211.174-.312.011-.026.026-.053.042-.079.037-.069.079-.138.122-.206.011-.011.016-.016.021-.026zm0 0c-1.046-1.025-2.726-1.014-3.757.032-1.025 1.046-1.015 2.726.032 3.757l2.568 2.526c.011-.042.021-.084.037-.127.069-.264.143-.528.222-.787.011-.032.021-.063.032-.095.074-.232.148-.46.233-.687.016-.048.032-.09.048-.132.074-.206.153-.412.238-.613.011-.026.021-.048.032-.074.026-.074.058-.143.085-.217.079-.195.169-.391.254-.581.011-.021.016-.037.026-.058.053-.111.106-.217.159-.322.048-.111.1-.217.158-.322.053-.106.106-.206.159-.312.058-.106.122-.217.18-.322.058-.106.111-.211.174-.312.011-.026.026-.053.042-.079.037-.069.079-.138.122-.206.011-.011.016-.016.021-.026zm0 0c-1.046-1.025-2.726-1.014-3.757.032-1.025 1.046-1.015 2.726.032 3.757l2.568 2.526c.011-.042.021-.084.037-.127.069-.264.143-.528.222-.787.011-.032.021-.063.032-.095.074-.232.148-.46.233-.687.016-.048.032-.09.048-.132.074-.206.153-.412.238-.613.011-.026.021-.048.032-.074.026-.074.058-.143.085-.217.079-.195.169-.391.254-.581.011-.021.016-.037.026-.058.053-.111.106-.217.159-.322.048-.111.1-.217.158-.322.053-.106.106-.206.159-.312.058-.106.122-.217.18-.322.058-.106.111-.211.174-.312.011-.026.026-.053.042-.079.037-.069.079-.138.122-.206.011-.011.016-.016.021-.026zm0 0c-1.046-1.025-2.726-1.014-3.757.032-1.025 1.046-1.015 2.726.032 3.757l2.568 2.526c.011-.042.021-.084.037-.127.069-.264.143-.528.222-.787.011-.032.021-.063.032-.095.074-.232.148-.46.233-.687.016-.048.032-.09.048-.132.074-.206.153-.412.238-.613.011-.026.021-.048.032-.074.026-.074.058-.143.085-.217.079-.195.169-.391.254-.581.011-.021.016-.037.026-.058.053-.111.106-.217.159-.322.048-.111.1-.217.158-.322.053-.106.106-.206.159-.312.058-.106.122-.217.18-.322.058-.106.111-.211.174-.312.011-.026.026-.053.042-.079.037-.069.079-.138.122-.206.011-.011.016-.016.021-.026zm0 0c-1.046-1.025-2.726-1.014-3.757.032-1.025 1.046-1.015 2.726.032 3.757l2.568 2.526c.011-.042.021-.084.037-.127.069-.264.143-.528.222-.787.011-.032.021-.063.032-.095.074-.232.148-.46.233-.687.016-.048.032-.09.048-.132.074-.206.153-.412.238-.613.011-.026.021-.048.032-.074.026-.074.058-.143.085-.217.079-.195.169-.391.254-.581.011-.021.016-.037.026-.058.053-.111.106-.217.159-.322.048-.111.1-.217.158-.322.053-.106.106-.206.159-.312.058-.106.122-.217.18-.322.058-.106.111-.211.174-.312.011-.026.026-.053.042-.079.037-.069.079-.138.122-.206.011-.011.016-.016.021-.026zm239.462 77.614c-1.516-.809-3.249-1.263-5.083-1.263h-11.561c4.423-3.783 7.529-9.347 8.438-15.851l6.779-48.548 1.036-7.434c0-.005 0-.005 0-.011.608-3.794.449-7.508-.433-10.99-.94-3.741-2.716-7.212-5.279-10.224-4.93-5.791-12.073-9.109-19.613-9.109-11.714 0-21.753 9.109-23.867 21.664l-.296 1.744-2.341 2.51-17.68-13.114c.122-.132.232-.285.328-.449 1.083-1.844 1.659-3.968 1.659-6.14v-6.821c0-6.473-5.004-11.735-11.154-11.735h-12.438c-6.15 0-11.154 5.263-11.154 11.735v6.821c0 5.58 3.815 10.372 8.898 11.487-1.406 5.601.518 11.836 5.162 15.275l.888.66h-86.528l.888-.66c2.679-1.981 4.449-4.893 5.199-8.074.555-2.33.56-4.803-.026-7.165 4.185-1.717 7.149-6.029 7.149-10.948v-6.821c0-6.473-5.004-11.735-11.154-11.735h-12.438c-6.15 0-11.154 5.263-11.154 11.735v6.821c0 2.172.571 4.296 1.654 6.14.201.344.475.618.782.835l-13.569 10.059-2.822 2.092-2.341-2.51-.296-1.744c-.159-.951-.365-1.886-.618-2.795-3.028-11.091-12.422-18.868-23.249-18.868-7.54 0-14.684 3.318-19.608 9.109-4.951 5.812-6.975 13.347-5.717 21.215v.011l7.82 55.982c.909 6.504 4.016 12.068 8.433 15.851h-11.555c-6.018 0-10.911 4.893-10.911 10.911v.555c0 6.013 4.893 10.906 10.911 10.906h23.27v51.744c0 1.469 1.189 2.658 2.652 2.658 1.469 0 2.658-1.189 2.658-2.658v-51.744h23.27c5.96 0 10.821-4.808 10.901-10.747.005-.053.005-.106.005-.159v-.555c0-2.05-.576-3.963-1.559-5.601h9.178c.941 0 1.781.872 1.95 2.024l.624 4.291 6.821 46.936c1.221 8.396 7.799 14.493 15.651 14.493 1.939 0 3.815-.37 5.564-1.078 2.24-.904 4.275-2.367 5.971-4.317 3.366-3.878 4.866-9.12 4.121-14.382l-9.109-64.33-.011-.079c-1.416-10.023-9.226-17.299-18.567-17.299h-30.124l-1.744-10.34v-.005l-1.168-6.943c.423-.116.84-.254 1.258-.417 1.11-.423 2.182-1.009 3.191-1.759l11.392-8.443v.882c0 4.639 2.61 8.671 6.441 10.716 1.701.909 3.64 1.427 5.701 1.427h39.195v117.432c0 .676.248 1.289.666 1.76.486.55 1.199.898 1.992.898h11.91c1.464 0 2.652-1.189 2.652-2.658v-117.436h39.201c6.695 0 12.142-5.442 12.142-12.142v-.502l10.874 8.063c1.39 1.03 2.896 1.749 4.449 2.177l-2.911 17.289h-30.123c-9.342 0-17.146 7.276-18.567 17.299l-9.12 64.41c-.745 5.263.756 10.504 4.121 14.382 3.022 3.477 7.123 5.395 11.54 5.395 1.955 0 3.825-.375 5.559-1.073 5.231-2.103 9.167-7.112 10.087-13.421l.756-5.194 6.695-46.033c.164-1.152 1.004-2.024 1.944-2.024h9.183c-.988 1.638-1.564 3.551-1.564 5.601v.555c0 1.68.386 3.276 1.067 4.697 1.754 3.667 5.506 6.208 9.838 6.208h23.27v51.744c0 .026 0 .047.005.069-.005.026 0 .053.005.074.048 1.057.719 1.944 1.648 2.32.058.021.122.048.185.069.005 0 .016.005.021.005.084.026.169.048.259.069.063.016.132.026.201.032.069.011.132.016.201.016.042.005.084.005.132.005.09 0 .18-.005.269-.016.063-.005.127-.011.185-.026.042-.005.085-.016.127-.021.069-.016.137-.037.206-.058.084-.021.164-.053.243-.09.074-.026.148-.063.217-.106.085-.037.164-.085.238-.137.1-.069.201-.148.291-.238.037-.021.069-.053.1-.09.026-.026.058-.053.085-.085.085-.095.169-.201.238-.306.1-.143.18-.291.248-.449.063-.159.116-.328.153-.502.037-.169.053-.349.053-.534v-51.744h23.275c.211 0 .417-.005.623-.021.143-.005.285-.016.423-.032.523-.048 1.03-.132 1.527-.254.09-.021.174-.042.264-.069.137-.037.269-.074.407-.116.851-.27 1.659-.634 2.404-1.088h.005c.185-.116.37-.232.55-.359s.354-.254.528-.391c.169-.132.338-.275.502-.417.322-.291.634-.602.925-.925.143-.164.285-.333.417-.502.137-.174.264-.349.391-.528.127-.18.243-.365.359-.55v-.005c.454-.745.819-1.554 1.089-2.404.042-.137.079-.269.116-.407.026-.09.047-.174.069-.264.122-.497.206-1.004.254-1.527.016-.137.026-.28.032-.423.016-.206.021-.412.021-.623v-.555c0-4.18-2.362-7.82-5.823-9.648zm-91.441-90.708c-.169-.053-.349-.084-.539-.106-3.012-.264-5.368-3.08-5.368-6.404v-6.821c0-3.545 2.621-6.425 5.844-6.425h12.438c3.223 0 5.844 2.88 5.844 6.425v6.821c0 1.226-.322 2.42-.925 3.45-2.785-1.96-6.108-2.695-9.395-2.061-3.17.62-5.934 2.421-7.899 5.121zm-99.024-12.755c0-3.545 2.621-6.425 5.844-6.425h12.438c3.223 0 5.844 2.88 5.844 6.425v6.821c0 2.816-1.696 5.257-4.047 6.103-1.971-2.79-4.787-4.66-8.021-5.289-3.392-.655-6.821.143-9.659 2.246l-1.242.919c-.058-.18-.132-.354-.232-.523-.602-1.036-.925-2.23-.925-3.456zm-8.998 114.379c-.011.095-.026.185-.042.275-.005.048-.016.095-.026.137-.026.132-.058.259-.095.391-.026.1-.058.195-.09.291-.058.158-.116.317-.185.47-.021.048-.042.1-.069.148-.032.069-.069.137-.106.206-.021.042-.048.079-.069.122-.042.079-.09.153-.137.227s-.095.148-.148.222c-.053.079-.111.159-.169.232-.032.042-.063.079-.1.122-.053.069-.111.137-.174.201-.058.074-.127.143-.201.211-.122.122-.248.238-.38.343-.069.063-.137.116-.211.169-.116.09-.233.169-.354.243-.106.069-.217.132-.328.195 0 0-.005.005-.011.005-.116.063-.232.122-.354.174-.122.058-.248.111-.375.158-.153.053-.301.1-.46.143-.074.021-.148.037-.222.053-.106.026-.217.047-.328.069-.09.016-.185.026-.28.037-.211.026-.423.037-.634.037h-51.85c-3.086 0-5.601-2.51-5.601-5.596v-.555c0-3.086 2.515-5.601 5.601-5.601h51.85c3.086 0 5.596 2.515 5.596 5.601v.555c0 .053 0 .106-.005.159-.006.191-.022.376-.043.556zm-5.76-64.341c-1.384 1.03-2.948 1.564-4.502 1.622-2.283.084-4.56-.851-6.309-2.753-.032-.026-.058-.058-.09-.09l-11.63-11.445-10.647-10.483-1.062-1.041c-1.046-1.025-2.726-1.014-3.757.032-1.025 1.046-1.015 2.726.032 3.757l2.568 2.526 20.728 20.396c2.182 2.346 4.935 3.773 7.809 4.232h.005c.079.016.164.032.243.042l.042.243 3.329 19.788c.005.016.011.032.016.048.011.069.037.137.053.206.026.095.053.19.084.28.026.063.058.122.09.185.042.084.085.174.137.254.037.058.074.111.116.164.058.079.116.153.185.222.042.053.09.095.143.143.069.063.143.127.217.18.058.042.111.085.169.122.079.048.164.095.254.137.058.026.116.058.18.084.1.037.206.069.317.095.053.016.1.032.153.042.164.032.333.053.502.053h.011 32.363c6.33 0 11.693 4.819 13.114 11.624.079.365.143.734.196 1.11l9.12 64.409c.528 3.741-.518 7.44-2.874 10.155-.882 1.02-1.902 1.833-3.006 2.425-1.39.745-2.927 1.141-4.518 1.141-5.189 0-9.558-4.185-10.398-9.949l-6.71-46.17-.734-5.057c-.555-3.804-3.582-6.568-7.202-6.568h-16.665c-.211 0-.412.032-.608.079-.412-.047-.83-.079-1.252-.079h-26.108c-.248 0-.497-.005-.745-.021-8.385-.38-15.313-7.228-16.618-16.57l-7.82-55.977c0-.011-.005-.021-.005-.032v-.026c-1.03-6.335.571-12.369 4.507-16.993 3.915-4.602 9.59-7.239 15.566-7.239 7.323 0 13.822 4.682 16.961 11.704.771 1.712 1.342 3.572 1.67 5.532l.423 2.499v.005l.005.026c.005.047.026.084.037.132.026.122.053.243.1.359.032.084.074.164.116.243.037.074.069.153.111.222.074.116.158.227.248.328.021.026.037.058.063.084l.011.011c.005.005.011.011.011.011l4.481 4.808c.925.988 2.441 1.125 3.524.322l4.391-3.255 19.18-14.229c1.627-1.205 3.572-1.664 5.479-1.295 2.05.396 3.831 1.686 5.02 3.625 2.489 4.058 1.538 9.564-2.108 12.269l-19.677 14.594zm77.804 123.625h-6.599v-114.78h6.599zm51.343-126.922c0 .608-.079 1.199-.232 1.765-.777 2.917-3.44 5.067-6.599 5.067h-95.616c-.148 0-.296-.005-.444-.016 0 0 0 0-.005 0-.1-.005-.206-.016-.307-.026-.058-.005-.116-.011-.174-.021-.106-.016-.211-.032-.317-.053-.058-.011-.116-.021-.169-.032-.106-.021-.217-.047-.322-.079-.106-.026-.211-.058-.312-.09-.412-.127-.803-.296-1.178-.497-.09-.047-.185-.1-.275-.153-.365-.222-.703-.47-1.02-.75-.079-.069-.153-.137-.227-.211-.106-.1-.206-.206-.306-.312-.122-.137-.243-.28-.354-.428-.058-.069-.111-.143-.158-.217-.063-.084-.122-.169-.18-.259s-.111-.18-.164-.269c-.053-.095-.106-.185-.153-.28-.153-.285-.28-.586-.386-.898-.037-.1-.069-.206-.1-.312-.042-.143-.079-.285-.111-.428-.011-.037-.021-.079-.026-.116s-.016-.074-.021-.116c-.037-.185-.069-.375-.085-.571-.011-.09-.021-.174-.021-.264-.005-.01-.005-.016 0-.026v-.005c-.011-.132-.016-.264-.016-.402v-.93c0-3.767 3.065-6.832 6.832-6.832h95.616c3.767 0 6.832 3.065 6.832 6.832v.929zm.613 55.459c-3.619 0-6.647 2.763-7.202 6.568l-6.457 44.416-.988 6.811c-.56 3.836-2.679 6.969-5.559 8.634-1.453.845-3.096 1.316-4.835 1.316-2.858 0-5.532-1.268-7.529-3.567-2.357-2.716-3.403-6.414-2.874-10.155l9.12-64.409c1.046-7.381 6.642-12.734 13.31-12.734h32.369.005c.169 0 .338-.021.502-.053.053-.011.106-.026.153-.042.111-.026.217-.058.317-.095.063-.026.122-.058.18-.084.09-.042.174-.09.254-.137.058-.037.116-.079.169-.122.074-.053.148-.116.222-.18.048-.048.095-.09.137-.143.069-.069.127-.143.19-.222.037-.053.074-.106.111-.164.053-.079.095-.169.143-.259.026-.058.058-.116.085-.18.032-.095.058-.19.085-.285.021-.069.042-.132.053-.201.005-.016.011-.032.016-.048l3.371-20.031c.576-.085 1.147-.201 1.712-.359h.005c2.336-.66 4.534-1.971 6.346-3.915l23.291-22.921c1.046-1.03 1.057-2.711.032-3.757-1.03-1.046-2.711-1.057-3.757-.032l-5.976 5.886-.005.005-10.837 10.658-6.52 6.42c-.026.032-.058.058-.084.09-2.954 3.202-7.403 3.667-10.816 1.131l-14.71-10.911-13.997-10.383c-3.651-2.705-4.602-8.211-2.114-12.269 1.189-1.939 2.969-3.228 5.02-3.625 1.907-.37 3.857.09 5.479 1.295l23.571 17.484c1.083.803 2.6.666 3.524-.322l4.481-4.803c.005-.005.011-.011.016-.016l.005-.011c.021-.021.037-.047.053-.074.095-.106.185-.217.259-.338.042-.069.074-.143.111-.211.042-.084.084-.164.122-.254.042-.111.063-.227.09-.344.016-.047.037-.095.042-.148l.005-.026.423-2.505c1.68-9.986 9.516-17.236 18.631-17.236 5.981 0 11.651 2.637 15.566 7.239 1.21 1.427 2.203 2.985 2.964 4.644 1.707 3.725 2.256 7.968 1.543 12.348v.032c0 .005-.005.016-.005.027l-.338 2.404-.708 5.067v.005l-1.189 8.528-5.585 39.972c-1.342 9.617-8.644 16.591-17.363 16.591h-26.107c-.423 0-.84.032-1.247.079-.201-.047-.402-.079-.613-.079zm75.976 11.465c0 3.086-2.51 5.596-5.595 5.596h-51.855c-.18 0-.365-.011-.539-.026-.085-.005-.174-.016-.259-.032-.053-.005-.106-.016-.158-.026-.333-.053-.655-.143-.967-.254-.116-.042-.232-.09-.344-.143-.063-.026-.132-.058-.195-.095-.063-.026-.132-.063-.196-.095-.079-.048-.164-.095-.243-.143-.153-.095-.301-.196-.444-.301-.085-.058-.164-.122-.238-.19-.058-.048-.122-.095-.174-.153-.069-.058-.132-.122-.196-.185-.069-.058-.132-.127-.185-.195-.127-.132-.238-.269-.344-.412-.063-.079-.122-.164-.174-.248-.148-.217-.275-.439-.386-.671-.063-.132-.122-.264-.174-.396-.026-.074-.058-.148-.079-.222-.026-.074-.053-.148-.069-.222-.026-.074-.048-.148-.063-.227-.021-.074-.037-.153-.053-.232-.021-.09-.042-.18-.053-.275-.011-.09-.026-.18-.037-.275 0 0 0 0 0-.005-.016-.185-.026-.38-.026-.571v-.555c0-3.086 2.51-5.601 5.596-5.601h51.855c.306 0 .608.026.898.074.132.021.264.048.391.079.063.01.127.026.19.047.116.032.232.069.343.106.116.037.227.079.338.127.312.132.613.296.898.481.058.037.111.079.169.116.111.079.222.164.328.254.069.053.137.111.201.174.095.085.185.174.269.264.074.074.148.153.211.232.074.079.138.164.201.243.079.106.159.217.232.328.074.111.143.222.206.338.042.069.079.143.116.217.016.032.032.063.047.095.053.106.1.211.148.322 0 .005 0 .005.005.011.053.143.106.285.148.428.037.111.069.227.095.349.037.153.069.306.095.465.021.137.037.28.047.423.005.069.011.137.011.211.005.069.005.143.005.217v.553zm-239.975-87.816c-1.046-1.025-2.726-1.014-3.757.032-1.025 1.046-1.015 2.726.032 3.757l2.568 2.526c.011-.042.021-.084.037-.127.069-.264.143-.528.222-.787.011-.032.021-.063.032-.095.074-.232.148-.46.233-.687.016-.048.032-.09.048-.132.074-.206.153-.412.238-.613.011-.026.021-.048.032-.074.026-.074.058-.143.085-.217.079-.195.169-.391.254-.581.011-.021.016-.037.026-.058.053-.111.106-.217.159-.322.048-.111.1-.217.158-.322.053-.106.106-.206.159-.312.058-.106.122-.217.18-.322.058-.106.111-.211.174-.312.011-.026.026-.053.042-.079.037-.069.079-.138.122-.206.011-.011.016-.016.021-.026zm0 0c-1.046-1.025-2.726-1.014-3.757.032-1.025 1.046-1.015 2.726.032 3.757l2.568 2.526c.011-.042.021-.084.037-.127.069-.264.143-.528.222-.787.011-.032.021-.063.032-.095.074-.232.148-.46.233-.687.016-.048.032-.09.048-.132.074-.206.153-.412.238-.613.011-.026.021-.048.032-.074.026-.074.058-.143.085-.217.079-.195.169-.391.254-.581.011-.021.016-.037.026-.058.053-.111.106-.217.159-.322.048-.111.1-.217.158-.322.053-.106.106-.206.159-.312.058-.106.122-.217.18-.322.058-.106.111-.211.174-.312.011-.026.026-.053.042-.079.037-.069.079-.138.122-.206.011-.011.016-.016.021-.026zm0 0c-1.046-1.025-2.726-1.014-3.757.032-1.025 1.046-1.015 2.726.032 3.757l2.568 2.526c.011-.042.021-.084.037-.127.069-.264.143-.528.222-.787.011-.032.021-.063.032-.095.074-.232.148-.46.233-.687.016-.048.032-.09.048-.132.074-.206.153-.412.238-.613.011-.026.021-.048.032-.074.026-.074.058-.143.085-.217.079-.195.169-.391.254-.581.011-.021.016-.037.026-.058.053-.111.106-.217.159-.322.048-.111.1-.217.158-.322.053-.106.106-.206.159-.312.058-.106.122-.217.18-.322.058-.106.111-.211.174-.312.011-.026.026-.053.042-.079.037-.069.079-.138.122-.206.011-.011.016-.016.021-.026zm0 0c-1.046-1.025-2.726-1.014-3.757.032-1.025 1.046-1.015 2.726.032 3.757l2.568 2.526c.011-.042.021-.084.037-.127.069-.264.143-.528.222-.787.011-.032.021-.063.032-.095.074-.232.148-.46.233-.687.016-.048.032-.09.048-.132.074-.206.153-.412.238-.613.011-.026.021-.048.032-.074.026-.074.058-.143.085-.217.079-.195.169-.391.254-.581.011-.021.016-.037.026-.058.053-.111.106-.217.159-.322.048-.111.1-.217.158-.322.053-.106.106-.206.159-.312.058-.106.122-.217.18-.322.058-.106.111-.211.174-.312.011-.026.026-.053.042-.079.037-.069.079-.138.122-.206.011-.011.016-.016.021-.026zm0 0c-1.046-1.025-2.726-1.014-3.757.032-1.025 1.046-1.015 2.726.032 3.757l2.568 2.526c.011-.042.021-.084.037-.127.069-.264.143-.528.222-.787.011-.032.021-.063.032-.095.074-.232.148-.46.233-.687.016-.048.032-.09.048-.132.074-.206.153-.412.238-.613.011-.026.021-.048.032-.074.026-.074.058-.143.085-.217.079-.195.169-.391.254-.581.011-.021.016-.037.026-.058.053-.111.106-.217.159-.322.048-.111.1-.217.158-.322.053-.106.106-.206.159-.312.058-.106.122-.217.18-.322.058-.106.111-.211.174-.312.011-.026.026-.053.042-.079.037-.069.079-.138.122-.206.011-.011.016-.016.021-.026zm0 0c-1.046-1.025-2.726-1.014-3.757.032-1.025 1.046-1.015 2.726.032 3.757l2.568 2.526c.011-.042.021-.084.037-.127.069-.264.143-.528.222-.787.011-.032.021-.063.032-.095.074-.232.148-.46.233-.687.016-.048.032-.09.048-.132.074-.206.153-.412.238-.613.011-.026.021-.048.032-.074.026-.074.058-.143.085-.217.079-.195.169-.391.254-.581.011-.021.016-.037.026-.058.053-.111.106-.217.159-.322.048-.111.1-.217.158-.322.053-.106.106-.206.159-.312.058-.106.122-.217.18-.322.058-.106.111-.211.174-.312.011-.026.026-.053.042-.079.037-.069.079-.138.122-.206.011-.011.016-.016.021-.026zm0 0c-1.046-1.025-2.726-1.014-3.757.032-1.025 1.046-1.015 2.726.032 3.757l2.568 2.526c.011-.042.021-.084.037-.127.069-.264.143-.528.222-.787.011-.032.021-.063.032-.095.074-.232.148-.46.233-.687.016-.048.032-.09.048-.132.074-.206.153-.412.238-.613.011-.026.021-.048.032-.074.026-.074.058-.143.085-.217.079-.195.169-.391.254-.581.011-.021.016-.037.026-.058.053-.111.106-.217.159-.322.048-.111.1-.217.158-.322.053-.106.106-.206.159-.312.058-.106.122-.217.18-.322.058-.106.111-.211.174-.312.011-.026.026-.053.042-.079.037-.069.079-.138.122-.206.011-.011.016-.016.021-.026zm0 0c-1.046-1.025-2.726-1.014-3.757.032-1.025 1.046-1.015 2.726.032 3.757l2.568 2.526c.011-.042.021-.084.037-.127.069-.264.143-.528.222-.787.011-.032.021-.063.032-.095.074-.232.148-.46.233-.687.016-.048.032-.09.048-.132.074-.206.153-.412.238-.613.011-.026.021-.048.032-.074.026-.074.058-.143.085-.217.079-.195.169-.391.254-.581.011-.021.016-.037.026-.058.053-.111.106-.217.159-.322.048-.111.1-.217.158-.322.053-.106.106-.206.159-.312.058-.106.122-.217.18-.322.058-.106.111-.211.174-.312.011-.026.026-.053.042-.079.037-.069.079-.138.122-.206.011-.011.016-.016.021-.026zm0 0c-1.046-1.025-2.726-1.014-3.757.032-1.025 1.046-1.015 2.726.032 3.757l2.568 2.526c.011-.042.021-.084.037-.127.069-.264.143-.528.222-.787.011-.032.021-.063.032-.095.074-.232.148-.46.233-.687.016-.048.032-.09.048-.132.074-.206.153-.412.238-.613.011-.026.021-.048.032-.074.026-.074.058-.143.085-.217.079-.195.169-.391.254-.581.011-.021.016-.037.026-.058.053-.111.106-.217.159-.322.048-.111.1-.217.158-.322.053-.106.106-.206.159-.312.058-.106.122-.217.18-.322.058-.106.111-.211.174-.312.011-.026.026-.053.042-.079.037-.069.079-.138.122-.206.011-.011.016-.016.021-.026zm0 0c-1.046-1.025-2.726-1.014-3.757.032-1.025 1.046-1.015 2.726.032 3.757l2.568 2.526c.011-.042.021-.084.037-.127.069-.264.143-.528.222-.787.011-.032.021-.063.032-.095.074-.232.148-.46.233-.687.016-.048.032-.09.048-.132.074-.206.153-.412.238-.613.011-.026.021-.048.032-.074.026-.074.058-.143.085-.217.079-.195.169-.391.254-.581.011-.021.016-.037.026-.058.053-.111.106-.217.159-.322.048-.111.1-.217.158-.322.053-.106.106-.206.159-.312.058-.106.122-.217.18-.322.058-.106.111-.211.174-.312.011-.026.026-.053.042-.079.037-.069.079-.138.122-.206.011-.011.016-.016.021-.026zm0 0c-1.046-1.025-2.726-1.014-3.757.032-1.025 1.046-1.015 2.726.032 3.757l2.568 2.526c.011-.042.021-.084.037-.127.069-.264.143-.528.222-.787.011-.032.021-.063.032-.095.074-.232.148-.46.233-.687.016-.048.032-.09.048-.132.074-.206.153-.412.238-.613.011-.026.021-.048.032-.074.026-.074.058-.143.085-.217.079-.195.169-.391.254-.581.011-.021.016-.037.026-.058.053-.111.106-.217.159-.322.048-.111.1-.217.158-.322.053-.106.106-.206.159-.312.058-.106.122-.217.18-.322.058-.106.111-.211.174-.312.011-.026.026-.053.042-.079.037-.069.079-.138.122-.206.011-.011.016-.016.021-.026zm0 0c-1.046-1.025-2.726-1.014-3.757.032-1.025 1.046-1.015 2.726.032 3.757l2.568 2.526c.011-.042.021-.084.037-.127.069-.264.143-.528.222-.787.011-.032.021-.063.032-.095.074-.232.148-.46.233-.687.016-.048.032-.09.048-.132.074-.206.153-.412.238-.613.011-.026.021-.048.032-.074.026-.074.058-.143.085-.217.079-.195.169-.391.254-.581.011-.021.016-.037.026-.058.053-.111.106-.217.159-.322.048-.111.1-.217.158-.322.053-.106.106-.206.159-.312.058-.106.122-.217.18-.322.058-.106.111-.211.174-.312.011-.026.026-.053.042-.079.037-.069.079-.138.122-.206.011-.011.016-.016.021-.026zm200.156 16.549 1.152.856c1.083.803 2.6.666 3.524-.322l4.481-4.803.016-.016.005-.011c.021-.021.037-.047.053-.074.095-.106.185-.217.259-.338.042-.069.074-.143.111-.211.042-.084.084-.164.122-.254.042-.111.063-.227.09-.344.016-.047.037-.095.042-.148l.005-.026.423-2.505c.037-.232.084-.465.132-.697.021-.122.048-.243.074-.365.011-.048.021-.095.032-.143.011-.042.021-.09.032-.137.005-.021.011-.048.016-.069.021-.09.042-.18.063-.27v-.005c.021-.079.037-.148.058-.222.011-.037.016-.074.026-.111.037-.148.079-.296.122-.444zm-200.156-16.549c-1.046-1.025-2.726-1.014-3.757.032-1.025 1.046-1.015 2.726.032 3.757l2.568 2.526c.011-.042.021-.084.037-.127.069-.264.143-.528.222-.787.011-.032.021-.063.032-.095.074-.232.148-.46.233-.687.016-.048.032-.09.048-.132.074-.206.153-.412.238-.613.011-.026.021-.048.032-.074.026-.074.058-.143.085-.217.079-.195.169-.391.254-.581.011-.021.016-.037.026-.058.053-.111.106-.217.159-.322.048-.111.1-.217.158-.322.053-.106.106-.206.159-.312.058-.106.122-.217.18-.322.058-.106.111-.211.174-.312.011-.026.026-.053.042-.079.037-.069.079-.138.122-.206.011-.011.016-.016.021-.026zm200.156 16.549 1.152.856c1.083.803 2.6.666 3.524-.322l4.481-4.803.016-.016.005-.011c.021-.021.037-.047.053-.074.095-.106.185-.217.259-.338.042-.069.074-.143.111-.211.042-.084.084-.164.122-.254.042-.111.063-.227.09-.344.016-.047.037-.095.042-.148l.005-.026.423-2.505c.037-.232.084-.465.132-.697.021-.122.048-.243.074-.365.011-.048.021-.095.032-.143.011-.042.021-.09.032-.137.005-.021.011-.048.016-.069.021-.09.042-.18.063-.27v-.005c.021-.079.037-.148.058-.222.011-.037.016-.074.026-.111.037-.148.079-.296.122-.444zm-200.156-16.549c-1.046-1.025-2.726-1.014-3.757.032-1.025 1.046-1.015 2.726.032 3.757l2.568 2.526c.011-.042.021-.084.037-.127.069-.264.143-.528.222-.787.011-.032.021-.063.032-.095.074-.232.148-.46.233-.687.016-.048.032-.09.048-.132.074-.206.153-.412.238-.613.011-.026.021-.048.032-.074.026-.074.058-.143.085-.217.079-.195.169-.391.254-.581.011-.021.016-.037.026-.058.053-.111.106-.217.159-.322.048-.111.1-.217.158-.322.053-.106.106-.206.159-.312.058-.106.122-.217.18-.322.058-.106.111-.211.174-.312.011-.026.026-.053.042-.079.037-.069.079-.138.122-.206.011-.011.016-.016.021-.026zm200.156 16.549 1.152.856c1.083.803 2.6.666 3.524-.322l4.481-4.803.016-.016.005-.011c.021-.021.037-.047.053-.074.095-.106.185-.217.259-.338.042-.069.074-.143.111-.211.042-.084.084-.164.122-.254.042-.111.063-.227.09-.344.016-.047.037-.095.042-.148l.005-.026.423-2.505c.037-.232.084-.465.132-.697.021-.122.048-.243.074-.365.011-.048.021-.095.032-.143.011-.042.021-.09.032-.137.005-.021.011-.048.016-.069.021-.09.042-.18.063-.27v-.005c.021-.079.037-.148.058-.222.011-.037.016-.074.026-.111.037-.148.079-.296.122-.444zm-200.156-16.549c-1.046-1.025-2.726-1.014-3.757.032-1.025 1.046-1.015 2.726.032 3.757l2.568 2.526c.011-.042.021-.084.037-.127.069-.264.143-.528.222-.787.011-.032.021-.063.032-.095.074-.232.148-.46.233-.687.016-.048.032-.09.048-.132.074-.206.153-.412.238-.613.011-.026.021-.048.032-.074.026-.074.058-.143.085-.217.079-.195.169-.391.254-.581.011-.021.016-.037.026-.058.053-.111.106-.217.159-.322.048-.111.1-.217.158-.322.053-.106.106-.206.159-.312.058-.106.122-.217.18-.322.058-.106.111-.211.174-.312.011-.026.026-.053.042-.079.037-.069.079-.138.122-.206.011-.011.016-.016.021-.026zm200.156 16.549 1.152.856c1.083.803 2.6.666 3.524-.322l4.481-4.803.016-.016.005-.011c.021-.021.037-.047.053-.074.095-.106.185-.217.259-.338.042-.069.074-.143.111-.211.042-.084.084-.164.122-.254.042-.111.063-.227.09-.344.016-.047.037-.095.042-.148l.005-.026.423-2.505c.037-.232.084-.465.132-.697.021-.122.048-.243.074-.365.011-.048.021-.095.032-.143.011-.042.021-.09.032-.137.005-.021.011-.048.016-.069.021-.09.042-.18.063-.27v-.005c.021-.079.037-.148.058-.222.011-.037.016-.074.026-.111.037-.148.079-.296.122-.444zm-200.156-16.549c-1.046-1.025-2.726-1.014-3.757.032-1.025 1.046-1.015 2.726.032 3.757l2.568 2.526c.011-.042.021-.084.037-.127.069-.264.143-.528.222-.787.011-.032.021-.063.032-.095.074-.232.148-.46.233-.687.016-.048.032-.09.048-.132.074-.206.153-.412.238-.613.011-.026.021-.048.032-.074.026-.074.058-.143.085-.217.079-.195.169-.391.254-.581.011-.021.016-.037.026-.058.053-.111.106-.217.159-.322.048-.111.1-.217.158-.322.053-.106.106-.206.159-.312.058-.106.122-.217.18-.322.058-.106.111-.211.174-.312.011-.026.026-.053.042-.079.037-.069.079-.138.122-.206.011-.011.016-.016.021-.026zm200.156 16.549 1.152.856c1.083.803 2.6.666 3.524-.322l4.481-4.803.016-.016.005-.011c.021-.021.037-.047.053-.074.095-.106.185-.217.259-.338.042-.069.074-.143.111-.211.042-.084.084-.164.122-.254.042-.111.063-.227.09-.344.016-.047.037-.095.042-.148l.005-.026.423-2.505c.037-.232.084-.465.132-.697.021-.122.048-.243.074-.365.011-.048.021-.095.032-.143.011-.042.021-.09.032-.137.005-.021.011-.048.016-.069.021-.09.042-.18.063-.27v-.005c.021-.079.037-.148.058-.222.011-.037.016-.074.026-.111.037-.148.079-.296.122-.444zm-200.156-16.549c-1.046-1.025-2.726-1.014-3.757.032-1.025 1.046-1.015 2.726.032 3.757l2.568 2.526c.011-.042.021-.084.037-.127.069-.264.143-.528.222-.787.011-.032.021-.063.032-.095.074-.232.148-.46.233-.687.016-.048.032-.09.048-.132.074-.206.153-.412.238-.613.011-.026.021-.048.032-.074.026-.074.058-.143.085-.217.079-.195.169-.391.254-.581.011-.021.016-.037.026-.058.053-.111.106-.217.159-.322.048-.111.1-.217.158-.322.053-.106.106-.206.159-.312.058-.106.122-.217.18-.322.058-.106.111-.211.174-.312.011-.026.026-.053.042-.079.037-.069.079-.138.122-.206.011-.011.016-.016.021-.026zm200.156 16.549 1.152.856c1.083.803 2.6.666 3.524-.322l4.481-4.803.016-.016.005-.011c.021-.021.037-.047.053-.074.095-.106.185-.217.259-.338.042-.069.074-.143.111-.211.042-.084.084-.164.122-.254.042-.111.063-.227.09-.344.016-.047.037-.095.042-.148l.005-.026.423-2.505c.037-.232.084-.465.132-.697.021-.122.048-.243.074-.365.011-.048.021-.095.032-.143.011-.042.021-.09.032-.137.005-.021.011-.048.016-.069.021-.09.042-.18.063-.27v-.005c.021-.079.037-.148.058-.222.011-.037.016-.074.026-.111.037-.148.079-.296.122-.444z"/></g><path d="m205.435 139.554v.93c0 .608-.079 1.199-.232 1.765-.729-2.393-3.128-4.153-5.96-4.153h-86.676c-3.413 0-6.193 2.552-6.193 5.691v.771c0 .999.285 1.939.782 2.758h-4.169c-.148 0-.296-.005-.444-.016 0 0 0 0-.005 0-.1-.005-.206-.016-.307-.026-.058-.005-.116-.011-.174-.021-.106-.016-.211-.032-.317-.053-.058-.011-.116-.021-.169-.032-.106-.021-.217-.047-.322-.079-.106-.026-.211-.058-.312-.09-.412-.127-.803-.296-1.178-.497-.09-.047-.185-.1-.275-.153-.365-.222-.703-.47-1.02-.75-.079-.069-.153-.137-.227-.211-.106-.1-.206-.206-.306-.312-.122-.137-.243-.28-.354-.428-.058-.069-.111-.143-.158-.217-.063-.084-.122-.169-.18-.259s-.111-.18-.164-.269c-.053-.095-.106-.185-.153-.28-.153-.285-.28-.586-.386-.898-.037-.1-.069-.206-.1-.312-.042-.143-.079-.285-.111-.428-.011-.037-.021-.079-.026-.116s-.016-.074-.021-.116c-.037-.185-.069-.375-.085-.571-.011-.09-.021-.174-.021-.264-.005-.01-.005-.016 0-.026v-.005c-.011-.132-.016-.264-.016-.402v-.93c0-3.767 3.065-6.832 6.832-6.832h95.616c3.766-.001 6.831 3.063 6.831 6.831z" fill="#fff"/><path d="m208.288 93.167v6.821c0 1.226-.322 2.42-.925 3.45-2.785-1.96-6.108-2.695-9.395-2.061-3.17.618-5.934 2.42-7.899 5.12-.169-.053-.349-.084-.539-.106-3.012-.264-5.368-3.08-5.368-6.404v-6.821c0-3.545 2.621-6.425 5.844-6.425h12.438c3.223.001 5.844 2.881 5.844 6.426z" fill="#fff"/><path d="m115.172 93.743v6.821c0 2.816-1.696 5.257-4.047 6.103-1.971-2.79-4.787-4.66-8.021-5.289-3.392-.655-6.821.143-9.659 2.246l-1.242.919c-.058-.18-.132-.354-.232-.523-.602-1.036-.925-2.23-.925-3.456v-6.821c0-3.545 2.621-6.425 5.844-6.425h12.438c3.223 0 5.844 2.88 5.844 6.425z" fill="#fff"/><path d="m38.293 119.623c-1.025 1.046-1.015 2.726.032 3.757l2.568 2.526c-.74 2.848-.872 5.907-.365 9.035v.026c0 .011.005.021.005.032l7.82 55.977c.243 1.744.682 3.403 1.295 4.946-8.385-.38-15.313-7.228-16.618-16.57l-7.82-55.977c0-.011-.005-.021-.005-.032v-.026c-1.03-6.335.571-12.369 4.507-16.993 3.915-4.602 9.59-7.239 15.566-7.239 7.323 0 13.822 4.682 16.961 11.704-.544-.053-1.088-.079-1.638-.079-5.976 0-11.651 2.637-15.566 7.239-.724.851-1.363 1.744-1.923 2.684l-1.062-1.041c-1.047-1.025-2.727-1.015-3.757.031z" fill="#fff"/></g></svg>