<svg id="&#x428;&#x430;&#x440;_1" enable-background="new 0 0 300 300" viewBox="0 0 300 300" xmlns="http://www.w3.org/2000/svg"><g><path d="m71.774 252.104v38.336l25.912-20.108.503-37.755-24.697 16.331c-1.076.712-1.718 1.908-1.718 3.196zm8.435-.041c0-1.279 1.039-2.318 2.318-2.318 1.284 0 2.322 1.039 2.322 2.318v19.909c0 1.279-1.039 2.318-2.322 2.318-1.279 0-2.318-1.039-2.318-2.318z" fill="#ff8b78"/><path d="m245.273 213.625-19.715-64.82c-.037-.111-.051-.217-.065-.328-.032-.069-.069-.134-.097-.208-.199-.563-.416-1.117-.642-1.662-.106-.259-.217-.513-.328-.766-.115-.263-.235-.526-.36-.79-.125-.263-.249-.522-.379-.776-.102-.203-.203-.402-.309-.6-.18-.351-.369-.697-.568-1.039-.083-.152-.171-.3-.259-.448-.051-.092-.106-.185-.162-.272-.125-.212-.254-.425-.388-.633-.152-.245-.305-.48-.462-.716-.157-.24-.319-.471-.48-.706-.097-.143-.199-.282-.305-.425-.032-.051-.074-.106-.111-.157-.023-.032-.046-.065-.069-.097-.106-.148-.217-.296-.332-.443-.042-.065-.088-.125-.138-.18-.06-.083-.125-.166-.194-.249-.129-.175-.268-.351-.411-.522-.088-.111-.176-.217-.263-.323-.388-.466-.79-.928-1.201-1.371-.152-.166-.305-.328-.462-.489-.143-.152-.286-.305-.439-.452-.166-.171-.332-.332-.503-.503-.36-.346-.725-.688-1.099-1.016-.005-.005-.005-.005-.009-.009-.452-.434-.942-.84-1.436-1.233-.757-.6-1.533-1.168-2.322-1.708-.148-.102-.296-.203-.448-.3-.152-.102-.3-.199-.452-.291-.282-.18-.568-.356-.854-.526-.231-.143-.466-.277-.702-.411-.485-.277-.979-.54-1.477-.794 0-.005 0-.005-.005-.005-.051-.023-.102-.051-.152-.074-.212-.111-.429-.217-.646-.319-.032-.018-.065-.032-.097-.046-.222-.106-.448-.208-.67-.309-.06-.028-.115-.051-.175-.078-.388-.171-.78-.337-1.177-.499-.208-.083-.415-.162-.623-.24-.152-.06-.3-.115-.448-.166-.171-.065-.337-.125-.503-.18-.222-.078-.443-.152-.665-.222-.314-.106-.628-.203-.942-.296-.217-.065-.434-.125-.651-.185s-.439-.12-.656-.175c-.776-.199-1.561-.369-2.35-.517h-.005l-.069-.014c-.282-.051-.563-.097-.84-.138-.185-.032-.369-.06-.554-.083-.291-.042-.582-.078-.877-.115-.115-.014-.231-.028-.346-.037-.305-.032-.614-.065-.928-.088-.259-.023-.522-.041-.785-.055-.046-.005-.092-.005-.134-.009-.097-.005-.194-.009-.291-.014-.263-.009-.526-.023-.794-.028v-.078h-10.619v10.619h4.585c-.152 3.394-.277 6.801-.36 10.213-.018.799-.037 1.598-.051 2.396-.014.725-.023 1.45-.032 2.175-.009.776-.018 1.547-.023 2.322-.005.388-.009.771-.009 1.154-.014 2.438.005 4.871.046 7.309.005.457.014.914.028 1.371.051 2.442.134 4.88.249 7.318.046.951.097 1.898.152 2.849.055.946.115 1.893.18 2.84s.138 1.893.217 2.835l3.661 1.039.037.009.42.12c.028.642.065 1.284.102 1.93.055.946.115 1.893.18 2.84.005.046.005.092.009.139l11.21 3.177-7.628-25.076-1.062-3.486c-.069-.226-.102-.452-.102-.679 0-.115.009-.231.023-.342.009-.051.018-.097.032-.148.005-.037.014-.074.028-.111.023-.102.055-.199.097-.291.023-.055.051-.111.079-.166s.055-.106.088-.157c.041-.069.092-.139.143-.203.055-.074.115-.143.18-.208.037-.037.078-.079.12-.111.042-.042.083-.074.129-.106.046-.037.092-.069.138-.097.046-.032.092-.06.143-.088h.005c.046-.032.097-.055.148-.074.092-.046.189-.083.291-.115.148-.046.3-.074.448-.092l8.269 27.169 2.133.605 1.607 5.277c.619 3.652-2.784 6.7-6.344 5.684l-25.782-7.332-4.686-1.33-1.08-.305c-3.657-1.039-7.517-.577-10.864 1.288-3.352 1.87-5.767 4.913-6.806 8.574-.536 1.898-.669 3.846-.416 5.753v.005c.235 1.768.803 3.495 1.704 5.107.235.42.485.822.757 1.21.042.06.083.115.129.175v.005c-.356-.175-.702-.356-1.043-.554-1.062-2.027-1.736-4.179-2.013-6.386-.129-.12-.249-.245-.365-.369-.157-.166-.309-.337-.452-.512-.009-.005-.018-.014-.023-.023-.102-.12-.203-.245-.3-.369-.032-.037-.06-.069-.083-.106-.037-.042-.069-.088-.102-.134-.023-.018-.037-.042-.051-.065-.106-.143-.212-.286-.314-.434-.272-.388-.522-.79-.757-1.21-1.865-3.347-2.322-7.207-1.288-10.864 1.039-3.661 3.454-6.704 6.806-8.574 3.347-1.865 7.207-2.327 10.864-1.288l1.08.305c-.046-1.616-.079-3.227-.092-4.843-1.307-.351-2.632-.554-3.962-.619-.554-15.491.148-31.05 1.228-47.811h-4.649c-1.085 16.843-1.782 32.5-1.21 48.157-1.907.388-3.768 1.071-5.522 2.05-4.432 2.47-7.628 6.506-9.003 11.354-1.376 4.853-.776 9.964 1.699 14.396 2.045 3.675 5.171 6.496 8.943 8.14.374.166.753.314 1.14.452.416.152.845.291 1.274.411l1.408.402c.069.323.143.651.217.979.083.36.171.725.268 1.094.037.152.078.305.12.462s.083.314.129.466c.06.222.125.448.189.669.065.226.134.452.203.679.268.863.563 1.741.891 2.632v.005c4.88 13.33 15.906 28.899 26.576 36.429 2.664 1.884 5.305 3.269 7.826 3.989-2.452-.72-5.014-2.105-7.605-3.989-.235-.166-.466-.346-.697-.522-7.147-7.849-13.556-18.109-17.074-27.384-.328-.586-.642-1.173-.951-1.759-.235-.452-.466-.9-.697-1.353-.157-.319-.314-.642-.466-.96-.143-.296-.282-.586-.42-.882-.125-.263-.245-.531-.365-.799-.079-.175-.162-.351-.24-.531-.092-.217-.189-.434-.282-.651-.171-.397-.337-.799-.499-1.196-1.699-.503-3.287-1.228-4.742-2.161-.092-.291-.189-.582-.272-.868-.162-.531-.309-1.057-.448-1.574h.005c.203.115.411.217.623.314.069.032.143.065.212.097.157.074.314.143.476.203.088.037.18.074.268.106.125.051.249.097.379.139.092.037.189.069.282.097.185.065.379.12.568.175l1.519.429c-.328-.974-.623-1.939-.877-2.886l18.958 5.379c.069.222.143.443.222.66.078.217.162.434.245.646.092.222.185.443.286.665.042.102.088.199.139.3.106.231.222.457.342.683.005.014.014.023.018.037l6.963 1.976c-.868-1.057-1.708-2.156-2.401-3.32l6.524 1.852.005 2.636 4.64 1.316-.005-2.636 15.154 4.299c-.032.739-.06 1.634-.041 2.627l4.719 1.339c-.018-.328-.037-.665-.046-1.016-.005-.143-.009-.291-.009-.439-.005-.111-.005-.226-.005-.342-.005-.282-.005-.568 0-.863l3.481.988c1.704.485 3.44.725 5.167.725 3.191 0 6.353-.817 9.23-2.424 1.911-1.067 3.592-2.429 5-4.017v6.76c2.844-2.595 4.543-6.289 4.617-10.181v-.462c-.02-1.292-.214-2.603-.611-3.9zm-55.087-60.43-1.062-3.486c-.069-.226-.102-.452-.102-.679 0-.115.009-.231.023-.342.009-.051.018-.097.032-.148.005-.037.014-.074.028-.111.023-.102.055-.199.097-.291.023-.055.051-.111.079-.166s.055-.106.088-.157c.041-.069.092-.139.143-.203.055-.074.115-.143.18-.208.037-.037.078-.079.12-.111.042-.042.083-.074.129-.106.046-.037.092-.069.138-.097.046-.032.092-.06.143-.088h.005c.046-.028.097-.051.148-.074.092-.046.189-.083.291-.115.079-.023.157-.046.24-.06-.097 2.406-.175 4.82-.235 7.24-.005.249-.009.494-.014.743zm3.85 124.728c-.009.115-.028.231-.042.346h-.005c-.009.088-.023.175-.042.259-.005.032-.009.06-.018.088-.009.055-.018.106-.032.162 0 .005 0 .014-.005.018.005.005 0 .009 0 .014-.005.009-.005.018-.005.028-.009.014-.009.032-.014.051-.005.014-.009.028-.014.046-.032.134-.069.268-.111.397-.032.097-.06.194-.097.286-.051.139-.102.272-.162.406-.009.023-.018.051-.032.074-.046.115-.102.231-.162.342-.028.06-.06.115-.092.175s-.065.12-.102.18c-.028.046-.055.092-.083.139-.078.125-.157.249-.245.369-.051.074-.106.148-.157.217-.194.254-.406.499-.637.729-.115.111-.231.222-.351.323-.115.106-.24.203-.365.3-.078.06-.157.12-.24.175-.088.06-.175.125-.268.18-.088.055-.18.111-.272.166-.083.051-.166.097-.249.138 0 .005-.005.005-.005.005-.014.005-.023.009-.032.018-.12.06-.245.12-.369.171-.115.055-.231.106-.351.148-.152.055-.305.111-.457.157-.092.028-.185.055-.277.078-.088.018-.175.042-.263.06-.005.005-.009.005-.014.005-.092.018-.185.037-.282.055-.079.014-.157.028-.235.037-.199.028-.402.051-.6.06-.111.009-.226.014-.337.014h-.055c-.005 0-.005 0-.009 0-.005 0-.005 0-.009 0h-.014l-52.192-.083-23.072-.037v.716c0 1.45.434 2.798 1.182 3.925l21.89.037 52.188.083h.018c3.144 0 6.099-1.224 8.32-3.449 2.23-2.23 3.454-5.19 3.449-8.348l-.06-14.733c-1.533-.803-3.089-1.805-4.649-2.973l.069 17.721c.001.245-.008.485-.032.725zm-.046-21.631h-.005l.014 3.186zm-91.133-82.352c-.005-.046-.014-.088-.023-.129 0-.005 0-.005 0-.009-.014-.051-.028-.106-.042-.152 0-.005-.005-.009-.005-.014-.018-.065-.042-.125-.065-.185 0-.005 0-.005-.005-.009-.028-.074-.06-.148-.097-.217 0 0 0-.005-.005-.005-.023-.042-.042-.083-.069-.12-.023-.042-.051-.079-.078-.115-.032-.051-.069-.102-.111-.148-.014-.018-.028-.032-.046-.051-.005-.014-.014-.023-.032-.037-.014-.018-.032-.037-.046-.051-.042-.042-.083-.083-.129-.12-.005-.005-.009-.009-.014-.009-.065-.06-.134-.115-.203-.166-.051-.037-.106-.069-.162-.102-.032-.014-.06-.037-.092-.051-.005-.005-.009-.005-.014-.009-.014-.005-.023-.014-.037-.014-.051-.028-.102-.051-.152-.069-.069-.028-.143-.051-.217-.074-.055-.018-.111-.032-.166-.042-.014-.005-.023-.005-.037-.009-.06-.009-.12-.018-.18-.023-.023-.005-.042-.005-.065-.005-.065-.009-.129-.014-.199-.014-1.279 0-2.318 1.039-2.318 2.322v36.96l-13.381 9.244-3.117 2.152v5.638l16.497-11.395v8.269l4.64-3.204v-47.663c0-.083-.005-.166-.014-.249-.003-.042-.007-.083-.016-.125z" fill="#ffe471"/><g fill="#6ea9ff"><path d="m164.062 114.868c-.092 1.348-.185 2.687-.272 4.017h-3.052c.951-1.482 2.068-2.83 3.324-4.017z"/><path d="m245.619 118.94c-1.26-.272-2.581-.282-3.938-.009-.457.092-.933.199-1.417.309.379.605.683 1.2.919 1.708.051.596.083 1.2.083 1.81v30.921l-10.453 2.863-5.434-17.864c-.028-.097-.074-.185-.115-.272-.018-.157-.055-.319-.111-.471-.231-.646-.48-1.284-.743-1.912-.074-.189-.152-.374-.235-.554-.074-.175-.148-.351-.231-.522-.157-.36-.328-.72-.503-1.076-.097-.203-.199-.411-.305-.609-.203-.406-.415-.808-.637-1.205-.106-.199-.217-.397-.332-.591-.111-.199-.222-.392-.342-.586-.226-.388-.466-.771-.711-1.15-.157-.249-.323-.499-.489-.743-.102-.157-.212-.314-.323-.471-.272-.392-.549-.78-.836-1.159-.083-.115-.166-.226-.254-.337-.175-.235-.356-.466-.545-.693-.009-.018-.023-.037-.046-.055-.134-.171-.272-.342-.411-.508-.032-.042-.065-.078-.097-.115-4.465-2.964-9.525-5.051-14.895-6.062 0-.005 0-.005-.005-.005-.051-.023-.102-.051-.152-.074-.212-.111-.429-.217-.646-.319-.032-.018-.065-.032-.097-.046-.222-.106-.448-.208-.67-.309-.06-.028-.115-.051-.175-.078-.388-.171-.78-.337-1.177-.499-.208-.083-.416-.162-.623-.24-.152-.06-.3-.115-.448-.166-.171-.065-.337-.125-.503-.18-.222-.078-.443-.152-.665-.222-.314-.106-.628-.203-.942-.296-.217-.065-.434-.125-.651-.185s-.439-.12-.656-.175c-.776-.199-1.561-.369-2.35-.517h-.005c-1.953-2.045-4.709-3.324-7.757-3.324h-3.407c-1.03-1.912-3.047-3.209-5.365-3.209h-3.966c1.935-.568 3.971-.863 6.053-.863h49.302c3.421 0 6.658.794 9.539 2.207 2.89 1.422 5.425 3.463 7.424 5.961v.005c.136.622.251 1.25.343 1.887z"/><path d="m190.186 153.181c.046-2.087.111-4.174.189-6.252-.051.023-.102.046-.148.074h-.005c-.051.028-.097.055-.143.088-.046.028-.092.06-.138.097-.046.032-.088.065-.129.106-.042.032-.083.074-.12.111-.065.065-.125.134-.18.208-.051.065-.102.134-.143.203-.032.051-.06.102-.088.157s-.055.111-.079.166c-.042.092-.074.189-.097.291-.014.037-.023.074-.028.111-.014.051-.023.097-.032.148-.014.111-.023.226-.023.342 0 .226.032.452.102.679l1.062 3.486z"/><path d="m190.786 183.742-17.587-5.614c-.042-1.404-.069-2.816-.092-4.225-.005-.212-.009-.42-.014-.633-.231-16.197.646-32.625 1.741-50.563.425-2.895 2.655-5.116 5.347-5.116h6.081c.383 0 .757.046 1.117.129.125.032.249.065.374.106-.046.854-.097 1.713-.148 2.572-.042.859-.092 1.722-.139 2.581-.023.466-.051.937-.074 1.408-.069 1.26-.129 2.521-.194 3.786l-.06 1.265c-.088 1.851-.166 3.708-.24 5.568-.134 3.394-.245 6.801-.319 10.213-.014.799-.032 1.598-.046 2.396-.009.725-.018 1.45-.028 2.175-.009.776-.014 1.547-.018 2.322-.005.388-.009.771-.009 1.154-.014 2.438.005 4.871.041 7.309.005.457.009.914.023 1.371.046 2.442.12 4.88.222 7.318.042.951.088 1.898.134 2.849.051.946.106 1.893.162 2.84.06.947.125 1.893.194 2.835l3.255 1.039v.009c.074 1.637.166 3.276.277 4.906z"/><path d="m218.664 230.893c.092.637.208 1.214.337 1.741-.133-.527-.244-1.104-.337-1.741z"/><path d="m187.323 224.872c-.762-.887-1.551-1.828-2.304-2.835l5.393 1.528c1.131 3.652 3.5 6.626 5.684 9.156.028.032.055.065.083.097-3.555-1.981-6.22-4.889-8.856-7.946z"/><path d="m240.222 237.708c-1.884 5.684-6.884 8.639-19.124 9.959l-9.77.822c-.111.282-.166.596-.152.923.009.235.065.457.143.665l-.125 3.08-7.507.633c-1.385 1.32-3.126 2.272-5.06 2.701v.563c-3.01-1.976-6.201-4.82-9.313-8.209 2.544 1.745 4.973 2.895 7.138 3.255 1.745-.042 3.306-.822 4.391-2.036.009-.009.014-.018.023-.028.951-1.076 1.533-2.484 1.533-4.031v-.092l.148-3.684c-.079-.208-.134-.429-.143-.665-.018-.383.065-.748.212-1.071l.042-1.067c0-.083-.005-.166-.009-.249.863.637 1.773 1.224 2.752 1.736 1.293.679 2.29 1.265 3.44 2.022.263.175.517.374.748.586l16.954-.85c.24-.009.466-.069.679-.148 4.391-.48 8.579-2.008 10.352-3.103.995-.613 1.872-1.181 2.648-1.712z"/><path d="m241.265 158.491-9.105 2.493 9.105 29.915z"/><path d="m193.986 225.283c-1.057-1.053-2.087-2.212-3.149-3.44-.305-.351-.609-.706-.91-1.071-.023-.028-.046-.055-.069-.088h-.005c-.868-1.057-1.708-2.156-2.401-3.32l6.524 1.852.005 2.636z"/><path d="m241.265 221.409v7.641c0 .531-.009 1.043-.023 1.547-.111.134-.208.277-.286.439-.143.282-.974 1.445-5.822 4.437-1.219.753-5.988 2.563-10.536 2.563-1.556 0-2.766-.476-3.689-1.459-.111-.12-.226-.254-.342-.402-.074-.097-.152-.203-.226-.314-.009-.009-.018-.023-.028-.037-.06-.097-.125-.199-.194-.309-.037-.069-.083-.143-.125-.222-.032-.06-.065-.12-.097-.185-.06-.111-.115-.231-.171-.356-.014-.028-.028-.055-.042-.088-.042-.097-.088-.199-.129-.3-.028-.074-.06-.148-.088-.222-.06-.162-.12-.332-.18-.512-.032-.092-.065-.189-.092-.291-.046-.157-.092-.319-.138-.489-.018-.069-.037-.143-.055-.217-.129-.526-.245-1.103-.337-1.741-.046-.319-.092-.651-.125-1.002-.018-.175-.037-.351-.051-.536-.005-.055-.009-.111-.014-.171-.009-.097-.014-.203-.023-.305 0-.028-.005-.055-.005-.083-.018-.328-.037-.665-.046-1.016-.005-.143-.009-.291-.009-.439-.005-.111-.005-.226-.005-.342-.005-.282-.005-.568 0-.863l3.481.988c1.704.485 3.44.725 5.167.725 3.191 0 6.353-.817 9.23-2.424 1.912-1.065 3.592-2.427 5-4.015z"/><path d="m216.545 238.53-9.267.462c-.166-3.024-1.916-5.97-4.659-7.78-1.288-.85-2.401-1.505-3.837-2.258-.051-.028-.102-.06-.152-.088l-.009-5.698-.005-2.636 15.154 4.299c-.032.739-.06 1.634-.041 2.627.005.231.009.471.018.716.009.194.014.392.028.591.005.157.014.319.028.485.009.12.018.245.028.365.009.125.018.249.032.374.023.249.046.499.079.753.023.189.046.379.074.568.037.263.079.531.125.799.018.12.042.24.065.36.018.12.046.24.069.356.032.157.065.314.102.471s.074.309.115.466c.055.226.115.457.185.679.023.102.055.199.088.296.055.185.115.369.18.549.046.148.102.296.157.439.074.199.152.392.235.582.074.175.148.346.231.517.009.018.018.037.028.055.046.097.097.199.148.296.102.208.212.411.332.609.037.065.074.129.115.194.042.078.092.152.139.226.067.109.141.219.215.326z"/><path d="m202.615 240.492c-.148.323-.231.688-.212 1.071.009.235.065.457.143.665l-.148 3.684v.092c0 1.547-.582 2.955-1.533 4.031-.009.009-.014.018-.023.028-1.085 1.214-2.646 1.995-4.391 2.036-2.165-.36-4.594-1.51-7.138-3.255-7.115-4.88-15.121-14.424-20.703-24.448-1.505-2.701-2.83-5.444-3.92-8.131-.097-.24-.194-.485-.286-.725-.06-.148-.115-.295-.166-.439-.245-.633-.466-1.256-.679-1.879-.328-.974-.623-1.939-.877-2.886l18.958 5.379c.069.222.143.443.222.66.074.217.157.434.245.646.092.222.185.443.286.665.042.102.088.199.139.3.106.231.222.457.342.683.005.014.014.023.018.037.088.171.18.337.277.503.097.18.203.356.305.531.055.088.106.175.162.263.12.199.245.392.374.586.143.222.291.439.439.651.023.032.046.06.065.092.166.235.337.471.508.697v.005c.753 1.007 1.542 1.948 2.304 2.835 2.636 3.057 5.3 5.965 8.856 7.946.148.083.295.166.448.245 1.293.679 2.29 1.265 3.44 2.022 1.459.965 2.461 2.572 2.581 4.091.005.083.009.166.009.249z"/></g><path d="m148.442 2.5c-25.025 0-45.382 20.362-45.382 45.387 0 25.02 20.357 45.382 45.382 45.382s45.387-20.362 45.387-45.382c0-25.025-20.362-45.387-45.387-45.387zm0 86.129c-22.467 0-40.742-18.279-40.742-40.742 0-22.467 18.275-40.747 40.742-40.747s40.746 18.279 40.746 40.747c0 22.462-18.279 40.742-40.746 40.742z" fill="#160f60"/><path d="m189.188 47.887c0 22.462-18.279 40.742-40.746 40.742s-40.742-18.28-40.742-40.742c0-22.467 18.275-40.747 40.742-40.747s40.746 18.28 40.746 40.747z" fill="#fff"/><path d="m170.877 173.271-4.382-1.242c-.092-.028-.185-.051-.277-.074.014 1.616.046 3.227.092 4.843l4.686 1.33c-.055-1.616-.092-3.237-.119-4.857zm0 0-4.382-1.242c-.092-.028-.185-.051-.277-.074.014 1.616.046 3.227.092 4.843l4.686 1.33c-.055-1.616-.092-3.237-.119-4.857zm0 0-4.382-1.242c-.092-.028-.185-.051-.277-.074.014 1.616.046 3.227.092 4.843l4.686 1.33c-.055-1.616-.092-3.237-.119-4.857zm0 0-4.382-1.242c-.092-.028-.185-.051-.277-.074.014 1.616.046 3.227.092 4.843l4.686 1.33c-.055-1.616-.092-3.237-.119-4.857zm0 0-4.382-1.242c-.092-.028-.185-.051-.277-.074.014 1.616.046 3.227.092 4.843l4.686 1.33c-.055-1.616-.092-3.237-.119-4.857zm44.209 12.54-8.953-2.539-2.133-.606-8.269-27.172-2.17-7.134c-.346-1.15-1.505-1.828-2.655-1.607-.083.014-.162.037-.24.06-.102.032-.199.069-.291.115-.051.023-.102.046-.148.074h-.005c-.051.028-.097.055-.143.088-.046.028-.092.06-.138.097-.046.032-.088.065-.129.106-.042.032-.083.074-.12.111-.065.065-.125.134-.18.208-.051.065-.102.134-.143.203-.032.051-.06.102-.088.157s-.055.111-.079.166c-.042.092-.074.189-.097.291-.014.037-.023.074-.028.111-.014.051-.023.097-.032.148-.014.111-.023.226-.023.342 0 .226.032.452.102.679l1.062 3.472v.014l.471 1.542 8.034 26.424-7.761-2.202-.42-.12-.037-.009c.088 1.639.189 3.278.314 4.913l.434.125 11.21 3.177 5.31 1.505 6.081 1.727c1.228.351 2.512-.365 2.863-1.598.35-1.234-.366-2.517-1.599-2.868zm-24.614-6.981-3.661-1.039c-.079-.942-.152-1.888-.217-2.835s-.125-1.893-.18-2.84c-.055-.951-.106-1.898-.152-2.849-.115-2.438-.199-4.876-.249-7.318-.014-.457-.023-.914-.028-1.371-.042-2.438-.06-4.871-.046-7.309 0-.383.005-.766.009-1.154.005-.776.014-1.547.023-2.322.009-.725.018-1.45.032-2.175.014-.799.032-1.598.051-2.396.083-3.412.208-6.82.36-10.213h-4.585v-1.39c-.656 14.165-.845 28.613.222 42.824l-8.943-2.539-2.23-.633-4.382-1.242c-.092-.028-.185-.051-.277-.074.014 1.616.046 3.227.092 4.843l4.686 1.33 19.789 5.614c-.125-1.634-.226-3.273-.314-4.912zm24.614 6.981-8.953-2.539-2.133-.606-8.269-27.172-2.17-7.134c-.346-1.15-1.505-1.828-2.655-1.607-.083.014-.162.037-.24.06-.102.032-.199.069-.291.115-.051.023-.102.046-.148.074h-.005c-.051.028-.097.055-.143.088-.046.028-.092.06-.138.097-.046.032-.088.065-.129.106-.042.032-.083.074-.12.111-.065.065-.125.134-.18.208-.051.065-.102.134-.143.203-.032.051-.06.102-.088.157s-.055.111-.079.166c-.042.092-.074.189-.097.291-.014.037-.023.074-.028.111-.014.051-.023.097-.032.148-.014.111-.023.226-.023.342 0 .226.032.452.102.679l1.062 3.472v.014l.471 1.542 8.034 26.424-7.761-2.202-.42-.12-.037-.009c.088 1.639.189 3.278.314 4.913l.434.125 11.21 3.177 5.31 1.505 6.081 1.727c1.228.351 2.512-.365 2.863-1.598.35-1.234-.366-2.517-1.599-2.868zm-29.393-72.859h-3.407c.305.563.522 1.177.637 1.828-.06.933-.125 1.87-.185 2.812-.148 2.253-.286 4.52-.42 6.796-.18 3.061-.346 6.141-.489 9.23v1.39h4.585c.079-1.861.171-3.717.268-5.568l.069-1.265c.069-1.265.139-2.526.217-3.786.028-.471.055-.942.083-1.408.051-.859.106-1.722.157-2.581.055-.859.111-1.718.166-2.572.005-.037.005-.069.005-.106.023-.296.042-.596.06-.891.143-.3.226-.633.226-.983 0-.051-.005-.102-.005-.157.323.005.646.018.965.032.097.005.194.009.291.014.042.005.088.005.134.009.263.014.526.032.785.055.314.023.623.055.928.088.115.009.231.023.346.037.296.037.586.074.877.115.185.023.369.051.554.083.277.042.559.088.84.138l.069.014c-1.952-2.045-4.708-3.324-7.756-3.324zm4.779 65.878-3.661-1.039c-.079-.942-.152-1.888-.217-2.835s-.125-1.893-.18-2.84c-.055-.951-.106-1.898-.152-2.849-.115-2.438-.199-4.876-.249-7.318-.014-.457-.023-.914-.028-1.371-.042-2.438-.06-4.871-.046-7.309 0-.383.005-.766.009-1.154.005-.776.014-1.547.023-2.322.009-.725.018-1.45.032-2.175.014-.799.032-1.598.051-2.396.083-3.412.208-6.82.36-10.213h-4.585v-1.39c-.656 14.165-.845 28.613.222 42.824l-8.943-2.539-2.23-.633-4.382-1.242c-.092-.028-.185-.051-.277-.074.014 1.616.046 3.227.092 4.843l4.686 1.33 19.789 5.614c-.125-1.634-.226-3.273-.314-4.912zm24.614 6.981-8.953-2.539-2.133-.606-8.269-27.172-2.17-7.134c-.346-1.15-1.505-1.828-2.655-1.607-.083.014-.162.037-.24.06-.102.032-.199.069-.291.115-.051.023-.102.046-.148.074h-.005c-.051.028-.097.055-.143.088-.046.028-.092.06-.138.097-.046.032-.088.065-.129.106-.042.032-.083.074-.12.111-.065.065-.125.134-.18.208-.051.065-.102.134-.143.203-.032.051-.06.102-.088.157s-.055.111-.079.166c-.042.092-.074.189-.097.291-.014.037-.023.074-.028.111-.014.051-.023.097-.032.148-.014.111-.023.226-.023.342 0 .226.032.452.102.679l1.062 3.472v.014l.471 1.542 8.034 26.424-7.761-2.202-.42-.12-.037-.009c.088 1.639.189 3.278.314 4.913l.434.125 11.21 3.177 5.31 1.505 6.081 1.727c1.228.351 2.512-.365 2.863-1.598.35-1.234-.366-2.517-1.599-2.868zm-29.393-72.859h-3.407c.305.563.522 1.177.637 1.828-.06.933-.125 1.87-.185 2.812-.148 2.253-.286 4.52-.42 6.796-.18 3.061-.346 6.141-.489 9.23v1.39h4.585c.079-1.861.171-3.717.268-5.568l.069-1.265c.069-1.265.139-2.526.217-3.786.028-.471.055-.942.083-1.408.051-.859.106-1.722.157-2.581.055-.859.111-1.718.166-2.572.005-.037.005-.069.005-.106.023-.296.042-.596.06-.891.143-.3.226-.633.226-.983 0-.051-.005-.102-.005-.157.323.005.646.018.965.032.097.005.194.009.291.014.042.005.088.005.134.009.263.014.526.032.785.055.314.023.623.055.928.088.115.009.231.023.346.037.296.037.586.074.877.115.185.023.369.051.554.083.277.042.559.088.84.138l.069.014c-1.952-2.045-4.708-3.324-7.756-3.324zm4.779 65.878-3.661-1.039c-.079-.942-.152-1.888-.217-2.835s-.125-1.893-.18-2.84c-.055-.951-.106-1.898-.152-2.849-.115-2.438-.199-4.876-.249-7.318-.014-.457-.023-.914-.028-1.371-.042-2.438-.06-4.871-.046-7.309 0-.383.005-.766.009-1.154.005-.776.014-1.547.023-2.322.009-.725.018-1.45.032-2.175.014-.799.032-1.598.051-2.396.083-3.412.208-6.82.36-10.213h-4.585v-1.39c-.656 14.165-.845 28.613.222 42.824l-8.943-2.539-2.23-.633-4.382-1.242c-.092-.028-.185-.051-.277-.074.014 1.616.046 3.227.092 4.843l4.686 1.33 19.789 5.614c-.125-1.634-.226-3.273-.314-4.912zm24.614 6.981-8.953-2.539-2.133-.606-8.269-27.172-2.17-7.134c-.346-1.15-1.505-1.828-2.655-1.607-.083.014-.162.037-.24.06-.102.032-.199.069-.291.115-.051.023-.102.046-.148.074h-.005c-.051.028-.097.055-.143.088-.046.028-.092.06-.138.097-.046.032-.088.065-.129.106-.042.032-.083.074-.12.111-.065.065-.125.134-.18.208-.051.065-.102.134-.143.203-.032.051-.06.102-.088.157s-.055.111-.079.166c-.042.092-.074.189-.097.291-.014.037-.023.074-.028.111-.014.051-.023.097-.032.148-.014.111-.023.226-.023.342 0 .226.032.452.102.679l1.062 3.472v.014l.471 1.542 8.034 26.424-7.761-2.202-.42-.12-.037-.009c.088 1.639.189 3.278.314 4.913l.434.125 11.21 3.177 5.31 1.505 6.081 1.727c1.228.351 2.512-.365 2.863-1.598.35-1.234-.366-2.517-1.599-2.868zm-29.393-72.859h-3.407c.305.563.522 1.177.637 1.828-.06.933-.125 1.87-.185 2.812-.148 2.253-.286 4.52-.42 6.796-.18 3.061-.346 6.141-.489 9.23v1.39h4.585c.079-1.861.171-3.717.268-5.568l.069-1.265c.069-1.265.139-2.526.217-3.786.028-.471.055-.942.083-1.408.051-.859.106-1.722.157-2.581.055-.859.111-1.718.166-2.572.005-.037.005-.069.005-.106.023-.296.042-.596.06-.891.143-.3.226-.633.226-.983 0-.051-.005-.102-.005-.157.323.005.646.018.965.032.097.005.194.009.291.014.042.005.088.005.134.009.263.014.526.032.785.055.314.023.623.055.928.088.115.009.231.023.346.037.296.037.586.074.877.115.185.023.369.051.554.083.277.042.559.088.84.138l.069.014c-1.952-2.045-4.708-3.324-7.756-3.324zm29.393 72.859-8.953-2.539-2.133-.606-8.269-27.172-2.17-7.134c-.346-1.15-1.505-1.828-2.655-1.607-.083.014-.162.037-.24.06-.102.032-.199.069-.291.115-.051.023-.102.046-.148.074h-.005c-.051.028-.097.055-.143.088-.046.028-.092.06-.138.097-.046.032-.088.065-.129.106-.042.032-.083.074-.12.111-.065.065-.125.134-.18.208-.051.065-.102.134-.143.203-.032.051-.06.102-.088.157s-.055.111-.079.166c-.042.092-.074.189-.097.291-.014.037-.023.074-.028.111-.014.051-.023.097-.032.148-.014.111-.023.226-.023.342 0 .226.032.452.102.679l1.062 3.472v.014l.471 1.542 8.034 26.424-7.761-2.202-.42-.12-.037-.009c.088 1.639.189 3.278.314 4.913l.434.125 11.21 3.177 5.31 1.505 6.081 1.727c1.228.351 2.512-.365 2.863-1.598.35-1.234-.366-2.517-1.599-2.868zm-29.393-72.859h-3.407c.305.563.522 1.177.637 1.828-.06.933-.125 1.87-.185 2.812-.148 2.253-.286 4.52-.42 6.796-.18 3.061-.346 6.141-.489 9.23v1.39h4.585c.079-1.861.171-3.717.268-5.568l.069-1.265c.069-1.265.139-2.526.217-3.786.028-.471.055-.942.083-1.408.051-.859.106-1.722.157-2.581.055-.859.111-1.718.166-2.572.005-.037.005-.069.005-.106.023-.296.042-.596.06-.891.143-.3.226-.633.226-.983 0-.051-.005-.102-.005-.157.323.005.646.018.965.032.097.005.194.009.291.014.042.005.088.005.134.009.263.014.526.032.785.055.314.023.623.055.928.088.115.009.231.023.346.037.296.037.586.074.877.115.185.023.369.051.554.083.277.042.559.088.84.138l.069.014c-1.952-2.045-4.708-3.324-7.756-3.324zm4.779 65.878-3.661-1.039c-.079-.942-.152-1.888-.217-2.835s-.125-1.893-.18-2.84c-.055-.951-.106-1.898-.152-2.849-.115-2.438-.199-4.876-.249-7.318-.014-.457-.023-.914-.028-1.371-.042-2.438-.06-4.871-.046-7.309 0-.383.005-.766.009-1.154.005-.776.014-1.547.023-2.322.009-.725.018-1.45.032-2.175.014-.799.032-1.598.051-2.396.083-3.412.208-6.82.36-10.213h-4.585v-1.39c-.656 14.165-.845 28.613.222 42.824l-8.943-2.539-2.23-.633c.028 1.621.065 3.241.12 4.857l19.789 5.614c-.126-1.634-.227-3.273-.315-4.912zm24.614 6.981-8.953-2.539-2.133-.606-8.269-27.172-2.17-7.134c-.346-1.15-1.505-1.828-2.655-1.607-.083.014-.162.037-.24.06-.102.032-.199.069-.291.115-.051.023-.102.046-.148.074h-.005c-.051.028-.097.055-.143.088-.046.028-.092.06-.138.097-.046.032-.088.065-.129.106-.042.032-.083.074-.12.111-.065.065-.125.134-.18.208-.051.065-.102.134-.143.203-.032.051-.06.102-.088.157s-.055.111-.079.166c-.042.092-.074.189-.097.291-.014.037-.023.074-.028.111-.014.051-.023.097-.032.148-.014.111-.023.226-.023.342 0 .226.032.452.102.679l1.062 3.472v.014l.471 1.542 8.034 26.424-7.761-2.202-.42-.12-.037-.009-3.661-1.039c-.079-.942-.152-1.888-.217-2.835s-.125-1.893-.18-2.84c-.055-.951-.106-1.898-.152-2.849-.115-2.438-.199-4.876-.249-7.318-.014-.457-.023-.914-.028-1.371-.042-2.438-.06-4.871-.046-7.309 0-.383.005-.766.009-1.154.005-.776.014-1.547.023-2.322.009-.725.018-1.45.032-2.175.014-.799.032-1.598.051-2.396.083-3.412.208-6.82.36-10.213.079-1.861.171-3.717.268-5.568l.069-1.265c.069-1.265.139-2.526.217-3.786.028-.471.055-.942.083-1.408.051-.859.106-1.722.157-2.581.055-.859.111-1.718.166-2.572.005-.037.005-.069.005-.106.023-.296.042-.596.06-.891.143-.3.226-.633.226-.983 0-.051-.005-.102-.005-.157.323.005.646.018.965.032.097.005.194.009.291.014.042.005.088.005.134.009.263.014.526.032.785.055.314.023.623.055.928.088.115.009.231.023.346.037.296.037.586.074.877.115.185.023.369.051.554.083.277.042.559.088.84.138l.069.014c-1.953-2.045-4.709-3.324-7.757-3.324h-3.407c.305.563.522 1.177.637 1.828-.06.933-.125 1.87-.185 2.812-.148 2.253-.286 4.52-.42 6.796-.18 3.061-.346 6.141-.489 9.23-.656 14.165-.845 28.613.222 42.824l-8.943-2.539-2.23-.633c.028 1.621.065 3.241.12 4.857l19.789 5.614.434.125 11.21 3.177 5.31 1.505 6.081 1.727c1.228.351 2.512-.365 2.863-1.598.35-1.233-.366-2.516-1.599-2.867zm0 0-8.953-2.539-2.133-.606-8.269-27.172-2.17-7.134c-.346-1.15-1.505-1.828-2.655-1.607-.083.014-.162.037-.24.06-.102.032-.199.069-.291.115-.051.023-.102.046-.148.074h-.005c-.051.028-.097.055-.143.088-.046.028-.092.06-.138.097-.046.032-.088.065-.129.106-.042.032-.083.074-.12.111-.065.065-.125.134-.18.208-.051.065-.102.134-.143.203-.032.051-.06.102-.088.157s-.055.111-.079.166c-.042.092-.074.189-.097.291-.014.037-.023.074-.028.111-.014.051-.023.097-.032.148-.014.111-.023.226-.023.342 0 .226.032.452.102.679l1.062 3.472v.014l.471 1.542 8.034 26.424-7.761-2.202-.42-.12-.037-.009-3.661-1.039c-.079-.942-.152-1.888-.217-2.835s-.125-1.893-.18-2.84c-.055-.951-.106-1.898-.152-2.849-.115-2.438-.199-4.876-.249-7.318-.014-.457-.023-.914-.028-1.371-.042-2.438-.06-4.871-.046-7.309 0-.383.005-.766.009-1.154.005-.776.014-1.547.023-2.322.009-.725.018-1.45.032-2.175.014-.799.032-1.598.051-2.396.083-3.412.208-6.82.36-10.213.079-1.861.171-3.717.268-5.568l.069-1.265c.069-1.265.139-2.526.217-3.786h-4.649c-.18 3.061-.346 6.141-.489 9.23-.656 14.165-.845 28.613.222 42.824l-8.943-2.539-2.23-.633c.028 1.621.065 3.241.12 4.857l19.789 5.614.434.125 11.21 3.177 5.31 1.505 6.081 1.727c1.228.351 2.512-.365 2.863-1.598.348-1.234-.368-2.517-1.601-2.868zm-24.614-6.981-3.661-1.039c-.079-.942-.152-1.888-.217-2.835s-.125-1.893-.18-2.84c-.055-.951-.106-1.898-.152-2.849-.115-2.438-.199-4.876-.249-7.318-.014-.457-.023-.914-.028-1.371-.042-2.438-.06-4.871-.046-7.309 0-.383.005-.766.009-1.154.005-.776.014-1.547.023-2.322.009-.725.018-1.45.032-2.175.014-.799.032-1.598.051-2.396.083-3.412.208-6.82.36-10.213h-4.585v-1.39c-.656 14.165-.845 28.613.222 42.824l-8.943-2.539-2.23-.633c.028 1.621.065 3.241.12 4.857l19.789 5.614c-.126-1.634-.227-3.273-.315-4.912zm24.614 6.981-8.953-2.539-2.133-.606-8.269-27.172-2.17-7.134c-.346-1.15-1.505-1.828-2.655-1.607-.083.014-.162.037-.24.06-.102.032-.199.069-.291.115-.051.023-.102.046-.148.074h-.005c-.051.028-.097.055-.143.088-.046.028-.092.06-.138.097-.046.032-.088.065-.129.106-.042.032-.083.074-.12.111-.065.065-.125.134-.18.208-.051.065-.102.134-.143.203-.032.051-.06.102-.088.157s-.055.111-.079.166c-.042.092-.074.189-.097.291-.014.037-.023.074-.028.111-.014.051-.023.097-.032.148-.014.111-.023.226-.023.342 0 .226.032.452.102.679l1.062 3.472v.014l.471 1.542 8.034 26.424-7.761-2.202-.42-.12-.037-.009c.088 1.639.189 3.278.314 4.913l.434.125 11.21 3.177 5.31 1.505 6.081 1.727c1.228.351 2.512-.365 2.863-1.598.35-1.234-.366-2.517-1.599-2.868zm30.764-64.673c.092-.443.065-.914-.12-1.362-.032-.282-.069-.559-.111-.836-.092-.637-.208-1.265-.346-1.888v-.005c-2.618-11.806-13.159-20.657-25.736-20.657h-49.302c-10.047 0-19.138 5.698-23.598 14.646h-37.755c-22.356 0-40.543 18.187-40.543 40.543v80.353l-8.763 6.053c-3.121 2.156-5.01 5.707-5.051 9.502l-.429 40.46c-.028 2.253 1.367 4.312 3.467 5.125l11.053 4.271c.009 0 .014.005.023.005.115.046.235.079.36.102.028.005.055.009.083.014.115.018.235.032.351.032.005 0 .014.005.018.005.125 0 .245-.014.365-.032.032-.005.065-.014.097-.023.083-.014.171-.037.254-.06.042-.014.088-.037.129-.051.069-.028.139-.055.203-.092.046-.018.088-.046.129-.069.065-.042.129-.078.189-.125.018-.014.037-.023.055-.037l27.375-21.239v1.316c0 6.478 5.273 11.76 11.751 11.769l2.844.005 21.89.037 52.188.083h.018c3.144 0 6.099-1.224 8.32-3.449 2.23-2.23 3.454-5.19 3.449-8.348l-.06-14.733-.023-5.393v-.568c1.935-.429 3.675-1.381 5.06-2.701l1.043-.088 6.464-.545 10.319-.868c.018-.005.037-.005.055-.005 18.196-1.962 24.337-7.821 24.337-23.234v-106.292c.004-.545-.019-1.085-.052-1.621zm-4.585 88.077c-.115 5.947-4.012 11.423-10.005 13.247-.194.06-.369.148-.536.249-2.47.669-5.074.665-7.586-.051l-6.353-1.801-59.363-16.839c-.189-.055-.383-.111-.568-.175-.092-.028-.189-.06-.282-.097-.129-.042-.254-.088-.379-.139-.088-.032-.18-.069-.268-.106-.162-.06-.319-.129-.476-.203-.069-.032-.143-.065-.212-.097-.305-.139-.605-.291-.896-.462-.097-.051-.194-.111-.295-.166-.12-.069-.235-.138-.351-.217-.051-.028-.097-.055-.139-.088-.134-.088-.268-.175-.402-.268-.129-.092-.263-.185-.388-.282-.129-.097-.254-.189-.374-.291-.005-.005-.014-.009-.018-.018-.102-.079-.203-.162-.3-.249-.051-.042-.102-.088-.152-.134-.055-.046-.111-.097-.162-.148-.055-.046-.106-.092-.157-.143-.102-.083-.199-.175-.286-.272-.014-.009-.023-.014-.023-.023-.129-.12-.249-.245-.365-.369-.157-.166-.309-.337-.452-.512-.009-.005-.018-.014-.023-.023-.102-.12-.203-.245-.3-.369-.032-.037-.06-.069-.083-.106-.037-.042-.069-.088-.102-.134-.023-.018-.037-.042-.051-.065-.111-.143-.212-.286-.314-.434-.272-.388-.522-.79-.757-1.21-1.865-3.347-2.322-7.207-1.288-10.864 1.039-3.661 3.454-6.704 6.806-8.574 3.347-1.865 7.207-2.327 10.864-1.288l1.08.305 4.686 1.33 19.789 5.614.434.125 11.21 3.177 5.31 1.505 6.081 1.727c1.228.351 2.512-.365 2.863-1.598s-.365-2.516-1.598-2.867l-8.953-2.539-2.131-.607-8.269-27.172-2.17-7.134c-.346-1.15-1.505-1.828-2.655-1.607-.083.014-.162.037-.24.06-.102.032-.199.069-.291.115-.051.023-.102.046-.148.074h-.005c-.051.028-.097.055-.143.088-.046.028-.092.06-.138.097-.046.032-.088.065-.129.106-.042.032-.083.074-.12.111-.065.065-.125.134-.18.208-.051.065-.102.134-.143.203-.032.051-.06.102-.088.157s-.055.111-.079.166c-.042.092-.074.189-.097.291-.014.037-.023.074-.028.111-.014.051-.023.097-.032.148-.014.111-.023.226-.023.342 0 .226.032.452.102.679l1.062 3.472v.014l.471 1.542 8.034 26.424-7.761-2.202-.42-.12-.037-.009-3.661-1.039c-.079-.942-.152-1.888-.217-2.835s-.125-1.893-.18-2.84c-.055-.951-.106-1.898-.152-2.849-.115-2.438-.199-4.876-.249-7.318-.014-.457-.023-.914-.028-1.371-.042-2.438-.06-4.871-.046-7.309 0-.383.005-.766.009-1.154.005-.776.014-1.547.023-2.322.009-.725.018-1.45.032-2.175.014-.799.032-1.598.051-2.396.083-3.412.208-6.82.36-10.213.079-1.861.171-3.717.268-5.568l.069-1.265c.069-1.265.139-2.526.217-3.786.028-.471.055-.942.083-1.408.051-.859.106-1.722.157-2.581.055-.859.111-1.718.166-2.572.005-.037.005-.069.005-.106.023-.296.042-.596.06-.891.143-.3.226-.633.226-.983 0-.051-.005-.102-.005-.157.323.005.646.018.965.032.097.005.194.009.291.014.042.005.088.005.134.009.263.014.526.032.785.055.314.023.623.055.928.088.115.009.231.023.346.037.296.037.586.074.877.115.185.023.369.051.554.083.277.042.559.088.84.138l.069.014h.005c.79.148 1.575.319 2.35.517.222.055.439.111.656.175.217.055.434.12.651.185.314.092.628.189.942.296.222.069.443.143.665.222.166.055.332.115.503.18.148.051.296.106.448.166.208.079.416.157.623.24.397.157.79.323 1.177.499.06.028.115.051.175.078.222.102.448.203.67.309.032.014.065.028.097.046.217.102.434.208.646.319.051.023.102.051.152.074.005 0 .005 0 .005.005.499.254.993.517 1.477.794.235.134.471.268.702.411.286.171.573.346.854.526.152.092.3.189.452.291.152.097.3.199.448.3.439.3.873.609 1.302.928.716.536 1.408 1.094 2.082 1.681.129.111.259.222.383.342.374.328.739.669 1.099 1.016.171.171.337.332.503.503.152.148.296.3.439.452.162.162.314.323.462.489.411.443.813.905 1.201 1.371.088.106.175.212.263.323.143.171.282.346.411.522.069.083.139.166.194.249.051.055.097.115.138.18.115.148.226.296.332.443.023.032.046.065.069.097.143.194.282.388.415.582.162.235.323.466.48.706.157.235.309.471.462.716.134.208.263.42.388.633.055.088.111.18.162.272.088.148.176.295.259.448.199.342.388.688.568 1.039.106.199.208.397.309.6.129.254.254.512.379.776.125.263.245.526.36.79.111.254.222.508.328.766.217.526.429 1.057.619 1.602.009.018.014.042.023.06.028.074.065.139.097.208.014.111.028.217.065.328l19.715 64.82c.397 1.297.591 2.609.609 3.901v.462zm-47.279 16.068c-1.057-1.053-2.087-2.212-3.149-3.44-.305-.351-.609-.706-.91-1.071-.023-.028-.051-.06-.074-.088-.868-1.057-1.708-2.156-2.401-3.32l6.524 1.852.005 2.636zm-11.063-110.503c-.06.933-.125 1.87-.185 2.812-.148 2.253-.286 4.52-.42 6.796-.18 3.061-.346 6.141-.489 9.23-.656 14.165-.845 28.613.222 42.824l-8.943-2.539-2.23-.633-4.382-1.242c-.092-.028-.185-.051-.277-.074-1.307-.351-2.632-.554-3.962-.619-.554-15.491.148-31.05 1.228-47.811.097-1.537.199-3.084.305-4.64.088-1.33.18-2.669.272-4.017v-.009c.476-2.895 2.987-5.116 6.016-5.116h6.843c2.318 0 4.336 1.297 5.365 3.209.304.564.521 1.178.637 1.829zm49.237 46.204 9.105-2.493v32.408zm6.238-44.006c.111.097.217.194.319.296.319.314.609.651.873.997.055.078.115.152.171.231.06.078.115.152.166.231.051.074.106.152.157.231.06.092.12.185.18.277.379.605.683 1.2.919 1.708.051.596.083 1.2.083 1.81v30.921l-10.453 2.863-5.434-17.864c-.028-.097-.074-.185-.115-.272-.018-.157-.055-.319-.111-.471-.231-.646-.48-1.284-.743-1.912-.074-.189-.152-.374-.235-.554-.074-.175-.152-.351-.231-.522-.157-.36-.328-.72-.503-1.076-.097-.203-.199-.406-.305-.609-.203-.406-.415-.808-.637-1.205-.106-.199-.217-.397-.332-.591-.111-.199-.226-.392-.342-.586-.226-.388-.466-.771-.711-1.15-.162-.249-.323-.499-.489-.743-.106-.157-.212-.314-.323-.471-.272-.392-.549-.78-.836-1.159-.083-.115-.166-.226-.254-.337-.18-.235-.36-.466-.545-.693-.009-.018-.023-.037-.046-.055-.134-.171-.272-.342-.411-.508-.032-.042-.065-.078-.097-.115-.171-.208-.346-.416-.526-.619.637-1.302 1.93-3.237 4.132-5.125.951-.817 6.413-3.117 12.115-4.275.522-.106 1.016-.129 1.482-.083.078.005.152.014.226.028.074.009.148.023.217.037.097.018.194.037.286.065.259.065.508.152.748.259.055.023.106.046.162.074.088.042.171.083.254.129.028.009.051.023.074.042.046.023.088.046.129.074.046.023.088.051.134.083.051.032.106.065.157.102.097.065.189.129.277.199.088.065.171.134.259.203.053.043.104.089.159.135zm-68.163-15.948h49.302c7.688 0 14.452 4.012 18.312 10.056.078.12.157.24.231.365-1.621-.591-3.366-.734-5.171-.369-5.084 1.034-12.005 3.408-14.212 5.3-2.004 1.718-3.481 3.555-4.493 5.194-7.309-6.621-16.959-10.541-27.241-10.541h-.439c-.392-.776-.873-1.501-1.431-2.156-1.976-2.309-4.903-3.777-8.172-3.777h-6.843c-4.197 0-7.835 2.419-9.604 5.933h-8.509c3.961-6.172 10.795-10.005 18.27-10.005zm-72.55 169.303-25.911 20.107v-38.336c0-1.288.642-2.484 1.718-3.195l24.697-16.331zm.564-43.356-27.315 18.058c-2.382 1.574-3.8 4.215-3.8 7.069v39.689l-7.895-3.052c-.305-.115-.508-.415-.503-.743l.429-40.46c.028-2.29 1.164-4.437 3.052-5.739l9.738-6.727 9.798-6.764 16.497-11.395v10.064zm95.82 50.221c0 .245-.009.485-.032.725-.009.115-.028.231-.042.346h-.005c-.009.088-.023.175-.042.259-.005.032-.009.06-.018.088-.009.055-.018.106-.032.162 0 .005 0 .014-.005.018.005.005 0 .009 0 .014-.005.009-.005.018-.005.028-.009.014-.009.032-.014.051-.005.014-.009.028-.014.046-.032.134-.069.268-.111.397-.032.097-.06.194-.097.286-.051.139-.102.272-.162.406-.009.023-.018.051-.032.074-.046.115-.102.231-.162.342-.028.06-.06.115-.092.175s-.065.12-.102.18c-.028.046-.055.092-.083.139-.078.125-.157.249-.245.369-.051.074-.106.148-.157.217-.194.254-.406.499-.637.729-.115.111-.231.222-.351.323-.115.106-.24.203-.365.3-.078.06-.157.12-.24.175-.088.06-.175.125-.268.18-.088.055-.18.111-.272.166-.083.051-.166.097-.249.138 0 .005-.005.005-.005.005-.014.005-.023.009-.032.018-.12.06-.245.12-.369.171-.115.055-.231.106-.351.148-.152.055-.305.111-.457.157-.092.028-.185.055-.277.078-.088.018-.175.042-.263.06-.005.005-.009.005-.014.005-.092.018-.185.037-.282.055-.079.014-.157.028-.235.037-.199.028-.402.051-.6.06-.111.009-.226.014-.337.014h-.055c-.005 0-.005 0-.009 0-.005 0-.005 0-.009 0h-.014l-52.192-.083-23.072-.037-1.653-.005c-3.925-.005-7.12-3.204-7.12-7.129v-102.771c0-.083-.005-.166-.014-.249-.005-.042-.009-.083-.018-.125-.005-.046-.014-.088-.023-.129 0-.005 0-.005 0-.009-.014-.051-.028-.106-.042-.152 0-.005-.005-.009-.005-.014-.018-.065-.042-.125-.065-.185 0-.005 0-.005-.005-.009-.028-.074-.06-.148-.097-.217 0 0 0-.005-.005-.005-.023-.042-.042-.083-.069-.12-.018-.028-.037-.06-.055-.088-.005-.009-.014-.018-.023-.028-.032-.051-.069-.102-.111-.148-.014-.018-.028-.032-.046-.051-.005-.014-.014-.023-.032-.037-.014-.018-.032-.037-.046-.051-.042-.042-.083-.083-.129-.12-.005-.005-.009-.009-.014-.009-.065-.06-.134-.115-.203-.166-.051-.037-.106-.069-.162-.102-.032-.014-.06-.037-.092-.051-.005-.005-.009-.005-.014-.009-.014-.005-.023-.014-.037-.014-.051-.028-.102-.051-.152-.069-.069-.028-.143-.051-.217-.074-.055-.018-.111-.032-.166-.042-.014-.005-.023-.005-.037-.009-.06-.009-.12-.018-.18-.023-.023-.005-.042-.005-.065-.005-.065-.009-.129-.014-.199-.014-1.279 0-2.318 1.039-2.318 2.322v36.96l-13.381 9.244-3.117 2.152-8.773 6.058v-77.148c0-19.798 16.105-35.903 35.903-35.903h38.683c.351.083.702.079 1.039 0h10.735c0 .06-.005.115-.005.171 0 .018.005.037.005.055-.175 2.572-.346 5.111-.503 7.623-1.085 16.843-1.782 32.5-1.21 48.157-1.907.388-3.768 1.071-5.522 2.05-4.432 2.47-7.628 6.506-9.003 11.354-1.376 4.853-.776 9.964 1.699 14.396 2.045 3.675 5.171 6.496 8.943 8.14.374.166.753.314 1.14.452.416.152.845.291 1.274.411l1.408.402c.069.323.143.651.217.979.083.36.171.725.268 1.094.037.152.078.305.12.462s.083.314.129.466c.06.222.125.448.189.669.065.226.134.452.203.679.268.863.563 1.741.891 2.632v.005c4.88 13.33 15.906 28.899 26.576 36.429 2.664 1.884 5.305 3.269 7.826 3.989l.014 3.186zm8.546-36.706c-.148.323-.231.688-.212 1.071.009.235.065.457.143.665l-.148 3.684v.092c0 1.547-.582 2.955-1.533 4.031-.009.009-.014.018-.023.028-.065.074-.134.143-.199.212-.148.148-.3.291-.462.42-.078.069-.157.129-.24.189-.134.102-.272.199-.415.286-.092.06-.185.115-.277.166-.074.042-.152.083-.226.12-.097.051-.194.097-.291.134-.065.032-.138.065-.203.088-.009.005-.014.005-.023.009-.014.005-.023.009-.037.014-.009.005-.018.009-.028.009-.097.037-.194.074-.291.102-.074.023-.143.046-.217.065-.125.037-.249.069-.379.092-.065.014-.129.028-.194.041-.088.014-.175.028-.263.037-.074.009-.148.018-.222.023-.143.014-.282.023-.425.028-2.165-.36-4.594-1.51-7.138-3.255-7.115-4.88-15.121-14.424-20.703-24.448-.328-.586-.642-1.173-.951-1.759-.235-.452-.466-.9-.697-1.353-.157-.319-.314-.642-.466-.96-.143-.296-.282-.586-.42-.882-.125-.263-.245-.531-.365-.799-.079-.175-.162-.351-.24-.531-.092-.217-.189-.434-.282-.651-.171-.397-.337-.799-.499-1.196-.097-.24-.194-.485-.286-.725-.06-.148-.115-.295-.166-.439-.245-.633-.466-1.256-.679-1.879-.328-.974-.623-1.939-.877-2.886l18.958 5.379c.069.222.143.443.222.66.078.217.162.434.245.646.092.222.185.443.286.665.042.102.088.199.139.3.106.231.222.457.342.683.005.014.014.023.018.037.088.171.18.337.277.503.097.18.203.356.305.531.055.088.106.175.162.263.12.199.245.392.374.586.143.222.291.439.439.651.023.032.046.06.065.092.166.235.337.471.508.697v.005c.753 1.007 1.542 1.948 2.304 2.835 2.636 3.057 5.3 5.965 8.856 7.946.148.083.295.166.448.245 1.293.679 2.29 1.265 3.44 2.022 1.459.965 2.461 2.572 2.581 4.091.005.083.009.166.009.249zm.005-9.281c-1.288-.85-2.401-1.505-3.837-2.258-.051-.028-.102-.06-.152-.088l-.009-5.698-.005-2.636 15.154 4.299c-.032.739-.06 1.634-.041 2.627.005.231.009.471.018.716.009.194.014.392.028.591.005.157.014.319.028.485.009.12.018.245.028.365.009.125.018.249.032.374.023.249.046.499.079.753.023.189.046.379.074.568.037.263.079.531.125.799.018.12.042.24.065.36.018.12.046.24.069.356.032.157.065.314.102.471s.074.309.115.466c.055.226.115.457.185.679.023.102.055.199.088.296.055.185.115.369.18.549.051.148.102.291.157.439.074.199.152.392.235.582.074.175.152.346.231.517.009.018.018.037.028.055.046.097.097.199.148.296.102.208.212.411.332.609.037.065.074.129.115.194.042.078.092.152.139.226.069.111.143.222.217.328l-9.267.462c-.169-3.026-1.919-5.972-4.661-7.782zm18.478 16.456-9.77.822-4.682.397c.249-.905.388-1.851.392-2.83l.097-2.41 2.452-.125 16.954-.85c.24-.009.466-.069.679-.148 4.391-.48 8.579-2.008 10.352-3.103.997-.614 1.875-1.182 2.65-1.713-1.884 5.684-6.884 8.639-19.124 9.96zm20.167-18.617c0 .531-.009 1.043-.023 1.547-.111.134-.208.277-.286.439-.143.282-.974 1.445-5.822 4.437-1.219.753-5.988 2.563-10.536 2.563-1.556 0-2.766-.476-3.689-1.459-.111-.12-.226-.254-.342-.402-.079-.097-.152-.203-.226-.314-.009-.009-.018-.023-.028-.037-.065-.097-.129-.199-.194-.309-.037-.069-.083-.143-.125-.222-.032-.06-.065-.12-.097-.185-.06-.111-.115-.231-.171-.356-.014-.028-.028-.055-.042-.088-.042-.097-.088-.199-.129-.3-.028-.074-.06-.148-.088-.222-.06-.162-.12-.332-.18-.512-.037-.092-.065-.189-.092-.291-.046-.157-.092-.319-.138-.489-.018-.069-.037-.143-.055-.217-.023-.102-.046-.199-.069-.3-.009-.037-.018-.074-.023-.106-.018-.069-.032-.139-.046-.208-.014-.074-.028-.143-.042-.217h-.005c-.023-.143-.051-.291-.079-.443s-.051-.305-.074-.466c-.046-.319-.092-.651-.125-1.002-.018-.175-.037-.351-.051-.536-.005-.055-.009-.111-.014-.171-.009-.097-.014-.203-.023-.305 0-.028-.005-.055-.005-.083-.018-.328-.037-.665-.046-1.016-.005-.143-.009-.291-.009-.439-.005-.111-.005-.226-.005-.342-.005-.282-.005-.568 0-.863l3.481.988c1.704.485 3.44.725 5.167.725 3.191 0 6.353-.817 9.23-2.424 1.911-1.067 3.592-2.429 5-4.017v7.642zm-26.179-43.239-8.953-2.539-2.133-.606-8.269-27.172-2.17-7.134c-.346-1.15-1.505-1.828-2.655-1.607-.083.014-.162.037-.24.06-.102.032-.199.069-.291.115-.051.023-.102.046-.148.074h-.005c-.051.028-.097.055-.143.088-.046.028-.092.06-.138.097-.046.032-.088.065-.129.106-.042.032-.083.074-.12.111-.065.065-.125.134-.18.208-.051.065-.102.134-.143.203-.032.051-.06.102-.088.157s-.055.111-.079.166c-.042.092-.074.189-.097.291-.014.037-.023.074-.028.111-.014.051-.023.097-.032.148-.014.111-.023.226-.023.342 0 .226.032.452.102.679l1.062 3.472v.014l.471 1.542 8.034 26.424-7.761-2.202-.42-.12-.037-.009-3.661-1.039c-.079-.942-.152-1.888-.217-2.835s-.125-1.893-.18-2.84c-.055-.951-.106-1.898-.152-2.849-.115-2.438-.199-4.876-.249-7.318-.014-.457-.023-.914-.028-1.371-.042-2.438-.06-4.871-.046-7.309 0-.383.005-.766.009-1.154.005-.776.014-1.547.023-2.322.009-.725.018-1.45.032-2.175.014-.799.032-1.598.051-2.396.083-3.412.208-6.82.36-10.213.079-1.861.171-3.717.268-5.568l.069-1.265c.069-1.265.139-2.526.217-3.786h-4.649c-.18 3.061-.346 6.141-.489 9.23-.656 14.165-.845 28.613.222 42.824l-8.943-2.539c.023 1.408.051 2.821.092 4.225l17.587 5.614.434.125 11.21 3.177 5.31 1.505 6.081 1.727c1.228.351 2.512-.365 2.863-1.598.348-1.235-.368-2.518-1.601-2.869zm-41.887-7.683c-.042-1.404-.069-2.816-.092-4.225l-2.23-.633c.028 1.621.065 3.241.12 4.857l19.789 5.614zm41.887 7.683-8.953-2.539-2.133-.606-8.269-27.172-2.17-7.134c-.346-1.15-1.505-1.828-2.655-1.607-.083.014-.162.037-.24.06-.102.032-.199.069-.291.115-.051.023-.102.046-.148.074h-.005c-.051.028-.097.055-.143.088-.046.028-.092.06-.138.097-.046.032-.088.065-.129.106-.042.032-.083.074-.12.111-.065.065-.125.134-.18.208-.051.065-.102.134-.143.203-.032.051-.06.102-.088.157s-.055.111-.079.166c-.042.092-.074.189-.097.291-.014.037-.023.074-.028.111-.014.051-.023.097-.032.148-.014.111-.023.226-.023.342 0 .226.032.452.102.679l1.062 3.472v.014l.471 1.542 8.034 26.424-7.761-2.202-.42-.12-.037-.009-3.661-1.039c-.079-.942-.152-1.888-.217-2.835s-.125-1.893-.18-2.84c-.055-.951-.106-1.898-.152-2.849-.115-2.438-.199-4.876-.249-7.318-.014-.457-.023-.914-.028-1.371-.042-2.438-.06-4.871-.046-7.309 0-.383.005-.766.009-1.154.005-.776.014-1.547.023-2.322.009-.725.018-1.45.032-2.175.014-.799.032-1.598.051-2.396.083-3.412.208-6.82.36-10.213.079-1.861.171-3.717.268-5.568l.069-1.265c.069-1.265.139-2.526.217-3.786.028-.471.055-.942.083-1.408.051-.859.106-1.722.157-2.581.055-.859.111-1.718.166-2.572.005-.037.005-.069.005-.106.023-.296.042-.596.06-.891.143-.3.226-.633.226-.983 0-.051-.005-.102-.005-.157.323.005.646.018.965.032.097.005.194.009.291.014.042.005.088.005.134.009.263.014.526.032.785.055.314.023.623.055.928.088.115.009.231.023.346.037.296.037.586.074.877.115.185.023.369.051.554.083.277.042.559.088.84.138l.069.014c-1.953-2.045-4.709-3.324-7.757-3.324h-3.407c.305.563.522 1.177.637 1.828-.06.933-.125 1.87-.185 2.812-.148 2.253-.286 4.52-.42 6.796-.18 3.061-.346 6.141-.489 9.23-.656 14.165-.845 28.613.222 42.824l-8.943-2.539-2.23-.633c.028 1.621.065 3.241.12 4.857l19.789 5.614.434.125 11.21 3.177 5.31 1.505 6.081 1.727c1.228.351 2.512-.365 2.863-1.598.35-1.233-.366-2.516-1.599-2.867zm-29.393-72.859h-3.407c.305.563.522 1.177.637 1.828-.06.933-.125 1.87-.185 2.812-.148 2.253-.286 4.52-.42 6.796-.18 3.061-.346 6.141-.489 9.23v1.39h4.585c.079-1.861.171-3.717.268-5.568l.069-1.265c.069-1.265.139-2.526.217-3.786.028-.471.055-.942.083-1.408.051-.859.106-1.722.157-2.581.055-.859.111-1.718.166-2.572.005-.037.005-.069.005-.106.023-.296.042-.596.06-.891.143-.3.226-.633.226-.983 0-.051-.005-.102-.005-.157.323.005.646.018.965.032.097.005.194.009.291.014.042.005.088.005.134.009.263.014.526.032.785.055.314.023.623.055.928.088.115.009.231.023.346.037.296.037.586.074.877.115.185.023.369.051.554.083.277.042.559.088.84.138l.069.014c-1.952-2.045-4.708-3.324-7.756-3.324zm29.393 72.859-8.953-2.539-2.133-.606-8.269-27.172-2.17-7.134c-.346-1.15-1.505-1.828-2.655-1.607-.083.014-.162.037-.24.06-.102.032-.199.069-.291.115-.051.023-.102.046-.148.074h-.005c-.051.028-.097.055-.143.088-.046.028-.092.06-.138.097-.046.032-.088.065-.129.106-.042.032-.083.074-.12.111-.065.065-.125.134-.18.208-.051.065-.102.134-.143.203-.032.051-.06.102-.088.157s-.055.111-.079.166c-.042.092-.074.189-.097.291-.014.037-.023.074-.028.111-.014.051-.023.097-.032.148-.014.111-.023.226-.023.342 0 .226.032.452.102.679l1.062 3.472v.014l.471 1.542 8.034 26.424-7.761-2.202-.42-.12-.037-.009c.088 1.639.189 3.278.314 4.913l.434.125 11.21 3.177 5.31 1.505 6.081 1.727c1.228.351 2.512-.365 2.863-1.598.35-1.234-.366-2.517-1.599-2.868zm-24.614-6.981-3.661-1.039c-.079-.942-.152-1.888-.217-2.835s-.125-1.893-.18-2.84c-.055-.951-.106-1.898-.152-2.849-.115-2.438-.199-4.876-.249-7.318-.014-.457-.023-.914-.028-1.371-.042-2.438-.06-4.871-.046-7.309 0-.383.005-.766.009-1.154.005-.776.014-1.547.023-2.322.009-.725.018-1.45.032-2.175.014-.799.032-1.598.051-2.396.083-3.412.208-6.82.36-10.213h-4.585v-1.39c-.656 14.165-.845 28.613.222 42.824l-8.943-2.539-2.23-.633c.028 1.621.065 3.241.12 4.857l19.789 5.614c-.126-1.634-.227-3.273-.315-4.912zm24.614 6.981-8.953-2.539-2.133-.606-8.269-27.172-2.17-7.134c-.346-1.15-1.505-1.828-2.655-1.607-.083.014-.162.037-.24.06-.102.032-.199.069-.291.115-.051.023-.102.046-.148.074h-.005c-.051.028-.097.055-.143.088-.046.028-.092.06-.138.097-.046.032-.088.065-.129.106-.042.032-.083.074-.12.111-.065.065-.125.134-.18.208-.051.065-.102.134-.143.203-.032.051-.06.102-.088.157s-.055.111-.079.166c-.042.092-.074.189-.097.291-.014.037-.023.074-.028.111-.014.051-.023.097-.032.148-.014.111-.023.226-.023.342 0 .226.032.452.102.679l1.062 3.472v.014l.471 1.542 8.034 26.424-7.761-2.202-.42-.12-.037-.009-3.661-1.039c-.079-.942-.152-1.888-.217-2.835s-.125-1.893-.18-2.84c-.055-.951-.106-1.898-.152-2.849-.115-2.438-.199-4.876-.249-7.318-.014-.457-.023-.914-.028-1.371-.042-2.438-.06-4.871-.046-7.309 0-.383.005-.766.009-1.154.005-.776.014-1.547.023-2.322.009-.725.018-1.45.032-2.175.014-.799.032-1.598.051-2.396.083-3.412.208-6.82.36-10.213h-4.585v-1.39c-.656 14.165-.845 28.613.222 42.824l-8.943-2.539-2.23-.633c.028 1.621.065 3.241.12 4.857l19.789 5.614.434.125 11.21 3.177 5.31 1.505 6.081 1.727c1.228.351 2.512-.365 2.863-1.598.349-1.233-.367-2.516-1.6-2.867zm-29.393-72.859h-3.407c.305.563.522 1.177.637 1.828-.06.933-.125 1.87-.185 2.812-.148 2.253-.286 4.52-.42 6.796-.18 3.061-.346 6.141-.489 9.23v1.39h4.585c.079-1.861.171-3.717.268-5.568l.069-1.265c.069-1.265.139-2.526.217-3.786.028-.471.055-.942.083-1.408.051-.859.106-1.722.157-2.581.055-.859.111-1.718.166-2.572.005-.037.005-.069.005-.106.023-.296.042-.596.06-.891.143-.3.226-.633.226-.983 0-.051-.005-.102-.005-.157.323.005.646.018.965.032.097.005.194.009.291.014.042.005.088.005.134.009.263.014.526.032.785.055.314.023.623.055.928.088.115.009.231.023.346.037.296.037.586.074.877.115.185.023.369.051.554.083.277.042.559.088.84.138l.069.014c-1.952-2.045-4.708-3.324-7.756-3.324zm29.393 72.859-8.953-2.539-2.133-.606-8.269-27.172-2.17-7.134c-.346-1.15-1.505-1.828-2.655-1.607-.083.014-.162.037-.24.06-.102.032-.199.069-.291.115-.051.023-.102.046-.148.074h-.005c-.051.028-.097.055-.143.088-.046.028-.092.06-.138.097-.046.032-.088.065-.129.106-.042.032-.083.074-.12.111-.065.065-.125.134-.18.208-.051.065-.102.134-.143.203-.032.051-.06.102-.088.157s-.055.111-.079.166c-.042.092-.074.189-.097.291-.014.037-.023.074-.028.111-.014.051-.023.097-.032.148-.014.111-.023.226-.023.342 0 .226.032.452.102.679l1.062 3.472v.014l.471 1.542 8.034 26.424-7.761-2.202-.42-.12-.037-.009c.088 1.639.189 3.278.314 4.913l.434.125 11.21 3.177 5.31 1.505 6.081 1.727c1.228.351 2.512-.365 2.863-1.598.35-1.234-.366-2.517-1.599-2.868zm-24.614-6.981-3.661-1.039c-.079-.942-.152-1.888-.217-2.835s-.125-1.893-.18-2.84c-.055-.951-.106-1.898-.152-2.849-.115-2.438-.199-4.876-.249-7.318-.014-.457-.023-.914-.028-1.371-.042-2.438-.06-4.871-.046-7.309 0-.383.005-.766.009-1.154.005-.776.014-1.547.023-2.322.009-.725.018-1.45.032-2.175.014-.799.032-1.598.051-2.396.083-3.412.208-6.82.36-10.213h-4.585v-1.39c-.656 14.165-.845 28.613.222 42.824l-8.943-2.539-2.23-.633-4.382-1.242c-.092-.028-.185-.051-.277-.074.014 1.616.046 3.227.092 4.843l4.686 1.33 19.789 5.614c-.125-1.634-.226-3.273-.314-4.912zm-4.779-65.878h-3.407c.305.563.522 1.177.637 1.828-.06.933-.125 1.87-.185 2.812-.148 2.253-.286 4.52-.42 6.796-.18 3.061-.346 6.141-.489 9.23v1.39h4.585c.079-1.861.171-3.717.268-5.568l.069-1.265c.069-1.265.139-2.526.217-3.786.028-.471.055-.942.083-1.408.051-.859.106-1.722.157-2.581.055-.859.111-1.718.166-2.572.005-.037.005-.069.005-.106.023-.296.042-.596.06-.891.143-.3.226-.633.226-.983 0-.051-.005-.102-.005-.157.323.005.646.018.965.032.097.005.194.009.291.014.042.005.088.005.134.009.263.014.526.032.785.055.314.023.623.055.928.088.115.009.231.023.346.037.296.037.586.074.877.115.185.023.369.051.554.083.277.042.559.088.84.138l.069.014c-1.952-2.045-4.708-3.324-7.756-3.324zm29.393 72.859-8.953-2.539-2.133-.606-8.269-27.172-2.17-7.134c-.346-1.15-1.505-1.828-2.655-1.607-.083.014-.162.037-.24.06-.102.032-.199.069-.291.115-.051.023-.102.046-.148.074h-.005c-.051.028-.097.055-.143.088-.046.028-.092.06-.138.097-.046.032-.088.065-.129.106-.042.032-.083.074-.12.111-.065.065-.125.134-.18.208-.051.065-.102.134-.143.203-.032.051-.06.102-.088.157s-.055.111-.079.166c-.042.092-.074.189-.097.291-.014.037-.023.074-.028.111-.014.051-.023.097-.032.148-.014.111-.023.226-.023.342 0 .226.032.452.102.679l1.062 3.472v.014l.471 1.542 8.034 26.424-7.761-2.202-.42-.12-.037-.009c.088 1.639.189 3.278.314 4.913l.434.125 11.21 3.177 5.31 1.505 6.081 1.727c1.228.351 2.512-.365 2.863-1.598.35-1.234-.366-2.517-1.599-2.868zm-24.614-6.981-3.661-1.039c-.079-.942-.152-1.888-.217-2.835s-.125-1.893-.18-2.84c-.055-.951-.106-1.898-.152-2.849-.115-2.438-.199-4.876-.249-7.318-.014-.457-.023-.914-.028-1.371-.042-2.438-.06-4.871-.046-7.309 0-.383.005-.766.009-1.154.005-.776.014-1.547.023-2.322.009-.725.018-1.45.032-2.175.014-.799.032-1.598.051-2.396.083-3.412.208-6.82.36-10.213h-4.585v-1.39c-.656 14.165-.845 28.613.222 42.824l-8.943-2.539-2.23-.633-4.382-1.242c-.092-.028-.185-.051-.277-.074.014 1.616.046 3.227.092 4.843l4.686 1.33 19.789 5.614c-.125-1.634-.226-3.273-.314-4.912zm-4.779-65.878h-3.407c.305.563.522 1.177.637 1.828-.06.933-.125 1.87-.185 2.812-.148 2.253-.286 4.52-.42 6.796-.18 3.061-.346 6.141-.489 9.23v1.39h4.585c.079-1.861.171-3.717.268-5.568l.069-1.265c.069-1.265.139-2.526.217-3.786.028-.471.055-.942.083-1.408.051-.859.106-1.722.157-2.581.055-.859.111-1.718.166-2.572.005-.037.005-.069.005-.106.023-.296.042-.596.06-.891.143-.3.226-.633.226-.983 0-.051-.005-.102-.005-.157.323.005.646.018.965.032.097.005.194.009.291.014.042.005.088.005.134.009.263.014.526.032.785.055.314.023.623.055.928.088.115.009.231.023.346.037.296.037.586.074.877.115.185.023.369.051.554.083.277.042.559.088.84.138l.069.014c-1.952-2.045-4.708-3.324-7.756-3.324zm29.393 72.859-8.953-2.539-2.133-.606-8.269-27.172-2.17-7.134c-.346-1.15-1.505-1.828-2.655-1.607-.083.014-.162.037-.24.06-.102.032-.199.069-.291.115-.051.023-.102.046-.148.074h-.005c-.051.028-.097.055-.143.088-.046.028-.092.06-.138.097-.046.032-.088.065-.129.106-.042.032-.083.074-.12.111-.065.065-.125.134-.18.208-.051.065-.102.134-.143.203-.032.051-.06.102-.088.157s-.055.111-.079.166c-.042.092-.074.189-.097.291-.014.037-.023.074-.028.111-.014.051-.023.097-.032.148-.014.111-.023.226-.023.342 0 .226.032.452.102.679l1.062 3.472v.014l.471 1.542 8.034 26.424-7.761-2.202-.42-.12-.037-.009c.088 1.639.189 3.278.314 4.913l.434.125 11.21 3.177 5.31 1.505 6.081 1.727c1.228.351 2.512-.365 2.863-1.598.35-1.234-.366-2.517-1.599-2.868zm-24.614-6.981-3.661-1.039c-.079-.942-.152-1.888-.217-2.835s-.125-1.893-.18-2.84c-.055-.951-.106-1.898-.152-2.849-.115-2.438-.199-4.876-.249-7.318-.014-.457-.023-.914-.028-1.371-.042-2.438-.06-4.871-.046-7.309 0-.383.005-.766.009-1.154.005-.776.014-1.547.023-2.322.009-.725.018-1.45.032-2.175.014-.799.032-1.598.051-2.396.083-3.412.208-6.82.36-10.213h-4.585v-1.39c-.656 14.165-.845 28.613.222 42.824l-8.943-2.539-2.23-.633-4.382-1.242c-.092-.028-.185-.051-.277-.074.014 1.616.046 3.227.092 4.843l4.686 1.33 19.789 5.614c-.125-1.634-.226-3.273-.314-4.912zm24.614 6.981-8.953-2.539-2.133-.606-8.269-27.172-2.17-7.134c-.346-1.15-1.505-1.828-2.655-1.607-.083.014-.162.037-.24.06-.102.032-.199.069-.291.115-.051.023-.102.046-.148.074h-.005c-.051.028-.097.055-.143.088-.046.028-.092.06-.138.097-.046.032-.088.065-.129.106-.042.032-.083.074-.12.111-.065.065-.125.134-.18.208-.051.065-.102.134-.143.203-.032.051-.06.102-.088.157s-.055.111-.079.166c-.042.092-.074.189-.097.291-.014.037-.023.074-.028.111-.014.051-.023.097-.032.148-.014.111-.023.226-.023.342 0 .226.032.452.102.679l1.062 3.472v.014l.471 1.542 8.034 26.424-7.761-2.202-.42-.12-.037-.009c.088 1.639.189 3.278.314 4.913l.434.125 11.21 3.177 5.31 1.505 6.081 1.727c1.228.351 2.512-.365 2.863-1.598.35-1.234-.366-2.517-1.599-2.868zm-44.209-12.54-4.382-1.242c-.092-.028-.185-.051-.277-.074.014 1.616.046 3.227.092 4.843l4.686 1.33c-.055-1.616-.092-3.237-.119-4.857zm0 0-4.382-1.242c-.092-.028-.185-.051-.277-.074.014 1.616.046 3.227.092 4.843l4.686 1.33c-.055-1.616-.092-3.237-.119-4.857zm0 0-4.382-1.242c-.092-.028-.185-.051-.277-.074.014 1.616.046 3.227.092 4.843l4.686 1.33c-.055-1.616-.092-3.237-.119-4.857zm0 0-4.382-1.242c-.092-.028-.185-.051-.277-.074.014 1.616.046 3.227.092 4.843l4.686 1.33c-.055-1.616-.092-3.237-.119-4.857z" fill="#160f60"/><path d="m194.069 277.198c0 .245-.009.485-.032.725-.009.115-.028.231-.042.346h-.005c-.009.088-.023.175-.042.259-.005.032-.009.06-.018.088-.009.055-.018.106-.032.162 0 .005 0 .014-.005.018.005.005 0 .009 0 .014-.005.009-.005.018-.005.028-.009.014-.009.032-.014.051-.005.014-.009.028-.014.046-.032.134-.069.268-.111.397-.032.097-.06.194-.097.286-.051.139-.102.272-.162.406-.009.023-.018.051-.032.074-.046.115-.102.231-.162.342-.028.06-.06.115-.092.175s-.065.12-.102.18c-.028.046-.055.092-.083.139-.078.125-.157.249-.245.369-.051.074-.106.148-.157.217-.194.254-.406.499-.637.729-.115.111-.231.222-.351.323-.115.106-.24.203-.365.3-.078.06-.157.12-.24.175-.088.06-.175.125-.268.18-.088.055-.18.111-.272.166-.083.051-.166.097-.249.138 0 .005-.005.005-.005.005-.014.005-.023.009-.032.018-.12.06-.245.12-.369.171-.115.055-.231.106-.351.148-.152.055-.305.111-.457.157-.092.028-.185.055-.277.078-.088.018-.175.042-.263.06-.005.005-.009.005-.014.005-.092.018-.185.037-.282.055-.079.014-.157.028-.235.037-.199.028-.402.051-.6.06-.111.009-.226.014-.337.014h-.055c-.005 0-.005 0-.009 0-.005 0-.005 0-.009 0h-.014l-52.192-.083-23.072-.037-1.653-.005c-3.925-.005-7.12-3.204-7.12-7.129v-102.771c0-.083-.005-.166-.014-.249-.005-.042-.009-.083-.018-.125-.005-.046-.014-.088-.023-.129 0-.005 0-.005 0-.009-.014-.051-.028-.106-.042-.152 0-.005-.005-.009-.005-.014-.018-.065-.042-.125-.065-.185 0-.005 0-.005-.005-.009-.028-.074-.06-.148-.097-.217 0 0 0-.005-.005-.005-.023-.042-.042-.083-.069-.12-.018-.028-.037-.06-.055-.088-.005-.009-.014-.018-.023-.028-.032-.051-.069-.102-.111-.148-.014-.018-.028-.032-.046-.051-.005-.014-.014-.023-.032-.037-.014-.018-.032-.037-.046-.051-.042-.042-.083-.083-.129-.12-.005-.005-.009-.009-.014-.009-.065-.06-.134-.115-.203-.166-.051-.037-.106-.069-.162-.102-.032-.014-.06-.037-.092-.051-.005-.005-.009-.005-.014-.009-.014-.005-.023-.014-.037-.014-.051-.028-.102-.051-.152-.069-.069-.028-.143-.051-.217-.074-.055-.018-.111-.032-.166-.042-.014-.005-.023-.005-.037-.009-.06-.009-.12-.018-.18-.023-.023-.005-.042-.005-.065-.005-.065-.009-.129-.014-.199-.014-1.279 0-2.318 1.039-2.318 2.322v36.96l-13.381 9.244v-61.09c0-19.798 15.657-35.903 34.906-35.903h37.611c.342.083.683.079 1.011 0h.439c-1.085 16.843-1.782 32.5-1.21 48.157-1.907.388-3.768 1.071-5.522 2.05-4.432 2.47-7.628 6.506-9.003 11.354-1.376 4.853-.776 9.964 1.699 14.396 2.045 3.675 5.171 6.496 8.943 8.14.374.166.753.314 1.14.452.416.152.845.291 1.274.411l1.408.402c.069.323.143.651.217.979.083.36.171.725.268 1.094.037.152.078.305.12.462s.083.314.129.466c.06.222.125.448.189.669.065.226.134.452.203.679.268.863.563 1.741.891 2.632v.005c4.88 13.33 15.906 28.899 26.576 36.429 2.664 1.884 5.305 3.269 7.826 3.989l.014 3.186z" fill="#ffe471"/><path d="m98.249 216.912v10.065l-27.315 18.058c-2.382 1.574-3.8 4.215-3.8 7.069v39.689l-7.895-3.052c-.305-.115-.508-.415-.503-.743l.429-40.46c.028-2.29 1.164-4.437 3.052-5.739l9.738-6.727 9.798-6.764z" fill="#fff"/><path d="m201.396 194.232-25.782-7.332-4.686-1.33-1.08-.305c-3.657-1.039-7.517-.577-10.864 1.288-3.352 1.87-5.767 4.913-6.806 8.574-.536 1.898-.669 3.846-.416 5.753-.055-.046-.106-.092-.157-.143-.102-.083-.199-.175-.286-.272-.014-.009-.023-.014-.023-.023-.129-.12-.249-.245-.365-.369-.157-.166-.309-.337-.452-.512-.009-.005-.018-.014-.023-.023-.102-.12-.203-.245-.3-.369-.032-.037-.06-.069-.083-.106-.037-.042-.069-.088-.102-.134-.023-.018-.037-.042-.051-.065-.106-.143-.212-.286-.314-.434-.272-.388-.522-.79-.757-1.21-1.865-3.347-2.322-7.207-1.288-10.864 1.039-3.661 3.454-6.704 6.806-8.574 3.347-1.865 7.207-2.327 10.864-1.288l1.08.305 4.686 1.33 19.789 5.614.434.125 11.21 3.177 5.31 1.505c.619 3.651-2.784 6.698-6.344 5.682z" fill="#fff"/><path d="m220.756 139.436c-.032-.051-.074-.106-.111-.157-.023-.032-.046-.065-.069-.097-.106-.148-.217-.296-.332-.443-.042-.065-.088-.125-.138-.18-.06-.083-.125-.166-.194-.249-.129-.175-.268-.351-.411-.522-.088-.111-.176-.217-.263-.323-.388-.466-.79-.928-1.201-1.371-.152-.166-.305-.328-.462-.489-.143-.152-.286-.305-.439-.452-.166-.171-.332-.332-.503-.503-.36-.346-.725-.688-1.099-1.016-.005-.005-.005-.005-.009-.009-.452-.434-.942-.84-1.436-1.233-.757-.6-1.533-1.168-2.322-1.708-.148-.102-.296-.203-.448-.3-.152-.102-.3-.199-.452-.291-.282-.18-.568-.356-.854-.526-.231-.143-.466-.277-.702-.411-.485-.277-.979-.54-1.477-.794 0-.005 0-.005-.005-.005-.051-.023-.102-.051-.152-.074-.212-.111-.429-.217-.646-.319-.032-.018-.065-.032-.097-.046-.222-.106-.448-.208-.67-.309-.06-.028-.115-.051-.175-.078-.388-.171-.78-.337-1.177-.499-.208-.083-.415-.162-.623-.24-.152-.06-.3-.115-.448-.166-.171-.065-.337-.125-.503-.18-.222-.078-.443-.152-.665-.222-.314-.106-.628-.203-.942-.296-.217-.065-.434-.125-.651-.185s-.439-.12-.656-.175c-.776-.199-1.561-.369-2.35-.517h-.005l-.069-.014c-.282-.051-.563-.097-.84-.138-.185-.032-.369-.06-.554-.083-.291-.042-.582-.078-.877-.115-.115-.014-.231-.028-.346-.037-.305-.032-.614-.065-.928-.088-.259-.023-.522-.041-.785-.055-.046-.005-.092-.005-.134-.009-.097-.005-.194-.009-.291-.014-.263-.009-.526-.023-.794-.028v-.078h-5.056c.023-.471.051-.942.074-1.408.046-.859.097-1.722.139-2.581.051-.859.102-1.718.148-2.572-.125-.042-.249-.074-.374-.106.023-.296.042-.596.06-.891.143-.3.226-.633.226-.983 0-.051-.005-.102-.005-.157.323.005.646.018.965.032.097.005.194.009.291.014.042.005.088.005.134.009.263.014.526.032.785.055.314.023.623.055.928.088.115.009.231.023.346.037.296.037.586.074.877.115.185.023.369.051.554.083.277.042.559.088.84.138l.069.014h.005c.79.148 1.575.319 2.35.517.217.055.439.115.656.175s.434.12.651.185c.314.092.628.189.942.296.222.069.443.143.665.222.166.055.332.115.503.18.148.051.296.106.448.166.208.079.416.157.623.24.397.162.79.328 1.177.499.06.028.115.051.175.078.222.102.448.203.67.309.032.014.065.028.097.046.217.102.434.208.646.319.051.023.102.051.152.074.005 0 .005 0 .005.005.499.254.993.517 1.477.794.235.134.471.268.702.411.286.171.573.346.854.526.152.092.3.189.452.291.152.097.3.199.448.3.439.3.873.609 1.302.928.716.536 1.408 1.094 2.082 1.681.129.111.259.222.383.342.374.328.739.669 1.099 1.016.171.171.337.332.503.503.152.148.296.3.439.452.162.162.314.323.462.489.411.443.813.905 1.201 1.371.088.106.175.212.263.323.143.171.282.346.411.522.069.083.139.166.194.249.051.055.097.115.138.18.115.148.226.296.332.443.023.032.046.065.069.097.143.194.282.388.415.582.162.235.323.466.48.706.157.235.309.471.462.716.134.208.263.42.388.633.055.088.111.18.162.272.088.148.176.295.259.448.199.342.388.688.568 1.039.106.199.208.397.309.6.129.254.254.512.379.776.125.263.245.526.36.79.111.254.222.508.328.766.216.524.429 1.055.618 1.6z" fill="#fff"/><path d="m237.849 111.087c-2.881-1.413-6.118-2.207-9.539-2.207h-43.217c-1.976-2.309-4.903-3.777-8.172-3.777h-6.843c-4.197 0-7.835 2.419-9.604 5.933h-8.509c3.962-6.173 10.795-10.005 18.27-10.005h49.302c7.688-.001 14.452 4.012 18.312 10.056z" fill="#fff"/><path d="m182.923 114.78c-.06.933-.125 1.87-.185 2.812h-2.558c-2.692 0-4.922 2.221-5.347 5.116-1.094 17.938-1.972 34.366-1.741 50.563.005.212.009.42.014.633l-2.23-.633-4.382-1.242c-.092-.028-.185-.051-.277-.074-1.307-.351-2.632-.554-3.962-.619-.554-15.491.148-31.05 1.228-47.811.097-1.537.199-3.084.305-4.64.088-1.33.18-2.669.272-4.017v-.009c.476-2.895 2.987-5.116 6.016-5.116h6.843c2.318 0 4.336 1.297 5.365 3.209.306.563.523 1.177.639 1.828z" fill="#fff"/><path d="m159.334 115.847c0 .018.005.037.005.055-.175 2.572-.346 5.111-.503 7.623h-.439c-.328.079-.669.083-1.011 0h-37.611c-19.249 0-34.906 16.105-34.906 35.903v61.09l-3.117 2.152-8.773 6.058v-77.148c0-19.798 16.105-35.903 35.903-35.903h38.683c.351.083.702.079 1.039 0h10.735c-.001.059-.005.114-.005.17z" fill="#fff"/><path d="m84.85 252.063v19.909c0 1.279-1.039 2.318-2.322 2.318-1.279 0-2.318-1.039-2.318-2.318v-19.909c0-1.279 1.039-2.318 2.318-2.318 1.283 0 2.322 1.039 2.322 2.318z" fill="#160f60"/></g></svg>