<svg id="&#x428;&#x430;&#x440;_1" enable-background="new 0 0 300 300" viewBox="0 0 300 300" xmlns="http://www.w3.org/2000/svg"><g><path d="m139.768 33.397v.01l-.381 7.419c-.014.227-.058.449-.13.656-.203.603-.642 1.11-1.23 1.394l-11.549 5.63c-.762.371-1.626.309-2.301-.092l-4.94 3.555-.921-13.898 1.36 23.117-4.646 3.541-1.606 1.225-1.713-23.088c.024-1.293.574-2.513 1.549-3.444.087-.082.174-.159.265-.236l-.333-5.683c-.005-.053-.005-.106-.005-.154.014-2.784-2.364-5.061-5.302-5.075h-.024c-1.418 0-2.759.536-3.768 1.5-.974.931-1.524 2.152-1.549 3.444l2.306 31.125c0 .029-.005.063-.005.092 0 .034.01.063.01.097l-.034 7.974-2.195 1.674-2.653-1.857.034-7.719-2.171-1.891c.048.555-.087 1.129-.429 1.621-.468.675-1.221 1.037-1.988 1.037-.477 0-.965-.145-1.384-.439l-.574-.4-4.052-2.837c-.757-.531-1.148-1.442-1.008-2.354l.661-4.26-6.508 2.977-.994-1.688c-.511-.868-.429-1.959.198-2.745l.675-.844-.666.304-4.347-7.386 2.103-2.629.695-8.823.203-2.605c.092-1.182 1.027-2.123 2.21-2.224l9.171-.796-3.14-6.609c-.019-.039-.039-.082-.053-.121-.236-.569-.236-1.177-.043-1.722 0-.005 0-.005 0-.005.183-.531.555-.994 1.071-1.293l8.437-4.882 2.615-1.515c.97-.56 2.19-.386 2.967.42l1.177 1.23 5.76 6.001 4.361-6.643c.376-.574.97-.95 1.626-1.056.203-.039.41-.048.618-.029l4.221.371-.096 1.968 4.245-1.597 3.121.275c1.293.116 2.267 1.235 2.205 2.533l-.164 3.401v.005l1.954 3.893-.685.569 5.379-2.026.502.999c.506 1.008.251 2.229-.618 2.952l-4.043 3.363 4.998 1.91c.972.376 1.604 1.336 1.551 2.383z" fill="#6ea9ff"/><path d="m222 85.599c-.931 1.785-2.383 3.232-4.202 4.173l-7.526 3.917-5.485 2.856-34.362 17.898c-2.388 1.245-3.874 3.69-3.869 6.382l.005 5.418 4.318 8.051v2.205c0 .034.01.068.01.106.005.082.014.169.024.256.014.077.029.155.043.227.019.072.043.145.072.222.029.082.058.159.097.241.014.029.024.063.039.092l20.088 37.46c-.357.526-.921.892-1.563 1.008-.159.029-9.875 1.746-22.201 3.208l.574 3.126.468 2.533c-1.602.154-3.223.304-4.848.434l-.695-3.777-.328-1.775c-1.105.116-2.224.232-3.348.338-.56.058-1.124.106-1.693.159-.564.053-1.134.101-1.703.15-.724.063-1.452.121-2.176.179h-.029c-.584.048-1.167.092-1.751.13-.724.053-1.452.106-2.171.15-.121.01-.236.014-.352.019-.772.053-1.534.092-2.296.13l.926 5.017c-1.655-.015-3.309-.072-4.959-.164l-.864-4.665c-.024 0-.048 0-.077.005l-.839 4.544c-1.635-.111-3.256-.261-4.848-.434l.757-4.11c-5.34-.13-10.623-.647-15.5-1.336l-.555 3c-1.713-.357-3.305-.709-4.737-1.047l.502-2.706c-1.64-.28-3.213-.579-4.704-.878l2.234-4.525 14.738-29.9c1.327-2.687 2.026-5.692 2.026-8.688v-3.647c0-3.068-.733-6.136-2.118-8.872l-11.419-22.572c-2.46-4.863-3.748-10.309-3.724-15.756l.043-10.198c0-.034-.01-.063-.01-.097 0-.029.005-.063.005-.092l-.593-8.037-1.713-23.088c.024-1.293.574-2.513 1.549-3.444.087-.082.174-.159.265-.236.97-.815 2.205-1.264 3.502-1.264h.024c.434 0 .859.053 1.264.15l1.36 23.117.637 10.797c.005.024-.005.048 0 .072 0 .024.005.043.005.072 0 4.998 1.708 9.605 4.573 13.276.449 3.295 1.515 6.397 3.068 9.19 3.039 1.906 6.493 3.213 10.193 3.763.338.179.719.289 1.129.289h5.987l.092.005c7.709.053 19.784-2.393 26.88-5.456l23.412-10.102 15.133-6.532c.053-.024.101-.048.154-.072 1.187-.613 2.557-.728 3.85-.318 1.288.415 2.34 1.293 2.952 2.485.617 1.192.729 2.557.318 3.85s-1.293 2.34-2.489 2.962l-10.227 5.326-1.409.733-17.907 9.325 21.004-9.065 12.919-5.577c.053-.024.101-.048.154-.072.6-.312 1.241-.496 1.897-.544z" fill="#ffe471"/><path d="m213.867 94.804c-.029.024-.053.048-.073.072-.231.27-.396.574-.487.893-.265.888-.005 1.886.738 2.528l1.727 1.491 1.283-.671 3.343-1.741-3.184-2.75c-.988-.855-2.469-.768-3.347.178z" fill="#ffe471"/><path d="m250.969 77.306-7.912 2.952 6.271 6.541c.859.893.902 2.291.106 3.242l-7.26 8.602c-.728.864-1.954 1.11-2.957.598l-4.684-2.388.212 5.34c.044 1.052-.598 2.007-1.582 2.373l-6.971 2.571c-.121.044-.246.077-.367.101l.024-.275-2.817-2.513-5.977-5.336-3.748-3.348-.965-.864-2.07-1.216-3.242-1.901-1.688-.994 10.227-5.326c1.196-.622 2.079-1.669 2.489-2.962s.299-2.658-.318-3.85c-.613-1.192-1.664-2.07-2.952-2.485-1.293-.41-2.663-.294-3.85.318-.053.024-.101.048-.154.072l-15.133 6.532.84-4.028c.188-.907.873-1.626 1.765-1.852l4.178-1.076-.936-.849-4.983-4.515c-.034-.029-.063-.063-.087-.092-.844-.839-.95-2.171-.236-3.141l2.181-2.967 5.181-7.043c.593-.81 1.626-1.168 2.6-.902l6.435 1.78-1.317-4.236c-.396-1.259.289-2.595 1.534-3.02l6.927-2.345 6.098-2.065c1.124-.381 2.359.106 2.919 1.153l.106.203 4.236 7.912 4.593-5.21.246-.28c.835-.946 2.258-1.095 3.266-.338l1.688 1.259-3.753 8.848 7.829 1.394c.878.154 1.602.781 1.877 1.631l.989 3.02-1.529 3.604 2.875.511 1.254 3.83c.404 1.241-.237 2.577-1.458 3.03z" fill="#6ea9ff"/><path d="m227.495 257.054c-1.553-1.525-3.406-2.668-5.418-3.372-1.52-.535-3.131-.815-4.776-.815-5.823 0-10.917 4.178-12.76 10.198-.043.125-.077.251-.111.376-.044.15-.082.299-.121.449-.048.203-.097.405-.14.613-.048.217-.087.439-.126.661l-.309 1.838v.005l-.005.019c-.005.039-.019.072-.029.111-.024.116-.053.232-.092.342-.029.072-.068.135-.101.203-.034.077-.068.15-.111.222-.058.097-.13.183-.207.27-.024.034-.044.072-.077.101l-.01.015c-.005.005-.005.005-.005.005l-3.3 3.536c-.84.902-2.224 1.032-3.218.294l-.709-.526-2.87 2.822c-.029.024-.058.053-.082.082-2.007 2.171-5.022 2.489-7.338.772l-14.342-10.637c.101 1.804.926 3.531 2.378 4.612l16.846 12.495-1.462 8.679c-.13.762.212 1.298.424 1.549.212.256.685.68 1.457.68h8.534l-.815 4.848h17.695c3.353 0 6.228-2.504 6.691-5.828l4.25-30.436c0-.005 0-.005 0-.01.23-1.408.312-2.803.259-4.173zm-4.747 13.561-1.983 1.949.84-6.03c.429.096.835.318 1.167.656.941.95.931 2.489-.024 3.425z" fill="#6ea9ff"/><path d="m127.799 268.903v21.839c0 3.444-2.591 6.295-5.929 6.706v-4.988c-.251.126-.531.193-.83.193h-4.019v4.848h-40.455v-4.848h-4.848v4.848h-10.251v-18.949c0-2.523.381-4.959 1.085-7.251.039-.121.077-.241.116-.362s.077-.241.121-.362c.01-.029.019-.063.034-.092.01-.029.019-.058.029-.087 0-.01.005-.014.01-.024.005-.014.01-.029.014-.043.005-.015.005-.024.014-.039.005-.01.005-.024.01-.034.019-.068.043-.135.072-.203.063-.183.135-.367.203-.545.005-.01.01-.014.01-.019.087-.222.178-.439.27-.656.111-.265.232-.531.357-.791.005-.01.01-.024.015-.034.014-.034.034-.068.048-.101.019-.048.043-.092.067-.135.01-.029.024-.058.039-.082.029-.063.063-.121.092-.179.391-.786.82-1.544 1.293-2.277 4.4-6.865 12.099-11.419 20.835-11.419h20.71c.082 0 .159-.005.236-.015.077.01.159.015.236.015 4.631 0 8.973 1.283 12.683 3.507 2.875 1.722 5.369 4.009 7.333 6.71v.005c.265 1.583.4 3.209.4 4.864z" fill="#6ea9ff"/><path d="m217.658 192.227c-11.935 0-21.641 9.397-21.641 20.951s9.706 20.956 21.641 20.956 21.646-9.402 21.646-20.956c0-11.553-9.711-20.951-21.646-20.951zm0 37.059c-9.258 0-16.793-7.227-16.793-16.108 0-8.876 7.535-16.103 16.793-16.103 9.262 0 16.798 7.227 16.798 16.103 0 8.882-7.535 16.108-16.798 16.108z" fill="#160f60"/><path d="m234.456 213.179c0 8.881-7.535 16.108-16.798 16.108-9.258 0-16.793-7.227-16.793-16.108 0-8.876 7.535-16.103 16.793-16.103 9.263 0 16.798 7.226 16.798 16.103z" fill="#fff"/><path d="m148.794 45.747c-1.172-.232-2.378-.347-3.613-.347-8.273 0-15.336 5.287-17.989 12.659h-.005c-.728 2.021-1.124 4.197-1.124 6.464 0 10.541 8.577 19.118 19.118 19.118s19.123-8.577 19.123-19.118c-.001-9.307-6.687-17.083-15.51-18.776zm-3.614 33.045c-7.868 0-14.27-6.402-14.27-14.27 0-3.121 1.008-6.006 2.711-8.355 2.59-3.579 6.807-5.914 11.559-5.914 1.158 0 2.282.14 3.358.4 6.252 1.51 10.912 7.159 10.912 13.869 0 7.869-6.401 14.27-14.27 14.27z" fill="#160f60"/><path d="m159.45 64.522c0 7.868-6.402 14.27-14.27 14.27s-14.27-6.402-14.27-14.27c0-3.121 1.008-6.006 2.711-8.355 2.59-3.579 6.807-5.914 11.559-5.914 1.158 0 2.282.14 3.358.4 6.252 1.51 10.912 7.159 10.912 13.869z" fill="#fff"/><path d="m80.175 192.42c-11.448 0-20.758 9.311-20.758 20.758s9.311 20.763 20.758 20.763 20.758-9.315 20.758-20.763-9.31-20.758-20.758-20.758zm0 36.674c-8.775 0-15.91-7.14-15.91-15.915 0-8.77 7.135-15.91 15.91-15.91s15.91 7.14 15.91 15.91c0 8.775-7.135 15.915-15.91 15.915z" fill="#160f60"/><path d="m96.085 213.179c0 8.775-7.135 15.915-15.91 15.915s-15.91-7.14-15.91-15.915c0-8.77 7.135-15.91 15.91-15.91s15.91 7.139 15.91 15.91z" fill="#fff"/><path d="m98.072 13.989-8.437 4.882c-.516.299-.888.762-1.071 1.293-.014-.043-.034-.082-.053-.121l-3.681-7.743 7.473-4.327z" fill="#fff"/><path d="m91.801 28.621-9.171.796c-1.182.101-2.118 1.042-2.21 2.224l-.203 2.605-5.022-.521.733-9.306 10.603-.917c.791-.072 1.496-.521 1.891-1.211.072-.13.135-.265.183-.4.014.039.034.082.053.121z" fill="#fff"/><path d="m116.771 8.393-.193 4.033c-.656.106-1.25.482-1.626 1.056l-4.361 6.643-5.76-6.001 4.216-6.416z" fill="#fff"/><path d="m139.768 33.397v.01l-.381 7.419c-.014.227-.058.449-.13.656-.203.603-.642 1.11-1.23 1.394l-11.549 5.63c-.762.371-1.626.309-2.301-.092-.396-.236-.724-.584-.941-1.027-.072-.15-.13-.304-.169-.458-.285-1.09.232-2.267 1.288-2.779l10.266-5.003.217-4.231-7.217-2.759c-.806-.309-1.384-1.018-1.529-1.867-.14-.849.179-1.713.844-2.263l5.061-4.211.685-.569-1.954-3.893v-.005l-1.254-2.499-9.894 3.724c-.767.285-1.621.169-2.282-.314-.661-.478-1.032-1.259-.994-2.074l.275-5.76.193-4.033-7.724-.685-4.216 6.416-1.023 1.558c-.405.618-1.071 1.018-1.804 1.085-.738.067-1.462-.203-1.973-.738l-1.959-2.041-5.77-6.016-7.473 4.327 3.681 7.743c.019.039.039.077.053.121v.005c.227.55.241 1.163.043 1.722-.048.135-.111.27-.183.4-.395.69-1.1 1.138-1.891 1.211l-10.603.918-.733 9.306 5.022.521 1.462.15c.883.092 1.64.661 1.983 1.476.342.82.212 1.761-.342 2.451l-3.797 4.747-2.103 2.629 4.347 7.386.666-.304 8.698-3.985c.81-.371 1.761-.265 2.47.275.714.536 1.071 1.418.936 2.301l-1.114 7.217 3.391 2.369c.232.164.424.357.579.579.251.352.4.757.444 1.177.048.555-.087 1.129-.429 1.621-.468.675-1.221 1.037-1.988 1.037-.477 0-.965-.145-1.384-.439l-.574-.4-4.052-2.837c-.757-.531-1.148-1.442-1.008-2.354l.661-4.26-6.508 2.977-.757.347c-1.129.516-2.465.097-3.097-.974l-6.305-10.71c-.511-.868-.429-1.959.198-2.745l4.168-5.215-4.414-.458c-1.307-.135-2.267-1.288-2.166-2.6l1.076-13.71c.092-1.182 1.027-2.123 2.21-2.224l9.171-.796-3.14-6.609c-.545-1.143-.121-2.509.974-3.14l11.052-6.397c.97-.56 2.19-.386 2.967.42l6.937 7.231 4.361-6.643c.492-.748 1.355-1.163 2.243-1.085l11.491 1.018c1.293.116 2.267 1.235 2.205 2.533l-.309 6.469-.096 1.968 4.245-1.597 4.24-1.597c1.158-.434 2.465.072 3.02 1.182l4.549 9.065.502.999c.506 1.008.251 2.229-.618 2.952l-4.043 3.363 4.998 1.91c.97.374 1.602 1.334 1.549 2.381z" fill="#160f60"/><path d="m211.271 54.175 1.317 4.236-6.435-1.78c-.974-.265-2.007.092-2.6.902l-5.181 7.043-6.146-5.572 5.08-6.903 9.103 2.518c.854.236 1.77-.014 2.388-.651s.835-1.558.574-2.403l-1.934-6.223 8.838-2.996 3.459 6.464-6.927 2.345c-1.246.424-1.931 1.76-1.536 3.02z" fill="#fff"/><path d="m237.684 50.802-4.593 5.21-4.236-7.911 2.065-2.345z" fill="#fff"/><path d="m250.969 77.306-7.912 2.952 6.271 6.541c.859.893.902 2.291.106 3.242l-7.26 8.602c-.728.864-1.954 1.11-2.957.598l-4.684-2.388.212 5.34c.044 1.052-.598 2.007-1.582 2.373l-6.971 2.571c-.121.044-.246.077-.367.101-.155.034-.314.048-.473.048-.574 0-1.138-.203-1.582-.588l-7.371-6.373-.627-.54-1.727-1.491c-.743-.642-1.003-1.64-.738-2.528.092-.318.256-.622.487-.893.019-.024.044-.048.073-.072.878-.946 2.359-1.032 3.348-.179l3.184 2.75 5.456 4.718 3.975-1.467-.304-7.719c-.034-.859.391-1.674 1.114-2.137.724-.463 1.64-.511 2.407-.121l6.662 3.396 4.612-5.466-7.318-7.627c-.564-.589-.796-1.423-.613-2.219s.753-1.447 1.515-1.732l9.19-3.425-2.412-7.371-9.397-1.674c-.724-.125-1.356-.584-1.703-1.23-.352-.651-.391-1.423-.102-2.103l4.361-10.275-.159-.121-6.764-5.046-2.065 2.344-3.604 4.091c-.526.593-1.312.897-2.098.801-.786-.087-1.481-.56-1.857-1.264l-1.563-2.919-3.459-6.464-8.838 2.996 1.934 6.223c.261.844.044 1.766-.574 2.403-.617.637-1.534.888-2.388.651l-9.103-2.518-5.08 6.903 6.146 5.572 1.486 1.346c.661.603.936 1.515.724 2.378-.212.868-.888 1.544-1.751 1.766l-2.403.618-4.665 1.201-.844 4.052c-.135.651-.521 1.182-1.032 1.52-.521.347-1.177.492-1.838.357-1.211-.256-2.017-1.36-1.92-2.562.01-.101.024-.203.043-.309l1.153-5.524c.188-.907.873-1.626 1.765-1.852l4.178-1.076-5.919-5.365c-.921-.835-1.061-2.229-.323-3.232l7.362-10.01c.593-.81 1.626-1.168 2.6-.902l6.435 1.78-1.317-4.236c-.396-1.259.289-2.595 1.534-3.02l13.025-4.409c1.124-.381 2.359.106 2.919 1.153l4.342 8.114 4.839-5.49c.835-.946 2.258-1.095 3.266-.338l10.237 7.637c.897.671 1.22 1.862.781 2.89l-.164.381-3.753 8.848 7.829 1.394c.878.154 1.602.781 1.877 1.631l.989 3.02 1.346 4.115 1.254 3.83c.406 1.239-.235 2.575-1.456 3.028z" fill="#160f60"/><path d="m195.872 271.599.709.526c.994.738 2.378.608 3.218-.294l3.3-3.536s0 0 .005-.005l.01-.015c.034-.029.053-.067.077-.101.077-.087.149-.174.207-.27.043-.072.077-.145.111-.222.034-.068.072-.13.101-.203.039-.111.068-.227.092-.342.01-.039.024-.072.029-.111l.005-.019v-.005l.309-1.838c.039-.222.077-.444.126-.661.043-.208.087-.41.14-.613.039-.15.077-.299.121-.449.034-.125.068-.251.111-.376zm-130.893-6.397c-1.341 0-2.427 1.085-2.427 2.427v3.671c.039-.121.077-.241.116-.362s.077-.241.121-.362c.01-.029.019-.063.034-.092.01-.029.019-.058.029-.087 0-.01.005-.014.01-.024.005-.014.01-.029.014-.043.005-.015.005-.024.014-.039.005-.01.005-.024.01-.034.019-.068.043-.135.072-.203.063-.183.135-.367.203-.545.005-.01.01-.014.01-.019.087-.222.178-.439.27-.656.111-.265.232-.531.357-.791.005-.01.01-.024.015-.034.014-.034.034-.068.048-.101.019-.048.043-.092.067-.135.01-.029.024-.058.039-.082.029-.063.063-.121.092-.179.391-.786.82-1.544 1.293-2.277-.127-.023-.257-.033-.387-.033zm130.893 6.397.709.526c.994.738 2.378.608 3.218-.294l3.3-3.536s0 0 .005-.005l.01-.015c.034-.029.053-.067.077-.101.077-.087.149-.174.207-.27.043-.072.077-.145.111-.222.034-.068.072-.13.101-.203.039-.111.068-.227.092-.342.01-.039.024-.072.029-.111l.005-.019v-.005l.309-1.838c.039-.222.077-.444.126-.661.043-.208.087-.41.14-.613.039-.15.077-.299.121-.449.034-.125.068-.251.111-.376zm-130.893-6.397c-1.341 0-2.427 1.085-2.427 2.427v3.671c.039-.121.077-.241.116-.362s.077-.241.121-.362c.01-.029.019-.063.034-.092.01-.029.019-.058.029-.087 0-.01.005-.014.01-.024.005-.014.01-.029.014-.043.005-.015.005-.024.014-.039.005-.01.005-.024.01-.034.019-.068.043-.135.072-.203.063-.183.135-.367.203-.545.005-.01.01-.014.01-.019.087-.222.178-.439.27-.656.111-.265.232-.531.357-.791.005-.01.01-.024.015-.034.014-.034.034-.068.048-.101.019-.048.043-.092.067-.135.01-.029.024-.058.039-.082.029-.063.063-.121.092-.179.391-.786.82-1.544 1.293-2.277-.127-.023-.257-.033-.387-.033zm130.893 6.397.709.526c.994.738 2.378.608 3.218-.294l3.3-3.536s0 0 .005-.005l.01-.015c.034-.029.053-.067.077-.101.077-.087.149-.174.207-.27.043-.072.077-.145.111-.222.034-.068.072-.13.101-.203.039-.111.068-.227.092-.342.01-.039.024-.072.029-.111l.005-.019v-.005l.309-1.838c.039-.222.077-.444.126-.661.043-.208.087-.41.14-.613.039-.15.077-.299.121-.449.034-.125.068-.251.111-.376zm-130.893-6.397c-1.341 0-2.427 1.085-2.427 2.427v3.671c.039-.121.077-.241.116-.362.034-.121.077-.241.121-.362.01-.029.019-.063.034-.092.01-.029.019-.058.029-.087 0-.01.005-.014.01-.024.005-.014.01-.029.014-.043.005-.015.005-.024.014-.039.005-.01.005-.024.01-.034.019-.068.043-.135.072-.203.063-.183.135-.367.203-.545.005-.01.01-.014.01-.019.087-.222.178-.439.27-.656.111-.265.232-.531.357-.791.005-.01.01-.024.015-.034.014-.034.034-.068.048-.101.019-.048.043-.092.067-.135.01-.029.024-.058.039-.082.029-.063.063-.121.092-.179.391-.786.82-1.544 1.293-2.277-.127-.023-.257-.033-.387-.033zm130.893 6.397.709.526c.994.738 2.378.608 3.218-.294l3.3-3.536s0 0 .005-.005l.01-.015c.034-.029.053-.067.077-.101.077-.087.149-.174.207-.27.043-.072.077-.145.111-.222.034-.068.072-.13.101-.203.039-.111.068-.227.092-.342.01-.039.024-.072.029-.111l.005-.019v-.005l.309-1.838c.039-.222.077-.444.126-.661.043-.208.087-.41.14-.613.039-.15.077-.299.121-.449.034-.125.068-.251.111-.376zm-130.893-6.397c-1.341 0-2.427 1.085-2.427 2.427v3.671c.039-.121.077-.241.116-.362.034-.121.077-.241.121-.362.01-.029.019-.063.034-.092.01-.029.019-.058.029-.087 0-.01.005-.014.01-.024.005-.014.01-.029.014-.043.005-.015.005-.024.014-.039.005-.01.005-.024.01-.034.019-.068.043-.135.072-.203.063-.183.135-.367.203-.545.005-.01.01-.014.01-.019.087-.222.178-.439.27-.656.111-.265.232-.531.357-.791.005-.01.01-.024.015-.034.014-.034.034-.068.048-.101.019-.048.043-.092.067-.135.01-.029.024-.058.039-.082.029-.063.063-.121.092-.179.391-.786.82-1.544 1.293-2.277-.127-.023-.257-.033-.387-.033zm130.893 6.397.709.526c.994.738 2.378.608 3.218-.294l3.3-3.536s0 0 .005-.005l.01-.015c.034-.029.053-.067.077-.101.077-.087.149-.174.207-.27.043-.072.077-.145.111-.222.034-.068.072-.13.101-.203.039-.111.068-.227.092-.342.01-.039.024-.072.029-.111l.005-.019v-.005l.309-1.838c.039-.222.077-.444.126-.661.043-.208.087-.41.14-.613.039-.15.077-.299.121-.449.034-.125.068-.251.111-.376zm-130.893-6.397c-1.341 0-2.427 1.085-2.427 2.427v3.671c.039-.121.077-.241.116-.362.034-.121.077-.241.121-.362.01-.029.019-.063.034-.092.01-.029.019-.058.029-.087 0-.01.005-.014.01-.024.005-.014.01-.029.014-.043.005-.015.005-.024.014-.039.005-.01.005-.024.01-.034.019-.068.043-.135.072-.203.063-.183.135-.367.203-.545.005-.01.01-.014.01-.019.087-.222.178-.439.27-.656.111-.265.232-.531.357-.791.005-.01.01-.024.015-.034.014-.034.034-.068.048-.101.019-.048.043-.092.067-.135.01-.029.024-.058.039-.082.029-.063.063-.121.092-.179.391-.786.82-1.544 1.293-2.277-.127-.023-.257-.033-.387-.033zm130.893 6.397.709.526c.994.738 2.378.608 3.218-.294l3.3-3.536s0 0 .005-.005l.01-.015c.034-.029.053-.067.077-.101.077-.087.149-.174.207-.27.043-.072.077-.145.111-.222.034-.068.072-.13.101-.203.039-.111.068-.227.092-.342.01-.039.024-.072.029-.111l.005-.019v-.005l.309-1.838c.039-.222.077-.444.126-.661.043-.208.087-.41.14-.613.039-.15.077-.299.121-.449.034-.125.068-.251.111-.376zm-130.893-6.397c-1.341 0-2.427 1.085-2.427 2.427v3.671c.039-.121.077-.241.116-.362.034-.121.077-.241.121-.362.01-.029.019-.063.034-.092.01-.029.019-.058.029-.087 0-.01.005-.014.01-.024.005-.014.01-.029.014-.043.005-.015.005-.024.014-.039.005-.01.005-.024.01-.034.019-.068.043-.135.072-.203.063-.183.135-.367.203-.545.005-.01.01-.014.01-.019.087-.222.178-.439.27-.656.111-.265.232-.531.357-.791.005-.01.01-.024.015-.034.014-.034.034-.068.048-.101.019-.048.043-.092.067-.135.01-.029.024-.058.039-.082.029-.063.063-.121.092-.179.391-.786.82-1.544 1.293-2.277-.127-.023-.257-.033-.387-.033zm130.893 6.397.709.526c.994.738 2.378.608 3.218-.294l3.3-3.536s0 0 .005-.005l.01-.015c.034-.029.053-.067.077-.101.077-.087.149-.174.207-.27.043-.072.077-.145.111-.222.034-.068.072-.13.101-.203.039-.111.068-.227.092-.342.01-.039.024-.072.029-.111l.005-.019v-.005l.309-1.838c.039-.222.077-.444.126-.661.043-.208.087-.41.14-.613.039-.15.077-.299.121-.449.034-.125.068-.251.111-.376zm-130.893-6.397c-1.341 0-2.427 1.085-2.427 2.427v3.671c.039-.121.077-.241.116-.362.034-.121.077-.241.121-.362.01-.029.019-.063.034-.092.01-.029.019-.058.029-.087 0-.01.005-.014.01-.024.005-.014.01-.029.014-.043.005-.015.005-.024.014-.039.005-.01.005-.024.01-.034.019-.068.043-.135.072-.203.063-.183.135-.367.203-.545.005-.01.01-.014.01-.019.087-.222.178-.439.27-.656.111-.265.232-.531.357-.791.005-.01.01-.024.015-.034.014-.034.034-.068.048-.101.019-.048.043-.092.067-.135.01-.029.024-.058.039-.082.029-.063.063-.121.092-.179.391-.786.82-1.544 1.293-2.277-.127-.023-.257-.033-.387-.033zm0 0c-1.341 0-2.427 1.085-2.427 2.427v3.671c.039-.121.077-.241.116-.362.034-.121.077-.241.121-.362.01-.029.019-.063.034-.092.01-.029.019-.058.029-.087 0-.01.005-.014.01-.024.005-.014.01-.029.014-.043.005-.015.005-.024.014-.039.005-.01.005-.024.01-.034.019-.068.043-.135.072-.203.063-.183.135-.367.203-.545.005-.01.01-.014.01-.019.087-.222.178-.439.27-.656.111-.265.232-.531.357-.791.005-.01.01-.024.015-.034.014-.034.034-.068.048-.101.019-.048.043-.092.067-.135.01-.029.024-.058.039-.082.029-.063.063-.121.092-.179.391-.786.82-1.544 1.293-2.277-.127-.023-.257-.033-.387-.033zm162.516-8.148c-.159-4.38-1.722-8.471-4.569-11.814-3.714-4.366-9.108-6.869-14.791-6.869-8.857 0-16.441 6.874-18.038 16.339l-.193 1.143-1.341 1.443-15.138-11.231c3.29-2.827 5.036-7.28 4.197-11.843l-9.094-49.245-.468-2.533-.574-3.126c12.326-1.462 22.042-3.179 22.201-3.208.642-.116 1.206-.482 1.563-1.008.077-.102.14-.208.198-.323.338-.699.318-1.515-.048-2.2l-20.522-38.284-4.318-8.051-.005-5.418c-.005-2.692 1.481-5.138 3.869-6.382l34.362-17.898 5.485-2.856 7.526-3.917c1.819-.941 3.271-2.388 4.202-4.173.275-.511.502-1.056.68-1.621.801-2.523.579-5.205-.632-7.545-1.211-2.344-3.266-4.076-5.794-4.877-2.494-.796-5.142-.589-7.463.589l-7.294 3.145-31.178 13.455c-6.402 2.764-17.647 5.061-24.709 5.061-.077 0-.15 0-.222-.005h-3.314c-6.001 0-11.438-2.431-15.379-6.353-.642-.642-1.249-1.322-1.804-2.041-2.866-3.671-4.573-8.278-4.573-13.276 0-.029-.005-.048-.005-.072-.005-.024.005-.048 0-.072l-.637-10.797-1.36-23.117-.28-4.786c-.024-5.418-4.549-9.837-10.131-9.861-2.702-.029-5.234.999-7.164 2.846-1.954 1.867-3.034 4.356-3.049 7.01 0 .063.005.125.01.193l2.306 31.13-.034 7.719-.01 2.383c-.029 6.214 1.442 12.427 4.245 17.97l11.419 22.572c1.047 2.06 1.597 4.371 1.597 6.682v3.647c0 2.258-.526 4.52-1.525 6.546l-19.364 39.278c-.314.637-.333 1.375-.053 2.031.28.651.835 1.148 1.51 1.356.463.145 6.185 1.896 14.448 3.551 1.491.299 3.063.598 4.704.878l-.502 2.706-9.653 52.299c-.42 2.272-.193 4.511.536 6.537-2.87-.931-5.929-1.438-9.108-1.438-.077 0-.159.005-.236.01-.077-.005-.154-.01-.236-.01h-20.71c-16.31 0-29.582 13.266-29.582 29.582v21.839c0 3.724 3.034 6.759 6.759 6.759h66.829c.28 0 .56-.019.83-.053 3.338-.41 5.929-3.261 5.929-6.706v-21.839c0-1.655-.135-3.281-.4-4.863v-.005c-.946-5.712-3.531-10.864-7.26-14.974 5.552-.429 10.357-4.535 11.419-10.266l9.769-52.945.839-4.544c.029-.005.053-.005.077-.005l.864 4.665 9.75 52.829c.608 3.295 2.475 6.165 5.249 8.076.463.318.941.594 1.428.844-.227.304-.449.613-.651.946-2.981 4.872-1.78 11.525 2.682 14.834l21.135 15.674c.946.704 1.968 1.221 3.02 1.563l-1.496 8.886c-.333 1.963.217 3.965 1.505 5.485 1.283 1.524 3.165 2.397 5.157 2.397h25.414c3.353 0 6.228-2.504 6.691-5.828l4.25-30.436c0-.005 0-.005 0-.01.224-1.409.306-2.804.253-4.174zm-104.544 33.687c0 .752-.439 1.409-1.081 1.717-.251.126-.531.193-.83.193h-8.336v-25.023c0-1.341-1.085-2.427-2.427-2.427-1.336 0-2.422 1.085-2.422 2.427v25.023h-40.454v-25.023c0-1.211-.883-2.21-2.036-2.393-.125-.024-.256-.034-.386-.034-1.341 0-2.427 1.085-2.427 2.427v25.023h-8.341c-1.052 0-1.91-.859-1.91-1.91v-21.839c0-13.638 11.096-24.733 24.733-24.733h20.71c.082 0 .159-.005.236-.015.077.01.159.015.236.015 9.455 0 17.69 5.335 21.849 13.155 1.843 3.454 2.885 7.395 2.885 11.578v21.839zm3.835-52.824c-.772 4.197-4.819 6.98-9.016 6.209-4.202-.777-6.985-4.824-6.213-9.021l9.624-52.135.555-3c4.877.69 10.16 1.206 15.5 1.336l-.757 4.11zm15.124-61.455c-6.836.159-13.836-.478-20.141-1.409l-.135-.019c-1.134-.164-2.243-.342-3.324-.531-1.322-.217-2.605-.453-3.835-.69-5.413-1.042-9.841-2.156-12.504-2.88l18.076-36.669c1.327-2.687 2.026-5.692 2.026-8.688v-3.647c0-3.068-.733-6.136-2.118-8.872l-11.419-22.572c-2.46-4.863-3.748-10.309-3.724-15.756l.01-2.224.034-7.974c0-.034-.01-.063-.01-.097 0-.029.005-.063.005-.092l-2.306-31.125c.024-1.293.574-2.513 1.549-3.444 1.008-.965 2.349-1.5 3.768-1.5h.024c2.938.014 5.316 2.291 5.302 5.075 0 .048 0 .101.005.154l.333 5.683 1.505 25.544.444 7.521c.043 9.407 5.022 17.671 12.485 22.345 3.039 1.906 6.493 3.213 10.193 3.763.338.179.719.289 1.129.289h5.987l.092.005c7.709.053 19.784-2.393 26.88-5.456l23.412-10.102 15.133-6.532c.053-.024.101-.048.154-.072 1.187-.613 2.557-.728 3.85-.318 1.288.415 2.34 1.293 2.952 2.485.617 1.192.729 2.557.318 3.85s-1.293 2.34-2.489 2.962l-10.227 5.326-1.409.733-17.907 9.325-17.84 9.286c-4.004 2.084-6.484 6.18-6.479 10.69l.005 6.02c0 .034.01.068.01.106.005.082.014.169.024.256.014.077.029.155.043.227.019.072.043.145.072.222.029.082.058.159.097.241.014.029.024.063.039.092l23.537 43.895c-7.677 1.25-27.277 4.188-43.626 4.574zm15.712 61.455-9.557-51.787-.926-5.017c.762-.039 1.524-.077 2.296-.13.116-.005.232-.01.352-.019.719-.044 1.447-.097 2.171-.15.584-.039 1.167-.082 1.751-.13h.029c.724-.058 1.452-.116 2.176-.179.569-.048 1.139-.096 1.703-.15.569-.053 1.134-.101 1.693-.159 1.124-.106 2.243-.222 3.348-.338l.328 1.775.695 3.777 9.171 49.694c.704 3.821-1.539 7.501-5.114 8.722-.748-.039-1.505.005-2.258.154-.318.063-.632.14-.936.232-3.372-.303-6.276-2.807-6.922-6.295zm63.143 34.652-2.576 18.433c-.13.941-.946 1.65-1.891 1.65h-25.414c-.772 0-1.245-.425-1.457-.68-.212-.251-.555-.786-.424-1.549l1.462-8.679.116-.685c2.156-.386 4.216-1.462 5.861-3.222l17.14-16.87c.955-.936.965-2.475.024-3.425-.936-.955-2.47-.97-3.425-.029l-5.639 5.553-8.669 8.534-2.87 2.822c-.029.024-.058.053-.082.082-2.007 2.171-5.022 2.489-7.338.772l-14.342-10.637-6.788-5.036c-2.499-1.852-3.141-5.625-1.438-8.409.584-.955 1.38-1.669 2.291-2.094.738-.005 1.481-.072 2.219-.207.217-.039.434-.087.646-.14.666.14 1.312.424 1.896.859l16.909 12.538.439.328c.994.738 2.378.608 3.218-.294l3.3-3.536s0 0 .005-.005l.01-.015c.034-.029.053-.067.077-.101.077-.087.149-.174.207-.27.043-.072.077-.145.111-.222.034-.068.072-.13.101-.203.039-.111.068-.227.092-.342.01-.039.024-.072.029-.111l.005-.019v-.005l.309-1.838c1.201-7.125 6.778-12.297 13.257-12.297 4.26 0 8.307 1.881 11.1 5.162 1.331 1.568 2.287 3.362 2.841 5.302.622 2.142.757 4.458.371 6.831-.005.01 0 .014-.005.024 0 .01-.005.019-.005.029l-.835 5.968-.84 6.03v.003zm-24.893-.97.709.526c.994.738 2.378.608 3.218-.294l3.3-3.536s0 0 .005-.005l.01-.015c.034-.029.053-.067.077-.101.077-.087.149-.174.207-.27.043-.072.077-.145.111-.222.034-.068.072-.13.101-.203.039-.111.068-.227.092-.342.01-.039.024-.072.029-.111l.005-.019v-.005l.309-1.838c.039-.222.077-.444.126-.661.043-.208.087-.41.14-.613.039-.15.077-.299.121-.449.034-.125.068-.251.111-.376zm-130.893-6.397c-1.341 0-2.427 1.085-2.427 2.427v3.671c.039-.121.077-.241.116-.362.034-.121.077-.241.121-.362.01-.029.019-.063.034-.092.01-.029.019-.058.029-.087 0-.01.005-.014.01-.024.005-.014.01-.029.014-.043.005-.015.005-.024.014-.039.005-.01.005-.024.01-.034.019-.068.043-.135.072-.203.063-.183.135-.367.203-.545.005-.01.01-.014.01-.019.087-.222.178-.439.27-.656.111-.265.232-.531.357-.791.005-.01.01-.024.015-.034.014-.034.034-.068.048-.101.019-.048.043-.092.067-.135.01-.029.024-.058.039-.082.029-.063.063-.121.092-.179.391-.786.82-1.544 1.293-2.277-.127-.023-.257-.033-.387-.033zm130.893 6.397.709.526c.994.738 2.378.608 3.218-.294l3.3-3.536s0 0 .005-.005l.01-.015c.034-.029.053-.067.077-.101.077-.087.149-.174.207-.27.043-.072.077-.145.111-.222.034-.068.072-.13.101-.203.039-.111.068-.227.092-.342.01-.039.024-.072.029-.111l.005-.019v-.005l.309-1.838c.039-.222.077-.444.126-.661.043-.208.087-.41.14-.613.039-.15.077-.299.121-.449.034-.125.068-.251.111-.376zm-130.893-6.397c-1.341 0-2.427 1.085-2.427 2.427v3.671c.039-.121.077-.241.116-.362.034-.121.077-.241.121-.362.01-.029.019-.063.034-.092.01-.029.019-.058.029-.087 0-.01.005-.014.01-.024.005-.014.01-.029.014-.043.005-.015.005-.024.014-.039.005-.01.005-.024.01-.034.019-.068.043-.135.072-.203.063-.183.135-.367.203-.545.005-.01.01-.014.01-.019.087-.222.178-.439.27-.656.111-.265.232-.531.357-.791.005-.01.01-.024.015-.034.014-.034.034-.068.048-.101.019-.048.043-.092.067-.135.01-.029.024-.058.039-.082.029-.063.063-.121.092-.179.391-.786.82-1.544 1.293-2.277-.127-.023-.257-.033-.387-.033zm130.893 6.397.709.526c.994.738 2.378.608 3.218-.294l3.3-3.536s0 0 .005-.005l.01-.015c.034-.029.053-.067.077-.101.077-.087.149-.174.207-.27.043-.072.077-.145.111-.222.034-.068.072-.13.101-.203.039-.111.068-.227.092-.342.01-.039.024-.072.029-.111l.005-.019v-.005l.309-1.838c.039-.222.077-.444.126-.661.043-.208.087-.41.14-.613.039-.15.077-.299.121-.449.034-.125.068-.251.111-.376zm-130.893-6.397c-1.341 0-2.427 1.085-2.427 2.427v3.671c.039-.121.077-.241.116-.362.034-.121.077-.241.121-.362.01-.029.019-.063.034-.092.01-.029.019-.058.029-.087 0-.01.005-.014.01-.024.005-.014.01-.029.014-.043.005-.015.005-.024.014-.039.005-.01.005-.024.01-.034.019-.068.043-.135.072-.203.063-.183.135-.367.203-.545.005-.01.01-.014.01-.019.087-.222.178-.439.27-.656.111-.265.232-.531.357-.791.005-.01.01-.024.015-.034.014-.034.034-.068.048-.101.019-.048.043-.092.067-.135.01-.029.024-.058.039-.082.029-.063.063-.121.092-.179.391-.786.82-1.544 1.293-2.277-.127-.023-.257-.033-.387-.033zm130.893 6.397.709.526c.994.738 2.378.608 3.218-.294l3.3-3.536s0 0 .005-.005l.01-.015c.034-.029.053-.067.077-.101.077-.087.149-.174.207-.27.043-.072.077-.145.111-.222.034-.068.072-.13.101-.203.039-.111.068-.227.092-.342.01-.039.024-.072.029-.111l.005-.019v-.005l.309-1.838c.039-.222.077-.444.126-.661.043-.208.087-.41.14-.613.039-.15.077-.299.121-.449.034-.125.068-.251.111-.376zm-130.893-6.397c-1.341 0-2.427 1.085-2.427 2.427v3.671c.039-.121.077-.241.116-.362.034-.121.077-.241.121-.362.01-.029.019-.063.034-.092.01-.029.019-.058.029-.087 0-.01.005-.014.01-.024.005-.014.01-.029.014-.043.005-.015.005-.024.014-.039.005-.01.005-.024.01-.034.019-.068.043-.135.072-.203.063-.183.135-.367.203-.545.005-.01.01-.014.01-.019.087-.222.178-.439.27-.656.111-.265.232-.531.357-.791.005-.01.01-.024.015-.034.014-.034.034-.068.048-.101.019-.048.043-.092.067-.135.01-.029.024-.058.039-.082.029-.063.063-.121.092-.179.391-.786.82-1.544 1.293-2.277-.127-.023-.257-.033-.387-.033zm130.893 6.397.709.526c.994.738 2.378.608 3.218-.294l3.3-3.536s0 0 .005-.005l.01-.015c.034-.029.053-.067.077-.101.077-.087.149-.174.207-.27.043-.072.077-.145.111-.222.034-.068.072-.13.101-.203.039-.111.068-.227.092-.342.01-.039.024-.072.029-.111l.005-.019v-.005l.309-1.838c.039-.222.077-.444.126-.661.043-.208.087-.41.14-.613.039-.15.077-.299.121-.449.034-.125.068-.251.111-.376zm-130.893-6.397c-1.341 0-2.427 1.085-2.427 2.427v3.671c.039-.121.077-.241.116-.362.034-.121.077-.241.121-.362.01-.029.019-.063.034-.092.01-.029.019-.058.029-.087 0-.01.005-.014.01-.024.005-.014.01-.029.014-.043.005-.015.005-.024.014-.039.005-.01.005-.024.01-.034.019-.068.043-.135.072-.203.063-.183.135-.367.203-.545.005-.01.01-.014.01-.019.087-.222.178-.439.27-.656.111-.265.232-.531.357-.791.005-.01.01-.024.015-.034.014-.034.034-.068.048-.101.019-.048.043-.092.067-.135.01-.029.024-.058.039-.082.029-.063.063-.121.092-.179.391-.786.82-1.544 1.293-2.277-.127-.023-.257-.033-.387-.033zm130.893 6.397.709.526c.994.738 2.378.608 3.218-.294l3.3-3.536s0 0 .005-.005l.01-.015c.034-.029.053-.067.077-.101.077-.087.149-.174.207-.27.043-.072.077-.145.111-.222.034-.068.072-.13.101-.203.039-.111.068-.227.092-.342.01-.039.024-.072.029-.111l.005-.019v-.005l.309-1.838c.039-.222.077-.444.126-.661.043-.208.087-.41.14-.613.039-.15.077-.299.121-.449.034-.125.068-.251.111-.376zm-130.893-6.397c-1.341 0-2.427 1.085-2.427 2.427v3.671c.039-.121.077-.241.116-.362.034-.121.077-.241.121-.362.01-.029.019-.063.034-.092.01-.029.019-.058.029-.087 0-.01.005-.014.01-.024.005-.014.01-.029.014-.043.005-.015.005-.024.014-.039.005-.01.005-.024.01-.034.019-.068.043-.135.072-.203.063-.183.135-.367.203-.545.005-.01.01-.014.01-.019.087-.222.178-.439.27-.656.111-.265.232-.531.357-.791.005-.01.01-.024.015-.034.014-.034.034-.068.048-.101.019-.048.043-.092.067-.135.01-.029.024-.058.039-.082.029-.063.063-.121.092-.179.391-.786.82-1.544 1.293-2.277-.127-.023-.257-.033-.387-.033zm130.893 6.397.709.526c.994.738 2.378.608 3.218-.294l3.3-3.536s0 0 .005-.005l.01-.015c.034-.029.053-.067.077-.101.077-.087.149-.174.207-.27.043-.072.077-.145.111-.222.034-.068.072-.13.101-.203.039-.111.068-.227.092-.342.01-.039.024-.072.029-.111l.005-.019v-.005l.309-1.838c.039-.222.077-.444.126-.661.043-.208.087-.41.14-.613.039-.15.077-.299.121-.449.034-.125.068-.251.111-.376zm-130.893-6.397c-1.341 0-2.427 1.085-2.427 2.427v3.671c.039-.121.077-.241.116-.362.034-.121.077-.241.121-.362.01-.029.019-.063.034-.092.01-.029.019-.058.029-.087 0-.01.005-.014.01-.024.005-.014.01-.029.014-.043.005-.015.005-.024.014-.039.005-.01.005-.024.01-.034.019-.068.043-.135.072-.203.063-.183.135-.367.203-.545.005-.01.01-.014.01-.019.087-.222.178-.439.27-.656.111-.265.232-.531.357-.791.005-.01.01-.024.015-.034.014-.034.034-.068.048-.101.019-.048.043-.092.067-.135.01-.029.024-.058.039-.082.029-.063.063-.121.092-.179.391-.786.82-1.544 1.293-2.277-.127-.023-.257-.033-.387-.033zm130.893 6.397.709.526c.994.738 2.378.608 3.218-.294l3.3-3.536s0 0 .005-.005l.01-.015c.034-.029.053-.067.077-.101.077-.087.149-.174.207-.27.043-.072.077-.145.111-.222.034-.068.072-.13.101-.203.039-.111.068-.227.092-.342.01-.039.024-.072.029-.111l.005-.019v-.005l.309-1.838c.039-.222.077-.444.126-.661.043-.208.087-.41.14-.613.039-.15.077-.299.121-.449.034-.125.068-.251.111-.376zm-130.893-6.397c-1.341 0-2.427 1.085-2.427 2.427v3.671c.039-.121.077-.241.116-.362s.077-.241.121-.362c.01-.029.019-.063.034-.092.01-.029.019-.058.029-.087 0-.01.005-.014.01-.024.005-.014.01-.029.014-.043.005-.015.005-.024.014-.039.005-.01.005-.024.01-.034.019-.068.043-.135.072-.203.063-.183.135-.367.203-.545.005-.01.01-.014.01-.019.087-.222.178-.439.27-.656.111-.265.232-.531.357-.791.005-.01.01-.024.015-.034.014-.034.034-.068.048-.101.019-.048.043-.092.067-.135.01-.029.024-.058.039-.082.029-.063.063-.121.092-.179.391-.786.82-1.544 1.293-2.277-.127-.023-.257-.033-.387-.033zm130.893 6.397.709.526c.994.738 2.378.608 3.218-.294l3.3-3.536s0 0 .005-.005l.01-.015c.034-.029.053-.067.077-.101.077-.087.149-.174.207-.27.043-.072.077-.145.111-.222.034-.068.072-.13.101-.203.039-.111.068-.227.092-.342.01-.039.024-.072.029-.111l.005-.019v-.005l.309-1.838c.039-.222.077-.444.126-.661.043-.208.087-.41.14-.613.039-.15.077-.299.121-.449.034-.125.068-.251.111-.376z" fill="#160f60"/><g fill="#fff"><path d="m131.238 131.578v3.647c0 2.996-.699 6.001-2.026 8.688l-14.738 29.9c-5.413-1.042-9.841-2.156-12.504-2.88l18.076-36.669c1.327-2.687 2.026-5.692 2.026-8.688v-3.647c0-3.068-.733-6.136-2.118-8.872l-11.419-22.572c-2.46-4.863-3.748-10.309-3.724-15.756l.01-2.224.034-7.974c0-.034-.01-.063-.01-.097 0-.029.005-.063.005-.092l-2.306-31.125c.024-1.293.574-2.513 1.549-3.444 1.008-.965 2.349-1.5 3.768-1.5h.024c2.938.014 5.316 2.291 5.302 5.075 0 .048 0 .101.005.154l.333 5.683c-.092.077-.178.154-.265.236-.974.931-1.524 2.152-1.549 3.444l1.713 23.088.593 8.037c0 .029-.005.063-.005.092 0 .034.01.063.01.097l-.043 10.198c-.024 5.446 1.264 10.893 3.724 15.756l11.419 22.572c1.383 2.737 2.116 5.805 2.116 8.873z"/><path d="m186.977 262.149-2.571.945-5.171-3.835c-.584-.434-1.23-.719-1.896-.859-.212.053-.429.101-.646.14-.738.135-1.481.203-2.219.207-.912.424-1.708 1.139-2.291 2.094-.714 1.163-1.013 2.499-.941 3.797l-6.788-5.036c-2.499-1.852-3.141-5.625-1.438-8.409.584-.955 1.38-1.669 2.291-2.094.738-.005 1.481-.072 2.219-.207.217-.039.434-.087.646-.14.666.14 1.312.424 1.896.859z"/><path d="m167.738 243.827c-.748-.039-1.505.005-2.258.154-.318.063-.632.14-.936.232-3.372-.304-6.276-2.808-6.923-6.295l-9.557-51.787-.926-5.017c.762-.039 1.524-.077 2.296-.13.116-.005.232-.01.352-.019.719-.044 1.447-.097 2.171-.15.584-.039 1.167-.082 1.751-.13h.029c.724-.058 1.452-.116 2.176-.179.569-.048 1.139-.096 1.703-.15.569-.053 1.134-.101 1.693-.159 1.124-.106 2.243-.222 3.348-.338l.328 1.775.695 3.777 9.171 49.694c.705 3.82-1.538 7.501-5.113 8.722z"/><path d="m137.235 181.305-.757 4.11-9.692 52.501c-.772 4.197-4.819 6.98-9.016 6.209-4.202-.777-6.985-4.824-6.213-9.021l9.624-52.135.555-3c4.876.69 10.159 1.206 15.499 1.336z"/><path d="m120.066 257.325c-3.71-2.224-8.051-3.507-12.683-3.507-.077 0-.159-.005-.236-.015-.077.01-.154.015-.236.015h-20.711c-8.737 0-16.436 4.554-20.835 11.419-.125-.024-.256-.034-.386-.034-1.341 0-2.427 1.085-2.427 2.427v3.671c-.704 2.291-1.085 4.728-1.085 7.251v14.101h-7.256c-1.052 0-1.91-.859-1.91-1.91v-21.839c0-13.638 11.096-24.733 24.733-24.733h20.71c.082 0 .159-.005.236-.015.077.01.159.015.236.015 9.457-.002 17.691 5.333 21.85 13.154z"/></g><path d="m222.077 253.682c-1.52-.535-3.131-.815-4.776-.815-5.823 0-10.917 4.178-12.76 10.198l-8.669 8.534-2.87 2.822c-.029.024-.058.053-.082.082-2.007 2.171-5.022 2.489-7.338.772l-14.342-10.637c-.072-1.298.227-2.634.941-3.797.584-.955 1.38-1.669 2.291-2.094.738-.005 1.481-.072 2.219-.207.217-.039.434-.087.646-.14.666.14 1.312.424 1.896.859l5.171 3.835 2.571-.945.439.328c.994.738 2.378.608 3.218-.294l3.3-3.536s0 0 .005-.005l.01-.015c.034-.029.053-.067.077-.101.077-.087.149-.174.207-.27.043-.072.077-.145.111-.222.034-.068.072-.13.101-.203.039-.111.068-.227.092-.342.01-.039.024-.072.029-.111l.005-.019v-.005l.309-1.838c1.201-7.125 6.778-12.297 13.257-12.297 4.26 0 8.307 1.881 11.1 5.162 1.332 1.567 2.288 3.362 2.842 5.301z" fill="#6ea9ff"/></g></svg>