<svg id="&#x428;&#x430;&#x440;_1" enable-background="new 0 0 300 300" viewBox="0 0 300 300" xmlns="http://www.w3.org/2000/svg"><g><path d="m160.128 247.508h125.153v32.154h-125.153z" fill="#fff"/><path d="m160.623 130.27h125.153v32.154h-125.153z" fill="#fff"/><g><path d="m77.458 217.372c0-.035.01-.064.01-.094-.732.376-1.509.663-2.305.856l-22.785-9.216c-1.113-.45-2.36-.04-2.998.92l9.419 3.809.609 3.478 5.436 2.196 1.38 7.865h1.736l.876 4.967h14.989v6.431h7.915v18.516l-.079-.49c-.287-1.801-1.375-3.28-2.864-4.111-.831-.465-1.791-.727-2.81-.727h-7.024l-.129-.806c-.059-.376-.376-.653-.762-.653h-5.273c.183.47.327.955.416 1.459h-5.209c-.48-.871-1.41-1.459-2.473-1.459h-16.613c-2.142-1.182-3.878-3.022-4.922-5.283-.465-.994-.796-2.068-.97-3.205l-5.496-35.735c-.005-.025-.005-.05-.01-.069-.796-4.487.92-7.682 2.498-9.567 1.474-1.761 3.438-3.121 5.644-3.967 1.682-.643 3.507-.989 5.362-.989 4.65 0 8.795 2.528 11.007 6.366l-5.189-2.172c-1.143-.48-2.439-.035-3.072.984l15.038 6.287c1.083.46 2.34.089 3.008-.885l11.303-16.468c1.489-2.172 4.472-2.726 6.643-1.237 1.049.722 1.761 1.811 1.994 3.067.232 1.251-.035 2.523-.757 3.576l-7.306 10.645s0 0-.005.005l-5.387 7.841c.564-.139 1.078-.49 1.43-.999l11.303-16.468c1.256-1.835 3.581-2.513 5.58-1.781-.252 1.266-.767 2.478-1.519 3.572l-4.62 6.737h6.297l-3.413 4.971-1.751 2.553s0 0-.005.005l-4.66 6.787-1.801 2.622c-.925 1.355-2.379 2.182-3.938 2.35-.411.049-.826.049-1.242 0h-.02c-.351-.045-.697-.119-1.044-.228-.853-.396-1.442-1.256-1.442-2.256z" fill="#6ea9ff"/><g fill="#ffe471"><path d="m173.485 139.669h112.291v25.723h-112.291z"/><path d="m72.591 256.744c-1.256 2.642-3.952 4.467-7.059 4.467h-13.965v1.459h-4.972v29.859h-4.046v-29.859h-4.972v-1.459h-3.557c-.163-.297-.277-.633-.322-.989l-.514-3.982-2.186-16.943-4.368-33.861c-.104-.811.134-1.598.673-2.211.544-.618 1.291-.955 2.112-.955h.114c.168 0 .336.015.5.045l5.085 33.079c.361 2.325 1.365 4.398 2.825 6.035l.178 1.153c.371 2.434 1.247 4.665 2.508 6.604 1.89.732 3.943 1.128 6.085 1.128h18.822c1.063 0 1.994.589 2.473 1.459.232.411.366.88.366 1.38v.247c0 1.563-1.276 2.839-2.839 2.839h-15.014c1.316.332 2.691.505 4.106.505z"/><path d="m173.485 255.918h111.805v24.734h-111.805z"/><path d="m163.636 282.818h4.694v8.177h-4.694z"/><path d="m136.285 205.54h-49.22l-5.733 8.35c-.242.351-.5.683-.777.994h55.73z"/><path d="m88.796 219.856h42.755v71.139h-42.755z"/></g><path d="m243.659 78.735-.099.059.139.129c-.015-.065-.025-.124-.04-.188z" fill="#6ea9ff"/><path d="m276.15 85.561c-.183 1.36-.955 2.622-2.206 3.374l-2.731 1.637c-4.066.099-7.767.351-10.185.727l-12.659 7.598c-.228.139-.46.262-.692.381-.257.346-.514.702-.767 1.069l-6.856-5.654c-.005 0-.005-.005-.01-.005l-16.329-13.465c-.153-.124-.312-.228-.485-.307l-.01-.01c-1.004-.495-2.261-.252-3.003.653-.876 1.059-.722 2.627.336 3.497l16.606 13.698c.005.005.01.005.015.01 0 0 .005 0 .005.005.005 0 .005.005.01.005 1.172.747 2.463 1.242 3.794 1.484-.228.361-.455.722-.678 1.088l3.408 2.81c.153.134.307.262.465.386-3.72 6.154-6.95 13.238-9.186 18.585-1.36-1.212-2.647-2.439-3.854-3.68v-.005c-12.916-13.287-17.195-28.365-18.13-40.509-.02-.277-.039-.549-.054-.821-.015-.198-.025-.396-.035-.594-.005-.045-.01-.094-.01-.139-.02-.282-.03-.564-.045-.841-.005-.089-.01-.183-.01-.272 0-.049-.005-.094-.005-.143-.005-.069-.01-.139-.01-.208s0-.139-.005-.208c-.005-.178-.015-.351-.015-.524-.005-.173-.01-.346-.01-.514-.005-.04-.005-.084-.005-.124-.064-3.972 1.444-7.732 4.249-10.581 2.854-2.904 6.673-4.502 10.749-4.502 1.756 0 3.443.297 5.011.841 2.731.945 5.095 2.646 6.836 4.858.02.173.04.341.059.514.43 4.076 1.326 8.103 2.656 12.016l-6.124-5.669c-.198-.183-.416-.327-.648-.43.059.302.124.603.188.9l-1.222-1.133c-.673-.005-1.341.262-1.83.796-.935 1.004-.876 2.577.134 3.512l9.72 9.008c.421.005.846-.104 1.232-.322l17.512-9.913c2.221-1.256 5.065-.48 6.337 1.731 1.261 2.191.529 5.031-1.637 6.332l-5.55 3.329 8.766-4.962c1.192-.678 2.567-.762 3.784-.356-.415 1.929-1.415 3.735-2.919 5.115 1.986-.058 4.039-.083 6.043-.068z" fill="#6ea9ff"/><path d="m225.727 2.5c-11.14 0-20.202 9.062-20.202 20.203s9.063 20.203 20.202 20.203c11.14 0 20.208-9.062 20.208-20.203s-9.068-20.203-20.208-20.203zm0 35.434c-8.395 0-15.231-6.831-15.231-15.231s6.836-15.231 15.231-15.231c8.4 0 15.236 6.832 15.236 15.231s-6.836 15.231-15.236 15.231z" fill="#160f60"/><path d="m240.963 22.703c0 8.4-6.836 15.231-15.236 15.231-8.395 0-15.231-6.831-15.231-15.231s6.836-15.231 15.231-15.231c8.4 0 15.236 6.831 15.236 15.231z" fill="#fff"/><path d="m212.955 78.111c-.015-.198-.025-.396-.035-.594-.005-.045-.01-.094-.01-.139-.02-.376-.035-.747-.054-1.113 0-.049-.005-.094-.005-.143-.005-.069-.01-.139-.01-.208s0-.139-.005-.208c-.005-.178-.015-.351-.015-.524-.005-.173-.01-.346-.01-.514-.188.124-.361.277-.51.46-.876 1.059-.722 2.627.336 3.497l.371.307c-.019-.277-.038-.549-.053-.821zm0 0c-.015-.198-.025-.396-.035-.594-.005-.045-.01-.094-.01-.139-.02-.282-.03-.564-.045-.841-.005-.089-.01-.183-.01-.272 0-.049-.005-.094-.005-.143-.005-.069-.01-.139-.01-.208s0-.139-.005-.208c-.005-.178-.015-.351-.015-.524-.005-.173-.01-.346-.01-.514-.188.124-.361.277-.51.46-.876 1.059-.722 2.627.336 3.497l.371.307c-.018-.277-.037-.549-.052-.821zm0 0c-.015-.198-.025-.396-.035-.594-.005-.045-.01-.094-.01-.139-.02-.282-.03-.564-.045-.841-.005-.089-.01-.183-.01-.272 0-.049-.005-.094-.005-.143-.005-.069-.01-.139-.01-.208s0-.139-.005-.208c-.005-.178-.015-.351-.015-.524-.005-.173-.01-.346-.01-.514-.188.124-.361.277-.51.46-.876 1.059-.722 2.627.336 3.497l.371.307c-.018-.277-.037-.549-.052-.821zm0 0c-.015-.198-.025-.396-.035-.594-.005-.045-.01-.094-.01-.139-.02-.282-.03-.564-.045-.841-.005-.089-.01-.183-.01-.272 0-.049-.005-.094-.005-.143-.005-.069-.01-.139-.01-.208s0-.139-.005-.208c-.005-.178-.015-.351-.015-.524-.005-.173-.01-.346-.01-.514-.188.124-.361.277-.51.46-.876 1.059-.722 2.627.336 3.497l.371.307c-.018-.277-.037-.549-.052-.821zm0 0c-.015-.198-.025-.396-.035-.594-.005-.045-.01-.094-.01-.139-.02-.282-.03-.564-.045-.841-.005-.089-.01-.183-.01-.272 0-.049-.005-.094-.005-.143-.005-.069-.01-.139-.01-.208s0-.139-.005-.208c-.005-.178-.015-.351-.015-.524-.005-.173-.01-.346-.01-.514-.188.124-.361.277-.51.46-.876 1.059-.722 2.627.336 3.497l.371.307c-.018-.277-.037-.549-.052-.821zm0 0c-.015-.198-.025-.396-.035-.594-.005-.045-.01-.094-.01-.139-.02-.282-.03-.564-.045-.841-.005-.089-.01-.183-.01-.272 0-.049-.005-.094-.005-.143-.005-.069-.01-.139-.01-.208s0-.139-.005-.208c-.005-.178-.015-.351-.015-.524-.005-.173-.01-.346-.01-.514-.188.124-.361.277-.51.46-.876 1.059-.722 2.627.336 3.497l.371.307c-.018-.277-.037-.549-.052-.821zm0 0c-.015-.198-.025-.396-.035-.594-.005-.045-.01-.094-.01-.139-.02-.282-.03-.564-.045-.841-.005-.089-.01-.183-.01-.272 0-.049-.005-.094-.005-.143-.005-.069-.01-.139-.01-.208s0-.139-.005-.208c-.005-.178-.015-.351-.015-.524-.005-.173-.01-.346-.01-.514-.188.124-.361.277-.51.46-.876 1.059-.722 2.627.336 3.497l.371.307c-.018-.277-.037-.549-.052-.821zm0 0c-.015-.198-.025-.396-.035-.594-.005-.045-.01-.094-.01-.139-.02-.282-.03-.564-.045-.841-.005-.089-.01-.183-.01-.272 0-.049-.005-.094-.005-.143-.005-.069-.01-.139-.01-.208s0-.139-.005-.208c-.005-.178-.015-.351-.015-.524-.005-.173-.01-.346-.01-.514-.188.124-.361.277-.51.46-.876 1.059-.722 2.627.336 3.497l.371.307c-.018-.277-.037-.549-.052-.821zm0 0c-.015-.198-.025-.396-.035-.594-.005-.045-.01-.094-.01-.139-.02-.282-.03-.564-.045-.841-.005-.089-.01-.183-.01-.272 0-.049-.005-.094-.005-.143-.005-.069-.01-.139-.01-.208s0-.139-.005-.208c-.005-.178-.015-.351-.015-.524-.005-.173-.01-.346-.01-.514-.188.124-.361.277-.51.46-.876 1.059-.722 2.627.336 3.497l.371.307c-.018-.277-.037-.549-.052-.821zm73.326 86.039c0-.564-.188-1.083-.505-1.499-.45-.603-1.172-.989-1.984-.989h-120.077v-28.597h65.693.01.01 54.365c1.375 0 2.488-1.113 2.488-2.488 0-1.37-1.113-2.483-2.488-2.483h-50.793c.519-1.35 1.192-3.047 1.994-4.967 2.236-5.347 5.466-12.431 9.186-18.585.885-1.464 1.796-2.874 2.731-4.195.252-.366.51-.722.767-1.069.232-.119.465-.242.692-.381l12.659-7.598c2.419-.376 6.119-.628 10.185-.727 4.071-.099 8.513-.045 12.416.188 1.37.084 2.548-.965 2.632-2.335.079-1.37-.965-2.548-2.335-2.627-2.33-.138-5.011-.223-7.776-.237-2.003-.015-4.056.01-6.04.069 1.504-1.38 2.503-3.186 2.919-5.115.49-2.256.178-4.69-1.054-6.826-.866-1.499-2.088-2.676-3.492-3.492l10.497-6.06c.569-.327.984-.871 1.158-1.509.168-.633.079-1.316-.247-1.885l-4.294-7.435c-.331-.574-.876-.989-1.509-1.158-.638-.173-1.316-.084-1.89.247l-27.069 15.627c-1.192.688-1.598 2.211-.91 3.398l3.042 5.273-3.601 2.038-.099.059-.608.341-.109-.099c-.163-.445-.322-.895-.475-1.345-1.331-3.913-2.226-7.94-2.656-12.016-.02-.173-.039-.341-.059-.514-1.296-9.785-9.701-17.101-19.762-17.101-5.422 0-10.497 2.127-14.291 5.986-3.75 3.809-5.768 8.835-5.679 14.148.084 5.273.712 11.249 2.335 17.521-7.638-11.402-17.422-20.252-28.869-26.025v-6.985c0-3.982-3.245-7.227-7.227-7.227-3.987 0-7.227 3.245-7.227 7.227v75.413c-.119.292-.188.608-.188.94v66.895c0 .237.045.465.109.678v47.672c-.119.292-.188.603-.188.94v48.241c0 1.37 1.113 2.483 2.488 2.483h9.666c1.37 0 2.483-1.113 2.483-2.483v-10.665h110.412c1.37 0 2.483-1.113 2.483-2.483 0-.777-.351-1.464-.905-1.919-.287-.237-.628-.411-.999-.5-.183-.044-.381-.069-.579-.069h-120.081v-28.597h120.078c.198 0 .396-.025.579-.069 1.093-.257 1.905-1.242 1.905-2.419 0-1.37-1.113-2.483-2.483-2.483h-66.089c.203-.42.292-.89.237-1.365-.059-.5-1.469-12.322-7.796-26.619-8.177-18.466-20.87-32.411-36.764-40.42v-6.985c0-.787-.129-1.543-.366-2.256h110.857c1.374 0 2.487-1.113 2.487-2.483zm-58.605-36.057h-9.973c.203-.42.292-.89.237-1.365-.045-.381-.876-7.336-4.066-16.943 3.923 5.174 8.88 10.205 15.117 14.875-.548 1.395-.993 2.563-1.315 3.433zm44.858-70.15 1.806 3.131-22.765 13.144-1.81-3.126zm-63.393-.41c2.854-2.904 6.673-4.502 10.749-4.502 5.491 0 10.324 2.889 12.926 7.272 1.039 1.756 1.726 3.745 1.954 5.892.193 1.811.47 3.616.826 5.397.059.302.124.603.188.9l-1.222-1.133-6.233-5.768c-1.009-.935-2.582-.876-3.512.134-.935 1.004-.876 2.577.134 3.512l15.953 14.781c.47.435 1.073.658 1.682.658.421.005.846-.104 1.232-.322l17.512-9.913c2.221-1.256 5.065-.48 6.337 1.731 1.261 2.191.529 5.031-1.637 6.332l-5.55 3.329-.02.01-.059.035-.03.015-.084.049-.03.02-14.445 8.672c-1.806 1.083-3.997 1.078-5.758.059-.005 0-.005-.005-.01-.005-.336-.198-.663-.43-.96-.698-.03-.025-.054-.049-.084-.069l-15.77-13.005-.01-.01-7.42-6.114c-.876-.722-2.097-.747-2.988-.124-.188.124-.361.277-.51.46-.876 1.059-.722 2.627.336 3.497l.371.307 22.79 18.793c.43.381.885.722 1.36 1.029.005.005.01.005.015.01 0 0 .005 0 .005.005.005 0 .005.005.01.005 1.172.747 2.463 1.242 3.794 1.484-.228.361-.455.722-.678 1.088-3.666 5.941-6.841 12.669-9.166 18.095v.005c-.064.153-.129.302-.193.45-21.019-16.28-25.812-37.012-26.055-51.783-.064-3.971 1.445-7.731 4.25-10.58zm-3.606 44.451c3.908 8.785 5.877 16.725 6.787 21.281-16.418-6.362-27.919-18.258-34.227-35.424-3.374-9.186-4.348-17.695-4.62-22.483 17.195 9.543 26.885 24.982 32.06 36.626zm-32.149-12.555c4.793 13.124 15.211 30.131 37.679 38.664h-37.679zm-9.483-36.724c0-1.242 1.014-2.256 2.256-2.256s2.256 1.014 2.256 2.256v8.489c-.01.223-.03 1.029 0 2.31v64.59h-4.511v-75.389zm4.427 230.113v8.177h-4.694v-8.177zm37.126-64.649c3.908 8.785 5.877 16.72 6.782 21.276-16.413-6.357-27.92-18.258-34.222-35.424-3.374-9.181-4.353-17.69-4.625-22.478 17.2 9.537 26.89 24.981 32.065 36.626zm-32.154-12.555c4.798 13.124 15.211 30.131 37.679 38.664h-37.679zm-4.972-28.241c-.005.223-.03 1.029 0 2.315v64.59h-4.507v-75.389c0-1.242 1.009-2.256 2.251-2.256 1.247 0 2.256 1.014 2.256 2.256zm44.625-99.262c-.015-.198-.025-.396-.035-.594-.005-.045-.01-.094-.01-.139-.02-.282-.03-.564-.045-.841-.005-.089-.01-.183-.01-.272 0-.049-.005-.094-.005-.143-.005-.069-.01-.139-.01-.208s0-.139-.005-.208c-.005-.178-.015-.351-.015-.524-.005-.173-.01-.346-.01-.514-.188.124-.361.277-.51.46-.876 1.059-.722 2.627.336 3.497l.371.307c-.018-.277-.037-.549-.052-.821zm0 0c-.015-.198-.025-.396-.035-.594-.005-.045-.01-.094-.01-.139-.02-.282-.03-.564-.045-.841-.005-.089-.01-.183-.01-.272 0-.049-.005-.094-.005-.143-.005-.069-.01-.139-.01-.208s0-.139-.005-.208c-.005-.178-.015-.351-.015-.524-.005-.173-.01-.346-.01-.514-.188.124-.361.277-.51.46-.876 1.059-.722 2.627.336 3.497l.371.307c-.018-.277-.037-.549-.052-.821zm0 0c-.015-.198-.025-.396-.035-.594-.005-.045-.01-.094-.01-.139-.02-.282-.03-.564-.045-.841-.005-.089-.01-.183-.01-.272 0-.049-.005-.094-.005-.143-.005-.069-.01-.139-.01-.208s0-.139-.005-.208c-.005-.178-.015-.351-.015-.524-.005-.173-.01-.346-.01-.514-.188.124-.361.277-.51.46-.876 1.059-.722 2.627.336 3.497l.371.307c-.018-.277-.037-.549-.052-.821zm0 0c-.015-.198-.025-.396-.035-.594-.005-.045-.01-.094-.01-.139-.02-.282-.03-.564-.045-.841-.005-.089-.01-.183-.01-.272 0-.049-.005-.094-.005-.143-.005-.069-.01-.139-.01-.208s0-.139-.005-.208c-.005-.178-.015-.351-.015-.524-.005-.173-.01-.346-.01-.514-.188.124-.361.277-.51.46-.876 1.059-.722 2.627.336 3.497l.371.307c-.018-.277-.037-.549-.052-.821zm0 0c-.015-.198-.025-.396-.035-.594-.005-.045-.01-.094-.01-.139-.02-.282-.03-.564-.045-.841-.005-.089-.01-.183-.01-.272 0-.049-.005-.094-.005-.143-.005-.069-.01-.139-.01-.208s0-.139-.005-.208c-.005-.178-.015-.351-.015-.524-.005-.173-.01-.346-.01-.514-.188.124-.361.277-.51.46-.876 1.059-.722 2.627.336 3.497l.371.307c-.018-.277-.037-.549-.052-.821zm0 0c-.015-.198-.025-.396-.035-.594-.005-.045-.01-.094-.01-.139-.02-.282-.03-.564-.045-.841-.005-.089-.01-.183-.01-.272 0-.049-.005-.094-.005-.143-.005-.069-.01-.139-.01-.208s0-.139-.005-.208c-.005-.178-.015-.351-.015-.524-.005-.173-.01-.346-.01-.514-.188.124-.361.277-.51.46-.876 1.059-.722 2.627.336 3.497l.371.307c-.018-.277-.037-.549-.052-.821zm0 0c-.015-.198-.025-.396-.035-.594-.005-.045-.01-.094-.01-.139-.02-.282-.03-.564-.045-.841-.005-.089-.01-.183-.01-.272 0-.049-.005-.094-.005-.143-.005-.069-.01-.139-.01-.208s0-.139-.005-.208c-.005-.178-.015-.351-.015-.524-.005-.173-.01-.346-.01-.514-.188.124-.361.277-.51.46-.876 1.059-.722 2.627.336 3.497l.371.307c-.018-.277-.037-.549-.052-.821zm0 0c-.015-.198-.025-.396-.035-.594-.005-.045-.01-.094-.01-.139-.02-.282-.03-.564-.045-.841-.005-.089-.01-.183-.01-.272 0-.049-.005-.094-.005-.143-.005-.069-.01-.139-.01-.208s0-.139-.005-.208c-.005-.178-.015-.351-.015-.524-.005-.173-.01-.346-.01-.514-.188.124-.361.277-.51.46-.876 1.059-.722 2.627.336 3.497l.371.307c-.018-.277-.037-.549-.052-.821zm0 0c-.015-.198-.025-.396-.035-.594-.005-.045-.01-.094-.01-.139-.02-.282-.03-.564-.045-.841-.005-.089-.01-.183-.01-.272 0-.049-.005-.094-.005-.143-.005-.069-.01-.139-.01-.208s0-.139-.005-.208c-.005-.178-.015-.351-.015-.524-.005-.173-.01-.346-.01-.514-.188.124-.361.277-.51.46-.876 1.059-.722 2.627.336 3.497l.371.307c-.018-.277-.037-.549-.052-.821z" fill="#160f60"/><path d="m248.908 64.275h26.29v3.614h-26.29z" fill="#fff" transform="matrix(.866 -.5 .5 .866 2.068 139.881)"/><path d="m213.009 78.932c.935 12.144 5.214 27.222 18.13 40.509v.005c-.064.153-.129.302-.193.45-21.019-16.28-25.812-37.012-26.055-51.783-.064-3.972 1.444-7.732 4.249-10.581 2.854-2.904 6.673-4.502 10.749-4.502 5.491 0 10.324 2.889 12.926 7.272-1.568-.544-3.255-.841-5.011-.841-4.076 0-7.895 1.598-10.749 4.502-2.805 2.849-4.314 6.609-4.249 10.581 0 .04 0 .084.005.124-.188.124-.361.277-.51.46-.876 1.059-.722 2.627.336 3.497z" fill="#fff"/><path d="m212.322 123.265c-16.418-6.362-27.919-18.258-34.227-35.424-3.374-9.186-4.348-17.695-4.62-22.483 17.195 9.542 26.886 24.981 32.06 36.626 3.908 8.786 5.876 16.725 6.787 21.281z" fill="#fff"/><path d="m168.414 61.193c-.01.223-.03 1.029 0 2.31v64.59h-4.511v-75.388c0-1.242 1.014-2.256 2.256-2.256s2.256 1.014 2.256 2.256v8.488z" fill="#fff"/><path d="m212.238 239.445c-16.413-6.357-27.92-18.258-34.222-35.424-3.374-9.181-4.353-17.69-4.625-22.478 17.2 9.537 26.891 24.981 32.065 36.626 3.908 8.785 5.876 16.72 6.782 21.276z" fill="#fff"/><path d="m168.33 177.373c-.005.223-.03 1.029 0 2.315v64.59h-4.507v-75.389c0-1.242 1.009-2.256 2.251-2.256 1.247 0 2.256 1.014 2.256 2.256z" fill="#fff"/><path d="m39.126 136.389c-10.383 0-18.827 8.444-18.827 18.827s8.444 18.832 18.827 18.832 18.827-8.449 18.827-18.832-8.444-18.827-18.827-18.827zm0 32.688c-7.643 0-13.856-6.218-13.856-13.861 0-7.638 6.213-13.856 13.856-13.856 7.638 0 13.856 6.218 13.856 13.856 0 7.643-6.218 13.861-13.856 13.861z" fill="#160f60"/><path d="m52.982 155.216c0 7.643-6.218 13.861-13.856 13.861-7.643 0-13.856-6.218-13.856-13.861 0-7.638 6.213-13.856 13.856-13.856 7.638 0 13.856 6.219 13.856 13.856z" fill="#fff"/><path d="m78.903 219.628c.317.148.673.228 1.044.228-.352-.045-.698-.119-1.044-.228zm0 0c.317.148.673.228 1.044.228-.352-.045-.698-.119-1.044-.228zm0 0c.317.148.673.228 1.044.228-.352-.045-.698-.119-1.044-.228zm0 0c.317.148.673.228 1.044.228-.352-.045-.698-.119-1.044-.228zm0 0c.317.148.673.228 1.044.228-.352-.045-.698-.119-1.044-.228zm0 0c.317.148.673.228 1.044.228-.352-.045-.698-.119-1.044-.228zm0 0c.317.148.673.228 1.044.228-.352-.045-.698-.119-1.044-.228zm0 0c.317.148.673.228 1.044.228-.352-.045-.698-.119-1.044-.228zm0 0c.317.148.673.228 1.044.228-.352-.045-.698-.119-1.044-.228zm59.865-19.06h-48.29l4.62-6.737c.752-1.093 1.266-2.305 1.519-3.572.247-1.212.262-2.473.03-3.73-.475-2.562-1.919-4.783-4.071-6.258-1.217-.831-2.577-1.36-3.992-1.583l4.071-4.991c.416-.514.613-1.167.544-1.825-.064-.653-.391-1.256-.9-1.672l-6.208-5.061c-1.064-.871-2.632-.712-3.497.356l-18.422 22.597c-.421.509-.613 1.167-.549 1.82.069.658.391 1.261.9 1.677l5.432 4.422-1.088 1.588-8.479-3.547c-1.741-8.118-8.924-13.96-17.274-13.96-5.748 0-11.288 2.518-14.816 6.733-1.281 1.529-2.246 3.225-2.894 5.026-1.123-.628-2.414-.984-3.789-.984h-.114c-2.236 0-4.368.96-5.842 2.642-1.479 1.677-2.162 3.913-1.875 6.134l7.069 54.785c.5 3.863 3.819 6.782 7.717 6.782h9.008v33.806c0 1.37 1.113 2.483 2.488 2.483h9.013c1.375 0 2.488-1.113 2.488-2.483v-33.806h13.965c3.107 0 5.803-1.825 7.059-4.467.48-1.014.752-2.147.752-3.344v-.247c0-.47-.045-.93-.129-1.38-.089-.505-.232-.989-.416-1.459h5.273c.386 0 .702.277.762.653l.129.806 4.863 30.378v11.333c0 1.37 1.113 2.483 2.483 2.483h47.726c1.375 0 2.488-1.113 2.488-2.483v-73.628h2.246c1.375 0 2.488-1.113 2.488-2.483v-14.321c.001-1.375-1.112-2.483-2.488-2.483zm-54.943 19.288v7.331h-17.601l-1.38-7.865-.613-3.478 4.358 1.766c1.321.559 2.706.826 4.076.826.846 0 1.682-.104 2.498-.302.796-.193 1.573-.48 2.305-.856 0 .03-.01.059-.01.094 0 .999.589 1.86 1.444 2.256.317.148.673.228 1.044.228zm-14.232-30.552 15.281-18.743 2.355 1.919-15.281 18.743zm-22.998 103.224h-4.046v-31.318h4.046zm21.776-39.376v.247c0 1.563-1.276 2.839-2.839 2.839h-36.963c-1.41 0-2.607-1.054-2.785-2.449l-7.069-54.785c-.104-.811.134-1.598.673-2.211.544-.618 1.291-.955 2.112-.955h.114c1.38 0 2.538.989 2.745 2.355l5.842 37.956c.168 1.093.435 2.142.796 3.146 1.637 4.591 5.174 8.167 9.626 9.889 1.89.732 3.943 1.128 6.085 1.128h18.822c1.063 0 1.994.589 2.473 1.459.234.412.368.882.368 1.381zm9.701-7.811h-11.709c-.094 0-.183.02-.277.03-.183-.015-.371-.03-.554-.03h-18.823c-.935 0-1.84-.109-2.711-.312-2.379-.554-4.487-1.825-6.06-3.601-1.459-1.637-2.463-3.71-2.825-6.035l-5.085-33.079-.411-2.656c-.005-.025-.005-.05-.01-.069-.796-4.487.92-7.682 2.498-9.567 2.597-3.102 6.713-4.957 11.007-4.957 4.65 0 8.795 2.528 11.007 6.366l-5.189-2.172c-1.266-.529-2.721.069-3.255 1.336-.262.628-.247 1.306-.01 1.89.237.594.707 1.093 1.346 1.36l6.762 2.83 15.038 6.287c1.083.46 2.34.089 3.008-.885l11.303-16.468c1.489-2.172 4.472-2.726 6.643-1.237 1.049.722 1.761 1.811 1.994 3.067.232 1.251-.035 2.523-.757 3.576l-7.306 10.645s0 0-.005.005l-5.387 7.841-1.074 1.568c-1.474 2.157-4.294 2.978-6.737 1.939l-26.03-10.527c-1.276-.514-2.726.099-3.24 1.37-.514 1.276.104 2.726 1.375 3.24l6.782 2.74 9.419 3.809.609 3.478 2.28 12.975c0 .01.005.025.01.035.01.064.035.124.049.188.025.089.049.178.084.267.02.054.049.109.079.168.04.084.084.163.134.242.03.049.069.099.104.148.054.074.114.143.173.213.045.045.089.089.134.129.064.059.134.119.208.168.05.04.099.079.153.109.079.05.158.089.237.129.054.03.109.059.168.079.094.04.193.069.297.094.05.01.094.03.143.04.153.03.312.049.47.049.005 0 .005-.005.005-.005h19.688v18.516l-.079-.49c-.45-2.803-2.834-4.836-5.673-4.836zm53.479 45.654h-42.755v-71.139h42.755zm4.734-76.111h-55.73c.277-.312.534-.643.777-.994l5.733-8.35h49.22zm-57.382 4.744c.317.148.673.228 1.044.228-.352-.045-.698-.119-1.044-.228zm0 0c.317.148.673.228 1.044.228-.352-.045-.698-.119-1.044-.228zm0 0c.317.148.673.228 1.044.228-.352-.045-.698-.119-1.044-.228zm0 0c.317.148.673.228 1.044.228-.352-.045-.698-.119-1.044-.228zm0 0c.317.148.673.228 1.044.228-.352-.045-.698-.119-1.044-.228zm0 0c.317.148.673.228 1.044.228-.352-.045-.698-.119-1.044-.228zm0 0c.317.148.673.228 1.044.228-.352-.045-.698-.119-1.044-.228zm0 0c.317.148.673.228 1.044.228-.352-.045-.698-.119-1.044-.228z" fill="#160f60"/><path d="m66.319 179.374h24.183v3.038h-24.183z" fill="#fff" transform="matrix(.632 -.775 .775 .632 -111.339 127.364)"/><path d="m54.119 191.432-5.189-2.172c-1.266-.529-2.721.069-3.255 1.336-.262.628-.247 1.306-.01 1.89-2.206.846-4.17 2.206-5.644 3.967-1.578 1.885-3.294 5.08-2.498 9.567.005.02.005.045.01.069l5.496 35.735c.173 1.138.505 2.211.97 3.205-2.379-.554-4.487-1.825-6.06-3.601-1.459-1.637-2.463-3.71-2.825-6.035l-5.085-33.079-.411-2.656c-.005-.025-.005-.05-.01-.069-.796-4.487.92-7.682 2.498-9.567 2.597-3.102 6.713-4.957 11.007-4.957 4.65 0 8.795 2.528 11.006 6.367z" fill="#fff"/><path d="m33.185 256.239h-4.615c-1.41 0-2.607-1.054-2.785-2.449l-7.069-54.785c-.104-.811.134-1.598.673-2.211.544-.618 1.291-.955 2.112-.955h.114c1.38 0 2.538.989 2.745 2.355l5.842 37.956c.168 1.093.435 2.142.796 3.146z" fill="#fff"/></g></g></svg>