<svg id="&#x428;&#x430;&#x440;_1" enable-background="new 0 0 300 300" viewBox="0 0 300 300" xmlns="http://www.w3.org/2000/svg"><g><path d="m187.323 107.416c-.363.757-2.432 1.453-2.652 1.428z" fill="#fff"/><path d="m116.08 102.599c-.307-.067-.619-.133-.937-.195-4.413-.875-9.455-1.403-14.897-1.403-18.419 0-32.241 6.015-32.533 11.457-.005.061-.005.118-.005.174v3.471c-2.258.763-4.326 1.73-6.071 2.944-.118-.107-.292-.399-.292-.88v-15.127c0-4.802 11.713-10.177 27.383-10.177 12.163 0 21.936 3.235 25.703 6.931.942.921 1.51 1.868 1.649 2.805z" fill="#fff"/><path d="m223.404 102.015c-.015.01-.026.021-.041.031-.01.006-.02.01-.031.015-.107.062-.205.134-.312.19-.052.026-.108.041-.165.067-4.136 2.258-10.494 6.691-11.43 9.9-1.003 3.45.706 5.893 2.078 7.848.527.752.983 1.418 1.28 2.124 1.162 2.237 1.213 4.766.338 6.952.656.286 1.28.65 1.848 1.095.098.077.195.153.287.236l-.425.225-5.405 2.908-26.543 14.252c-.999.532-1.838 1.244-2.514 2.073-.194-.225-.394-.44-.604-.655-.138-.133-.271-.266-.415-.399-.261-.558-.707-1.029-1.32-1.29-.134-.056-.266-.097-.4-.127l29.753-15.982h.01l1.029-.558c1.561-.84 2.149-2.79 1.315-4.351-.298-.552-.732-.983-1.244-1.274-.061-.261-.159-.523-.291-.773-.84-1.561-2.795-2.15-4.357-1.311l-33.377 17.917c-.748.405-1.3 1.081-1.546 1.91-.164.543-.184 1.1-.061 1.638.184.456.394.957.502 1.116.01.015.015.031.026.046-1.5.189-3.041.548-4.521.993-.215.061-.43.133-.645.199-.251.082-.502.165-.747.246-1.198.41-2.335.855-3.338 1.29-2.155.921-3.747 1.776-4.208 2.027 0 0 0 0-.005 0-.102.056-.21.106-.316.148-.001 0-.001.001-.002.001h-.005c-.916.379-1.93.307-2.77-.123-.578-.297-1.075-.763-1.403-1.378l-.968-1.807h-.005l-1.3-2.427-2.903-5.41-1.182-2.202-1.915-3.568c-.42-.773-.507-1.674-.246-2.524.256-.855.824-1.556 1.598-1.971l28.908-15.516c.005-.005.005-.005.01-.01l9.245-4.961 2.652-1.428 32.788-17.6.338-.184 3.568-1.915c.215-.118.44-.205.666-.266l1.791 3.337c2.136 3.978.749 8.912-3.07 11.226z" fill="#ffe471"/><path d="m256.945 202.69c-.287.624-.763 1.131-1.372 1.454l-2.898 1.556-4.336 2.329-24.071 12.921c-.363.194-.742.312-1.131.353h-.01l-.005.005c-1.08.118-2.17-.317-2.862-1.183l1.213-.65 28.33-15.214c.747-.404 1.3-1.08 1.546-1.904.21-.696.184-1.413-.066-2.073-.123-.179-.22-.369-.292-.563-.548-.875-1.469-1.413-2.447-1.495h-.005c-.041-.082-.077-.164-.107-.246-.599-.957-1.638-1.505-2.719-1.505-.512 0-1.029.123-1.515.384l-21.198 11.38-7.126 3.829-1.137-2.119-1.3-2.416-21.936-40.862c-.834-1.556-.251-3.496 1.306-4.331l18.071-9.706 12.517-6.716.701-.379.01-.005c.481-.261.998-.384 1.51-.384 1.142 0 2.247.614 2.826 1.689.235.435.44.635 1.428 1.577 1.188 1.131 3.368 3.215 5.908 5.979 0 0 0 .005.005.005 0 0 0 .005.005.005 0 0 0 .005.005.005 0 .005.005.005.005.01.271.486.543.967.814 1.464 6.23 11.544 8.974 25.007 9.875 29.43.082.42.169.845.22 1.08.461.947 1.121 2.826.717 5.119.932.194 1.833.548 2.652 1.044.558.338 1.085.747 1.556 1.223h.005c.563.563 1.055 1.213 1.449 1.95.092.174.174.353.251.527.287.527.522 1.116.778 1.771.603 1.544 1.315 3.346 2.83 4.662z" fill="#ffe471"/><path d="m192.776 209.181c-1.075.486-2.227.727-3.384.727-.2 0-.399-.005-.594-.021-.107-.01-.215-.015-.322-.031h-.005c-.507-.056-1.014-.159-1.515-.307-1.521-.461-2.841-1.321-3.855-2.478-.026-.02-.046-.046-.066-.072-8.119 4.648-15.537 10.571-22.724 16.315-7.121 5.693-14.462 11.554-22.606 16.32-.005.005-.01.005-.015.005-.819.486-1.643.952-2.478 1.408-8.431 4.592-18.726 8.129-29.635 11.871-7.72 2.652-15.629 5.37-23.011 8.539l-.164-.307-2.278-4.244-6.947-12.936c8.826-4.976 17.144-11.001 25.212-16.852 8.611-6.24 17.513-12.69 26.876-17.718 8.969-4.817 18.864-8.457 28.437-11.979 6.558-2.416 13.269-4.884 19.791-7.766 1.121-.491 2.237-.998 3.343-1.52.445-.21.891-.425 1.336-.64l7.981 14.866h.005l.379.706c.399.753 1.08 1.305 1.904 1.551.625.189 1.28.184 1.884 0z" fill="#ffe471"/><path d="m70.703 274.722c-1.07.481-2.222.727-3.384.727-.195 0-.389-.005-.589-.02-.133-.01-.271-.026-.404-.041-.481-.056-.962-.159-1.439-.302-1.561-.471-2.918-1.367-3.947-2.575l-1.126.604c-2.375 1.275-4.894 2.037-7.423 2.329-.456-.609-.875-1.259-1.244-1.95-.205-.389-.394-.778-.568-1.177-.271-.619-.497-1.249-.681-1.889-.814-2.836-.794-5.867.082-8.779.522-1.736 1.321-3.333 2.355-4.746.763-1.044 1.653-1.981 2.652-2.8.384-.317.788-.62 1.203-.896l7.894 14.697.384.706c.399.753 1.08 1.3 1.904 1.551.624.189 1.28.184 1.884-.005z" fill="#ffe471"/><path d="m291.96 222.823-8.273-15.409c-.42-.778-1.116-1.346-1.971-1.602-.568-.174-1.162-.189-1.72-.056-.118.097-.241.184-.379.261-1.091.599-9.589 5.14-16.074 5.14-1.07 0-2.089-.123-3.005-.41-2.713-.845-4.556-2.334-5.856-3.942-.676.804-1.5 1.48-2.447 1.991l-33.377 17.917c-1.013.543-2.088.855-3.169.952.543 1.915.727 4.141.077 6.66-1.704 6.655-12.721 12.629-14.078 13.346 0 0 0 0-.005 0-.773.415-1.341 1.116-1.602 1.971-.256.85-.169 1.751.251 2.524l8.273 15.409c.865 1.612 2.882 2.222 4.495 1.357l77.51-41.614c1.611-.865 2.215-2.882 1.35-4.495z" fill="#ffe471"/><path d="m121.255 103.971v13.085c0 2.058-.814 3.937-2.196 5.222-.005 1.234-.056 2.457-.154 3.67-1.556-.297-3.143-.548-4.735-.747.005-.015.005-.031.005-.046.031-.394.046-.788.061-1.188-.466-.159-.916-.384-1.336-.681-1.838-1.295-4.413-2.35-7.597-3.133-5.631-1.792-13.412-2.749-22.698-2.749-5.554 0-10.561.338-14.897 1.003v-5.774c0-.056.507-3.891.512-3.952.292-5.442 13.607-7.679 32.026-7.679 5.442 0 10.484.527 14.897 1.403.317.061.63.128.937.195 1.853.398 3.578.864 5.175 1.371z" fill="#6ea9ff"/><path d="m130.956 115.484v13.945c0 .486-.174.773-.292.886-.727-.512-1.515-.978-2.35-1.398v-.005l-1.003-1.863c-1.065-1.986-1.29-4.274-.64-6.445.655-2.171 2.109-3.952 4.095-5.017z" fill="#6ea9ff"/><path d="m110.28 73.568-9.317-3.456.768-.338z" fill="#6ea9ff"/><path d="m144.466 88.726-19.862 13.489c-3.287-1.648-7.182-2.923-11.528-3.727-3.937-4.628-14.15-8.672-26.861-8.672-16.376 0-28.616 6.722-28.616 12.732v2.452l-13.95-9.465 3.174-1.408.205-.092 4.008 2.273 5.902 3.348c3.102-6.998 15.731-11.938 31.79-11.938s28.693 4.94 31.79 11.938l17.641-9.998 3.691-2.094z" fill="#6ea9ff"/><path d="m159.153 97.433-1.259.712c-.056-.42-.118-.834-.189-1.249z" fill="#6ea9ff"/><path d="m168.823 95.15c-6.184-39.111-40.211-68.321-80.09-68.321-44.711 0-81.083 36.372-81.083 81.083 0 44.716 36.372 81.088 81.083 81.088 31.703 0 60.309-18.357 73.578-46.974-.143-.061-.287-.123-.44-.174-1.541-.532-3.998-.159-6.578.609-6.148 11.82-15.332 21.818-26.64 28.939-11.938 7.525-25.745 11.503-39.925 11.503-41.348 0-74.986-33.638-74.986-74.991 0-41.348 33.638-74.986 74.986-74.986 19.018 0 37.155 7.131 51.074 20.078 12.88 11.989 21.06 27.925 23.292 45.223z" fill="#6ea9ff"/><path d="m296.496 220.392-8.278-15.414c-1.065-1.987-2.846-3.44-5.017-4.096-2.171-.65-4.459-.425-6.446.645-.26.138-.481.327-.67.532-4.229 2.155-10.966 4.73-14.017 3.778-1.054-.332-1.889-.819-2.564-1.407-1.515-1.315-2.227-3.118-2.831-4.659-.256-.656-.492-1.244-.778-1.771-.077-.174-.159-.353-.251-.527-.916-1.71-2.355-2.969-4.009-3.691h-.005c-.532-.236-1.081-.41-1.649-.527.041-.236.072-.471.092-.696.179-1.976-.394-3.573-.809-4.423-.051-.236-.138-.661-.22-1.08-.901-4.423-3.645-17.887-9.874-29.431-.271-.497-.543-.978-.814-1.464 0-.006-.006-.006-.006-.01-.005 0-.005-.005-.005-.005-.006 0-.006-.006-.006-.006-.005 0-.005-.005-.005-.005-5.83-10.116-14.323-18.214-17.2-20.963-.271-.256-.482-.456-.624-.594-.466-.793-1.055-1.479-1.72-2.057-.645-.553-1.367-.999-2.135-1.331.067-.165.123-.328.174-.492.056-.153.102-.307.138-.461.527-1.95.348-4.08-.65-6-.297-.707-.753-1.372-1.28-2.124-1.371-1.956-3.081-4.397-2.078-7.848.936-3.21 7.294-7.643 11.431-9.9.056-.026.112-.041.164-.067.107-.056.205-.128.312-.19.01-.005.02-.01.031-.015.015-.01.026-.02.041-.031 3.819-2.314 5.206-7.248 3.071-11.226l-1.791-3.337-6.486-12.076c-2.207-4.111-7.346-5.662-11.462-3.45l-34.668 18.613c-7.305-40.708-43.063-70.906-84.871-70.906-47.545-.001-86.231 38.685-86.231 86.232 0 47.553 38.686 86.233 86.233 86.233 31.278 0 59.721-16.801 74.94-43.534.625-1.095 1.229-2.206 1.803-3.337.276-.532.548-1.069.809-1.607.215.384.409.773.583 1.162.236.512.44 1.024.635 1.51.072.251.154.497.256.737.113.302.251.594.405.886 1.213 2.262 3.328 3.737 5.662 4.223-.327 1.843-.041 3.732.855 5.401l1.618 3.01c-1.096.102-2.176.42-3.175.957-3.512 1.884-5.124 5.939-4.09 9.629-8.395 4.28-17.498 7.643-26.328 10.894-9.737 3.578-19.801 7.285-29.088 12.271-9.67 5.191-18.716 11.748-27.464 18.091-7.97 5.775-16.197 11.734-24.803 16.576-1.028-1.198-2.375-2.088-3.931-2.554-2.145-.645-4.403-.419-6.364.63-1.961 1.054-3.399 2.816-4.044 4.955-.471 1.566-.476 3.189-.035 4.715l-1.121.604c-4.859 2.61-8.416 6.967-10.013 12.28-1.603 5.309-1.044 10.909 1.561 15.762 3.732 6.952 10.893 10.914 18.28 10.914.778 0 1.561-.046 2.34-.133 2.528-.292 5.047-1.054 7.423-2.329l.881-.471.245-.133c.052.056.102.118.159.174 1.003 1.121 2.303 1.95 3.788 2.401.804.24 1.623.363 2.432.363 1.162 0 2.314-.245 3.383-.727h.006c.184-.081.363-.169.542-.266 3.517-1.889 5.13-5.948 4.085-9.64 2.335-1.177 4.751-2.293 7.229-3.358 7.381-3.169 15.291-5.887 23.011-8.539 10.909-3.742 21.204-7.28 29.635-11.871 9.153-4.992 17.262-11.467 25.1-17.733 7.131-5.697 14.488-11.569 22.53-16.202h.005c.062-.041.128-.077.19-.113.041.052.087.098.133.144 1.003 1.121 2.299 1.955 3.788 2.406.803.24 1.623.358 2.437.358 1.157 0 2.309-.24 3.384-.727.184-.082.363-.169.543-.266 1.003-.538 1.863-1.26 2.554-2.12l1.617 3.016c.922 1.715 2.366 2.974 4.024 3.696-.696 1.751-.798 3.722-.215 5.585.025.169.066.338.127.507.18.486.451.957.763 1.449.015.021.031.041.046.067.185.287.384.578.599.89 1.444 2.094 3.241 4.7 2.319 8.298-.87 3.389-7.525 7.981-11.513 10.08-.005.005-.01.005-.01.01-.006 0-.006 0-.01 0-4.111 2.212-5.662 7.352-3.455 11.463l8.278 15.414c1.525 2.841 4.449 4.459 7.469 4.459 1.352 0 2.724-.323 3.993-1.003l77.505-41.614c4.107-2.213 5.658-7.352 3.452-11.463zm-48.223-22.177c.092 0 .174.006.266.01h.005c.978.082 1.899.619 2.447 1.495.072.195.169.384.292.564.251.66.277 1.377.067 2.073-.246.824-.799 1.5-1.546 1.904l-28.33 15.215-1.213.65-3.835 2.058c-1.561.839-3.517.245-4.356-1.316-.399-.747-.486-1.617-.236-2.446.246-.824.798-1.5 1.551-1.905l1.029-.552s.005-.005.01-.005l4.008-2.15 7.126-3.829 21.198-11.38c.488-.263 1.005-.386 1.517-.386zm-93.706-42.927c-.13.181-.261.363-.394.544 0 .001-.001.001-.001.002-.011.015-.023.031-.035.047-.357.481-.714.952-1.071 1.423-.373.486-.753.968-1.136 1.444-.261.327-.522.65-.788.968-.266.323-.532.64-.804.957-.271.312-.542.629-.819.941-.548.625-1.106 1.234-1.674 1.838-.286.302-.573.604-.86.901-.185.194-.374.384-.563.573-.136.141-.274.281-.415.422-.14.14-.281.279-.425.418-.22.22-.445.44-.671.65-.261.256-.522.502-.783.742-.108.103-.217.206-.327.309-.032.03-.064.059-.097.089-.094.086-.188.173-.283.258-.042.04-.084.079-.127.119-.11.102-.223.202-.335.302-.044.04-.088.078-.132.117-.194.174-.389.348-.583.517-.083.074-.167.149-.252.223-.068.06-.136.119-.205.177-.051.044-.102.086-.153.128-.058.051-.116.101-.175.152-.073.062-.145.124-.218.186-.046.039-.093.079-.139.117-.286.24-.573.486-.865.722-.072.06-.144.12-.215.179-.07.058-.14.115-.211.172-.075.061-.15.122-.225.181-.073.059-.146.116-.219.174-.083.066-.166.133-.249.199-.169.135-.339.269-.509.401-.081.063-.163.126-.245.188-.035.028-.069.056-.104.084-.07.055-.141.109-.211.161-.035.026-.069.052-.104.077-.069.054-.139.107-.207.16-.069.052-.139.105-.207.156-.069.052-.139.103-.207.155-.069.051-.138.102-.207.153l-.165.123c-.013.01-.027.019-.04.03-.096.071-.191.142-.287.211-.002.001-.003.002-.004.003-.053.039-.106.077-.161.114-.051.039-.102.077-.154.114-.051.037-.102.073-.153.106-.153.113-.302.22-.455.327-.534.381-1.07.752-1.61 1.117-.153.104-.307.207-.461.31-.027.018-.052.035-.079.053-.092.06-.184.12-.276.18-.08.053-.159.105-.239.157-.169.11-.338.22-.508.328-.035.022-.07.044-.105.067-.27.17-.541.341-.813.511-.164.102-.338.21-.507.312-.318.194-.636.387-.955.577-.156.094-.314.186-.47.277-.006.004-.012.007-.018.01-.144.084-.287.168-.432.25-.057.034-.115.067-.173.099-.117.068-.234.135-.352.201-.162.092-.324.183-.487.273-.236.132-.473.26-.71.389-.089.048-.179.097-.268.145-.165.089-.328.176-.492.263-.228.121-.456.243-.686.361-.093.048-.186.097-.279.144-.125.064-.25.127-.377.189-.056.03-.112.059-.169.087-.169.087-.339.171-.512.256-.119.06-.238.119-.357.177-.39.193-.784.382-1.179.565-.107.051-.215.1-.322.149-.282.131-.562.26-.843.386l-.242.106c-.129.058-.259.115-.389.173-.045.019-.09.04-.135.059-.058.026-.116.051-.174.076-.078.034-.156.068-.234.101-.022.01-.044.019-.066.029-.051.023-.102.044-.154.066-.149.064-.298.125-.446.187-.195.084-.394.165-.591.247-.066.027-.131.054-.197.081-.174.072-.348.143-.523.211-.175.07-.35.14-.527.208-.272.107-.538.21-.809.312-.066.026-.132.051-.198.075-.174.065-.349.128-.523.191-.015.007-.027.013-.04.019-.001.001-.002.001-.003.002-.014.006-.028.01-.044.016-.092.033-.185.067-.277.102-.177.065-.354.13-.534.191-.028.01-.057.02-.085.03-.129.046-.259.092-.389.136-.095.034-.19.068-.286.1-.226.078-.452.155-.678.23-.227.077-.453.152-.681.224-.449.147-.9.288-1.353.425-.018.006-.036.011-.055.017-.142.044-.284.085-.426.127-.221.066-.443.13-.665.194-.149.043-.298.086-.448.127-.261.072-.523.148-.789.22-.017.005-.033.01-.05.015-.013.003-.026.007-.039.01-.2.056-.402.11-.607.161-.038.01-.076.019-.114.028-.066.018-.133.035-.201.053-.067.017-.134.035-.202.052-.135.034-.27.067-.407.1-.135.035-.269.069-.404.102s-.27.066-.406.098c-.272.065-.544.127-.818.189-.338.077-.681.153-1.023.225-.004.003-.008.005-.013.006-.009.004-.018.006-.027.006h-.001c-.006 0-.01 0-.015-.002-.031.005-.061.015-.092.02-.063.015-.127.031-.19.044-.01.002-.021.004-.031.006-.065.014-.13.027-.194.04-.002 0-.004.001-.006.001-.044.009-.088.017-.132.026-.02.005-.035.005-.056.01-.006.002-.013.005-.019.006-.001 0-.002.001-.003.001-.012.004-.023.006-.035.007-.005.001-.01.001-.015.001-.069.015-.137.029-.205.043-.037.007-.074.015-.111.022-.076.015-.151.029-.226.042-.031.008-.06.015-.09.022-.009.002-.017.003-.025.005-.023.005-.046.009-.069.013-.015.002-.031.005-.047.006-.215.043-.43.085-.648.125-.072.013-.145.026-.218.039-.144.026-.289.053-.435.079-.098.018-.195.035-.291.051-.048.009-.097.017-.144.024-.046.005-.087.015-.133.02-.143.026-.286.05-.429.074 0 0-.001 0-.002 0-.144.023-.289.047-.434.069-.049.008-.098.016-.148.024-.006.001-.014.002-.021.003-.155.024-.311.047-.465.07-.211.03-.42.061-.635.092-.051.008-.102.015-.153.023-.176.026-.352.05-.528.073-.002 0-.004 0-.006.001-.075.009-.149.018-.224.027-.307.041-.615.082-.916.113-.153.02-.307.04-.461.057-.077.009-.153.018-.23.026-.301.033-.602.065-.903.094-.22.022-.441.043-.662.063-.004 0-.008 0-.012.001-.45.04-.901.076-1.351.106-.302.026-.604.046-.901.061-.129.01-.256.019-.383.027-.08.006-.161.01-.241.014-.051.002-.102.006-.154.008-.236.013-.471.024-.707.034-.035.002-.07.003-.106.005-.06.003-.121.006-.181.008-.123.006-.246.01-.369.015-.022.001-.044.002-.065.002-.1.003-.199.008-.299.01h-.006c-.031.001-.063.001-.094.001-.145.006-.291.01-.436.015-.069.002-.138.003-.207.005-.139.002-.277.004-.416.006-.171.004-.343.006-.515.009-.184.002-.368.004-.552.005-.124.006-.247.006-.371.006-44.712 0-81.083-36.372-81.083-81.088 0-44.711 36.372-81.083 81.083-81.083 39.879 0 73.906 29.21 80.09 68.321l-5.729 3.076c-2.232-17.297-10.412-33.233-23.292-45.223-13.919-12.947-32.057-20.077-51.074-20.077-41.348 0-74.986 33.638-74.986 74.986 0 41.353 33.638 74.991 74.986 74.991 14.18 0 27.986-3.978 39.925-11.503.518-.324 1.03-.655 1.538-.995.057-.038.115-.077.172-.115.189-.127.376-.255.563-.384.174-.113.348-.236.522-.359.113-.077.231-.158.344-.236.057-.041.115-.081.173-.122.057-.04.115-.081.172-.122.115-.081.229-.163.341-.248.015-.01.036-.026.052-.036.338-.241.67-.486.998-.732.205-.153.405-.307.61-.461.225-.174.45-.343.67-.517.067-.052.139-.102.205-.159.251-.194.502-.394.748-.594.147-.117.294-.236.44-.355.079-.065.158-.13.237-.195.075-.062.149-.124.223-.187.097-.077.19-.154.286-.241.185-.153.369-.306.553-.47.127-.108.251-.215.378-.328.01-.01.026-.02.036-.031.102-.085.203-.171.304-.26.1-.088.2-.177.3-.267.02-.016.035-.036.056-.052.236-.21.471-.419.701-.635.181-.161.361-.325.54-.492.06-.056.119-.112.177-.169.068-.063.136-.126.203-.189.151-.141.301-.283.449-.427.052-.05.105-.101.156-.152.102-.098.204-.197.306-.296.306-.298.608-.598.907-.902.348-.353.696-.711 1.044-1.075.001-.001.002-.002.002-.002.005-.006.009-.01.013-.014.042-.042.081-.081.116-.123.008-.008.015-.016.022-.025.394-.419.789-.844 1.173-1.27.063-.069.126-.138.188-.206.066-.073.132-.148.198-.221.089-.1.177-.2.265-.3.027-.031.054-.061.081-.092.08-.092.158-.184.236-.276l.491-.569c.08-.092.158-.185.236-.277.078-.093.156-.186.234-.278.077-.094.155-.186.231-.28.077-.094.154-.187.231-.281.044-.055.09-.11.135-.165.134-.165.268-.331.402-.5.181-.228.362-.456.541-.684.089-.115.177-.229.266-.344.088-.115.176-.229.263-.344.039-.05.077-.1.115-.15.113-.149.226-.3.341-.454.04-.052.079-.105.118-.156.088-.118.175-.235.261-.352.027-.038.055-.077.082-.115.057-.078.115-.156.172-.234.068-.094.135-.188.203-.281.102-.141.202-.283.301-.427.093-.132.19-.269.284-.402.005-.006.009-.012.013-.018.083-.119.165-.238.248-.357.246-.358.486-.717.725-1.082.256-.384.507-.768.753-1.152.153-.246.307-.491.461-.737.082-.128.159-.251.236-.379.194-.317.389-.635.578-.957.102-.173.205-.348.307-.522.023-.039.046-.078.069-.117.037-.063.074-.127.111-.19.042-.073.083-.146.123-.22.038-.065.077-.131.114-.196.114-.198.224-.397.331-.592.073-.133.147-.267.221-.401.057-.104.115-.209.171-.314.033-.06.066-.121.099-.181.032-.061.065-.123.097-.183.007-.015.015-.029.023-.043.076-.144.152-.288.228-.431.043-.081.086-.162.128-.244 2.58-.768 5.038-1.142 6.578-.609.154.051.297.112.44.173-.055.118-.111.236-.166.353-.096.204-.194.406-.291.609-.073.15-.145.301-.219.451-.411.844-.838 1.682-1.275 2.511-.147.278-.295.555-.445.831-.052.097-.106.194-.16.29-.037.066-.074.131-.111.198-.054.098-.108.197-.163.295-.165.295-.334.59-.502.882-.024.044-.048.086-.073.129-.006.011-.013.023-.019.033-.042.075-.085.149-.129.223-.006.011-.013.022-.02.033-.018.031-.037.062-.056.094-.012.022-.024.044-.036.065-.022.037-.043.073-.064.11-.007.013-.015.026-.023.039-.039.064-.078.127-.117.191-.205.348-.415.696-.63 1.039-.072.113-.138.226-.21.338-.133.22-.272.44-.41.656-.271.424-.548.849-.824 1.269-.107.174-.225.348-.348.522-.118.174-.236.348-.353.522-.235.348-.477.691-.717 1.035-.116.168-.235.336-.354.504-.011.016-.021.03-.03.043zm3.654-54.445-27.265 14.641-.19.102c-1.986 1.065-3.44 2.846-4.096 5.017-.65 2.17-.424 4.459.64 6.445l1.003 1.863v.005l7.274 13.541c1.526 2.841 4.449 4.459 7.469 4.459 1.351 0 2.723-.323 3.992-1.003 0-.006.006-.006.006-.006.005-.005.01-.005.015-.005.138-.077.292-.159.44-.236-12.783 19.965-34.688 32.092-58.784 32.092-38.512 0-69.842-31.334-69.842-69.846 0-38.511 31.329-69.842 69.842-69.842 34.385 0 63.652 25.417 68.976 58.825.072.415.133.829.19 1.249v.005c.13.892.237 1.793.33 2.694zm8.498 37.529c-.199-.087-.404-.139-.609-.169-.758-.465-1.603-.881-2.554-1.213-4.357-1.511-10.782.65-14.948 2.452-.123.052-.24.102-.353.154-1.863.829-3.215 1.551-3.634 1.781 0 0 0 0-.006 0-1.607.865-3.629.261-4.495-1.351l-8.273-15.414c-.419-.773-.506-1.674-.245-2.524.256-.855.824-1.556 1.597-1.97l28.908-15.516c.006-.006.006-.006.01-.01l9.245-4.96 2.652-1.428 36.694-19.699c1.612-.865 3.629-.256 4.495 1.357l5.247 9.773 1.199 2.232 1.828 3.404c.814 1.51.332 3.374-1.055 4.315-1.623.861-12.537 6.85-14.4 13.243-.778 2.678-.573 4.997.015 6.947-1.05.113-2.099.42-3.087.948l-33.377 17.922c-.998.532-1.837 1.244-2.513 2.074-.312-.364-.65-.712-1.019-1.055-.262-.561-.708-1.032-1.322-1.293zm6.22 9.537c-.006-.005-.01-.015-.015-.025-.01-.016-.015-.031-.026-.047-.107-.158-.318-.66-.502-1.115-.123-.538-.102-1.096.061-1.638.246-.83.798-1.505 1.546-1.91l33.377-17.917c1.009-.543 2.181-.486 3.112.036.512.291.947.722 1.244 1.274.834 1.561.245 3.512-1.315 4.351l-1.029.558c-.006 0-.006 0-.01 0l-29.753 15.982-1.387.742-.153.081c-.005 0-.005 0-.005 0l-1.034.558c-1.429.764-3.175.339-4.111-.93zm-109.925 123.414c-2.38 1.279-4.951 1.874-7.484 1.848-1.69-.01-3.363-.302-4.951-.855-3.579-1.228-6.722-3.758-8.646-7.341-1.956-3.645-2.37-7.852-1.167-11.846 1.203-3.998 3.875-7.274 7.519-9.23l.953-.512 5.749 10.715 2.979 5.544 6 11.165zm11.437 1.341c-.18.097-.369.173-.564.235-.603.19-1.259.195-1.883.006-.824-.251-1.505-.798-1.905-1.551l-.384-.707-7.894-14.698-9.266-17.262c0-.006 0-.006 0-.006l-.379-.707c-.404-.747-.486-1.617-.24-2.446.251-.824.798-1.5 1.551-1.905.471-.251.983-.378 1.505-.378.312 0 .63.046.942.138.829.251 1.505.798 1.91 1.551l.378.707 17.16 31.965.378.707c.84 1.561.251 3.512-1.309 4.351zm108.649-65.592c-7.264 4.495-13.909 9.803-20.369 14.969-7.669 6.127-15.594 12.46-24.353 17.231-.225.123-.45.241-.675.364-.006.005-.01.005-.016.005-7.929 4.218-17.758 7.592-28.15 11.16-7.961 2.733-16.115 5.534-23.784 8.851-1.132.486-2.247.988-3.353 1.5-1.249.578-2.478 1.167-3.686 1.782l-14.754-27.48c8.826-4.976 17.145-11.001 25.212-16.852 8.611-6.241 17.512-12.691 26.876-17.718 8.969-4.817 18.864-8.457 28.437-11.979 8.944-3.291 18.168-6.685 26.809-11.083l2.545 4.741 2.995 5.575 2.288 4.264 6.931 12.905c-.998.572-1.98 1.16-2.953 1.765zm14.969-1.854c-.251.829-.798 1.505-1.551 1.91-.18.097-.369.173-.564.236-.604.184-1.259.19-1.883 0-.824-.246-1.505-.799-1.904-1.552l-.379-.707h-.005l-7.981-14.865-.599-1.111-8.959-16.688c-.84-1.561-.251-3.517 1.311-4.357.752-.404 1.623-.486 2.447-.236.829.246 1.505.798 1.91 1.551l17.917 33.372c.404.753.491 1.623.24 2.447zm9.583 4.899-28.438-52.968c-.834-1.557-.251-3.496 1.306-4.331l2.779-1.495 15.291-8.211 13.228-7.1c.364-.2.753-.318 1.142-.359.123-.02.245-.025.369-.025 1.141 0 2.247.614 2.825 1.689.236.436.44.635 1.428 1.577 1.28 1.219 3.717 3.547 6.512 6.645.603.67 1.228 1.377 1.858 2.119 3.004 3.522 6.193 7.781 8.692 12.409 5.867 10.873 8.493 23.774 9.357 28.017.307 1.506.364 1.777.584 2.196.148.277.599 1.265.246 2.442-.251.824-.798 1.5-1.546 1.899l-7.234 3.885-20.057 10.766-1.259.676-2.754 1.479c-1.549.831-3.495.247-4.329-1.31zm82.957 17.201-77.51 41.613c-1.612.865-3.629.256-4.495-1.356l-8.273-15.409c-.419-.773-.507-1.674-.251-2.524.261-.854.83-1.556 1.603-1.97h.005c1.357-.717 12.373-6.691 14.078-13.346.65-2.519.465-4.746-.077-6.66 1.081-.097 2.156-.41 3.169-.952l6.824-3.666.006-.005h.01l26.538-14.247c.947-.512 1.771-1.188 2.447-1.991.173.215.358.43.552.635.077.087.159.174.24.256.139.139.281.277.43.415.379.353.794.691 1.249 1.003.108.072.215.144.323.215.098.066.194.128.297.184.082.052.164.102.251.149.174.102.353.194.538.291.107.056.22.108.332.159.128.061.256.118.39.174.133.056.266.112.404.164.133.051.277.102.419.153.144.052.287.098.431.144.916.287 1.935.41 3.004.41 6.486 0 14.984-4.541 16.075-5.14.138-.077.261-.164.378-.261.558-.133 1.152-.118 1.72.056.855.256 1.551.824 1.97 1.603l8.273 15.409c.866 1.612.262 3.629-1.35 4.494z" fill="#160f60"/><g fill="#fff"><path d="m220.45 89.632-.338.184-32.788 17.6-2.652 1.428-9.245 4.961c-.005.005-.005.005-.01.01l-28.908 15.516c-.773.415-1.341 1.116-1.598 1.971-.261.85-.174 1.751.246 2.524l1.915 3.568 1.182 2.202c-1.863.829-3.215 1.551-3.634 1.781 0 0 0 0-.006 0-1.607.865-3.629.261-4.495-1.351l-8.273-15.414c-.419-.773-.506-1.674-.245-2.524.256-.855.824-1.556 1.597-1.97l28.908-15.516c.006-.006.006-.006.01-.01l9.245-4.96 2.652-1.428 36.694-19.699c1.612-.865 3.629-.256 4.495 1.357z"/><path d="m251.35 202.357c-.246.824-.799 1.5-1.546 1.904l-28.33 15.214-1.213.65-3.834 2.058c-1.561.839-3.517.246-4.356-1.316-.399-.747-.486-1.618-.235-2.447.246-.824.799-1.5 1.551-1.904l1.029-.553s.005-.005.01-.005l4.008-2.15 7.126-3.829 21.198-11.38c.486-.261 1.003-.384 1.515-.384.092 0 .174.005.266.01h.005c.978.082 1.899.619 2.447 1.495.071.195.169.384.292.563.251.661.276 1.377.067 2.074z"/><path d="m198.069 205.218c-.251.829-.799 1.505-1.551 1.909-.179.097-.369.174-.563.235-.604.184-1.259.189-1.884 0-.824-.246-1.505-.799-1.904-1.551l-.379-.707h-.005l-7.981-14.866-.599-1.111-8.959-16.689c-.84-1.561-.251-3.517 1.311-4.356.753-.404 1.623-.486 2.447-.235.829.246 1.505.799 1.909 1.551l17.917 33.372c.405.754.492 1.624.241 2.448z"/><path d="m191.501 166.671 21.936 40.862 1.3 2.416-2.754 1.479c-1.551.829-3.496.246-4.331-1.311l-28.437-52.968c-.834-1.556-.251-3.496 1.305-4.331l2.78-1.495 15.291-8.211 13.228-7.1c.363-.2.753-.317 1.142-.358.123-.02.245-.025.368-.025 1.142 0 2.247.614 2.826 1.689.235.435.44.635 1.428 1.577 1.28 1.218 3.717 3.548 6.512 6.645l-.701.379-12.517 6.716-18.071 9.706c-1.556.833-2.14 2.773-1.305 4.33z"/><path d="m210.422 130.918-1.029.558c-.005 0-.005 0-.01 0l-29.753 15.982-1.387.742-.153.082c-.005 0-.005 0-.005 0l-1.034.558c-1.428.763-3.174.338-4.111-.932-.005-.005-.01-.015-.015-.025-.01-.015-.015-.031-.026-.046-.107-.159-.317-.66-.502-1.116-.123-.538-.102-1.096.061-1.638.246-.829.798-1.505 1.546-1.909l33.377-17.917c1.009-.543 2.181-.486 3.113.036.512.292.947.722 1.244 1.275.834 1.56.245 3.511-1.316 4.35z"/><path d="m176.834 188.136c-1.106.522-2.222 1.029-3.343 1.52-6.522 2.882-13.233 5.35-19.791 7.766-9.573 3.522-19.468 7.162-28.437 11.979-9.363 5.027-18.265 11.477-26.876 17.718-8.068 5.851-16.387 11.877-25.212 16.852l6.947 12.936 2.278 4.244c-1.249.579-2.478 1.167-3.686 1.782l-14.754-27.48c8.825-4.976 17.144-11.001 25.212-16.853 8.611-6.24 17.513-12.691 26.876-17.718 8.969-4.817 18.864-8.457 28.437-11.979 8.943-3.292 18.168-6.686 26.809-11.083l2.544 4.74z"/><path d="m74.45 272.664c-.179.097-.369.174-.563.235-.604.189-1.259.194-1.884.005-.824-.251-1.505-.799-1.904-1.551l-.384-.706-7.894-14.697-9.266-17.262c0-.005 0-.005 0-.005l-.379-.706c-.404-.747-.486-1.618-.241-2.447.251-.824.799-1.5 1.551-1.904.471-.251.983-.379 1.505-.379.312 0 .63.046.942.138.829.251 1.505.798 1.909 1.551l.379.707 17.16 31.964.379.707c.84 1.56.252 3.51-1.31 4.35z"/><path d="m54.987 254.102c-.998.819-1.889 1.756-2.652 2.8-1.034 1.413-1.833 3.01-2.355 4.746-.875 2.913-.896 5.943-.082 8.779.184.64.41 1.27.681 1.889-3.578-1.229-6.722-3.757-8.646-7.341-1.955-3.645-2.37-7.853-1.167-11.846 1.203-3.998 3.875-7.274 7.52-9.23l.952-.512z"/><path d="m147.056 145.907s-.005 0-.005.005c-1.27.681-2.641 1.003-3.993 1.003-3.02 0-5.943-1.618-7.469-4.459l-7.274-13.54v-.005l-1.003-1.863c-1.065-1.986-1.29-4.274-.64-6.445.655-2.171 2.109-3.952 4.095-5.017l.189-.102 27.265-14.641c-.092-.901-.2-1.802-.328-2.693v-.005c-.056-.42-.118-.834-.189-1.249-5.324-33.408-34.591-58.825-68.976-58.825-38.512 0-69.841 31.33-69.841 69.841s31.33 69.846 69.841 69.846c24.096 0 46.001-12.127 58.784-32.092-.148.077-.302.159-.44.235-.006.001-.011.001-.016.006zm-25.801-40.754v13.013c0 1.802-.686 3.445-1.848 4.571-.005 1.08-.046 2.15-.128 3.21-1.408 19.473-14.626 34.78-30.679 34.78-16.986 0-30.807-17.149-30.807-38.23v-.041c-1.003-1.111-1.592-2.631-1.592-4.29v-13.013l-11.196-6.353v16.428l8.933 15.475c.461.794.461 1.776 0 2.57-.461.799-1.311 1.285-2.227 1.285h-18.562c-.916 0-1.766-.486-2.227-1.285-.461-.794-.461-1.776 0-2.57l8.933-15.475v-19.34l-14.052-7.971c-.87-.491-1.377-1.444-1.295-2.442s.732-1.858 1.669-2.206l61.661-22.842c.036-.015.077-.02.118-.031.097-.031.189-.061.292-.077.072-.015.143-.026.22-.031.087-.01.174-.015.266-.015.087 0 .169.005.251.01.077.01.159.02.235.036.097.02.189.046.282.072.041.015.082.02.123.036l61.656 22.842c.942.348 1.592 1.208 1.674 2.206.077.998-.425 1.95-1.295 2.442l-7.193 4.075-19.008 10.781z"/><path d="m114.237 123.966c-.016.399-.031.794-.061 1.188 0 .015 0 .031-.005.046-1.065 16.985-12.122 30.383-25.57 30.383-13.75 0-25.002-14.016-25.632-31.545.553-.159 1.09-.399 1.592-.753 2.565-1.807 6.547-3.138 11.631-3.937 3.65-.578 7.863-.875 12.537-.875 6.512 0 12.138.579 16.576 1.679 3.184.783 5.759 1.838 7.597 3.133.418.297.869.523 1.335.681z"/><path d="m100.963 70.112-53.936 23.922-13.873-7.863 55.574-20.589z"/><path d="m47.252 129.413h-9.645l4.823-8.354z"/></g><path d="m144.307 86.171-2.457 1.392-3.691 2.094-17.641 9.998c-3.097-6.998-15.731-11.938-31.79-11.938s-28.688 4.94-31.79 11.938l-5.902-3.348-8.411-3.496 58.338-22.699 9.317 3.455z" fill="#6ea9ff"/><path d="m152.953 85.475c-.082-.998-.732-1.858-1.674-2.206l-61.655-22.842c-.041-.015-.082-.02-.123-.036-.092-.025-.184-.051-.282-.072-.077-.015-.159-.026-.235-.036-.082-.005-.164-.01-.251-.01-.092 0-.179.005-.266.015-.077.005-.148.015-.22.031-.102.015-.195.046-.292.077-.041.01-.082.015-.118.031l-61.661 22.842c-.937.348-1.587 1.208-1.669 2.206s.425 1.95 1.295 2.442l14.052 7.971v19.34l-8.933 15.475c-.461.794-.461 1.776 0 2.57.461.799 1.31 1.285 2.227 1.285h18.562c.916 0 1.766-.486 2.227-1.285.461-.794.461-1.776 0-2.57l-8.933-15.475v-16.428l11.196 6.353v13.013c0 1.659.589 3.179 1.592 4.29v.041c0 21.081 13.822 38.23 30.807 38.23 16.054 0 29.272-15.306 30.679-34.78.082-1.06.123-2.13.128-3.21 1.162-1.126 1.848-2.769 1.848-4.571v-13.013l4.203-2.38 19.008-10.781 7.193-4.075c.87-.492 1.372-1.444 1.295-2.442zm-119.799.696 55.574-20.589 12.235 4.53 9.317 3.455 34.027 12.604-2.457 1.392-3.691 2.094-17.641 9.998c-3.097-6.998-15.731-11.938-31.79-11.938s-28.688 4.94-31.79 11.938l-5.902-3.348-4.008-2.273zm14.098 43.242h-9.645l4.822-8.355zm14.093-11.247v-15.127c0-4.802 11.713-10.177 27.383-10.177 12.163 0 21.936 3.235 25.703 6.931.942.921 1.51 1.868 1.648 2.805.02.148.031.292.031.44v15.127c0 .486-.174.773-.292.886-6.757-4.73-18.455-5.723-27.091-5.723-3.809 0-8.211.194-12.532.819-2.944.425-5.841 1.049-8.488 1.956-2.258.763-4.326 1.73-6.071 2.944-.117-.108-.291-.4-.291-.881zm27.255 37.417c-13.75 0-25.002-14.016-25.632-31.545.553-.159 1.09-.399 1.592-.753 2.565-1.807 6.547-3.138 11.631-3.937 3.65-.578 7.863-.875 12.537-.875 6.512 0 12.138.579 16.576 1.679 3.184.783 5.759 1.838 7.597 3.133.42.297.87.522 1.336.681-.016.399-.031.794-.061 1.188 0 .015 0 .031-.005.046-1.066 16.986-12.123 30.383-25.571 30.383z" fill="#160f60"/></g></svg>