<svg id="&#x428;&#x430;&#x440;_1" enable-background="new 0 0 300 300" viewBox="0 0 300 300" xmlns="http://www.w3.org/2000/svg"><g><path d="m260.829 21.361c.128-.308.2-.652.2-1.007 0-9.846-8.223-17.854-18.332-17.854-6.59 0-12.379 3.405-15.61 8.506-3.231-5.1-9.02-8.506-15.61-8.506s-12.379 3.405-15.61 8.506c-3.231-5.1-9.02-8.506-15.61-8.506s-12.379 3.405-15.61 8.506c-3.231-5.1-9.02-8.506-15.61-8.506s-12.379 3.405-15.61 8.506c-3.231-5.1-9.02-8.506-15.61-8.506-6.595 0-12.379 3.405-15.615 8.506-3.231-5.1-9.014-8.506-15.61-8.506-6.59 0-12.379 3.405-15.61 8.506-3.231-5.1-9.02-8.506-15.61-8.506-10.083 0-18.286 7.961-18.332 17.772.729 4.32 1.151 6.867 1.151 6.867l.041.026.288.19 16.257 10.838.365.247h161.951c7.088 0 13.519 2.84 18.203 7.448 4.695 4.612 7.643 10.992 7.761 18.075l.159 9.24.154 8.701.072 4.294.072 4.274.01.539.241 14.161.092 5.162.473 27.418.087 5.162.205 11.917.087 5.162.473 27.418.087 5.162.77 44.856v.262c0 5.969-3.595 11.367-9.122 13.658l-21.357 8.866-13.437 5.578-11.131 4.623-1.346.56-2.188.904-2.573 1.068-20.34 8.444 22.148 10.946 8.172 4.037 2.275 1.125h61.324c.729 0 1.443-.041 2.147-.128 8.912-1.063 15.841-8.67 15.841-17.859v-239.409c.007-8.686-6.547-16.082-15.623-18.743zm-18.132-13.699c7.263 0 13.17 5.691 13.17 12.692 0 .021.005.041.01.062-.817-.077-1.644-.118-2.481-.118h-23.586c-.005-.652-.041-1.3-.118-1.936.996-6.057 6.451-10.7 13.005-10.7zm-31.219 0c6.559 0 12.014 4.643 13.005 10.699-.072.637-.113 1.284-.113 1.936h-25.78c-.005-.652-.046-1.3-.118-1.936.997-6.056 6.447-10.699 13.006-10.699zm-31.219 0c6.559 0 12.009 4.643 13.005 10.699-.072.637-.113 1.284-.113 1.936h-25.785c0-.652-.041-1.3-.113-1.936.997-6.056 6.446-10.699 13.006-10.699zm-31.22 0c6.559 0 12.009 4.643 13.005 10.699-.072.637-.113 1.284-.118 1.936h-25.78c0-.652-.041-1.3-.113-1.936.992-6.056 6.447-10.699 13.006-10.699zm-31.219 0c6.554 0 12.009 4.643 13.005 10.699-.077.637-.113 1.284-.118 1.936h-25.78c0-.652-.041-1.3-.113-1.936.992-6.056 6.447-10.699 13.006-10.699zm-31.224 0c6.559 0 12.014 4.643 13.005 10.699-.072.637-.113 1.284-.113 1.936h-25.78c-.005-.652-.046-1.3-.118-1.936.997-6.056 6.452-10.699 13.006-10.699zm-44.389 12.692c0-7.001 5.907-12.692 13.17-12.692 6.559 0 12.014 4.643 13.005 10.699-.072.637-.113 1.284-.113 1.936h-21.665c-1.5 0-2.969.128-4.386.365-.006-.102-.011-.205-.011-.308zm150.122 271.984v-9.061c0-1.49-.113-2.953-.324-4.381.092-.17.164-.349.221-.539.046-.154.077-.313.092-.478.205-2.311 3.883-7.294 13.463-7.068h24.506c7.145 0 13.524 3.313 17.7 8.475-3.02-1.479-6.41-2.311-9.995-2.311h-24.506c-9.579-.226-13.257 4.756-13.463 7.068-.036.37-.149.709-.313 1.017.211 1.428.324 2.892.324 4.381v2.897z" fill="#e5e5e5"/><path d="m248.773 90.471h-32.981c-2.198 0-3.986-1.618-3.986-3.606l-1.541-.657 1.443-.36 4.648-1.156c3.842 0 6.97-2.83 6.97-6.302v-4.643h18.62l-4.664 3.739 3.421 2.738c-.585.488-.909 1.166-.909 1.885 0 .74.344 1.438.96 1.931l2.692 2.157 5.131 4.114.01.01z" fill="#ff8b78"/><path d="m220.631 63.962v5.162h-3.57v4.643c0 2.568-1.546 4.787-3.755 5.763h-115.338c-.611 0-1.135-.524-1.135-1.14v-14.453c0-.611.524-1.135 1.135-1.135h119.093v1.161h3.57z" fill="#ff8b78"/><path d="m98.816 84.693c-1.012 1.844-2.666 3.287-4.664 4.022h-24.08l5.208-4.623 2.034-1.808c.555-.488.868-1.192.868-1.931 0-.735-.313-1.438-.868-1.926l-7.242-6.436h18.029v1.777c0 .616.524 1.14 1.135 1.14h2.435v3.483c0 .58.077 1.145.231 1.68h2.825v.421c0 .981-.396 1.875-1.032 2.522 1.12 1.043 2.625 1.68 4.273 1.68h.848z" fill="#ff8b78"/><g fill="#ffe471"><path d="m260.618 297.372c-.704.087-1.418.128-2.147.128h-58.437v-8.059c0-1.49-.113-2.953-.324-4.381.164-.308.277-.647.313-1.017.205-2.311 3.883-7.294 13.463-7.068h24.506c3.585 0 6.975.832 9.995 2.311v.005c4.068 1.998 7.458 5.178 9.718 9.091v.005c.247 1.289.401 2.604.457 3.95h.308c.344 0 .688-.016 1.022-.046.561 1.619.941 3.319 1.126 5.081z"/><path d="m115.375 292.338v5.162h-60.594c.175-1.787.555-3.518 1.12-5.162 3.072-8.927 11.557-15.363 21.516-15.363h23.992c2.311 0 4.582.411 6.708 1.187 1.726.632 3.359 1.5 4.849 2.584-.087.832-.134 1.674-.134 2.532v9.061h2.543z"/><path d="m194.872 292.338v5.162h-74.334v-8.059c0-13.545 11.023-24.562 24.562-24.562h25.21c4.017 0 7.812.971 11.161 2.686 2.214 1.13 4.232 2.594 5.994 4.315 1.921 1.875 3.534 4.063 4.761 6.477-.056.19-.128.37-.221.539.211 1.428.324 2.892.324 4.381v9.061z"/><path d="m75.28 182.886v-18.368c0-2.496-2.029-4.525-4.525-4.525h-18.368c-2.496 0-4.525 2.029-4.525 4.525v18.368c0 2.491 2.029 4.525 4.525 4.525h18.368c2.497 0 4.525-2.034 4.525-4.525z"/><path d="m110.717 159.993c-2.491 0-4.52 2.029-4.52 4.525v18.368c0 2.491 2.029 4.525 4.52 4.525h18.368c2.496 0 4.525-2.034 4.525-4.525v-18.368c0-2.496-2.029-4.525-4.525-4.525z"/><path d="m187.419 159.993h-18.368c-2.496 0-4.525 2.029-4.525 4.525v18.368c0 2.491 2.029 4.525 4.525 4.525h18.368c2.496 0 4.525-2.034 4.525-4.525v-18.368c0-2.496-2.029-4.525-4.525-4.525z"/><path d="m227.38 137.752h18.368c2.496 0 4.525-2.034 4.525-4.525v-18.368c0-2.496-2.029-4.525-4.525-4.525h-18.368c-2.491 0-4.525 2.029-4.525 4.525v18.368c0 2.491 2.034 4.525 4.525 4.525z"/><path d="m222.855 182.886c0 2.491 2.034 4.525 4.525 4.525h18.368c2.496 0 4.525-2.034 4.525-4.525v-18.368c0-2.496-2.029-4.525-4.525-4.525h-18.368c-2.491 0-4.525 2.029-4.525 4.525z"/></g><path d="m150 203.586c-12.065 0-21.886 9.816-21.886 21.886s9.821 21.886 21.886 21.886c12.071 0 21.886-9.816 21.886-21.886s-9.815-21.886-21.886-21.886zm0 38.61c-9.22 0-16.724-7.504-16.724-16.724 0-9.225 7.504-16.724 16.724-16.724 9.225 0 16.724 7.499 16.724 16.724 0 9.22-7.499 16.724-16.724 16.724z" fill="#160f60"/><path d="m79.852 221.394c-10.853 0-19.683 8.829-19.683 19.678 0 10.853 8.829 19.683 19.683 19.683s19.678-8.829 19.678-19.683c-.001-10.849-8.825-19.678-19.678-19.678zm0 34.198c-8.008 0-14.521-6.513-14.521-14.521 0-8.003 6.513-14.515 14.521-14.515 8.003 0 14.516 6.513 14.516 14.515-.001 8.008-6.514 14.521-14.516 14.521z" fill="#160f60"/><path d="m220.153 221.394c-10.853 0-19.683 8.829-19.683 19.678 0 9.276 6.451 17.074 15.096 19.143 1.474.354 3.01.539 4.587.539 7.083 0 13.308-3.765 16.77-9.405 1.844-2.994 2.907-6.513 2.907-10.278.001-10.848-8.829-19.677-19.677-19.677zm-14.52 19.677c0-8.003 6.513-14.515 14.521-14.515 8.003 0 14.516 6.513 14.516 14.515 0 8.008-6.513 14.521-14.516 14.521-8.009 0-14.521-6.513-14.521-14.521z" fill="#160f60"/><path d="m260.829 21.361c.128-.308.2-.652.2-1.007 0-9.846-8.223-17.854-18.332-17.854-6.59 0-12.379 3.405-15.61 8.506-3.231-5.1-9.02-8.506-15.61-8.506s-12.379 3.405-15.61 8.506c-3.231-5.1-9.02-8.506-15.61-8.506s-12.379 3.405-15.61 8.506c-3.231-5.1-9.02-8.506-15.61-8.506s-12.379 3.405-15.61 8.506c-3.231-5.1-9.02-8.506-15.61-8.506-6.595 0-12.379 3.405-15.615 8.506-3.231-5.1-9.014-8.506-15.61-8.506-6.59 0-12.379 3.405-15.61 8.506-3.231-5.1-9.02-8.506-15.61-8.506-10.083 0-18.286 7.961-18.332 17.772v.082c0 .575.031 1.14.087 1.7-8.003 3.113-13.591 10.026-13.591 18.049v239.409c0 9.918 8.069 17.988 17.988 17.988h216.942c.729 0 1.443-.041 2.147-.128 8.912-1.063 15.841-8.67 15.841-17.859v-239.409c.005-8.686-6.549-16.082-15.625-18.743zm-18.132-13.699c7.263 0 13.17 5.691 13.17 12.692 0 .021.005.041.01.062-.817-.077-1.644-.118-2.481-.118h-23.586c-.005-.652-.041-1.3-.118-1.936.996-6.057 6.451-10.7 13.005-10.7zm-31.219 0c6.559 0 12.014 4.643 13.005 10.699-.072.637-.113 1.284-.113 1.936h-25.78c-.005-.652-.046-1.3-.118-1.936.997-6.056 6.447-10.699 13.006-10.699zm-31.219 0c6.559 0 12.009 4.643 13.005 10.699-.072.637-.113 1.284-.113 1.936h-25.785c0-.652-.041-1.3-.113-1.936.997-6.056 6.446-10.699 13.006-10.699zm-31.22 0c6.559 0 12.009 4.643 13.005 10.699-.072.637-.113 1.284-.118 1.936h-25.78c0-.652-.041-1.3-.113-1.936.992-6.056 6.447-10.699 13.006-10.699zm-31.219 0c6.554 0 12.009 4.643 13.005 10.699-.077.637-.113 1.284-.118 1.936h-25.78c0-.652-.041-1.3-.113-1.936.992-6.056 6.447-10.699 13.006-10.699zm-31.224 0c6.559 0 12.014 4.643 13.005 10.699-.072.637-.113 1.284-.113 1.936h-25.78c-.005-.652-.046-1.3-.118-1.936.997-6.056 6.452-10.699 13.006-10.699zm-31.219 0c6.559 0 12.014 4.643 13.005 10.699-.072.637-.113 1.284-.113 1.936h-21.665c-1.5 0-2.969.128-4.386.365-.005-.103-.01-.206-.01-.308-.001-7.001 5.906-12.692 13.169-12.692zm52.294 275.615v9.061h-60.672c.637-11.978 10.581-21.527 22.713-21.527h23.992c5.552 0 10.853 2.368 14.572 6.492-.056.282-.113.57-.159.858-.292 1.665-.446 3.375-.446 5.116zm5.162 9.061v-9.061c0-.858.046-1.7.134-2.532 1.269-12.358 11.742-22.03 24.429-22.03h25.21c7.571 0 14.356 3.447 18.866 8.85 1.361 1.628 2.512 3.436 3.421 5.383 1.459 3.144 2.275 6.641 2.275 10.329v9.061zm79.496 0v-9.061c0-1.49-.113-2.953-.324-4.381.092-.17.164-.349.221-.539.046-.154.077-.313.092-.478.205-2.311 3.883-7.294 13.463-7.068h24.506c7.145 0 13.524 3.313 17.7 8.475v.005c2.918 3.606 4.751 8.12 5.013 13.046h-60.671zm78.968-12.826c0 6.729-5.208 12.261-11.803 12.779-.334.031-.678.046-1.022.046h-.308c-.056-1.346-.211-2.661-.457-3.95v-.005c-2.43-12.923-13.802-22.734-27.418-22.734h-24.413c-1.325-.031-2.573.021-3.744.144-5.064.529-8.706 2.378-11.131 4.623-.396.365-.76.74-1.089 1.125-.082-.19-.164-.38-.257-.565-4.679-10.268-15.045-17.423-27.048-17.423h-25.21c-12.312 0-22.898 7.525-27.403 18.219-4.489-3.919-10.268-6.123-16.288-6.123h-23.993c-14.978 0-27.233 11.865-27.875 26.689h-.308c-7.073 0-12.826-5.753-12.826-12.826v-239.407c0-5.599 3.873-10.473 9.533-12.939.056-.026.113-.046.169-.072.036.087.077.175.118.262 2.722 6.205 8.958 10.617 16.257 10.838.195.01.396.015.596.015 1.428 0 2.584-1.156 2.584-2.584 0-1.423-1.156-2.578-2.584-2.578-5.28 0-9.841-3.015-11.942-7.35 1.032-.149 2.085-.236 3.169-.236h22.431c2.265 7.366 9.276 12.749 17.561 12.749 1.428 0 2.584-1.156 2.584-2.584 0-1.423-1.156-2.578-2.584-2.578-5.373 0-10.006-3.123-12.05-7.587h25.708c2.265 7.366 9.281 12.749 17.567 12.749 1.423 0 2.578-1.156 2.578-2.584 0-1.423-1.156-2.578-2.578-2.578-5.378 0-10.011-3.123-12.055-7.587h25.713c2.26 7.366 9.276 12.749 17.561 12.749 1.423 0 2.578-1.156 2.578-2.584 0-1.423-1.156-2.578-2.578-2.578-5.378 0-10.006-3.123-12.05-7.587h25.708c2.26 7.366 9.276 12.749 17.561 12.749 1.428 0 2.578-1.156 2.578-2.584 0-1.423-1.151-2.578-2.578-2.578-5.378 0-10.006-3.123-12.05-7.587h25.708c2.26 7.366 9.276 12.749 17.561 12.749 1.428 0 2.584-1.156 2.584-2.584 0-1.423-1.156-2.578-2.584-2.578-5.373 0-10.006-3.123-12.05-7.587h25.708c2.265 7.366 9.276 12.749 17.562 12.749 1.428 0 2.584-1.156 2.584-2.584 0-1.423-1.156-2.578-2.584-2.578-5.373 0-10.006-3.123-12.05-7.587h22.749c9.872 0 17.9 6.57 17.9 14.644z" fill="#160f60"/><path d="m234.669 241.071c0 8.008-6.513 14.521-14.516 14.521-8.008 0-14.521-6.513-14.521-14.521 0-8.003 6.513-14.515 14.521-14.515 8.003 0 14.516 6.513 14.516 14.515z" fill="#fff"/><path d="m247.987 279.286c-3.02-1.479-6.41-2.311-9.995-2.311h-24.506c-9.579-.226-13.257 4.756-13.463 7.068-.036.37-.149.709-.313 1.017.211 1.428.324 2.892.324 4.381v2.897h-7.705v-9.061c0-1.49-.113-2.953-.324-4.381.092-.17.164-.349.221-.539.046-.154.077-.313.092-.478.205-2.311 3.883-7.294 13.463-7.068h24.506c7.145 0 13.525 3.313 17.7 8.475z" fill="#fff"/><path d="m181.471 267.565c-3.349-1.715-7.145-2.686-11.161-2.686h-25.21c-13.54 0-24.562 11.017-24.562 24.562v2.897h-7.705v-9.061c0-.858.046-1.7.134-2.532 1.269-12.358 11.742-22.03 24.429-22.03h25.21c7.57 0 14.355 3.447 18.865 8.85z" fill="#fff"/><path d="m108.277 277.304c-.056.282-.113.57-.159.858-2.126-.775-4.397-1.187-6.708-1.187h-23.993c-9.96 0-18.445 6.436-21.516 15.363h-8.901c.637-11.978 10.581-21.527 22.713-21.527h23.992c5.552 0 10.853 2.368 14.572 6.493z" fill="#fff"/><path d="m245.275 192.573h-17.895c-5.342 0-9.687-4.345-9.687-9.687v-18.368c0-5.342 4.345-9.687 9.687-9.687h17.248l-.205-11.917h-17.043c-5.342 0-9.687-4.345-9.687-9.687v-18.368c0-5.342 4.345-9.687 9.687-9.687h16.39l-.241-14.161h-33.274c-4.833 0-8.763-3.935-8.763-8.768v-2.173h-101.603v.421c0 1.52-.39 2.953-1.073 4.202-1.012 1.844-2.666 3.287-4.664 4.022-.945.349-1.967.539-3.03.539h-36.572c-1.074 0-2.034-.662-2.414-1.664s-.103-2.132.699-2.846l10.15-9.014-10.15-9.014c-.801-.709-1.079-1.844-.699-2.846s1.341-1.664 2.414-1.664h28.389v-2.892c0-3.472 2.825-6.297 6.297-6.297h121.528c3.472 0 6.297 2.825 6.297 6.297v4.648h26.001c-.118-7.083-3.067-13.463-7.761-18.075-4.684-4.607-11.115-7.448-18.203-7.448h-161.952l-.365-.247c-7.299-.221-13.535-4.633-16.257-10.838l-.288-.19c-5.66 2.466-9.533 7.34-9.533 12.939v239.409c0 7.073 5.753 12.826 12.826 12.826h.308c.642-14.824 12.897-26.689 27.875-26.689h23.992c6.02 0 11.798 2.204 16.288 6.123 4.505-10.694 15.091-18.219 27.403-18.219h25.21c12.004 0 22.369 7.155 27.048 17.423l1.346-.56c2.424-2.245 6.066-4.094 11.131-4.623l13.437-5.578c-8.645-2.07-15.096-9.867-15.096-19.143 0-10.848 8.83-19.678 19.683-19.678 10.848 0 19.678 8.829 19.678 19.678 0 3.765-1.063 7.284-2.907 10.278 5.527-2.291 9.122-7.689 9.122-13.658v-.262zm-202.575-77.714c0-5.342 4.345-9.687 9.687-9.687h18.368c5.342 0 9.687 4.345 9.687 9.687v18.368c0 5.342-4.345 9.687-9.687 9.687h-18.368c-5.342 0-9.687-4.345-9.687-9.687zm0 68.027v-18.368c0-5.342 4.345-9.687 9.687-9.687h18.368c5.342 0 9.687 4.345 9.687 9.687v18.368c0 5.342-4.345 9.687-9.687 9.687h-18.368c-5.341 0-9.687-4.345-9.687-9.687zm37.152 77.868c-10.853 0-19.683-8.829-19.683-19.683 0-10.848 8.829-19.678 19.683-19.678s19.678 8.829 19.678 19.678c-.001 10.854-8.825 19.683-19.678 19.683zm21.183-145.895c0-5.342 4.345-9.687 9.682-9.687h18.368c5.342 0 9.687 4.345 9.687 9.687v18.368c0 5.342-4.345 9.687-9.687 9.687h-18.368c-5.337 0-9.682-4.345-9.682-9.687zm9.682 77.714c-5.337 0-9.682-4.345-9.682-9.687v-18.368c0-5.342 4.345-9.687 9.682-9.687h18.368c5.342 0 9.687 4.345 9.687 9.687v18.368c0 5.342-4.345 9.687-9.687 9.687zm39.283 54.785c-12.065 0-21.886-9.816-21.886-21.886s9.821-21.886 21.886-21.886c12.071 0 21.886 9.816 21.886 21.886s-9.815 21.886-21.886 21.886zm47.106-64.472c0 5.342-4.345 9.687-9.687 9.687h-18.368c-5.342 0-9.687-4.345-9.687-9.687v-18.368c0-5.342 4.345-9.687 9.687-9.687h18.368c5.342 0 9.687 4.345 9.687 9.687zm0-49.659c0 5.342-4.345 9.687-9.687 9.687h-18.368c-5.342 0-9.687-4.345-9.687-9.687v-18.368c0-5.342 4.345-9.687 9.687-9.687h18.368c5.342 0 9.687 4.345 9.687 9.687z" fill="#fff"/><path d="m94.367 241.071c0 8.008-6.513 14.521-14.516 14.521-8.008 0-14.521-6.513-14.521-14.521 0-8.003 6.513-14.515 14.521-14.515 8.003 0 14.516 6.513 14.516 14.515z" fill="#fff"/><path d="m166.724 225.472c0 9.22-7.499 16.724-16.724 16.724-9.22 0-16.724-7.504-16.724-16.724 0-9.225 7.504-16.724 16.724-16.724 9.225 0 16.724 7.499 16.724 16.724z" fill="#fff"/><path d="m70.755 154.831h-18.368c-5.342 0-9.687 4.345-9.687 9.687v18.368c0 5.342 4.345 9.687 9.687 9.687h18.368c5.342 0 9.687-4.345 9.687-9.687v-18.368c.001-5.342-4.345-9.687-9.687-9.687zm4.525 28.055c0 2.491-2.029 4.525-4.525 4.525h-18.368c-2.496 0-4.525-2.034-4.525-4.525v-18.368c0-2.496 2.029-4.525 4.525-4.525h18.368c2.496 0 4.525 2.029 4.525 4.525z" fill="#160f60"/><path d="m129.084 154.831h-18.368c-5.337 0-9.682 4.345-9.682 9.687v18.368c0 5.342 4.345 9.687 9.682 9.687h18.368c5.342 0 9.687-4.345 9.687-9.687v-18.368c.001-5.342-4.345-9.687-9.687-9.687zm4.526 28.055c0 2.491-2.029 4.525-4.525 4.525h-18.368c-2.491 0-4.52-2.034-4.52-4.525v-18.368c0-2.496 2.029-4.525 4.52-4.525h18.368c2.496 0 4.525 2.029 4.525 4.525z" fill="#160f60"/><path d="m187.419 154.831h-18.368c-5.342 0-9.687 4.345-9.687 9.687v18.368c0 5.342 4.345 9.687 9.687 9.687h18.368c5.342 0 9.687-4.345 9.687-9.687v-18.368c0-5.342-4.345-9.687-9.687-9.687zm4.525 28.055c0 2.491-2.029 4.525-4.525 4.525h-18.368c-2.496 0-4.525-2.034-4.525-4.525v-18.368c0-2.496 2.029-4.525 4.525-4.525h18.368c2.496 0 4.525 2.029 4.525 4.525z" fill="#160f60"/><path d="m70.755 105.172h-18.368c-5.342 0-9.687 4.345-9.687 9.687v18.368c0 5.342 4.345 9.687 9.687 9.687h18.368c5.342 0 9.687-4.345 9.687-9.687v-18.368c.001-5.342-4.345-9.687-9.687-9.687zm4.525 28.055c0 2.491-2.029 4.525-4.525 4.525h-18.368c-2.496 0-4.525-2.034-4.525-4.525v-18.368c0-2.496 2.029-4.525 4.525-4.525h18.368c.282 0 .555.031.817.077l-9.888 17.618-5.748-5.748c-1.007-1.007-2.64-1.012-3.652 0-1.007 1.007-1.007 2.64 0 3.647l8.157 8.157c.488.488 1.145.76 1.829.76.118 0 .236-.01.349-.026.801-.113 1.505-.591 1.9-1.294l10.735-19.128c.015.154.026.303.026.462z" fill="#160f60"/><path d="m75.28 114.859v18.368c0 2.491-2.029 4.525-4.525 4.525h-18.368c-2.496 0-4.525-2.034-4.525-4.525v-18.368c0-2.496 2.029-4.525 4.525-4.525h18.368c.282 0 .555.031.817.077l-9.888 17.618-5.748-5.748c-1.007-1.007-2.64-1.012-3.652 0-1.007 1.007-1.007 2.64 0 3.647l8.157 8.157c.488.488 1.145.76 1.829.76.118 0 .236-.01.349-.026.801-.113 1.505-.591 1.9-1.294l10.735-19.128c.016.154.026.303.026.462z" fill="#fff"/><path d="m129.084 105.172h-18.368c-5.337 0-9.682 4.345-9.682 9.687v18.368c0 5.342 4.345 9.687 9.682 9.687h18.368c5.342 0 9.687-4.345 9.687-9.687v-18.368c.001-5.342-4.345-9.687-9.687-9.687zm4.526 28.055c0 2.491-2.029 4.525-4.525 4.525h-18.368c-2.491 0-4.52-2.034-4.52-4.525v-18.368c0-2.496 2.029-4.525 4.52-4.525h18.286l-9.934 17.695-5.748-5.748c-1.012-1.007-2.645-1.012-3.652 0-1.007 1.007-1.007 2.64 0 3.647l8.157 8.157c.488.488 1.145.76 1.823.76.118 0 .236-.01.354-.026.801-.113 1.505-.591 1.9-1.294l11.398-20.304c.195.509.308 1.058.308 1.638v18.368z" fill="#160f60"/><path d="m133.61 114.859v18.368c0 2.491-2.029 4.525-4.525 4.525h-18.368c-2.491 0-4.52-2.034-4.52-4.525v-18.368c0-2.496 2.029-4.525 4.52-4.525h18.286l-9.934 17.695-5.748-5.748c-1.012-1.007-2.645-1.012-3.652 0-1.007 1.007-1.007 2.64 0 3.647l8.157 8.157c.488.488 1.145.76 1.823.76.118 0 .236-.01.354-.026.801-.113 1.505-.591 1.9-1.294l11.398-20.304c.196.508.309 1.058.309 1.638z" fill="#fff"/><path d="m187.419 105.172h-18.368c-5.342 0-9.687 4.345-9.687 9.687v18.368c0 5.342 4.345 9.687 9.687 9.687h18.368c5.342 0 9.687-4.345 9.687-9.687v-18.368c0-5.342-4.345-9.687-9.687-9.687zm4.525 28.055c0 2.491-2.029 4.525-4.525 4.525h-18.368c-2.496 0-4.525-2.034-4.525-4.525v-18.368c0-2.496 2.029-4.525 4.525-4.525h18.368c.134 0 .267.011.401.021l-9.924 17.675-5.748-5.748c-1.007-1.007-2.64-1.012-3.647 0-1.012 1.007-1.012 2.64 0 3.647l8.157 8.157c.488.488 1.145.76 1.823.76.118 0 .236-.01.354-.026.796-.113 1.5-.591 1.895-1.294l11.079-19.734c.082.344.134.698.134 1.068v18.367z" fill="#160f60"/><path d="m191.944 114.859v18.368c0 2.491-2.029 4.525-4.525 4.525h-18.368c-2.496 0-4.525-2.034-4.525-4.525v-18.368c0-2.496 2.029-4.525 4.525-4.525h18.368c.134 0 .267.011.401.021l-9.924 17.675-5.748-5.748c-1.007-1.007-2.64-1.012-3.647 0-1.012 1.007-1.012 2.64 0 3.647l8.157 8.157c.488.488 1.145.76 1.823.76.118 0 .236-.01.354-.026.796-.113 1.5-.591 1.895-1.294l11.079-19.734c.084.343.135.697.135 1.067z" fill="#fff"/><path d="m245.748 105.172h-18.368c-5.342 0-9.687 4.345-9.687 9.687v18.368c0 5.342 4.345 9.687 9.687 9.687h18.368c5.342 0 9.687-4.345 9.687-9.687v-18.368c0-5.342-4.345-9.687-9.687-9.687zm4.525 28.055c0 2.491-2.029 4.525-4.525 4.525h-18.368c-2.491 0-4.525-2.034-4.525-4.525v-18.368c0-2.496 2.034-4.525 4.525-4.525h18.368c2.496 0 4.525 2.029 4.525 4.525z" fill="#160f60"/><path d="m245.748 154.831h-18.368c-5.342 0-9.687 4.345-9.687 9.687v18.368c0 5.342 4.345 9.687 9.687 9.687h18.368c5.342 0 9.687-4.345 9.687-9.687v-18.368c0-5.342-4.345-9.687-9.687-9.687zm4.525 28.055c0 2.491-2.029 4.525-4.525 4.525h-18.368c-2.491 0-4.525-2.034-4.525-4.525v-18.368c0-2.496 2.034-4.525 4.525-4.525h18.368c2.496 0 4.525 2.029 4.525 4.525z" fill="#160f60"/><path d="m243.375 81.904-1.89-1.68-3.087-2.738 4.212-3.739.611-.544 5.327-4.731c.801-.714 1.079-1.844.699-2.846s-1.341-1.664-2.414-1.664h-29.771v-4.648c0-3.472-2.825-6.297-6.297-6.297h-121.529c-3.472 0-6.297 2.825-6.297 6.297v2.892h-28.389c-1.074 0-2.034.663-2.414 1.664-.38 1.002-.103 2.137.699 2.846l10.15 9.014-10.15 9.014c-.801.714-1.079 1.844-.699 2.846s1.341 1.664 2.414 1.664h36.571c1.063 0 2.085-.19 3.03-.539 1.998-.734 3.652-2.178 4.664-4.022.683-1.248 1.073-2.681 1.073-4.202v-.421h101.604v2.173c0 4.833 3.929 8.768 8.763 8.768h36.576c.586 0 1.14-.195 1.582-.539.062-.046.123-.098.175-.149.005-.005.005-.005.01-.01.283-.262.503-.591.647-.966.38-1.002.103-2.137-.699-2.845zm-155.274-22.59c0-.611.524-1.135 1.135-1.135h121.528c.616 0 1.135.524 1.135 1.135v14.454c0 .616-.519 1.14-1.135 1.14h-121.528c-.611 0-1.135-.524-1.135-1.14zm-19.518 18.347c.555-.488.868-1.192.868-1.931 0-.735-.313-1.438-.868-1.926l-7.242-6.436h21.599v6.4c0 3.472 2.825 6.302 6.297 6.302h5.491v.421c0 .981-.396 1.875-1.032 2.522-.657.668-1.567 1.079-2.573 1.079h-29.783zm138.072 4.582v-2.173h4.109c.904 0 1.767-.19 2.543-.539 2.209-.976 3.755-3.195 3.755-5.763v-4.643h22.98l-5.208 4.623-2.034 1.808c-.555.493-.868 1.192-.868 1.931s.313 1.438.868 1.931l7.242 6.431h-29.786c-1.989 0-3.601-1.618-3.601-3.606z" fill="#160f60"/><path d="m240.041 69.125-5.208 4.623h-11.506v4.643c0 3.472-3.128 6.302-6.97 6.302l-4.648 1.156h-1.454c-1.988 0-3.601-1.618-3.601-3.606v-2.173h4.109c.904 0 1.767-.19 2.543-.539 2.209-.976 3.755-3.195 3.755-5.763v-4.643z" fill="#fff"/><path d="m82.939 71.991h-12.867l7.242 6.436c.555.488.868 1.192.868 1.926 0 .74-.313 1.443-.868 1.931l-2.034 1.808h-13.94l7.242-6.431c.555-.488.868-1.192.868-1.931 0-.735-.313-1.438-.868-1.926l-7.242-6.436h21.599z" fill="#fff"/><path d="m211.899 59.314v3.488h-113.931c-.611 0-1.135.524-1.135 1.135v10.971h-7.597c-.611 0-1.135-.524-1.135-1.14v-14.454c0-.611.524-1.135 1.135-1.135h121.528c.616 0 1.135.524 1.135 1.135z" fill="#fff"/></g></svg>