<svg id="&#x428;&#x430;&#x440;_1" enable-background="new 0 0 300 300" viewBox="0 0 300 300" xmlns="http://www.w3.org/2000/svg"><g><path d="m289.652 51.772-10.732 9.854h-257.844l-10.733-9.854z" fill="#fff"/><path d="m295.502 49.55c-.014-.018-.022-.04-.04-.058-.013-.013-.031-.022-.045-.04-1.321-1.344-3.158-2.181-5.187-2.181h-10.276l-7.229 4.502h16.927l-10.732 9.854h-22.025l-8.054 5.012-6.172 3.843v.658l.036 30.835.004 4.502h19.225v9.854h-9.72v17.568h-9.478l.009 4.502.005 8.022.009 4.502h5.182v3.198c0 1.241 1.008 2.249 2.249 2.249h7.234c1.245 0 2.253-1.008 2.253-2.249v-3.198h4.309v15.373h-21.214l.004 4.502c.009 8.578-3.964 16.224-10.177 21.191-1.393 1.12-2.903 2.101-4.502 2.925v22.029h-21.127v-19.023h-105.707v6.105h-6.665v-6.105h-19.673c-5.711 0-11.023 1.635-15.503 4.457-8.228 5.174-13.666 14.334-13.666 24.676 0 .6.018 1.2.054 1.805l.26 4.305 1.451.197 109.424 14.867 33.133 4.502h100.152c1.68 0 3.221-.573 4.452-1.532.085-.063.166-.13.246-.197.175-.148.341-.305.497-.466.009-.013.022-.018.036-.031.009-.014.018-.027.031-.04.882-.927 1.527-2.092 1.823-3.382.081-.354.125-.712.152-1.08v-.013c.009-.054.013-.112.018-.166v-.024c.009-.112.013-.224.013-.341v-190.919c.002-1.935-.76-3.686-1.996-4.99zm-40.327 99.122v.004.004 3.189h-2.732v-6.392h2.732z" fill="#e5e5e5"/><path d="m127.691 181.514v32.367h-6.473s0 0-.004 0c0 0 0 0-.004 0h-13.684v-5.353h-6.262v-39.767h5.854l7.583.399 1.801.094.031 12.26z" fill="#ffe471"/><path d="m167.189 92.887v14.965c0 1.241-1.008 2.249-2.253 2.249h-17.98v-17.214z" fill="#ff8b78"/><path d="m192.08 145.384v37.33h-18.365c-.004 0-.009 0-.009 0h-9.895l-4.573-1.003c-.582-.13-1.088-.484-1.411-.986-.322-.506-.43-1.115-.305-1.698l.367-1.666h-10.934v-31.978h37.084l4.13.909.202-.909h3.709z" fill="#ff8b78"/><path d="m232.6 205.294v13.904c0 .076-.004.152-.013.228-.148 1.133-1.38 2.02-2.871 2.02h-13.336v-4.502h11.718v-15.556c.985.067 1.729.116 2.083.116.918.001 1.568 3.96 2.419 3.79z" fill="#ff8b78"/><path d="m242.772 166.298h-.121v-15.373h.108z" fill="#ff8b78"/><path d="m119.203 206.28c0 1.241-1.008 2.249-2.249 2.249h-4.927v5.711h24v-28.224h-16.824z" fill="#ff8b78"/><path d="m105.823 150.943v-.018l-2.728.161.018.34-4.461.802-.184-3.122c-.072-1.241.873-2.307 2.114-2.383l7.221-.426c.6-.036 1.182.166 1.63.564.443.394.717.95.752 1.55l.103 1.729z" fill="#ffe471"/><path d="m119.539 140.193c-.34.493-.864.829-1.451.932l-48.676 8.739-.793-4.43-4.457-24.82c.152.224 11.118-3.364 11.118-3.364l32.031-5.751 3.095-.439 3.4-.484 6.101 27.937c.106.587-.028 1.191-.368 1.68z" fill="#ffe471"/><path d="m78.603 177.783v22.343c0 1.245-1.008 2.253-2.253 2.253h-19.207v-24.596h6.253c0 .224 7.252.107 10.705.036 1.084-.018 1.792-.036 1.792-.036z" fill="#ffe471"/><path d="m232.689 99.4-6.249 28.466c-.13.582-.484 1.093-.985 1.411-.367.237-.788.358-1.214.358-.161 0-.322-.018-.484-.054l-24.201-5.312.963-4.399 5.577-25.415.188-.851 6.101 1.339 2.168.475c-.054.336 8.811 3.377 13.523 3.991 1.59.211 2.705.143 2.853-.394z" fill="#ffe471"/><path d="m242.669 101.976-4.524 20.605v-18.356c0-1.241 1.008-2.249 2.253-2.249z" fill="#ffe471"/><path d="m255.641 140.977v2.777h4.036v-.524c0-1.245-1.008-2.253-2.253-2.253z" fill="#ffe471"/><path d="m266.436 116.332v19.816c0 .076-.004.157-.013.229-.152 1.138-1.415 2.025-2.956 2.025h-11.252v-22.069h14.221z" fill="#ffe471"/><path d="m272.089 116.332h2.835v27.422h-2.835z" fill="#ffe471"/><path d="m187.202 150.688-3.61-.793v25.214c0 1.245-1.008 2.253-2.253 2.253h-18.84l-.094.434 31.055 6.817 6.817-31.055-1.613-.354-.103.47c-.125.582-.479 1.093-.985 1.411-.363.237-.784.358-1.209.358-.161 0-.322-.018-.484-.054l-7.068-1.554c-1.214-.264-1.98-1.465-1.716-2.679z" fill="#ffe471"/><path d="m36.399 228.604v4.61h-12.708l-8.43 6.154v-178.96l10.204 7.449v160.747z" fill="#6ea9ff"/><path d="m286.257 59.512-9.774 10.365v6.616h-4.555v-5.353h-241.253l-4.959-4.501-10.007-8.919z" fill="#6ea9ff"/><path d="m297.5 61.626v4.722l-4.502 4.134v-8.856z" fill="#6ea9ff"/><path d="m119.906 138.513-4.618-25.72-2.992-16.667c-.219-1.223-1.393-2.034-2.611-1.814l-4.605.824-1.053-5.859c-.224-1.227-1.393-2.038-2.616-1.819l-7.122 1.277c-1.223.219-2.033 1.389-1.814 2.616l1.053 5.859-32.036 5.751-1.053-5.859c-.219-1.227-1.389-2.038-2.611-1.819l-7.122 1.277c-1.223.219-2.038 1.393-1.818 2.616l1.053 5.859-2.016.363c-.591.107-1.111.439-1.451.932-.34.488-.475 1.093-.367 1.684l7.61 42.383c.193 1.089 1.142 1.854 2.213 1.854.13 0 .264-.013.399-.036l13.084-2.352 48.676-8.739c.587-.103 1.111-.439 1.451-.932.339-.488.473-1.092.366-1.679zm-19.915-46.226 1.053 5.854v.004.004l.076.426-2.688.484-.076-.426v-.003h-.004l-1.048-5.859zm-43.583 7.825 1.053 5.859v.004l.076.426-2.688.484-.081-.426s0 0 0-.004l-1.053-5.859zm12.21 45.321-10.871 1.953-6.576-36.627c.152.224.345.426.573.587.381.264.829.403 1.286.403.13 0 .264-.014.399-.036l7.118-1.281c.591-.103 1.111-.439 1.451-.927.34-.493.475-1.097.367-1.684l-.076-.426 32.031-5.751.076.426c.107.587.443 1.111.932 1.451.381.264.829.403 1.286.403.134 0 .264-.013.399-.036l7.122-1.281c.587-.103 1.106-.439 1.447-.927.34-.493.475-1.098.367-1.684l-.076-.43 2.392-.426 2.141 11.919.452 2.531 4.22 23.503z" fill="#160f60"/><path d="m164.936 78.531h-33.218c-1.245 0-2.253 1.008-2.253 2.253v27.068c0 1.241 1.008 2.249 2.253 2.249h33.218c1.245 0 2.253-1.008 2.253-2.249v-27.068c0-1.245-1.008-2.253-2.253-2.253zm-2.253 27.068h-28.717v-22.566h28.717z" fill="#160f60"/><path d="m204.855 150.629c-.322-.502-.829-.855-1.416-.985l-3.807-.833 1.268-5.774c.13-.582.018-1.196-.305-1.698-.318-.502-.829-.855-1.411-.985l-7.068-1.55c-1.214-.269-2.414.502-2.679 1.716l-1.066 4.864-.202.909-4.13-.909-.448-.099v-12.009c0-1.241-1.008-2.249-2.253-2.249h-18.226c-.99-3.543-4.233-6.155-8.09-6.155-3.852 0-7.1 2.611-8.085 6.155h-15.221c-1.245 0-2.253 1.008-2.253 2.249v41.832c0 1.245 1.008 2.253 2.253 2.253h26.172l-.367 1.666c-.125.582-.018 1.191.305 1.698.322.502.829.856 1.411.986l4.573 1.003 30.88 6.777c.161.036.322.054.484.054 1.035 0 1.966-.717 2.199-1.769l7.78-35.449c.132-.582.025-1.196-.298-1.698zm-12.77-1.178 1.263-5.769 2.67.587-1.263 5.774-.103.47-2.571-.564-.099-.022.099-.47h.004c0-.001 0-.001 0-.006zm-37.062-20.076c2.155 0 3.901 1.751 3.901 3.901s-1.747 3.902-3.901 3.902c-2.15 0-3.897-1.751-3.897-3.902s1.747-3.901 3.897-3.901zm5.694 43.485h-26.75v-37.33h12.972c.985 3.543 4.233 6.15 8.085 6.15 3.857 0 7.1-2.607 8.09-6.15h15.977v37.33h-18.365c-.005 0-.009 0-.009 0zm32.743 11.754-8.649-1.899-22.405-4.918.094-.434h18.84c1.245 0 2.253-1.008 2.253-2.253v-25.214l3.61.793-.103.47c-.264 1.214.502 2.414 1.716 2.679l3.265.717 3.803.838c.161.036.322.054.484.054.426 0 .847-.121 1.209-.358.506-.318.86-.829.985-1.411l.103-.47 1.613.354z" fill="#160f60"/><path d="m76.35 163.427h-11.602l.815-1.984c.224-.551.224-1.174-.009-1.725-.228-.551-.667-.985-1.223-1.214l-6.692-2.741c-1.151-.47-2.468.081-2.938 1.227l-2.638 6.437h-10.163c-1.241 0-2.249 1.008-2.249 2.249v34.45c0 1.245 1.008 2.253 2.249 2.253h34.45c1.245 0 2.253-1.008 2.253-2.253v-34.45c0-1.242-1.008-2.249-2.253-2.249zm-18.338-2.648 2.531 1.039-1.223 2.979v.009l-1.2 2.925-2.526-1.035zm-13.859 37.098v-29.948h6.253c0 .296.058.587.175.864.228.551.667.985 1.223 1.214l6.692 2.741c.278.116.569.17.851.17.887 0 1.729-.529 2.087-1.397l1.469-3.592h11.198v29.948z" fill="#160f60"/><path d="m234.333 88.824c-.318-.502-.829-.855-1.411-.981l-15.028-3.301c-1.03-3.471-4.246-6.011-8.049-6.011-2.508 0-4.757 1.111-6.298 2.862l-11.485-2.522c-.582-.13-1.191-.022-1.693.3-.506.322-.86.829-.985 1.415l-8.202 37.339c-.264 1.214.502 2.414 1.716 2.683l16.658 3.66 24.201 5.312c.161.036.322.054.484.054.426 0 .847-.121 1.214-.358.502-.318.856-.829.985-1.411l6.249-28.466 1.949-8.878c.13-.581.018-1.19-.305-1.697zm-24.488-5.791c2.15 0 3.902 1.751 3.902 3.901s-1.751 3.901-3.902 3.901-3.901-1.751-3.901-3.901 1.751-3.901 3.901-3.901zm17.214 21.016-4.533 20.654-22.007-4.833-14.455-3.176 7.229-32.945 8.269 1.814c-.072.448-.121.905-.121 1.371 0 3.288 1.895 6.141 4.654 7.521 1.129.564 2.405.882 3.749.882.887 0 1.738-.139 2.54-.394 2.692-.856 4.797-3.041 5.554-5.783l11.821 2.594-1.684 7.655z" fill="#160f60"/><path d="m264.183 101.976h-23.785c-1.245 0-2.253 1.008-2.253 2.249v31.924c0 1.245 1.008 2.253 2.253 2.253h23.785c1.169 0 2.128-.887 2.24-2.025.009-.072.013-.152.013-.229v-31.924c0-1.241-1.008-2.248-2.253-2.248zm-2.248 31.923h-19.283v-27.422h19.283z" fill="#160f60"/><path d="m266.235 146.423h-6.558v-3.194c0-1.245-1.008-2.253-2.253-2.253h-7.234c-1.241 0-2.249 1.008-2.249 2.253v3.194h-7.543c-1.245 0-2.253 1.008-2.253 2.253v19.87c0 1.245 1.008 2.253 2.253 2.253h25.836c1.245 0 2.253-1.008 2.253-2.253v-19.87c.001-1.245-1.007-2.253-2.252-2.253zm-13.792-.945h2.732v3.194.004.004 3.189h-2.732zm11.543 20.82h-21.335v-15.373h5.29v3.198c0 1.241 1.008 2.249 2.249 2.249h7.234c1.245 0 2.253-1.008 2.253-2.249v-3.198h4.309z" fill="#160f60"/><path d="m138.28 181.514h-19.077v-24.86c0-1.241-1.008-2.249-2.249-2.249h-6.414l-.251-4.264-.103-1.729c-.036-.6-.309-1.156-.752-1.55-.448-.399-1.03-.6-1.63-.564l-7.221.426c-1.241.076-2.186 1.142-2.114 2.383l.184 3.122.13 2.177h-6.437c-1.241 0-2.249 1.008-2.249 2.249v49.626c0 1.241 1.008 2.249 2.249 2.249h15.18v7.96c0 1.245 1.008 2.253 2.249 2.253h28.506c1.241 0 2.248-1.008 2.248-2.253v-32.721c0-1.247-1.008-2.255-2.249-2.255zm-35.185-30.428 2.728-.161v.018l.381 6.361-2.732.161-.358-6.038zm-8.497 52.941v-45.12h4.452l.063 1.071c.036.596.305 1.151.752 1.55.412.367.945.569 1.496.569.04 0 .085-.004.13-.004l7.225-.43c1.241-.072 2.186-1.138 2.114-2.379l-.022-.376h3.892v45.12h-4.923s0 0-.004 0c0 0 0 0-.004 0h-15.171zm41.429 10.212h-24v-5.711h4.927c1.241 0 2.249-1.008 2.249-2.249v-20.264h16.824z" fill="#160f60"/><path d="m230.351 186.598h-4.448c-.358-4.309-3.973-7.704-8.367-7.704-4.399 0-8.013 3.395-8.367 7.704h-4.452c-1.241 0-2.249 1.008-2.249 2.253v30.347c0 1.241 1.008 2.249 2.249 2.249h25.635c1.165 0 2.123-.887 2.235-2.02.009-.076.013-.152.013-.228v-30.347c0-1.246-1.008-2.254-2.249-2.254zm-12.815-3.203c2.15 0 3.897 1.747 3.897 3.901 0 2.15-1.747 3.897-3.897 3.897-2.155 0-3.901-1.747-3.901-3.897 0-2.154 1.747-3.901 3.901-3.901zm10.562 33.55h-21.128v-25.845h3.082c1.393 2.723 4.219 4.6 7.485 4.6 3.261 0 6.087-1.877 7.48-4.6h3.082v25.845z" fill="#160f60"/><path d="m295.502 49.55c-.014-.018-.022-.04-.04-.058-.013-.013-.031-.022-.045-.04-1.321-1.344-3.158-2.181-5.187-2.181h-280.46c-2.029 0-3.866.838-5.187 2.181-.013.018-.031.027-.045.04-.018.018-.027.04-.04.058-1.237 1.304-1.998 3.055-1.998 4.99v190.92c0 1.926.757 3.673 1.984 4.977.018.022.031.045.049.067.018.018.04.031.058.049 1.317 1.344 3.149 2.177 5.178 2.177h280.46c1.68 0 3.221-.573 4.452-1.532.085-.063.166-.13.246-.197.175-.148.341-.305.497-.466.009-.013.022-.018.036-.031.009-.014.018-.027.031-.04.882-.927 1.527-2.092 1.823-3.382.081-.354.125-.712.152-1.08v-.013c.009-.054.013-.112.018-.166v-.023c.009-.112.013-.224.013-.341v-190.919c.003-1.935-.759-3.686-1.995-4.99zm-5.85 2.222-10.732 9.854-5.456 5.012h-246.928l-5.46-5.012-10.732-9.854zm-17.563 177.088h-244.178v-157.72h244.178zm-265.087 16.327v-190.374l8.26 7.583 4.73 4.34 3.418 3.14v160.241l-3.418 3.14-4.73 4.345zm3.341 3.041 9.648-8.86 6.544-6.007h246.925l10.732 9.854 5.46 5.012h-279.309zm282.655-3.037-3.969-3.646-.009-.009-2.316-2.123-10.114-9.29v-160.246l8.985-8.251 7.422-6.813v190.378z" fill="#160f60"/><g fill="#fff"><path d="m263.986 150.925v15.373h-21.214l-.013-15.373h5.182v3.198c0 1.241 1.008 2.249 2.249 2.249h7.234c1.245 0 2.253-1.008 2.253-2.249v-3.198z"/><path d="m255.175 145.478v3.194.004.004 3.189h-2.732v-6.392h2.732z"/><path d="m261.935 106.477v9.855h-9.72v17.567h-9.564v-27.422z"/><circle cx="217.535" cy="187.296" r="3.899"/><path d="m228.098 191.1v25.845h-21.128v-25.845h3.082c1.393 2.723 4.219 4.6 7.485 4.6 3.261 0 6.087-1.877 7.48-4.6z"/><path d="m106.204 157.304-2.732.161-.359-6.038-.018-.341 2.728-.161v.018z"/><path d="m60.542 161.819-1.223 2.979v.009l-1.2 2.925-2.526-1.035 2.419-5.917z"/><path d="m114.701 158.907v10.253l-7.583-.399h-5.854v35.265h-6.665v-45.12h4.452l.063 1.071c.036.596.305 1.151.752 1.55.412.367.945.569 1.496.569.04 0 .085-.004.13-.004l7.225-.43c1.241-.072 2.186-1.138 2.114-2.379l-.022-.376z"/><path d="m74.101 167.928v9.89c-3.453.072-10.705.188-10.705-.036h-6.253v20.094h-12.99v-29.948h6.253c0 .296.058.587.175.864.228.551.667.985 1.223 1.214l6.692 2.741c.278.116.569.17.851.17.887 0 1.729-.529 2.087-1.397l1.469-3.592z"/><path d="m240.398 170.799c-1.245 0-2.253-1.008-2.253-2.253v-19.87c0-1.245 1.008-2.253 2.253-2.253h2.352l-.005-8.022h-2.347c-1.245 0-2.253-1.008-2.253-2.253v-31.924c0-1.241 1.008-2.249 2.253-2.249h2.307l-.036-30.835h-214.758v157.464h8.488v.255h9.411c-.036-.605-.054-1.205-.054-1.805 0-10.343 5.438-19.503 13.666-24.676h-17.522c-1.241 0-2.249-1.008-2.249-2.253v-34.45c0-1.241 1.008-2.249 2.249-2.249h10.163l2.638-6.437c.47-1.147 1.787-1.698 2.938-1.227l6.692 2.741c.555.228.994.663 1.223 1.214.233.551.233 1.174.009 1.725l-.815 1.984h11.602c1.245 0 2.253 1.008 2.253 2.249v32.246h11.494v-41.267c0-1.241 1.008-2.249 2.249-2.249h6.437l-.13-2.177-.184-3.122c-.072-1.241.873-2.307 2.114-2.383l7.221-.426c.6-.036 1.182.166 1.63.564.443.394.717.95.752 1.55l.103 1.729.251 4.264h6.414c1.241 0 2.249 1.008 2.249 2.249v24.86h19.077c1.241 0 2.248 1.008 2.248 2.253v14.155h61.939v-9.071c0-1.245 1.008-2.253 2.249-2.253h4.452c.354-4.309 3.969-7.704 8.367-7.704 4.394 0 8.009 3.395 8.367 7.704h4.448c1.241 0 2.249 1.008 2.249 2.253v3.14c6.213-4.968 10.186-12.614 10.177-21.191zm-120.859-30.606c-.34.493-.864.829-1.451.932l-48.676 8.739-13.084 2.352c-.134.022-.269.036-.399.036-1.071 0-2.02-.766-2.213-1.854l-7.61-42.383c-.107-.591.027-1.196.367-1.684.34-.493.86-.824 1.451-.932l2.016-.363-1.053-5.859c-.219-1.223.596-2.396 1.818-2.616l7.122-1.277c1.223-.219 2.392.591 2.611 1.819l1.053 5.859 32.036-5.751-1.053-5.859c-.219-1.227.591-2.396 1.814-2.616l7.122-1.277c1.223-.22 2.392.591 2.616 1.819l1.053 5.859 4.605-.824c1.218-.219 2.392.591 2.611 1.814l2.992 16.667 4.618 25.72c.108.586-.026 1.19-.366 1.679zm9.926-59.409c0-1.245 1.008-2.253 2.253-2.253h33.218c1.245 0 2.253 1.008 2.253 2.253v27.068c0 1.241-1.008 2.249-2.253 2.249h-33.218c-1.245 0-2.253-1.008-2.253-2.249zm75.69 71.543-7.78 35.449c-.233 1.053-1.165 1.769-2.199 1.769-.161 0-.322-.018-.484-.054l-30.88-6.777-4.573-1.003c-.582-.13-1.088-.484-1.411-.986-.322-.506-.43-1.115-.305-1.698l.367-1.666h-26.172c-1.245 0-2.253-1.008-2.253-2.253v-41.832c0-1.241 1.008-2.249 2.253-2.249h15.221c.985-3.543 4.233-6.155 8.085-6.155 3.857 0 7.1 2.611 8.09 6.155h18.226c1.245 0 2.253 1.008 2.253 2.249v12.009l.448.099 4.13.909.202-.909 1.066-4.864c.264-1.214 1.465-1.984 2.679-1.716l7.068 1.55c.582.13 1.093.484 1.411.985.322.502.434 1.115.305 1.698l-1.268 5.774 3.807.833c.587.13 1.093.484 1.416.985.321.502.428 1.116.298 1.698zm29.483-61.805-1.949 8.878-6.249 28.466c-.13.582-.484 1.093-.985 1.411-.367.237-.788.358-1.214.358-.161 0-.322-.018-.484-.054l-24.201-5.312-16.658-3.66c-1.214-.269-1.98-1.469-1.716-2.683l8.202-37.339c.125-.587.479-1.093.985-1.415.502-.323 1.111-.43 1.693-.3l11.485 2.522c1.541-1.751 3.789-2.862 6.298-2.862 3.803 0 7.019 2.54 8.049 6.011l15.028 3.301c.582.125 1.093.479 1.411.981.323.506.435 1.115.305 1.697z"/><path d="m229.76 91.754-1.684 7.655c-4.712-.614-13.577-3.655-13.523-3.991l-2.168-.475c2.692-.856 4.797-3.041 5.554-5.783z"/><circle cx="209.845" cy="86.934" r="3.901"/><path d="m196.018 144.269-1.263 5.774-.103.47-2.571-.564v-.493h.004s0 0 0-.004l1.263-5.769z"/><ellipse cx="155.025" cy="133.277" rx="3.899" ry="3.901"/><path d="m57.537 106.401-2.688.484-.081-.426s0 0 0-.004l-1.053-5.859 2.692-.484 1.053 5.859v.004z"/><path d="m101.12 98.576-2.688.484-.076-.426v-.004h-.004l-1.048-5.859 2.688-.484 1.053 5.854v.004.004z"/><path d="m206.096 94.455-5.577 25.415-14.455-3.176 7.229-32.945 8.269 1.814c-.072.448-.121.905-.121 1.371.001 3.288 1.896 6.141 4.655 7.521z"/><path d="m162.683 83.033v9.854h-15.727v12.712h-12.99v-22.566z"/><path d="m179.091 135.53v9.854h-32.134v27.476h-12.99v-37.33h12.972c.985 3.543 4.233 6.15 8.085 6.15 3.857 0 7.1-2.607 8.09-6.15z"/><path d="m110.405 111.06-3.095.439-32.031 5.751s-10.965 3.588-11.118 3.364l4.457 24.82-10.871 1.953-6.576-36.627c.152.224.345.426.573.587.381.264.829.403 1.286.403.13 0 .264-.014.399-.036l7.118-1.281c.591-.103 1.111-.439 1.451-.927.34-.493.475-1.097.367-1.684l-.076-.426 32.031-5.751.076.426c.107.587.443 1.111.932 1.451.381.264.829.403 1.286.403.134 0 .264-.013.399-.036l7.122-1.281c.587-.103 1.106-.439 1.447-.927.34-.493.475-1.098.367-1.684l-.076-.43 2.392-.426z"/><path d="m15.261 62.397v175.206l-8.259 7.584v-190.374z"/></g><path d="m289.652 248.228h-279.309l9.649-8.86 6.544-6.007h246.924l10.732 9.855z" fill="#6ea9ff"/><path d="m292.998 54.813v190.378l-3.968-3.646-.009-.009-2.316-2.123-10.114-9.29v-160.246l8.985-8.251z" fill="#6ea9ff"/></g></svg>