<svg id="&#x428;&#x430;&#x440;_1" enable-background="new 0 0 300 300" viewBox="0 0 300 300" xmlns="http://www.w3.org/2000/svg"><g><path d="m35.786 68.098h12.755v68.683h-12.755z" fill="#fff"/><g><path d="m243.798 127.504v-59.406l-4.935-2.742h-.005l-17.745-9.856h-.005l-63.915-24.059-4.214-1.585-2.109-.795c-.559-.211-1.177-.211-1.737 0l-73.535 27.68-.02.005-15.159 7.428-4.518 2.213-.491.24v75.061l.491.108 9.812 2.163.976.216c.005.289.005.456.005.456 3.174 1.06 3.851.726 6.922 1.668 10.052 3.105 19.472 5.583 27.704 7.276.991-.059 1.972.201 3.096.491 1.388.363 2.953.77 5.024.756 7.349-.074 29.431-.29 42.358 3.547 8.796-2.939 16.96-3.797 26.59-2.904 2.507.221 7.359-.015 11.254-.206 4.42-.221 6.54-.304 7.722-.157l.515-.054c14.404-2.159 29.308-5.858 45.92-11.436v-11.877c-.177-.029-.363-1.653-.544-4.376 0-.005 0-.005 0-.01.171.071.352.125.543.155zm-2.099-58.989v14.065c-.162-6.589-.275-11.872-.329-14.188zm-63.675-23.966-1.437-.491-.113-.088zm-112.311 97.903c-3.213-.971-6.491-2.002-9.812-3.091v-11.863c1.334-.029 2.404-1.119 2.404-2.458v-56.52l7.408-2.787 84.289-31.727.186.069 6.839 2.576 3.797 1.428-87.208 33.463-7.079 2.713v55.079c0 .971.093 9.537.137 13.408-.319-.094-.642-.192-.961-.29z" fill="#ff8b78"/><path d="m66.537 74.255v55.079c0 .971.093 9.537.137 13.408-.319-.093-.643-.191-.962-.289-3.213-.971-6.491-2.002-9.812-3.091v-11.863c1.334-.029 2.404-1.119 2.404-2.458v-56.379l.049-.02 9.267-3.488.054-.02 19.678-7.408.02-.005 62.816-23.647 6.839 2.576 3.797 1.428-87.208 33.464z" fill="#fff"/><g fill="#ffe471"><path d="m263.913 67.607h-1.472l1.472.554z"/><path d="m263.913 71.61v62.355c-3.567 2.134-6.996 4.047-10.302 5.76v-71.99l9.321 3.508z"/><path d="m55.901 64.173v80.374c-3.071-.996-6.182-2.036-9.321-3.12v-73.766l9.267-3.488z"/></g><path d="m296.424 67.249c-.412-.908-.927-1.751-1.531-2.512l-127.535-48c-.231-.083-.446-.206-.643-.358-1.251-.976-2.747-1.487-4.332-1.487h-1.217c-1.526 0-2.973.476-4.195 1.384l3.047 1.148-125.242 49.148c-1.688.667-3.032 1.977-3.778 3.694-.481 1.109-.677 2.301-.584 3.478l-9.783 3.684c.702.937 1.634 1.688 2.733 2.183 1.281.579 2.679.76 4.038.535.456-.074.908-.196 1.349-.363l.28-.103 4.617-1.737 4.935-1.859 7.997-3.007 1.962-.741 4.827-1.815 2.041-.77.491-.186 2.404-.903.049-.02 9.267-3.488.054-.02 19.678-7.408.02-.005 62.816-23.647 7.006-2.634 63.915 24.059h.005l22.685 8.541 9.812 3.694 9.321 3.508.981.368 8.831 3.326 10.278 3.866c.8.299 1.639.451 2.482.451h.289c1.457 0 2.841-.496 3.974-1.359l5.019 1.884c.814-.991 1.477-2.124 1.943-3.361.495-1.325.755-2.698.77-4.072.023-1.731-.335-3.467-1.076-5.096zm-31.339.912-1.173-.461v-.093h1.173z" fill="#6ea9ff"/><path d="m55.901 64.153-.054.02h4.572l15.159-7.428zm0 0-.054.02h4.572l15.159-7.428zm97.079-34.297-2.109-.795c-.559-.211-1.177-.211-1.737 0l-73.536 27.68-.02.005-19.678 7.408-.054.02h4.572l-4.518 2.213v3.179l2.404-.903v-.143l7.408-2.787 84.289-31.727.186.069 7.006-2.634zm0 0-2.109-.795c-.559-.211-1.177-.211-1.737 0l-73.536 27.68-.02.005-19.678 7.408-.054.02h4.572l-4.518 2.213v3.179l2.404-.903v-.143l7.408-2.787 84.289-31.727.186.069 7.006-2.634zm143.444 37.393c-.412-.908-.927-1.751-1.531-2.512-1.334-1.683-3.105-2.983-5.166-3.758l-132.072-49.712c-2.041-1.477-4.523-2.286-7.045-2.286h-1.217c-2.522 0-5.009.809-7.045 2.286l-132.077 49.712c-2.998 1.128-5.372 3.356-6.697 6.27-1.32 2.919-1.428 6.172-.299 9.169 1.128 3.002 3.361 5.382 6.28 6.702 1.58.716 3.253 1.074 4.935 1.074 1.423 0 2.855-.26 4.229-.78l.02-.01 8.664-3.257 6.245-2.35v47.244c0 1.359 1.104 2.463 2.468 2.463.226 0 .447-.029.653-.088 1.045-.284 1.815-1.241 1.815-2.374v-49.1l7.997-3.012 6.79-2.556v54.667c0 1.212.883 2.222 2.041 2.424.137.025.28.039.427.039.02 0 .044 0 .064-.005 1.334-.029 2.404-1.119 2.404-2.458v-56.521l7.408-2.787 84.289-31.727.186.069 6.839 2.576 3.797 1.428 15.65 5.892 1.55.579 63.346 23.843.329.123v56.551c0 1.045.643 1.928 1.555 2.291.172.069.353.118.544.147.118.02.245.029.368.029 1.359 0 2.463-1.104 2.463-2.468v-54.692l6.981 2.63 7.81 2.939v49.099c0 1.02.623 1.899 1.511 2.271.294.123.618.191.957.191h.025c1.349-.015 2.438-1.114 2.438-2.463v-47.244l6.392 2.404 8.541 3.213c1.359.515 2.777.77 4.219.77.888 0 1.761-.098 2.605-.289h.005c2.625-.589 4.979-2.056 6.672-4.116.814-.991 1.477-2.124 1.943-3.361.495-1.325.755-2.698.77-4.072.023-1.732-.335-3.468-1.076-5.097zm-10.92 12.005c-.844 0-1.683-.152-2.482-.451l-10.278-3.866-8.831-3.326-.981-.368-9.321-3.508-9.812-3.694-22.685-8.541h-.005l-63.915-24.059-4.214-1.585-2.109-.795c-.559-.211-1.177-.211-1.737 0l-73.536 27.68-.02.005-19.678 7.408-.054.02-9.267 3.488-9.812 3.694-6.353 2.389-9.783 3.684-3.375 1.271-.28.103c-1.756.662-3.675.603-5.387-.172-1.722-.78-3.037-2.183-3.699-3.949-.667-1.761-.604-3.679.177-5.397.775-1.717 2.178-3.027 3.939-3.694l132.406-49.835c.235-.083.451-.206.648-.358 1.251-.976 2.747-1.487 4.332-1.487h1.217c1.585 0 3.081.51 4.332 1.487.196.152.412.275.643.358l1.388.52 3.047 1.148 127.972 48.167c1.766.667 3.169 1.977 3.944 3.694.167.363.299.741.402 1.119.113.437.186.883.216 1.329.029.481.01.962-.054 1.442-.074.51-.201 1.015-.388 1.506-.491 1.3-1.344 2.399-2.423 3.184-1.153.854-2.561 1.359-4.042 1.388h-.142zm-132.524-49.398-2.109-.795c-.559-.211-1.177-.211-1.737 0l-73.536 27.68-.02.005-19.678 7.408-.054.02h4.572l-4.518 2.213v3.179l2.404-.903v-.143l7.408-2.787 84.289-31.727.186.069 7.006-2.634zm0 0-2.109-.795c-.559-.211-1.177-.211-1.737 0l-73.536 27.68-.02.005-19.678 7.408-.054.02h4.572l-4.518 2.213v3.179l2.404-.903v-.143l7.408-2.787 84.289-31.727.186.069 7.006-2.634zm-97.079 34.297-.054.02h4.572l15.159-7.428zm0 0-.054.02h4.572l15.159-7.428z" fill="#160f60"/><path d="m160.02 17.424-125.244 49.148c-1.688.667-3.032 1.977-3.778 3.694-.481 1.109-.677 2.301-.584 3.478l-9.783 3.684-3.375 1.271-.28.103c-1.756.662-3.675.603-5.387-.172-1.722-.78-3.037-2.183-3.699-3.949-.667-1.761-.604-3.679.177-5.397.775-1.717 2.178-3.027 3.939-3.694l132.406-49.835c.235-.083.451-.206.648-.358 1.251-.976 2.747-1.487 4.332-1.487h1.217c1.585 0 3.081.51 4.332 1.487.196.152.412.275.643.358l1.388.52z" fill="#fff"/><path d="m157.885 98.716c0-13.938-13.379-25.388-30.294-26.414v-4.558h11.264c1.359 0 2.463-1.104 2.463-2.463 0-1.364-1.104-2.468-2.463-2.468h-27.464c-1.359 0-2.463 1.104-2.463 2.468 0 1.359 1.104 2.463 2.463 2.463h11.269v4.558c-16.916 1.025-30.294 12.476-30.294 26.414s13.379 25.383 30.294 26.409v5.2h-11.269c-1.359 0-2.463 1.104-2.463 2.463 0 1.364 1.104 2.468 2.463 2.468h27.464c1.359 0 2.463-1.104 2.463-2.468 0-1.359-1.104-2.463-2.463-2.463h-11.264v-5.2c16.916-1.026 30.294-12.471 30.294-26.409zm-30.294-21.474c14.193.966 25.364 10.224 25.364 21.473 0 11.244-11.171 20.502-25.364 21.473zm-4.93 42.947c-14.198-.971-25.364-10.229-25.364-21.473 0-11.249 11.166-20.507 25.364-21.473z" fill="#160f60"/><path d="m210.104 132.469c0 1.359-1.104 2.463-2.468 2.463h-44.973c-.976 0-1.864-.574-2.257-1.467s-.226-1.938.437-2.659l28.803-31.545-28.832-32.669c-.643-.726-.8-1.761-.397-2.644.397-.883 1.276-1.452 2.247-1.452h44.973c1.364 0 2.468 1.104 2.468 2.463 0 1.364-1.104 2.468-2.468 2.468h-39.512l26.678 30.23c.834.942.824 2.365-.024 3.292l-26.526 29.053h39.385c1.363-.001 2.466 1.103 2.466 2.467z" fill="#160f60"/><path d="m263.913 210.115h-31.388c-.049 0-.098.01-.147.015-.088.005-.177.01-.26.025-.078.015-.157.034-.231.054-.078.025-.152.044-.231.074-.074.029-.147.059-.216.098-.074.034-.142.069-.211.113s-.132.088-.196.137-.123.098-.182.152c-.064.059-.123.123-.181.191-.029.034-.069.069-.098.108l-10.268 13.388-58.964-47.465c-.746-.603-1.776-.716-2.639-.289l-39.63 19.648c-.054.029-.108.059-.162.088-4.994 2.953-11.47 1.295-14.404-3.665-.005-.01-.02-.034-.025-.044-2.939-4.965-1.32-11.387 3.606-14.365l33.194-15.851c11.931-5.259 21.36-6.873 33.63-5.764 2.963.265 8.006.02 12.456-.196 2.885-.142 6.471-.314 7.192-.196.28.064.564.083.849.054l.922-.103c.029 0 .059-.005.088-.01 14.924-2.188 30.324-5.892 47.382-11.441 3.208-1.045 6.476-2.149 9.812-3.326 3.047-1.074 6.157-2.203 9.321-3.395.329-.123.653-.245.981-.368.285-.103.564-.211.849-.319 1.276-.481 1.913-1.904 1.432-3.179-.373-.971-1.295-1.58-2.281-1.59-.299-.005-.603.049-.898.162-.029.01-.054.02-.083.029-1.742.662-3.469 1.305-5.171 1.933-1.393.515-2.782 1.016-4.15 1.501-3.336 1.192-6.608 2.316-9.812 3.37-17.382 5.725-32.978 9.522-48.054 11.735l-.54.059c-1.236-.152-3.454-.069-8.08.157-4.077.196-9.154.441-11.774.211-10.077-.913-18.623-.034-27.826 2.983-13.526-3.939-36.638-3.714-44.325-3.64-2.168.015-3.807-.402-5.259-.775-1.172-.299-2.203-.564-3.238-.505-8.35-1.683-17.872-4.126-28.028-7.173-.319-.093-.643-.191-.962-.289-3.213-.971-6.491-2.002-9.812-3.091-.162-.054-.329-.108-.491-.162-2.909-.952-5.858-1.953-8.831-2.988-1.31-.456-2.62-.922-3.939-1.393-1.879-.672-3.773-1.364-5.666-2.065-.069-.025-.137-.049-.206-.064-1.222-.343-2.517.309-2.963 1.516-.476 1.276.177 2.698 1.452 3.169.182.069.363.132.545.201.324.118.643.235.966.353 3.292 1.207 6.564 2.375 9.812 3.498 3.14 1.084 6.25 2.124 9.321 3.12 3.326 1.074 6.598 2.095 9.812 3.051 10.288 3.076 19.928 5.534 28.391 7.222.294.059.574.069.873.02.27-.015 1.119.196 1.737.358 1.575.402 3.733.962 6.535.927 6.289-.064 23.146-.226 35.98 1.918-.015.005-.029.01-.044.015l-33.326 15.92c-.069.034-.132.069-.196.103-7.334 4.342-9.768 13.84-5.446 21.14.005.01.02.034.024.044 4.327 7.305 13.771 9.753 21.096 5.48l38.144-18.912 45.071 36.284c.005.005.01.015.015.02l.839.917c.069.074.147.147.226.216l6.692 5.637c3.733 3.194 4.312 9.223 1.285 13.442-1.467 2.046-3.537 3.321-5.828 3.601-2.114.255-4.195-.388-5.863-1.815-.005-.005-.015-.01-.02-.015-.01-.01-.02-.015-.025-.025l-18.721-15.233c-1.055-.859-2.61-.702-3.468.353-.859 1.06-.702 2.61.358 3.469l18.672 15.199c2.124 1.815 3.228 4.548 3.228 7.344 0 2.119-.638 4.278-1.943 6.098-1.462 2.041-3.532 3.321-5.823 3.596-2.114.255-4.2-.388-5.867-1.815l-4.827-4.126c0-.005 0-.005 0-.005l-14.374-12.265c-1.035-.878-2.59-.76-3.473.28-.888 1.035-.76 2.59.275 3.473l14.365 12.26c.986.844 1.771 1.903 2.316 3.11.55 1.202.863 2.541.903 3.944.064 2.296-.618 4.563-1.923 6.388-1.467 2.046-3.537 3.321-5.828 3.601-2.114.255-4.195-.392-5.863-1.815l-8.698-7.438-3.169-3.105c-.971-.952-2.536-.932-3.488.039s-.932 2.536.039 3.488l3.223 3.154c.02.015.044.029.059.044.025.02.039.044.064.064l.01.01c1.957 1.683 3.125 4.249 3.204 7.045.069 2.232-.314 3.464-1.629 5.254-1.089 1.487-3.047 3.189-5.284 3.522-1.575.236-3.105-.226-4.661-1.388l-6.868-5.269 2.787-2.212c.029-.025.059-.049.088-.074 5.259-4.612 5.922-12.795 1.477-18.24-2.026-2.473-4.803-4.052-7.884-4.499 2.63-4.612 2.311-10.636-1.207-14.949-2.193-2.679-5.264-4.312-8.654-4.592-2.061-.172-4.082.172-5.926.971.005-.147.01-.294.005-.441-.044-2.968-1.094-5.863-2.963-8.149-2.188-2.679-5.259-4.307-8.649-4.592-3.356-.28-6.628.805-9.199 3.052l-.329.289c-.118-2.855-1.148-5.617-2.944-7.81-3.822-4.685-10.391-5.99-15.625-3.105-.123.069-.245.152-.353.24l-11.804 9.527-18.466-14.164c-.02-.015-.039-.025-.059-.039-.074-.054-.157-.098-.235-.142-.064-.034-.123-.074-.191-.103-.074-.034-.152-.059-.226-.083-.078-.029-.157-.054-.235-.074-.069-.015-.142-.025-.216-.034-.088-.015-.177-.025-.27-.029-.025 0-.044-.005-.069-.005h-15.42c-1.364 0-2.468 1.104-2.468 2.468 0 1.359 1.104 2.463 2.468 2.463h14.576l17.068 13.089c-3.895 4.734-4.028 11.843-.029 16.744 2.188 2.679 5.259 4.308 8.654 4.592.348.029.697.044 1.04.044.289 0 .569-.02.854-.039-.927 3.895-.108 8.183 2.581 11.47 2.188 2.679 5.264 4.312 8.654 4.592.348.029.692.044 1.04.044 1.698 0 3.346-.358 4.882-1.03 0 .152-.005.304-.005.456.044 2.973 1.094 5.867 2.958 8.149 2.193 2.679 5.264 4.307 8.654 4.592.348.029.697.044 1.04.044 2.993 0 5.853-1.079 8.154-3.096l.338-.294c.113 2.855 1.143 5.622 2.944 7.82 2.458 3.012 6.059 4.626 9.704 4.626 2.016 0 4.052-.496 5.912-1.521.123-.069.235-.147.343-.231l3.223-2.561 7.869 6.034c2.154 1.614 4.504 2.448 6.868 2.448.5 0 .996-.039 1.496-.113 4.7-.702 7.722-4.376 8.531-5.485 1.972-2.684 2.674-4.926 2.585-8.252l.618.525c2.733 2.34 6.162 3.39 9.665 2.968 3.679-.446 6.962-2.443 9.243-5.627 1.928-2.693 2.939-6.029 2.845-9.395-.01-.245-.02-.491-.039-.736 1.997.859 4.175 1.182 6.383.913 3.679-.447 6.962-2.443 9.243-5.622 2.806-3.91 3.488-8.904 2.217-13.276.711.039 1.428.015 2.144-.074 3.679-.447 6.966-2.443 9.248-5.622 2.291-3.194 3.16-7.109 2.713-10.818.132.02.265.034.397.034.098 0 .196-.005.294-.02.657-.079 1.256-.422 1.663-.947l11.058-14.428h30.172c1.349-.015 2.438-1.114 2.438-2.463s-1.089-2.448-2.438-2.463zm-181.584 32.595c-1.55 1.359-3.518 2.016-5.539 1.85-2.046-.172-3.905-1.168-5.24-2.801-2.777-3.4-2.384-8.492.868-11.382l.657-.53c.005-.005.01-.01.015-.015l13.123-10.587c3.115-1.609 6.971-.79 9.243 1.997 1.168 1.428 1.825 3.238 1.854 5.102.034 2.433-.957 4.719-2.728 6.28l-12.196 10.038c-.018.014-.037.033-.057.048zm17.534 12.211c-.005.005-.015.01-.02.015l-4.386 3.841c-1.555 1.359-3.522 2.016-5.539 1.85-2.046-.172-3.91-1.168-5.245-2.796-2.777-3.405-2.384-8.507.878-11.387l12.196-10.038c.02-.015.039-.029.059-.049l7.992-7.001c1.555-1.359 3.523-2.016 5.544-1.845 2.046.172 3.905 1.163 5.24 2.796 1.168 1.428 1.825 3.238 1.85 5.102.039 2.433-.957 4.724-2.733 6.285l-3.959 3.306-11.833 9.881c-.015.01-.029.025-.044.04zm21.189 9.007c-.02.02-.039.039-.064.054-.005.005-.005.01-.01.015l-7.992 6.991c-1.55 1.359-3.522 2.011-5.539 1.845-2.046-.167-3.905-1.163-5.24-2.796-1.168-1.423-1.82-3.233-1.85-5.102-.034-2.428.957-4.715 2.723-6.28l.01-.005 11.833-9.881 3.959-3.307c.015-.015.029-.025.044-.039l4.406-3.856c1.555-1.359 3.522-2.016 5.539-1.849 2.046.172 3.91 1.168 5.244 2.801 2.782 3.4 2.384 8.502-.873 11.387l-12.108 9.959zm11.529 17.171c-3.154 1.644-6.932.834-9.248-1.997-1.168-1.428-1.825-3.238-1.85-5.107-.039-2.424.952-4.71 2.718-6.27l.005-.005.029-.024 8.124-6.623c.024-.02.044-.039.069-.059 1.55-1.359 3.513-2.016 5.534-1.85 2.046.172 3.91 1.168 5.244 2.801 2.777 3.4 2.384 8.487-.863 11.372z" fill="#160f60"/><path d="m253.61 73.004v63.316c-3.336 1.192-6.608 2.316-9.812 3.37v-7.957c-.177-.029-.363-1.653-.544-4.376.172.069.353.118.544.147.118.02.245.029.368.029 1.359 0 2.463-1.104 2.463-2.468v-54.691z" fill="#fff"/></g></g></svg>