<svg id="&#x428;&#x430;&#x440;_1" enable-background="new 0 0 300 300" viewBox="0 0 300 300" xmlns="http://www.w3.org/2000/svg"><g><path d="m209.668 55.217c-1.236 1.341-2.985 2.127-4.875 2.127-.18 0-.365-.009-.545-.024.829-4.771 1.327-9.717 1.488-14.767l2.833 1.44c.744.37 1.345.891 1.805 1.511.062-1.123.109-2.255.142-3.392.019-.734-.062-1.454-.237-2.146l-49.783-29.786c-.166-.099-.379-.099-.545 0l-2.089 1.251-25.735 15.397-25.375 15.179c-.981.588-1.568 1.663-1.535 2.814.09 3.184.308 6.334.659 9.418.398 3.492.962 6.908 1.687 10.224.815 3.7 1.848 7.348 3.075 10.844 1.113 3.179 2.416 6.311 3.875 9.319.602 1.241 1.227 2.454 1.871 3.639.431.796.877 1.582 1.331 2.35.464.805.948 1.592 1.435 2.369.1.156.199.317.299.474 10.513 16.501 24.503 26.228 33.244 31.103 1.559.872 2.952 1.587 4.127 2.156.076.038.147.076.218.109.336.161.654.308.948.445.024-.014.052-.024.076-.038.341-.18.701-.37 1.066-.564.024-.014.052-.028.076-.038.341-.185.692-.379 1.056-.578.076-.043.152-.085.232-.128.005-.005.014-.009.019-.009.024-.014.052-.028.076-.043.081-.047.161-.095.242-.137.076-.047.161-.09.242-.137 1.132-.64 2.336-1.35 3.605-2.146.199-.123.403-.246.602-.374.943-.597 1.914-1.237 2.914-1.919.365-.251.734-.512 1.109-.772h.005c.242-.171.483-.341.73-.521.242-.171.488-.346.734-.531.251-.18.497-.365.749-.55.246-.185.497-.374.748-.564.246-.185.497-.379.753-.578.246-.185.488-.374.73-.569.521-.407 1.047-.829 1.568-1.26.133-.104.261-.213.389-.317s.256-.213.389-.322c1.066-.891 2.146-1.829 3.222-2.814.218-.194.431-.393.649-.597 1.009-.933 2.023-1.909 3.027-2.928.531-.535 1.066-1.085 1.592-1.649.265-.28.531-.564.796-.853.265-.284.531-.573.791-.867.085-.095.175-.19.261-.289.052-.057.104-.118.156-.175.038-.043.076-.085.109-.128.133-.147.261-.294.389-.441.218-.251.436-.502.659-.758.019-.028.047-.057.071-.085.497-.583.99-1.175 1.483-1.781.526-.644 1.042-1.303 1.559-1.971.488-.635.971-1.279 1.45-1.933.493-.682.985-1.374 1.469-2.08h-11.678c-.55-.014-1.023.028-1.431.104-1.544.28-2.151 1.047-2.25 1.293v11.783c0 1.317-1.066 2.383-2.378 2.383-.73 0-1.388-.327-1.819-.848-.355-.412-.564-.948-.564-1.535v-12.345c0-1.327-.327-2.577-.905-3.676-.384-.73-.876-1.393-1.459-1.966-.876-.872-1.961-1.535-3.165-1.923 1.255-.569 2.791-.91 4.577-.872h2.492c.73.815 1.35 1.725 1.848 2.705.175.341.332.692.474 1.047 1.274-.592 2.838-.948 4.662-.91h6.249c-.005.019-.009.038-.014.057.791.185 1.554.45 2.279.786.185-.28.37-.559.55-.843h4.321c.403 0 .782.099 1.113.275.147-.237.289-.474.431-.715 1.279-2.151 2.501-4.406 3.643-6.765 1.53-3.165 2.904-6.467 4.084-9.821 1.047-2.989 1.961-6.078 2.724-9.219.18-.725.346-1.45.507-2.175.189-.881.37-1.772.545-2.667h5.145c.275-1.568.507-3.155.701-4.761h-4.793zm-28.928 29.43c-1.028-1.236-1.72-2.757-1.947-4.42-.223.038-.45.057-.682.057-2.269 0-4.117-1.848-4.117-4.117s1.848-4.117 4.117-4.117c1.09 0 2.075.422 2.809 1.109 1.061-1.218 2.454-2.137 4.036-2.629 1.274 1.535 2.032 3.501 2.032 5.638.001 3.978-2.633 7.352-6.248 8.479zm-11.489-9.053c.1-1.521.578-2.942 1.355-4.16-.128 1.511-.606 2.923-1.355 4.16zm-15.459 1.568c-1.142-1.241-1.966-2.772-2.34-4.472-2.734-.005-4.951-2.227-4.951-4.956 0-2.734 2.222-4.956 4.956-4.956 1.004 0 1.938.298 2.719.82 1.213-1.175 2.729-2.037 4.42-2.449 1.601 1.734 2.577 4.046 2.577 6.585.001 4.553-3.145 8.385-7.381 9.428zm-11.071 4.591c-1.038 3.184-3.828 5.581-7.225 6.05 1.53-2.838 4.112-5.032 7.225-6.05zm-15.289 2.894c-1.028-1.236-1.72-2.757-1.947-4.42-.223.038-.45.057-.682.057-2.269 0-4.117-1.848-4.117-4.117s1.848-4.117 4.117-4.117c1.09 0 2.075.422 2.809 1.109 1.061-1.218 2.454-2.137 4.036-2.629 1.274 1.535 2.032 3.501 2.032 5.638.001 3.978-2.633 7.352-6.248 8.479zm20.794 11.679c0 .066 0 .133-.009.199 0 .043-.005.09-.005.137v12.346c0 1.317-1.066 2.383-2.383 2.383-1.312 0-2.378-1.066-2.378-2.383v-11.74c-1.085-.919-2.468-1.44-3.909-1.44h-13.237c-1.308 0-2.374-1.061-2.378-2.369 0-.005 0-.005 0-.009 0-.161.014-.313.047-.464.213-1.094 1.175-1.919 2.331-1.919h13.237c1.658 0 3.274.384 4.733 1.094.995-2.615 2.828-4.818 5.169-6.277 1.942-1.218 4.245-1.919 6.699-1.919h8.101c1.649 1.346 2.956 3.094 3.766 5.098-.725-.218-1.492-.336-2.288-.336h-9.579c-4.26-.001-7.737 3.382-7.917 7.599zm39-45.089v-1.89l-26.228-13.104-1.895.948-7.58-3.79-26.55 13.265v7.575l-4.761 2.378v-7.575l-9.002 4.496c-.706-1.464-.995-3.222-.801-4.851.005-.024.005-.052.009-.076.275-2.118 1.374-3.8 3.027-4.624l40.355-20.523 4.221-2.146c.379-.19.777-.341 1.18-.45l39.891 20.282c3.345 1.672 3.818 6.358 2.16 9.684-.862 1.72-2.388 2.947-4.183 3.43l-5.083-2.539v1.89z" fill="#ffe471"/><path d="m208.697 59.978h-.09c-.175.895-.355 1.786-.545 2.667-.161.725-.327 1.45-.507 2.175-.763 3.141-1.677 6.23-2.724 9.219-1.18 3.354-2.554 6.656-4.084 9.821-1.142 2.359-2.364 4.614-3.643 6.765-.142.242-.284.479-.431.715-.692 1.151-1.407 2.269-2.137 3.359-.242.36-.483.72-.725 1.071-.014.019-.024.038-.038.057-.483.706-.976 1.398-1.469 2.08-.479.654-.962 1.298-1.45 1.933-.516.668-1.033 1.327-1.559 1.971-.493.606-.985 1.199-1.483 1.781-.024.028-.052.057-.071.085-.223.256-.441.507-.659.758-.128.147-.256.294-.389.441-.033.043-.071.085-.109.128-.052.057-.104.118-.156.175-.085.099-.175.194-.261.289-.261.294-.526.583-.791.867-.265.289-.531.573-.796.853-.526.564-1.061 1.113-1.592 1.649-1.004 1.019-2.018 1.995-3.027 2.928-.218.204-.431.403-.649.597-1.075.985-2.156 1.924-3.222 2.814-.133.109-.261.218-.389.322s-.256.213-.389.317c-.521.431-1.047.853-1.568 1.26-.242.194-.483.384-.73.569-.256.199-.507.393-.753.578-.251.189-.502.379-.748.564-.251.185-.497.37-.749.55-.246.185-.493.36-.734.531-.246.18-.488.351-.73.521h-.005l-12.261 6.438-.512.27.294-.379 5.941-7.67 10.892-14.061 4.761-6.145 2.25-2.909 2.284-2.947 1.488-1.919.199-.251 1.961-2.535c1.071.232 1.871 1.184 1.871 2.326 0 .156-.014.313-.043.46-.005.019-.009.038-.014.057.791.185 1.554.45 2.279.786.185-.28.37-.559.55-.843.081-.118.156-.237.232-.355 1.772-2.781 3.454-5.751 4.989-8.926 1.454-3.004 2.762-6.14 3.875-9.319.384-1.099.753-2.208 1.094-3.335l7.211-9.309z" fill="#e5e5e5"/><path d="m194.536 94.7c-.242.36-.483.72-.725 1.071-.014.019-.024.038-.038.057-.483.706-.976 1.398-1.469 2.08-.479.654-.962 1.298-1.45 1.933-.516.668-1.033 1.327-1.559 1.971-.493.606-.985 1.199-1.483 1.781-.024.028-.052.057-.071.085-.223.256-.441.507-.659.758-.128.147-.256.294-.389.441-.033.043-.071.085-.109.128-.052.057-.104.118-.156.175-.085.099-.175.194-.261.289-.261.294-.526.583-.791.867-.265.289-.531.573-.796.853-.526.564-1.061 1.113-1.592 1.649-1.004 1.019-2.018 1.995-3.027 2.928-.218.204-.431.403-.649.597-1.075.985-2.156 1.924-3.222 2.814-.133.109-.261.218-.389.322s-.256.213-.389.317c-.521.431-1.047.853-1.568 1.26-.242.194-.483.384-.73.569-.256.199-.507.393-.753.578-.251.189-.502.379-.748.564-.251.185-.497.37-.749.55-.246.185-.493.36-.734.531-.246.18-.488.351-.73.521h-.005c-.374.261-.744.521-1.109.772-1 .682-1.971 1.322-2.914 1.919-.199.128-.403.251-.602.374-1.27.796-2.473 1.507-3.605 2.146-.081.047-.166.09-.242.137-.081.043-.161.09-.242.137-.024.014-.052.028-.076.043-.005 0-.014.005-.019.009-.081.043-.156.085-.232.128-.365.199-.715.393-1.056.578-.024.009-.052.024-.076.038-.365.194-.725.384-1.066.564-.024.014-.052.024-.076.038-.829.431-1.592.81-2.279 1.137-.142.066-.28.133-.412.194-.403.19-.777.36-1.113.512-.114.052-.223.099-.327.147-.422.189-.782.341-1.075.464-.654.275-1.341.412-2.028.412-.692 0-1.379-.137-2.037-.412-4.7-1.957-26.356-11.925-41.729-34.983 1.085-1.161 2.383-2.127 3.833-2.833 1.132-.545 2.355-.933 3.643-1.137.659-.104 1.341-.156 2.032-.156h21.083l4.264-5.685 17.056-1.421.455.455 4.761 4.761 2.364 2.364 4.813-.071 5.752-.09 7.594-.114.815-.014c.933-.014 1.838.076 2.715.265.081.019.166.033.246.057.791.185 1.554.45 2.279.786 1.468.668 2.771 1.625 3.851 2.79z" fill="#6ea9ff"/><path d="m107.136 49.645c.474.156.981.118 1.426-.104l41.9-20.931c.668-.336 1.459-.336 2.127 0l41.895 20.931c.265.133.545.199.834.199.715 0 1.36-.398 1.677-1.033.663-1.331.455-3.056-.043-3.302l-44.61-22.684c-.251-.128-.531-.189-.815-.189s-.573.066-.839.199l-44.576 22.665c-.218.109-.389.502-.45 1.014-.085.739.066 1.644.393 2.298.224.445.607.776 1.081.937z" fill="#6ea9ff"/><path d="m120.52 268.103v24.636h-49.058c-3.691 0-6.689-3.283-6.689-7.315v-6.77c0-5.827 4.723-10.551 10.551-10.551z" fill="#e5e5e5"/><path d="m235.228 67.298v218.126c0 4.032-2.999 7.315-6.69 7.315h-108.018v-24.636h80.066c1.971 0 3.743-.933 4.965-2.421 1.047-1.265 1.691-2.933 1.72-4.761.005-.043.005-.09.005-.133v-146.218c0-2.037-.824-3.875-2.16-5.211s-3.174-2.16-5.211-2.16c-3.596 0-7.14.872-10.328 2.544l-4.344 2.279-15.928 8.367c.242-.171.483-.341.73-.521.242-.171.488-.346.734-.531.246-.175.497-.36.749-.55.246-.185.497-.374.748-.564.246-.185.497-.379.753-.578.242-.18.483-.37.73-.569.521-.407 1.047-.829 1.568-1.26.133-.104.261-.213.389-.317s.256-.213.389-.322c1.066-.891 2.146-1.829 3.222-2.814.218-.194.431-.393.649-.597 1.009-.933 2.023-1.909 3.027-2.928.531-.535 1.066-1.085 1.592-1.649.265-.28.531-.564.796-.853.265-.284.531-.573.791-.867.085-.095.175-.19.261-.289.052-.057.104-.118.156-.175.038-.043.076-.085.109-.128.133-.147.261-.294.389-.441.218-.251.436-.502.659-.758.019-.028.047-.057.071-.085.497-.583.99-1.175 1.483-1.781.526-.644 1.042-1.303 1.559-1.971.488-.635.971-1.279 1.45-1.933.493-.682.985-1.374 1.469-2.08.014-.019.024-.038.038-.057.242-.351.483-.711.725-1.071.73-1.09 1.445-2.208 2.137-3.359.147-.237.289-.474.431-.715 1.279-2.151 2.501-4.406 3.643-6.765 1.53-3.165 2.904-6.467 4.084-9.821 1.047-2.989 1.961-6.078 2.724-9.219.18-.725.346-1.45.507-2.175.189-.881.37-1.772.545-2.667h19.931c3.686-.001 6.685 3.282 6.685 7.319z" fill="#e5e5e5"/><g fill="#160f60"><path d="m105.099 168.57c0 .308-.038.573-.109.801-.076.242-.189.455-.336.635-.166.194-.355.341-.568.426-.19.081-.389.118-.587.118h-15.583c-.208 0-.412-.043-.602-.128-.199-.09-.379-.232-.531-.417-.152-.18-.265-.393-.341-.644-.071-.218-.104-.483-.104-.791 0-.261.028-.497.081-.715.062-.246.156-.464.284-.649.137-.199.303-.355.502-.474.223-.128.46-.189.711-.189h6.022v-23.02l-5.302 3.231c-.346.218-.64.341-.914.379-.497.076-.815-.1-1.004-.261-.242-.199-.398-.488-.464-.858-.038-.227-.057-.488-.057-.796 0-.237.009-.441.028-.616.024-.223.071-.431.152-.616.085-.199.19-.365.317-.507.114-.123.242-.242.403-.355l7.4-4.723c.076-.052.185-.109.317-.166.118-.043.256-.085.417-.123.147-.028.303-.052.469-.062.379-.024.962-.014 1.327.047.256.043.46.095.63.171.275.118.479.289.611.516.118.194.18.422.18.663v27.095h5.05c.242 0 .479.062.696.18.213.109.393.275.535.483.128.18.218.393.284.644.058.233.086.47.086.721z"/><path d="m115.929 167.622c0 1.18-.218 1.947-.682 2.411-.464.46-1.175.682-2.179.682-.971 0-1.663-.218-2.118-.673s-.668-1.208-.668-2.374c0-1.184.213-1.952.682-2.416.46-.46 1.17-.682 2.175-.682.976 0 1.668.218 2.118.673.459.461.672 1.214.672 2.379z"/><path d="m104.834 218.154c0 .251-.024.493-.081.72-.057.237-.142.46-.256.649-.142.237-.332.422-.559.554-.232.133-.493.199-.777.199h-16.6c-.237 0-.469-.043-.687-.123-.246-.09-.46-.237-.635-.431-.18-.194-.313-.445-.398-.739-.066-.246-.095-.516-.095-.829 0-.237.005-.445.024-.625.024-.223.071-.436.142-.63.066-.166.152-.346.261-.521.099-.156.227-.327.388-.507l6.311-6.671c1.54-1.616 2.776-3.075 3.672-4.335.895-1.251 1.587-2.392 2.056-3.392.46-.976.763-1.867.9-2.648.137-.81.213-1.578.213-2.288 0-.663-.109-1.303-.322-1.905-.208-.587-.516-1.104-.919-1.535-.398-.431-.905-.782-1.507-1.047-1.27-.559-3.203-.493-4.534-.024-.744.261-1.398.55-1.947.862-.568.327-1.047.625-1.426.891-.905.635-1.478.687-1.999.374-.204-.118-.37-.299-.497-.531-.099-.18-.166-.398-.204-.654-.028-.185-.043-.407-.043-.659 0-.232.009-.422.028-.573.024-.18.057-.341.104-.488.047-.152.114-.308.204-.46.099-.171.261-.351.516-.573.204-.18.545-.422 1.033-.72.469-.289 1.061-.587 1.763-.876.696-.294 1.478-.545 2.321-.753.872-.208 1.781-.317 2.71-.317 1.535 0 2.899.232 4.06.696 1.165.469 2.16 1.113 2.942 1.919.791.805 1.388 1.748 1.772 2.809.379 1.042.568 2.151.568 3.302 0 1.028-.085 2.061-.261 3.07-.175 1.038-.554 2.179-1.132 3.387-.568 1.189-1.393 2.52-2.454 3.946-1.047 1.407-2.464 3.056-4.207 4.894l-4.325 4.529h12.204c.251 0 .488.052.711.161.228.118.417.284.573.497.142.199.246.426.308.682.057.215.081.457.081.713z"/><path d="m115.929 217.344c0 1.184-.218 1.947-.682 2.416-.464.46-1.175.682-2.179.682-.976 0-1.668-.218-2.118-.673-.455-.455-.673-1.208-.673-2.378 0-1.18.218-1.947.687-2.411.46-.46 1.17-.682 2.175-.682.971 0 1.663.218 2.118.668.459.459.672 1.217.672 2.378z"/><path d="m104.53 260.537c0 1.426-.242 2.753-.711 3.951-.479 1.213-1.194 2.274-2.127 3.16-.171.161-.346.313-.531.455-.839.668-1.834 1.203-2.966 1.597-1.36.469-2.942.706-4.7.706-1.061 0-2.07-.09-3.004-.275-.914-.18-1.744-.398-2.468-.644-.734-.256-1.355-.521-1.848-.796-.616-.336-.839-.493-.957-.587-.009-.009-.019-.014-.028-.024-.18-.156-.322-.317-.422-.488-.081-.137-.147-.289-.208-.464-.057-.171-.099-.37-.133-.606-.024-.213-.038-.464-.038-.753 0-.649.081-1.071.265-1.383.242-.407.64-.649 1.094-.649.317 0 .678.147 1.284.526.407.246.943.526 1.601.829.649.298 1.421.583 2.293.839 1.682.497 4.018.502 5.534-.033.749-.261 1.383-.635 1.886-1.104.497-.46.872-1.019 1.118-1.654.256-.654.388-1.388.388-2.17 0-.824-.166-1.573-.488-2.227-.327-.659-.801-1.232-1.417-1.71-.63-.488-1.421-.877-2.35-1.147-.952-.279-2.042-.422-3.245-.422h-3.037c-.213 0-.422-.047-.63-.142-.213-.095-.403-.242-.564-.436-.147-.175-.265-.389-.355-.64-.085-.242-.123-.521-.123-.857 0-.289.033-.545.104-.772.076-.232.18-.445.317-.625.161-.204.351-.36.573-.464.204-.095.436-.142.678-.142h2.681c1.019 0 1.942-.137 2.752-.407.787-.265 1.469-.649 2.018-1.137.545-.483.966-1.071 1.26-1.743.294-.682.445-1.459.445-2.307 0-.616-.099-1.208-.298-1.748-.19-.526-.479-.995-.848-1.388-.37-.388-.848-.696-1.426-.924-1.227-.479-3.132-.46-4.491.033-.744.265-1.412.564-1.98.881-.583.327-1.061.625-1.416.886-.872.644-1.365.673-1.848.479-.166-.066-.407-.213-.587-.526-.109-.185-.18-.407-.223-.682-.024-.189-.043-.445-.043-.763 0-.208.009-.393.028-.554.024-.208.076-.403.152-.587.066-.152.142-.294.223-.426.095-.156.227-.317.426-.516.114-.118.351-.322 1.009-.749.479-.308 1.071-.606 1.748-.895.682-.284 1.464-.531 2.326-.73.877-.199 1.824-.303 2.814-.303 1.497 0 2.824.208 3.942.616 1.142.417 2.104 1.004 2.862 1.748.763.744 1.341 1.639 1.71 2.658.365.99.55 2.08.55 3.231 0 1.056-.147 2.061-.431 2.975-.284.933-.715 1.777-1.279 2.506-.564.734-1.265 1.355-2.085 1.848-.057.033-.114.066-.17.099.17.066.332.137.497.208.976.45 1.834 1.038 2.554 1.748.725.72 1.303 1.568 1.715 2.52.415.959.628 2.001.628 3.1z"/><path d="m115.929 267.07c0 .389-.024.73-.066 1.033-.104.621-.303 1.066-.616 1.383-.464.46-1.175.682-2.179.682-.971 0-1.663-.218-2.118-.673-.313-.313-.512-.763-.602-1.393-.047-.289-.066-.616-.066-.985 0-1.18.213-1.947.682-2.411.46-.46 1.17-.687 2.175-.687.976 0 1.668.223 2.118.673.459.459.672 1.217.672 2.378z"/><path d="m214.733 144.588c0 1.312-1.066 2.378-2.378 2.378h-80.9c-1.317 0-2.383-1.066-2.383-2.378 0-1.317 1.066-2.383 2.383-2.383h80.9c1.312 0 2.378 1.066 2.378 2.383z"/><path d="m214.733 161.937c0 1.317-1.066 2.383-2.378 2.383h-80.9c-1.317 0-2.383-1.066-2.383-2.383 0-1.312 1.066-2.378 2.383-2.378h80.9c1.312 0 2.378 1.066 2.378 2.378z"/><path d="m214.733 196.991c0 1.312-1.066 2.378-2.378 2.378h-80.9c-1.317 0-2.383-1.066-2.383-2.378 0-1.317 1.066-2.383 2.383-2.383h80.9c1.312 0 2.378 1.066 2.378 2.383z"/><path d="m214.733 214.345c0 1.312-1.066 2.378-2.378 2.378h-80.9c-1.317 0-2.383-1.066-2.383-2.378 0-1.317 1.066-2.383 2.383-2.383h80.9c1.312 0 2.378 1.066 2.378 2.383z"/><path d="m214.733 245.945c0 1.317-1.066 2.383-2.378 2.383h-80.9c-1.317 0-2.383-1.066-2.383-2.383 0-1.312 1.066-2.378 2.383-2.378h80.9c1.312 0 2.378 1.066 2.378 2.378z"/><path d="m214.733 263.299c0 1.317-1.066 2.383-2.378 2.383h-80.9c-1.317 0-2.383-1.066-2.383-2.383 0-1.312 1.066-2.378 2.383-2.378h80.9c1.312 0 2.378 1.066 2.378 2.378z"/><path d="m158.597 61.149c-1.777-1.924-4.321-3.132-7.14-3.132-5.358 0-9.717 4.359-9.717 9.717s4.359 9.717 9.717 9.717c.805 0 1.587-.099 2.336-.289 4.235-1.042 7.381-4.875 7.381-9.428 0-2.54-.976-4.852-2.577-6.585zm-7.14 11.54h-.005c-2.734-.005-4.951-2.227-4.951-4.956 0-2.734 2.222-4.956 4.956-4.956 1.004 0 1.938.298 2.719.82 1.345.881 2.236 2.407 2.236 4.136 0 2.73-2.222 4.956-4.955 4.956z"/><path d="m131.649 70.529c-1.625-1.976-4.089-3.241-6.846-3.241-4.894 0-8.878 3.984-8.878 8.878s3.984 8.878 8.878 8.878c.914 0 1.8-.137 2.629-.398 3.615-1.128 6.249-4.501 6.249-8.48 0-2.136-.758-4.102-2.032-5.637zm-6.164 9.698c-.223.038-.45.057-.682.057-2.269 0-4.117-1.848-4.117-4.117s1.848-4.117 4.117-4.117c1.09 0 2.075.422 2.809 1.109.805.753 1.308 1.824 1.308 3.008 0 2.037-1.488 3.733-3.435 4.06z"/><path d="m184.957 70.529c-1.625-1.976-4.089-3.241-6.846-3.241-3.155 0-5.932 1.658-7.504 4.145-.777 1.218-1.255 2.639-1.355 4.16-.014.189-.019.379-.019.573 0 4.894 3.984 8.878 8.878 8.878.914 0 1.8-.137 2.629-.398 3.615-1.128 6.249-4.501 6.249-8.48 0-2.136-.758-4.102-2.032-5.637zm-6.164 9.698c-.223.038-.45.057-.682.057-2.269 0-4.117-1.848-4.117-4.117s1.848-4.117 4.117-4.117c1.09 0 2.075.422 2.809 1.109.805.753 1.308 1.824 1.308 3.008 0 2.037-1.488 3.733-3.435 4.06z"/><path d="m199.094 41.151-39.891-20.282-4.714-2.397c-1.857-.929-4.074-.929-5.941.005l-16.421 8.352-28.156 14.317c-1.672.834-2.781 2.549-3.037 4.7-.199 1.677.114 3.496.862 4.984.791 1.587 2.151 2.767 3.828 3.331.085.028.166.052.251.081.611.175 1.236.265 1.857.261 1.014 0 2.023-.232 2.956-.701l.521-.261 9.002-4.496v8.555c0 1.312 1.066 2.378 2.378 2.378 1.317 0 2.383-1.066 2.383-2.378v-10.935l26.55-13.265 7.58 3.79 18.647 9.314v11.096c0 1.312 1.066 2.378 2.378 2.378 1.317 0 2.383-1.066 2.383-2.378v-8.717l4.714 2.355 4.761 2.378.369.185c.919.46 1.942.701 2.961.701.602 0 1.194-.081 1.753-.237 1.796-.483 3.321-1.71 4.183-3.43 1.661-3.326 1.188-8.012-2.157-9.684zm-2.099 7.556c-.317.635-.962 1.033-1.677 1.033-.289 0-.568-.066-.834-.199l-41.895-20.931c-.668-.336-1.459-.336-2.127 0l-40.043 20.002-1.857.929c-.445.223-.952.261-1.426.104-.474-.161-.858-.493-1.08-.938-.327-.654-.479-1.559-.393-2.298.062-.512.232-.905.45-1.014l44.576-22.665c.265-.133.554-.199.839-.199.284 0 .564.062.815.189l1.459.744 43.15 21.94c.498.248.706 1.972.043 3.303z"/><path d="m228.538 55.217h-19.135c.464-3.174.787-6.42.971-9.712.062-1.123.109-2.255.142-3.392.019-.734-.062-1.454-.237-2.146-.502-2.023-1.786-3.795-3.615-4.889l-53.198-31.828c-1.677-1-3.757-1-5.434 0l-53.199 31.827c-2.454 1.469-3.932 4.164-3.852 7.035.123 4.453.493 8.84 1.113 13.104h-20.632c-6.315 0-11.451 5.42-11.451 12.081v218.126c0 6.661 5.136 12.076 11.451 12.076h157.077c6.315 0 11.451-5.415 11.451-12.076v-218.125c-.001-6.661-5.136-12.081-11.452-12.081zm-131.261-16.051 53.199-31.827c.166-.099.379-.099.545 0l6.841 4.093 46.358 27.734c.981.588 1.568 1.663 1.535 2.814-.005.19-.009.384-.019.573-.161 5.05-.659 9.996-1.488 14.767-.251 1.45-.531 2.885-.839 4.302-.559 2.539-1.222 5.055-1.98 7.509-.341 1.128-.711 2.236-1.094 3.335-1.113 3.179-2.421 6.315-3.875 9.319-1.535 3.174-3.217 6.145-4.989 8.926-.076.118-.152.237-.232.355-.18.284-.365.564-.55.843-.895 1.355-1.814 2.658-2.752 3.918-3.046 4.098-6.277 7.708-9.523 10.868-1.402 1.365-2.805 2.648-4.197 3.847-4.041 3.492-7.973 6.301-11.456 8.504-4.24 2.686-7.808 4.482-10.068 5.515-.72.332-1.308.588-1.743.768-.133.057-.27.057-.403 0-4.477-1.857-25.133-11.375-39.73-33.419-.284-.426-.564-.858-.843-1.293-1.758-2.753-3.416-5.695-4.937-8.831-1.459-3.008-2.762-6.14-3.875-9.319-1.227-3.496-2.26-7.144-3.075-10.844-1.369-6.244-2.16-12.853-2.345-19.642-.033-1.152.555-2.228 1.535-2.815zm137.951 246.258c0 4.032-2.999 7.315-6.69 7.315h-157.076c-3.691 0-6.689-3.283-6.689-7.315v-218.126c0-4.036 2.999-7.32 6.689-7.32h21.428c.175.895.355 1.786.545 2.667.858 3.885 1.942 7.718 3.231 11.394 1.175 3.349 2.549 6.652 4.084 9.821 1.142 2.355 2.359 4.61 3.634 6.756.843 1.421 1.71 2.795 2.601 4.126 15.374 23.058 37.029 33.026 41.729 34.983.658.275 1.346.412 2.037.412.687 0 1.374-.137 2.028-.412.294-.123.654-.275 1.075-.464.104-.047.213-.095.327-.147.336-.152.711-.322 1.113-.512.133-.062.27-.128.412-.194.687-.327 1.45-.706 2.279-1.137.024-.014.052-.024.076-.038.341-.18.701-.37 1.066-.564.024-.014.052-.028.076-.038.341-.185.692-.379 1.056-.578.076-.043.152-.085.232-.128.005-.005.014-.009.019-.009.024-.014.052-.028.076-.043.081-.047.161-.095.242-.137.076-.047.161-.09.242-.137 1.132-.64 2.336-1.35 3.605-2.146.199-.123.403-.246.602-.374.943-.597 1.914-1.237 2.914-1.919.365-.251.734-.512 1.109-.772h.005c.242-.171.483-.341.73-.521.242-.171.488-.346.734-.531.251-.18.497-.365.749-.55.246-.185.497-.374.748-.564.246-.185.497-.379.753-.578.246-.185.488-.374.73-.569.521-.407 1.047-.829 1.568-1.26.133-.104.261-.213.389-.317s.256-.213.389-.322c1.066-.891 2.146-1.829 3.222-2.814.218-.194.431-.393.649-.597 1.009-.933 2.023-1.909 3.027-2.928.531-.535 1.066-1.085 1.592-1.649.265-.28.531-.564.796-.853.265-.284.531-.573.791-.867.085-.095.175-.19.261-.289.052-.057.104-.118.156-.175.038-.043.076-.085.109-.128.133-.147.261-.294.389-.441.218-.251.436-.502.659-.758.019-.028.047-.057.071-.085.497-.583.99-1.175 1.483-1.781.526-.644 1.042-1.303 1.559-1.971.488-.635.971-1.279 1.45-1.933.493-.682.985-1.374 1.469-2.08.014-.019.024-.038.038-.057.242-.351.483-.711.725-1.071.73-1.09 1.445-2.208 2.137-3.359.147-.237.289-.474.431-.715 1.279-2.151 2.501-4.406 3.643-6.765 1.53-3.165 2.904-6.467 4.084-9.821 1.047-2.989 1.961-6.078 2.724-9.219.18-.725.346-1.45.507-2.175.189-.881.37-1.772.545-2.667h19.931c3.691 0 6.69 3.283 6.69 7.32v218.126z"/></g><path d="m131.455 142.205h75.821v-27.635c0-2.037-.824-3.875-2.16-5.211s-3.174-2.16-5.211-2.16c-3.596 0-7.14.872-10.328 2.544l-4.344 2.279-15.928 8.367h-.005c-.374.261-.744.521-1.109.772-1 .682-1.971 1.322-2.914 1.919-.199.128-.403.251-.602.374-1.27.796-2.473 1.507-3.605 2.146-.081.047-.166.09-.242.137-.081.043-.161.09-.242.137-.024.014-.052.028-.076.043-.005 0-.014.005-.019.009-.081.043-.156.085-.232.128-.365.199-.715.393-1.056.578-.024.009-.052.024-.076.038-.365.194-.725.384-1.066.564-.024.014-.052.024-.076.038-.829.431-1.592.81-2.279 1.137-.142.066-.28.133-.412.194-.403.19-.777.36-1.113.512-.114.052-.223.099-.327.147-.422.189-.782.341-1.075.464-.654.275-1.341.412-2.028.412-.692 0-1.379-.137-2.037-.412-4.7-1.957-26.356-11.925-41.729-34.983-.891-1.331-1.758-2.705-2.601-4.126-1.274-2.146-2.492-4.401-3.634-6.756-1.535-3.169-2.909-6.472-4.084-9.821-1.289-3.676-2.373-7.509-3.231-11.394-.19-.881-.37-1.772-.545-2.667h-21.428c-3.691 0-6.689 3.283-6.689 7.32v211.356c0-5.827 4.723-10.551 10.551-10.551h9.897c-.009-.009-.019-.014-.028-.024-.18-.156-.322-.317-.422-.488-.081-.137-.147-.289-.208-.464-.057-.171-.099-.37-.133-.606-.024-.213-.038-.464-.038-.753 0-.649.081-1.071.265-1.383.242-.407.64-.649 1.094-.649.317 0 .678.147 1.284.526.407.246.943.526 1.601.829.649.298 1.421.583 2.293.839 1.682.497 4.018.502 5.534-.033.749-.261 1.383-.635 1.886-1.104.497-.46.872-1.019 1.118-1.654.256-.654.388-1.388.388-2.17 0-.824-.166-1.573-.488-2.227-.327-.659-.801-1.232-1.417-1.71-.63-.488-1.421-.877-2.35-1.147-.952-.279-2.042-.422-3.245-.422h-3.037c-.213 0-.422-.047-.63-.142-.213-.095-.403-.242-.564-.436-.147-.175-.265-.389-.355-.64-.085-.242-.123-.521-.123-.857 0-.289.033-.545.104-.772.076-.232.18-.445.317-.625.161-.204.351-.36.573-.464.204-.095.436-.142.678-.142h2.681c1.019 0 1.942-.137 2.752-.407.787-.265 1.469-.649 2.018-1.137.545-.483.966-1.071 1.26-1.743.294-.682.445-1.459.445-2.307 0-.616-.099-1.208-.298-1.748-.19-.526-.479-.995-.848-1.388-.37-.388-.848-.696-1.426-.924-1.227-.479-3.132-.46-4.491.033-.744.265-1.412.564-1.98.881-.583.327-1.061.625-1.416.886-.872.644-1.365.673-1.848.479-.166-.066-.407-.213-.587-.526-.109-.185-.18-.407-.223-.682-.024-.189-.043-.445-.043-.763 0-.208.009-.393.028-.554.024-.208.076-.403.152-.587.066-.152.142-.294.223-.426.095-.156.227-.317.426-.516.114-.118.351-.322 1.009-.749.479-.308 1.071-.606 1.748-.895.682-.284 1.464-.531 2.326-.73.877-.199 1.824-.303 2.814-.303 1.497 0 2.824.208 3.942.616 1.142.417 2.104 1.004 2.862 1.748.763.744 1.341 1.639 1.71 2.658.365.99.55 2.08.55 3.231 0 1.056-.147 2.061-.431 2.975-.284.933-.715 1.777-1.279 2.506-.564.734-1.265 1.355-2.085 1.848-.057.033-.114.066-.17.099.17.066.332.137.497.208.976.45 1.834 1.038 2.554 1.748.725.72 1.303 1.568 1.715 2.52.412.962.625 2.004.625 3.103 0 1.426-.242 2.753-.711 3.951-.479 1.213-1.194 2.274-2.127 3.16-.171.161-.346.313-.531.455h9.186c-.047-.289-.066-.616-.066-.985 0-1.18.213-1.947.682-2.411.46-.46 1.17-.687 2.175-.687.976 0 1.668.223 2.118.673.459.46.673 1.218.673 2.378 0 .389-.024.73-.066 1.033h84.723c1.971 0 3.743-.933 4.965-2.421h-74.097c-1.317 0-2.383-1.066-2.383-2.383 0-1.312 1.066-2.378 2.383-2.378h75.816c.005-.043.005-.09.005-.133v-12.46h-75.821c-1.317 0-2.383-1.066-2.383-2.383 0-1.312 1.066-2.378 2.383-2.378h75.821v-26.844h-75.821c-1.317 0-2.383-1.066-2.383-2.378 0-1.317 1.066-2.383 2.383-2.383h75.821v-12.593h-75.821c-1.317 0-2.383-1.066-2.383-2.378 0-1.317 1.066-2.383 2.383-2.383h75.821v-30.292h-75.821c-1.317 0-2.383-1.066-2.383-2.383 0-1.312 1.066-2.378 2.383-2.378h75.821v-12.593h-75.821c-1.317 0-2.383-1.066-2.383-2.378.001-1.317 1.066-2.383 2.384-2.383zm-26.702 76.669c-.057.237-.142.46-.256.649-.142.237-.332.422-.559.554-.232.133-.493.199-.777.199h-16.6c-.237 0-.469-.043-.687-.123-.246-.09-.46-.237-.635-.431-.18-.194-.313-.445-.398-.739-.066-.246-.095-.516-.095-.829 0-.237.005-.445.024-.625.024-.223.071-.436.142-.63.066-.166.152-.346.261-.521.099-.156.227-.327.388-.507l6.311-6.671c1.54-1.616 2.776-3.075 3.672-4.335.895-1.251 1.587-2.392 2.056-3.392.46-.976.763-1.867.9-2.648.137-.81.213-1.578.213-2.288 0-.663-.109-1.303-.322-1.905-.208-.587-.516-1.104-.919-1.535-.398-.431-.905-.782-1.507-1.047-1.27-.559-3.203-.493-4.534-.024-.744.261-1.398.55-1.947.862-.568.327-1.047.625-1.426.891-.905.635-1.478.687-1.999.374-.204-.118-.37-.299-.497-.531-.099-.18-.166-.398-.204-.654-.028-.185-.043-.407-.043-.659 0-.232.009-.422.028-.573.024-.18.057-.341.104-.488.047-.152.114-.308.204-.46.099-.171.261-.351.516-.573.204-.18.545-.422 1.033-.72.469-.289 1.061-.587 1.763-.876.696-.294 1.478-.545 2.321-.753.872-.208 1.781-.317 2.71-.317 1.535 0 2.899.232 4.06.696 1.165.469 2.16 1.113 2.942 1.919.791.805 1.388 1.748 1.772 2.809.379 1.042.568 2.151.568 3.302 0 1.028-.085 2.061-.261 3.07-.175 1.038-.554 2.179-1.132 3.387-.568 1.189-1.393 2.52-2.454 3.946-1.047 1.407-2.464 3.056-4.207 4.894l-4.325 4.529h12.204c.251 0 .488.052.711.161.228.118.417.284.573.497.142.199.246.426.308.682.057.213.081.455.081.711 0 .253-.024.495-.081.722zm.237-49.504c-.076.242-.189.455-.336.635-.166.194-.355.341-.568.426-.19.081-.389.118-.587.118h-15.583c-.208 0-.412-.043-.602-.128-.199-.09-.379-.232-.531-.417-.152-.18-.265-.393-.341-.644-.071-.218-.104-.483-.104-.791 0-.261.028-.497.081-.715.062-.246.156-.464.284-.649.137-.199.303-.355.502-.474.223-.128.46-.189.711-.189h6.022v-23.02l-5.302 3.231c-.346.218-.64.341-.914.379-.497.076-.815-.1-1.004-.261-.242-.199-.398-.488-.464-.858-.038-.227-.057-.488-.057-.796 0-.237.009-.441.028-.616.024-.223.071-.431.152-.616.085-.199.19-.365.317-.507.114-.123.242-.242.403-.355l7.4-4.723c.076-.052.185-.109.317-.166.118-.043.256-.085.417-.123.147-.028.303-.052.469-.062.379-.024.962-.014 1.327.047.256.043.46.095.63.171.275.118.479.289.611.516.118.194.18.422.18.663v27.095h5.05c.242 0 .479.062.696.18.213.109.393.275.535.483.128.18.218.393.284.644.057.232.085.469.085.72.001.31-.037.575-.108.802zm10.257 50.39c-.464.46-1.175.682-2.179.682-.976 0-1.668-.218-2.118-.673-.455-.455-.673-1.208-.673-2.378 0-1.18.218-1.947.687-2.411.46-.46 1.17-.682 2.175-.682.971 0 1.663.218 2.118.668.459.46.673 1.218.673 2.378-.001 1.184-.219 1.947-.683 2.416zm0-49.726c-.464.46-1.175.682-2.179.682-.971 0-1.663-.218-2.118-.673s-.668-1.208-.668-2.374c0-1.184.213-1.952.682-2.416.46-.46 1.17-.682 2.175-.682.976 0 1.668.218 2.118.673.459.46.673 1.213.673 2.378-.001 1.18-.219 1.947-.683 2.412z" fill="#fff"/><path d="m182.228 76.167c0 2.037-1.488 3.733-3.435 4.06-.223.038-.45.057-.682.057-2.269 0-4.117-1.848-4.117-4.117s1.848-4.117 4.117-4.117c1.09 0 2.075.422 2.809 1.109.806.753 1.308 1.823 1.308 3.008z" fill="#fff"/><path d="m156.412 67.734c0 2.729-2.222 4.956-4.956 4.956h-.005c-2.734-.005-4.951-2.227-4.951-4.956 0-2.734 2.222-4.956 4.956-4.956 1.004 0 1.938.298 2.719.82 1.347.881 2.237 2.407 2.237 4.136z" fill="#fff"/><path d="m128.92 76.167c0 2.037-1.488 3.733-3.435 4.06-.223.038-.45.057-.682.057-2.269 0-4.117-1.848-4.117-4.117s1.848-4.117 4.117-4.117c1.09 0 2.075.422 2.809 1.109.806.753 1.308 1.823 1.308 3.008z" fill="#fff"/><path d="m100.935 45.846c-.199 1.677.114 3.496.862 4.984.791 1.587 2.151 2.767 3.828 3.331.085.028.166.052.251.081.398 3.492.962 6.908 1.687 10.224.815 3.7 1.848 7.348 3.075 10.844 1.113 3.179 2.416 6.311 3.875 9.319.602 1.241 1.227 2.454 1.871 3.639-1.099.208-1.933 1.175-1.933 2.34 0 .057 0 .114.009.166-1.289.204-2.511.592-3.643 1.137-.284-.426-.564-.858-.843-1.293-1.758-2.753-3.416-5.695-4.937-8.831-1.459-3.008-2.762-6.14-3.875-9.319-1.227-3.496-2.26-7.144-3.075-10.844-1.369-6.244-2.16-12.853-2.345-19.642-.033-1.151.554-2.227 1.535-2.814l53.199-31.827c.166-.099.379-.099.545 0l6.841 4.093-25.735 15.397-28.156 14.317c-1.672.832-2.781 2.547-3.036 4.698z" fill="#fff"/><path d="m188.467 90.607c0 .156-.014.313-.043.46-.005.019-.009.038-.014.057-.237 1.066-1.189 1.862-2.326 1.862h-13.464c-2.625-.057-3.553 1.085-3.681 1.398v11.783c0 1.317-1.066 2.383-2.378 2.383-1.317 0-2.383-1.066-2.383-2.383v-12.348c0-1.938-.696-3.714-1.857-5.093-1.454-1.739-3.638-2.843-6.074-2.843h-9.579c-3.406 0-6.31 2.16-7.429 5.183-.284.758-.45 1.568-.488 2.416 0 .066 0 .133-.009.199 0 .043-.005.09-.005.137v12.346c0 1.317-1.066 2.383-2.383 2.383-1.312 0-2.378-1.066-2.378-2.383v-11.74c-1.085-.919-2.468-1.44-3.909-1.44h-13.237c-1.255 0-2.288-.976-2.369-2.213-.009-.052-.009-.109-.009-.166 0-1.165.834-2.132 1.933-2.34.142-.028.294-.043.445-.043h13.237c1.658 0 3.274.384 4.733 1.094.199-.521.431-1.028.696-1.516 1.53-2.838 4.112-5.031 7.225-6.05 1.241-.407 2.568-.63 3.947-.63h9.579c3.027 0 5.813 1.066 7.997 2.843 1.649 1.346 2.956 3.094 3.766 5.098.009.024.019.047.028.071.028-.014.057-.024.085-.038 1.255-.569 2.791-.91 4.577-.872h13.384c.175 0 .35.019.512.057 1.071.234 1.871 1.186 1.871 2.328z" fill="#160f60"/></g></svg>