<svg id="&#x428;&#x430;&#x440;_1" enable-background="new 0 0 300 300" viewBox="0 0 300 300" xmlns="http://www.w3.org/2000/svg"><g><path d="m244.434 149.461-4.318 3.032 6.225-3.34-56.936-17.081-81.238 25.645-11.758-8.256 74.013-21.986z" fill="#fff"/><path d="m227.249 95.481c-.014.014-.033.024-.052.033l-15.287 9.361c-.816.503-1.77.764-2.761.764h-31.808v5.67h-15.928v-17.982h12.531.009 49.776z" fill="#ff8b78"/><path d="m186.686 61.614v7.914c0 2.425-2.211 4.398-4.93 4.398h-2.097v5.67h-3.421s-.005 0-.009 0h-15.482v-2.823h-1.718v-2.847h-34.854l-3.165-1.922-2.301-1.4 1.124-.683 1.253-.764 12.398-7.544h53.202z" fill="#ff8b78"/><path d="m234.883 29.089c-.014.014-.033.024-.047.033l-14.969 9.361c-.797.503-1.732.764-2.704.764h-39.053v5.67h-7.682v-17.982h4.356.005 15.102.009.01 41.53z" fill="#ff8b78"/><g fill="#ffe471"><path d="m133.261 236.977c.052-.033.085-.085.1-.147l1.072-5.532c-.688 1.2-1.31 2.439-1.855 3.706l-5.869-.522-.242-.024c-1.49-.133-2.937.323-4.085 1.281s-1.85 2.306-1.983 3.796l-1.077 12.108-.019.213c-.066.731.014 1.438.214 2.097l4.564-3.084c.109-.076.138-.218.066-.323l-2.126-3.141-.901-1.333c-.92-1.376-.845-3.17.185-4.474.916-1.153 1.737-2.396 2.444-3.691.617-1.139 1.737-1.86 2.965-1.969.356-.038.716-.019 1.077.052l5.295 1.025c.066.009.123 0 .175-.038z"/><path d="m135.278 226.937c.024-.128-.062-.247-.19-.27l-3.554-.688 3.193 3.81z"/><path d="m163.309 105.977h14.708v11.387h-14.708z"/><path d="m165.516 76.773h9.812v4.194h-9.812z"/><path d="m165.516 41.62h9.812v7.634h-9.812z"/><path d="m175.328 8.725c0-.802-.555-1.457-1.243-1.457h-7.326c-.688 0-1.243.655-1.243 1.457v5.376h9.812z"/><path d="m213.2 243.833c-.266-.318-.564-.608-.887-.854-.835-.646-1.836-1.039-2.909-1.13l-6.111-.546c-.408-1.751-.953-3.478-1.613-5.157l4.702-3.934c1.144-.959 1.851-2.306 1.983-3.795.009-.114.019-.228.019-.342.043-1.366-.412-2.681-1.3-3.743l-7.938-9.489c-.959-1.148-2.306-1.851-3.792-1.984-1.49-.133-2.941.323-4.09 1.281l-4.702 3.934c-1.537-.949-3.146-1.789-4.787-2.501l.54-6.111c.238-2.657-1.438-5.058-3.885-5.831-1.314.93-2.633 2.324-3.905 4.308-.921 1.428-1.817 3.17-2.676 5.267-2.723 6.662-5.736 10.908-8.578 13.598-.29.276-.579.536-.864.779l-.45-.536c-3.288.703-6.467 2.13-9.29 4.298-.48-.042-.745-.109-.745-.109s-.104.346-.29.953c-.721.617-1.39 1.272-2.016 1.955l1.034 1.239c-1.304 4.156-3.364 10.528-5.034 14.779l-2.088-.186c.005 1.329.119 2.662.352 3.976v.005c-2.349 3.739-.973 10.49-.498 12.388.285 1.139-4.208 7.397-7.852 12.227-1.13 1.494-2.173 2.851-2.975 3.876l2.078 2.482c1.978 2.363 5.513 2.681 7.881.702l2.324-1.945 2.377-1.988c1.528.944 3.136 1.784 4.792 2.501l-.546 6.107c-.043.455-.028.906.043 1.347.148 1.001.574 1.941 1.239 2.738.958 1.148 2.306 1.85 3.795 1.983l12.322 1.1c.166.015.332.024.498.024.323 0 .636-.029.944-.081 2.439-.422 4.394-2.444 4.626-5.02l.546-6.111c1.746-.408 3.478-.954 5.152-1.613l3.938 4.702c.959 1.148 2.306 1.85 3.792 1.983 1.49.138 2.941-.322 4.085-1.281l9.489-7.933c2.368-1.978 2.681-5.518.703-7.885l-1.803-2.154-2.131-2.548c.949-1.528 1.789-3.136 2.505-4.788l2.334.209 3.772.332c3.075.284 5.794-2.002 6.068-5.077l.427-4.788.674-7.529c.13-1.489-.321-2.94-1.279-4.084zm-60.495-5.987c.674-.793 1.423-1.543 2.249-2.23 3.478-2.903 7.71-4.323 11.918-4.323 4.911 0 9.784 1.927 13.395 5.675.308.313.607.645.892.987 6.581 7.867 5.532 19.619-2.334 26.2-6.007 5.025-14.276 5.603-20.782 2.093-2.021-1.087-3.867-2.563-5.423-4.427-2.9-3.459-4.313-7.672-4.323-11.871-.014-4.342 1.481-8.66 4.408-12.104z"/><path d="m125.86 215.877c.067-.232.157-.46.265-.674-.08-.308-.189-.607-.327-.892-.655-1.385-1.941-2.453-3.559-2.766l-4.593-.892c-.175-1.262-.432-2.514-.769-3.748l1.859-1.253 2.022-1.366c1.105-.75 1.855-1.883 2.107-3.193.256-1.31-.015-2.643-.764-3.749l-5.641-8.35c-1.543-2.287-4.659-2.889-6.942-1.348l-3.876 2.619c-1.015-.764-2.088-1.471-3.198-2.112l.892-4.593c.526-2.705-1.248-5.333-3.958-5.86l-2.97-.574c-.607 1.547-1.309 3.037-2.068 4.455-3.763 7.012-9.001 12.36-11.525 14.581-.512.45-.911.769-1.167.949-.024.019-.053.038-.076.052-.005 0-.005.005-.009.005-1.552 1.035-4.612 1.334-6.344 2.577-.066.047-.137.105-.209.166-1.869 1.636-6.082 8.602-5.172 9.973.323.488.37 2.144.238 4.185l-1.58-.304c-.123-.023-.247.057-.271.186l-.427 2.206c.114 1.907.518 3.762 1.177 5.513-.318 1.367-.678 2.444-1.034 2.923-.793 1.058-5.576 5.219-9.566 8.939-1.3 1.215-2.514 2.377-3.478 3.373l2.705 4.005c1.547 2.287 4.659 2.889 6.946 1.348l3.876-2.619c.484.365.982.717 1.49 1.053l1.485 2.192-.674 3.455c-.252 1.314.019 2.643.769 3.753.745 1.105 1.879 1.855 3.194 2.112l9.888 1.912c.322.061.64.095.958.095 2.06 0 3.934-1.286 4.669-3.222.1-.266.18-.54.238-.83l.887-4.593c1.262-.175 2.519-.432 3.753-.764l2.619 3.877c1.542 2.282 4.654 2.885 6.941 1.342l8.351-5.641c1.945-1.31 2.671-3.758 1.893-5.865-.133-.374-.318-.735-.55-1.077l-2.619-3.876c.769-1.015 1.476-2.083 2.112-3.194l4.593.887c.232.043.465.076.697.085 1.082.062 2.14-.232 3.056-.849 1.105-.749 1.855-1.879 2.107-3.193l1.685-8.687.033-.172c-.014-.052-.033-.109-.047-.161-.03-.778-.059-1.58-.092-2.401zm-53.321-1.328c.019-.779.104-1.561.256-2.354.783-4.028 3.17-7.345 6.367-9.408 2.301-1.494 5.02-2.34 7.866-2.34.911 0 1.837.086 2.761.266 3.569.688 6.681 2.643 8.84 5.532.147.19.284.389.422.588 2.168 3.212 2.955 7.075 2.22 10.875-1.523 7.852-9.148 13.001-16.995 11.482-.873-.171-1.713-.413-2.511-.726-5.677-2.21-9.406-7.808-9.226-13.915z"/></g><path d="m147.291 211.251c.133.066.332.161.721-.142.356-.285.726-.555 1.106-.821-.826-.944-1.907-1.542-3.06-1.779.033 1.589.749 2.505 1.233 2.742z" fill="#6ea9ff"/><path d="m164.918 202.298c-2.439-.228-4.659 1.172-5.608 3.298 4.446-1.329 9.276-2.116 13.983-2.553l-8.37-.745z" fill="#6ea9ff"/><path d="m215.273 175.761-2.126 1.371v20.82c0 3.188-1.675 5.997-4.266 7.155-.313.138-.631.247-.949.332-1.372-.36-2.781-.683-4.204-.963 0-.005-.005-.005-.005-.005h-.005c-.028-.019-.057-.038-.085-.061-.085-.067-.172-.137-.262-.195-6.197-4.725-17.873-7.321-32.951-7.321-.607 0-1.21.005-1.808.014h-.133c-.64-.009-1.286-.014-1.94-.014-10.566 0-19.596 1.081-26.48 3.112v-14.604c0-4.147 4.161-8.355 11.42-11.548 7.976-3.511 18.632-5.442 30.01-5.442 9.513 0 18.532 1.352 25.896 3.853.242.08.479.166.717.246 1.182.418 2.31.864 3.397 1.343 1.373.602 2.635 1.243 3.774 1.907z" fill="#6ea9ff"/><path d="m235.134 160.17c.028.166.047.332.047.508v14.931l-2.737 3.658-.621.932-.543-16.303-12.543 8.411c-1.072-.826-2.114-.762-3.371-1.502-.346-.204-2.206 2.834-2.562 2.639l-.543-2.562-.299.124c-.323-1.172-.797-2.315-1.423-3.421-3.008-1.314-6.358-2.406-9.973-3.255-1.148-.788-2.425-1.537-3.824-2.244-7.544-3.805-17.636-5.898-28.406-5.898-10.766 0-20.853 2.092-28.402 5.898-6.87 3.464-10.808 8.023-10.808 12.517v.512l-22.751-16.839.802-.251.992-.308 80.764-26.119 56.462 17.081-5.276 3.815 3.796 1.186z" fill="#6ea9ff"/><path d="m234.836 24.231-14.443-9.366c-.773-.498-1.675-.764-2.609-.764h-37.687v-5.376c0-3.435-2.695-6.225-6.012-6.225h-7.325c-3.316 0-6.012 2.79-6.012 6.225v5.375h-1.969c-2.548 0-4.621 1.974-4.621 4.399v18.727c0 2.424 2.074 4.394 4.621 4.394h1.969v7.634h-37.688c-.935 0-1.836.261-2.609.764l-14.443 9.361c-1.262.821-2.016 2.178-2.016 3.635 0 1.452.755 2.813 2.016 3.629l14.443 9.362c.773.503 1.675.769 2.609.769h37.687v4.194h-9.603c-1.371 0-2.605.569-3.445 1.475-.736.779-1.177 1.799-1.177 2.923v18.728c0 2.424 2.074 4.393 4.621 4.393h9.603v7.871c0 1.319 1.067 2.387 2.382 2.387.959 0 1.784-.565 2.164-1.381.143-.304.223-.645.223-1.006v-7.871h9.813v8.412c0 .157.014.314.047.465.213 1.091 1.182 1.917 2.339 1.917 1.314 0 2.382-1.067 2.382-2.382v-8.412h30.053c.935 0 1.836-.261 2.609-.764l14.443-9.362c.014-.009.033-.019.047-.033 1.234-.821 1.969-2.164 1.969-3.601 0-1.452-.754-2.809-2.016-3.63l-14.443-9.365c-.773-.498-1.674-.764-2.609-.764h-30.053v-4.194h1.969c2.548 0 4.621-1.974 4.621-4.399v-18.727c0-2.424-2.074-4.393-4.621-4.393h-1.969v-7.635h37.687c.939 0 1.841-.261 2.609-.764l14.443-9.362c.014-.009.033-.019.047-.033 1.234-.821 1.969-2.164 1.969-3.601.001-1.452-.754-2.809-2.015-3.629zm-69.321-15.506c0-.802.556-1.457 1.244-1.457h7.325c.689 0 1.244.655 1.244 1.457v5.375h-9.813zm-6.59 28.126v-17.982h4.204.005 14.571.009.009 40.073l12.445 8.066 1.428.925-2.23 1.448-11.628 7.543zm16.403 12.403h-9.813v-7.634h9.813zm0 31.714h-9.813v-4.194h9.813zm34.835 4.768 11.715 7.592 2.159 1.4-2.23 1.447-11.629 7.544h-58.887v-17.983h11.838.009zm-28.245-31.713v17.982h-18.789s-.005 0-.009 0h-40.073l-3.212-2.083-10.661-6.908 13.86-8.991z" fill="#160f60"/><path d="m221.878 93.327h-47.926c-.005 0-.005 0-.009 0h-12.531v10.391h-10.12v-17.982h11.838.01 47.024z" fill="#fff"/><path d="m181.918 54.022v7.592h-48.434l-12.397 7.544-1.253.764-10.661-6.908 13.859-8.992z" fill="#fff"/><path d="m230.242 26.935h-40.334c-.005 0-.005 0-.01 0s-.009 0-.009 0h-15.102s0 0-.005 0h-4.356v9.916h-11.501v-17.982h4.204.005 14.571.009.01 40.074z" fill="#fff"/><path d="m252.192 148.195c-.148-.902-.797-1.642-1.675-1.898l-79.417-23.595c-.052-.014-.104-.019-.157-.029-.095-.023-.189-.047-.289-.057-.076-.005-.148 0-.224 0-.081 0-.161-.005-.241.005-.095.005-.181.029-.271.047-.057.014-.119.019-.175.033l-79.416 23.595c-.878.256-1.528.996-1.675 1.898-.147.906.237 1.812.987 2.339l37.886 26.598v20.82c0 3.188 1.543 5.997 3.934 7.155 1.889.916 4.038.655 5.751-.697 2.23-1.761 5.214-3.236 8.844-4.403 5.907-1.893 13.537-2.961 22.428-3.098h.133c.599-.009 1.201-.014 1.808-.014 15.078 0 26.755 2.595 32.951 7.321.09.057.176.128.262.195.028.023.057.043.085.061h.005s.005 0 .005.005c1.015.773 2.173 1.171 3.34 1.171.484 0 .973-.071 1.448-.209.293-.085.588-.194.873-.332 2.386-1.158 3.929-3.966 3.929-7.155v-20.82l1.955-1.371 4.156-2.918 10.851-7.62.375-.261v28.989l-12.288 23.918c-.38.735-.347 1.622.085 2.33.436.712 1.205 1.144 2.035 1.144h25.104c.831 0 1.599-.432 2.035-1.144.432-.707.465-1.595.085-2.33l-12.289-23.918v-31.836c0-.161-.019-.318-.047-.47l8.536-5.988 7.297-5.124c.743-.525 1.127-1.431.981-2.337zm-81.77-20.721 16.293 4.84.991.294 56.641 16.826.088.026-4.318 3.032-2.04 1.433-22.841 16.036-.233.166-2.158 1.514c-.1-.346-.219-.688-.352-1.029-.275-.721-.621-1.433-1.034-2.126-5.314-8.944-21.446-15.283-41.037-15.283-21.821 0-39.357 7.866-42.422 18.438l-17.053-11.975-2.781-1.95-11.757-8.256zm0 64.652c-7.392 0-16.455.607-24.369 2.884-2.092.603-4.109 1.319-5.992 2.183-2.136.973-4.095 2.121-5.808 3.478-.389.304-.588.209-.721.142-.498-.241-1.238-1.2-1.238-2.861v-22.988c0-4.147 3.829-8.355 10.509-11.548 7.34-3.511 17.147-5.442 27.619-5.442s20.284 1.931 27.619 5.442c1.362.65 2.605 1.343 3.719 2.069 3.174 2.063 5.324 4.393 6.254 6.78.033.08.061.166.09.246.299.817.446 1.633.446 2.453v22.988c0 1.661-.74 2.619-1.238 2.861-.133.067-.332.161-.717-.142-8.925-7.061-24.596-8.545-36.173-8.545zm71.265 24.449h-17.294l8.644-16.83z" fill="#160f60"/><path d="m208.104 172.511c-.237-.081-.474-.166-.716-.247-7.364-2.5-16.383-3.853-25.896-3.853-11.378 0-22.034 1.931-30.01 5.442-7.259 3.193-11.42 7.402-11.42 11.548v11.791c-2.135.973-4.095 2.121-5.807 3.478-.389.304-.588.209-.721.142-.498-.242-1.238-1.2-1.238-2.861v-22.988c0-4.147 3.829-8.355 10.509-11.548 7.34-3.511 17.147-5.442 27.619-5.442s20.283 1.931 27.619 5.442c1.362.65 2.605 1.343 3.72 2.069 3.174 2.064 5.324 4.394 6.253 6.78.031.081.059.167.088.247z" fill="#fff"/><path d="m126.125 215.204c-.08-.308-.189-.607-.327-.892-.655-1.385-1.941-2.453-3.559-2.766l-4.593-.892c-.175-1.262-.432-2.514-.769-3.748l1.859-1.253 2.022-1.366c1.105-.75 1.855-1.883 2.107-3.193.256-1.31-.015-2.643-.764-3.749l-5.641-8.35c-1.543-2.287-4.659-2.889-6.942-1.348l-3.876 2.619c-1.015-.764-2.088-1.471-3.198-2.112l.892-4.593c.526-2.705-1.248-5.333-3.958-5.86l-2.97-.574-6.927-1.343c-1.31-.251-2.643.019-3.748.769-1.105.749-1.855 1.883-2.107 3.193l-.892 4.593c-1.262.175-2.519.432-3.748.764l-2.624-3.876c-1.542-2.287-4.655-2.889-6.936-1.343l-8.351 5.637c-1.11.75-1.86 1.883-2.112 3.193-.256 1.314.015 2.643.764 3.753l2.619 3.876c-.769 1.02-1.476 2.088-2.112 3.193l-4.593-.892c-2.709-.517-5.333 1.258-5.86 3.962l-1.912 9.888c-.256 1.314.014 2.648.764 3.753.744 1.11 1.883 1.86 3.188 2.111l4.593.887c.18 1.267.436 2.525.769 3.753l-3.876 2.619c-1.105.749-1.855 1.879-2.112 3.193-.252 1.31.019 2.643.764 3.748l2.937 4.346 2.705 4.005c1.547 2.287 4.659 2.889 6.946 1.348l3.876-2.619c.484.365.982.717 1.49 1.053.555.37 1.125.721 1.703 1.058l-.218 1.133-.674 3.455c-.252 1.314.019 2.643.769 3.753.745 1.105 1.879 1.855 3.194 2.112l9.888 1.912c.322.061.64.095.958.095 2.06 0 3.934-1.286 4.669-3.222.1-.266.18-.54.238-.83l.887-4.593c1.262-.175 2.519-.432 3.753-.764l2.619 3.877c1.542 2.282 4.654 2.885 6.941 1.342l8.351-5.641c1.945-1.31 2.671-3.758 1.893-5.865-.133-.374-.318-.735-.55-1.077l-2.619-3.876c.769-1.015 1.476-2.083 2.112-3.194l4.593.887c.232.043.465.076.697.085 1.082.062 2.14-.232 3.056-.849 1.105-.749 1.855-1.879 2.107-3.193l1.685-8.687.033-.172.2-1.039c.146-.752.113-1.497-.073-2.194zm-4.607 1.295-1.485 7.672-.432 2.221c-.015.061-.047.113-.1.147-.052.038-.109.047-.175.038l-5.294-1.025c-1.623-.323-3.25.451-4.043 1.917-.706 1.296-1.528 2.539-2.443 3.691-1.03 1.305-1.105 3.098-.186 4.475l3.028 4.474c.071.104.043.247-.067.322l-5.684 3.839-2.662 1.798c-.109.071-.256.047-.327-.061l-.907-1.343-2.111-3.132c-.925-1.366-2.619-1.969-4.219-1.499-1.414.418-2.875.717-4.336.887-.189.024-.37.057-.546.104-1.395.37-2.467 1.491-2.747 2.928l-.603 3.117-.422 2.182c-.023.123-.147.209-.27.186l-8.45-1.637-1.442-.279c-.061-.015-.114-.048-.152-.1-.033-.052-.047-.109-.033-.171l1.025-5.3c.318-1.622-.456-3.25-1.917-4.042-.304-.166-.608-.337-.902-.517-.977-.579-1.912-1.229-2.794-1.927-.698-.55-1.528-.825-2.363-.825-.735 0-1.466.213-2.107.645l-4.474 3.022c-.105.071-.252.043-.323-.066l-3.179-4.707-2.462-3.639c-.033-.052-.047-.113-.033-.175.009-.061.043-.113.095-.147l4.479-3.022c1.366-.925 1.97-2.619 1.495-4.219-.413-1.409-.712-2.871-.883-4.336-.195-1.656-1.414-2.975-3.032-3.288l-5.305-1.029c-.061-.014-.109-.043-.142-.095-.038-.052-.047-.114-.038-.175l1.917-9.893c.024-.128.148-.209.271-.186l5.299 1.025c1.619.318 3.241-.45 4.043-1.917.702-1.295 1.528-2.538 2.438-3.691 1.035-1.304 1.11-3.103.186-4.469l-3.023-4.479c-.038-.053-.047-.109-.038-.175.015-.057.048-.109.1-.148l8.351-5.641c.104-.071.251-.043.322.062l3.022 4.479c.921 1.366 2.615 1.964 4.218 1.499 1.414-.417 2.87-.716 4.341-.887 1.651-.199 2.97-1.418 3.283-3.031l1.03-5.3c0-.005 0-.005 0-.005.009-.061.043-.109.095-.142.052-.038.109-.053.171-.038l5.765 1.115 4.128.802c.128.023.213.148.189.27l-1.029 5.305c-.313 1.623.46 3.246 1.921 4.038.717.389 1.419.816 2.098 1.276.546.365 1.081.758 1.598 1.167 1.305 1.029 3.098 1.105 4.465.18l3.074-2.078 1.4-.944c.109-.071.252-.043.323.061l5.641 8.351c.037.053.047.114.037.175-.014.062-.047.109-.099.148l-3.876 2.619-.598.403c-1.372.925-1.974 2.624-1.5 4.218.262.883.475 1.785.64 2.695.1.546.186 1.096.247 1.647.195 1.656 1.414 2.975 3.028 3.283l1.262.247 4.038.783c.128.02.214.139.19.267z" fill="#160f60"/><path d="m94.341 181.583c-3.763 7.013-9.001 12.36-11.525 14.58-2.78.622-5.376 1.855-7.596 3.582-.066.048-.138.104-.209.166-3.459 2.757-5.993 6.704-6.899 11.378-.318 1.642-.418 3.274-.313 4.868.114 1.907.517 3.762 1.177 5.513-.318 1.367-.678 2.444-1.034 2.923-.792 1.058-5.575 5.219-9.565 8.939l-2.462-3.639c-.033-.052-.047-.114-.033-.175.009-.062.043-.114.095-.147l4.479-3.022c1.366-.925 1.969-2.619 1.495-4.218-.413-1.409-.712-2.871-.882-4.337-.195-1.656-1.414-2.975-3.032-3.288l-5.305-1.03c-.062-.014-.109-.043-.142-.095-.038-.052-.047-.114-.038-.176l1.917-9.893c.024-.128.147-.209.27-.185l5.3 1.025c1.618.318 3.241-.451 4.042-1.917.702-1.295 1.528-2.538 2.439-3.691 1.034-1.305 1.11-3.103.185-4.469l-3.022-4.479c-.038-.052-.047-.109-.038-.175.014-.057.047-.109.1-.147l8.351-5.641c.104-.071.251-.043.323.062l3.022 4.479c.92 1.367 2.614 1.964 4.218 1.499 1.414-.418 2.871-.716 4.341-.887 1.651-.199 2.97-1.419 3.283-3.032l1.03-5.3c0-.005 0-.005 0-.005.009-.062.043-.109.095-.142.052-.038.109-.052.171-.038z" fill="#fff"/><path d="m213.2 243.833c-.266-.318-.564-.608-.887-.854-.835-.646-1.836-1.039-2.909-1.13l-6.111-.546c-.408-1.751-.953-3.478-1.613-5.157l4.702-3.934c1.144-.959 1.851-2.306 1.983-3.795.009-.114.019-.228.019-.342.043-1.366-.412-2.681-1.3-3.743l-7.938-9.489c-.959-1.148-2.306-1.851-3.792-1.984-1.49-.133-2.941.323-4.09 1.281l-4.702 3.934c-1.537-.949-3.146-1.789-4.787-2.501l.54-6.111c.238-2.657-1.438-5.058-3.885-5.831-.38-.119-.779-.2-1.191-.238l-3.948-.351-8.369-.745h-.005c-2.438-.227-4.659 1.172-5.608 3.298-.241.55-.403 1.148-.46 1.779l-.54 6.106c-1.751.412-3.478.953-5.158 1.618l-3.934-4.702c-.033-.038-.061-.076-.099-.109-.825-.944-1.907-1.542-3.06-1.779-1.613-.332-3.359.042-4.721 1.181l-9.49 7.938c-1.148.959-1.85 2.306-1.983 3.796-.134 1.49.322 2.941 1.281 4.085l.389.47 3.193 3.81.351.422c-.223.356-.436.721-.645 1.086-.688 1.201-1.31 2.439-1.855 3.706l-5.869-.522-.242-.023c-1.49-.133-2.937.322-4.085 1.281s-1.85 2.306-1.983 3.795l-1.078 12.109-.019.213c-.067.73.014 1.438.213 2.097.636 2.13 2.519 3.763 4.858 3.972l6.111.545c.413 1.751.954 3.483 1.618 5.158l-4.707 3.934c-2.367 1.978-2.681 5.513-.702 7.88l5.86 7.008 2.078 2.482c1.978 2.363 5.513 2.681 7.881.702l2.324-1.945 2.377-1.988c1.528.944 3.136 1.784 4.792 2.501l-.546 6.107c-.043.455-.028.906.043 1.347.148 1.001.574 1.941 1.239 2.738.958 1.148 2.306 1.85 3.795 1.983l12.322 1.1c.166.015.332.024.498.024.323 0 .636-.029.944-.081 2.439-.422 4.394-2.444 4.626-5.02l.546-6.111c1.746-.408 3.478-.954 5.152-1.613l3.938 4.702c.959 1.148 2.306 1.85 3.792 1.983 1.49.138 2.941-.322 4.085-1.281l9.489-7.933c2.368-1.978 2.681-5.518.703-7.885l-1.803-2.154-2.131-2.548c.949-1.528 1.789-3.136 2.505-4.788l2.334.209 3.772.332c3.075.284 5.794-2.002 6.068-5.077l.427-4.788.674-7.529c.132-1.49-.319-2.941-1.277-4.085zm-3.474 3.663-1.096 12.317c-.038.456-.441.783-.897.75l-3.725-.332-2.875-.256c-1.789-.152-3.45.859-4.147 2.525-.712 1.698-1.57 3.344-2.557 4.896-.973 1.523-.854 3.469.294 4.844l3.202 3.824 1.049 1.258c.294.351.247.873-.105 1.167l-9.484 7.933c-.228.189-.479.199-.602.189-.128-.009-.37-.061-.565-.294l-2.638-3.155-1.613-1.926c-1.148-1.371-3.041-1.836-4.711-1.148-1.703.697-3.478 1.252-5.271 1.651-.479.109-.921.294-1.319.545-1.067.664-1.784 1.794-1.898 3.089l-.588 6.605c-.009.109-.043.214-.095.304-.147.285-.46.47-.802.446l-12.322-1.101c-.299-.024-.479-.195-.56-.29-.081-.1-.218-.308-.19-.602l.081-.892.508-5.713c.157-1.784-.854-3.449-2.524-4.147-1.699-.711-3.35-1.57-4.897-2.557-.023-.014-.043-.029-.066-.038-.669-.413-1.419-.616-2.164-.616-.935 0-1.86.322-2.61.953l-5.086 4.251c-.351.29-.873.242-1.162-.104l-2.761-3.298-5.176-6.192c-.294-.351-.247-.873.105-1.167l5.081-4.251c1.376-1.144 1.837-3.042 1.148-4.711-.697-1.703-1.252-3.478-1.651-5.272-.389-1.769-1.85-3.06-3.634-3.216l-6.6-.588c-.455-.043-.792-.442-.749-.897l.83-9.319.266-3.004c.029-.294.195-.479.294-.56.1-.081.309-.213.603-.189l.241.023 6.363.565c1.779.156 3.445-.855 4.142-2.525.712-1.694 1.571-3.34 2.557-4.892.973-1.528.854-3.473-.294-4.844l-4.251-5.086c-.19-.227-.2-.474-.19-.602s.067-.37.294-.56l9.485-7.938c.351-.29.873-.242 1.167.104l4.257 5.091c1.144 1.366 3.036 1.827 4.706 1.144 1.709-.703 3.483-1.258 5.277-1.656 1.765-.394 3.056-1.855 3.217-3.635l.583-6.599c.043-.456.442-.788.897-.75l10.031.892 2.292.204c.455.043.792.446.749.897l-.588 6.599c-.071.812.099 1.604.47 2.287.432.817 1.148 1.48 2.054 1.865 1.689.703 3.34 1.566 4.896 2.553 1.523.973 3.469.855 4.844-.293l2.003-1.675 3.084-2.577c.224-.189.47-.199.598-.189.128.009.37.066.561.294l7.938 9.489c.189.228.199.474.189.603-.009.128-.066.37-.294.56l-5.082 4.251-.014.014c-1.366 1.153-1.817 3.037-1.134 4.698.698 1.708 1.253 3.483 1.651 5.271.389 1.765 1.851 3.06 3.635 3.222l6.599.588c.299.023.48.194.565.29.077.097.21.306.181.605z" fill="#160f60"/><path d="m174.526 207.94c-.92 1.428-1.817 3.17-2.676 5.267-2.723 6.662-5.736 10.908-8.578 13.598-.441.066-.878.147-1.314.242-3.288.702-6.467 2.13-9.29 4.299-.479-.043-.745-.109-.745-.109s-.104.346-.289.954c-.721.617-1.39 1.272-2.016 1.955-4.038 4.422-6.102 10.116-6.087 15.833.005 1.329.119 2.662.351 3.976v.005c-2.349 3.739-.973 10.49-.498 12.388.285 1.139-4.209 7.397-7.852 12.227l-5.176-6.192c-.294-.351-.247-.873.104-1.167l5.082-4.251c1.376-1.143 1.836-3.041 1.148-4.711-.697-1.703-1.253-3.478-1.651-5.271-.389-1.77-1.85-3.06-3.634-3.217l-6.6-.588c-.455-.043-.792-.441-.75-.897l.83-9.319.266-3.003c.028-.294.195-.479.294-.56.1-.081.308-.213.603-.19l.242.024 6.363.565c1.779.157 3.445-.854 4.142-2.524.712-1.694 1.57-3.34 2.557-4.892.973-1.528.854-3.473-.294-4.844l-4.251-5.086c-.19-.228-.199-.474-.19-.603.009-.128.066-.37.294-.56l9.485-7.938c.351-.289.873-.242 1.167.104l4.256 5.091c1.143 1.366 3.037 1.827 4.707 1.143 1.708-.702 3.483-1.257 5.276-1.656 1.765-.394 3.056-1.855 3.217-3.634l.584-6.6c.043-.455.441-.788.897-.75z" fill="#fff"/><path d="m186.9 237.817c-.607-1.011-1.3-1.988-2.083-2.923-2.737-3.274-6.192-5.613-9.945-6.97-3.711-1.338-7.706-1.723-11.6-1.12-.442.067-.878.148-1.314.242-3.288.703-6.467 2.13-9.29 4.298-.261.195-.517.399-.769.613-.09.076-.175.151-.266.232-.721.617-1.39 1.272-2.016 1.955-4.038 4.423-6.102 10.116-6.088 15.833.005 1.329.119 2.662.352 3.976v.005c.683 3.9 2.368 7.677 5.081 10.923 3.156 3.771 7.255 6.296 11.672 7.51 2.046.57 4.156.855 6.277.855 5.286 0 10.604-1.779 14.974-5.433 8.948-7.483 10.87-20.303 5.015-29.996zm-8.076 26.337c-6.007 5.025-14.276 5.603-20.782 2.093-2.021-1.087-3.867-2.563-5.423-4.427-2.9-3.459-4.313-7.672-4.323-11.871-.015-4.341 1.48-8.659 4.408-12.104.674-.793 1.423-1.543 2.249-2.23 3.478-2.903 7.71-4.323 11.918-4.323 4.911 0 9.784 1.927 13.395 5.675.308.313.607.645.892.987 6.582 7.867 5.533 19.619-2.334 26.2z" fill="#160f60"/><path d="m104.324 206.445c-.384-.783-.826-1.547-1.324-2.282-1.286-1.912-2.875-3.539-4.693-4.849-2.235-1.618-4.82-2.743-7.61-3.283-1.21-.233-2.42-.347-3.611-.352-1.324-.005-2.633.128-3.905.399-.123.023-.247.052-.366.085-2.78.621-5.376 1.855-7.596 3.582-.066.047-.137.105-.209.166-3.458 2.757-5.992 6.704-6.898 11.378-.318 1.642-.418 3.274-.314 4.868.114 1.907.518 3.762 1.177 5.513.418 1.13.944 2.212 1.566 3.232 1.182 1.964 2.714 3.715 4.527 5.152 2.348 1.865 5.162 3.212 8.303 3.819.047.009.095.019.143.029 1.181.218 2.362.322 3.525.322 9.039 0 17.128-6.41 18.912-15.609.811-4.18.233-8.417-1.627-12.17zm-3.051 11.264c-1.523 7.852-9.148 13.001-16.995 11.482-.873-.171-1.713-.413-2.511-.726-5.679-2.211-9.408-7.81-9.228-13.916.019-.779.104-1.561.256-2.354.783-4.028 3.17-7.345 6.367-9.408 2.301-1.494 5.02-2.34 7.866-2.34.911 0 1.837.086 2.761.266 3.569.688 6.681 2.643 8.84 5.532.147.19.284.389.422.588 2.17 3.213 2.957 7.076 2.222 10.876z" fill="#160f60"/></g></svg>