<svg id="&#x428;&#x430;&#x440;_1" enable-background="new 0 0 300 300" viewBox="0 0 300 300" xmlns="http://www.w3.org/2000/svg"><g><path d="m262.103 214.944-2.715 1.73-33.325-13.872-43.259 18.008-9.209-5.866 44.254-18.423z" fill="#fff"/><path d="m248.821 157.243v-94.949h-207.312v220.401h-3.435v6.281l54.464.015v-5.861h81.696c-2.648-1.952-5.155-4.078-7.513-6.363h-61.571v-4.856h-3.358v-40.679h-2.401v-6.281h-26.263v-3.933c0-.319.029-.633.092-.937l71.177.014c.019-.343.039-.691.063-1.034.01-.159.019-.324.034-.483.029-.396.063-.788.097-1.184.034-.416.077-.831.121-1.247h4.88c.807-7.093 2.696-13.867 5.503-20.144v-10.383c-1.213 1.976-2.334 4.015-3.358 6.112l.014-24.942h19.863c-.575.464-1.14.937-1.701 1.425h7.813c11.297-8.156 25.159-12.969 40.123-12.969 5.383 0 10.62.623 15.645 1.797 6.518.662 12.785 2.174 18.689 4.426v-2.556c-1.106-.583-2.227-1.138-3.362-1.67zm-46.685-83.246h20.719l.014.015v1.411l-.014 24.106-17.375-.015h-3.358zm0 43.08h20.719l.014.015v1.411l-.014 24.106-17.375-.015h-3.358zm-50.385-43.08h20.714l.014.015v1.411l-.014 24.106-17.37-.015h-3.358zm0 43.08h20.714l.014.015v1.411l-.014 24.106-17.37-.015h-3.358zm-100.776-43.08h20.719l.015.015v1.411l-.015 24.106-17.375-.015h-3.359zm0 43.08h20.719l.015.015v1.411l-.015 24.106-17.375-.015h-3.359zm0 49.714h20.719l.015.014v1.411l-.015 24.106-17.375-.015h-3.359zm0 68.278h20.719l.015.015v1.411l-.016 24.105-17.375-.014h-3.358zm50.39-161.072h20.714l.015.015v1.411l-.015 24.106-17.37-.015h-3.358zm0 43.08h20.714l.015.015v1.411l-.015 24.106-17.37-.015h-3.358zm0 49.714h20.714l.015.014v1.411l-.015 24.106-17.37-.015h-3.358zm75.482-3.88c-.445-.589-1.145-.976-1.937-.976h1.15c.556 0 1.063.193 1.469.522-.228.15-.455.299-.682.454zm57.677-10.611c-.884.894-2.107 1.445-3.455 1.445h-20.719c-1.754 0-3.29-.933-4.141-2.324.188-.034.382-.068.57-.097 3.677-.604 7.455-.923 11.297-.932.353 0 .705.005 1.058.01 5.339.058 10.543.715 15.549 1.899 3.179.754 6.281 1.72 9.287 2.889-3.059-1.169-6.209-2.136-9.446-2.89z" fill="#ffe471"/><path d="m155.317 210.098c.643-2.261 1.387-4.474 2.237-6.639h-.034c-.116 0-.232-.01-.343-.029-.735 2.175-1.358 4.397-1.86 6.668z" fill="#ffe471"/><path d="m184.93 169.033c.043.048.087.106.13.159 1.01-.681 2.039-1.338 3.088-1.967-1.092.571-2.164 1.175-3.218 1.808z" fill="#ffe471"/><path d="m248.115 41.914h-205.973l17.452-4.856 82.841-23.052c1.764-.493 3.624-.493 5.387 0l82.841 23.052z" fill="#6ea9ff"/><path d="m244.525 231.899-.208.135v11.756c0 1.643-.594 3.155-1.59 4.189-3.498-1.271-7.509-1.904-11.292-2.184h-.005c-3.571-1.058-8.19-1.619-13.582-1.619-5.296 0-9.852.541-13.398 1.565v-9.311c0-4.291 8.876-9.074 21.612-9.074 5.189 0 9.741.792 13.307 2.025v.005c2.074.711 3.813 1.571 5.156 2.513z" fill="#6ea9ff"/><path d="m264.853 218.95-7.417 4.725v5.759l-4.856 3.092v-5.755l-3.725 2.372c-1.218-1.092-2.715-2.073-4.44-2.928l-.831.527c-.184-.411-.396-.812-.643-1.203-3.682-1.565-8.233-2.595-13.326-2.928h-.005s-.005 0-.01 0c-3.3-.952-7.286-1.536-11.751-1.536-12.737 0-21.612 4.784-21.612 9.074v.266l-14.428-9.19.995-.416 49.559-20.487 31.89 13.529z" fill="#6ea9ff"/><path d="m71.693 161.935h-20.718c-2.686 0-4.87 2.184-4.87 4.87v25.502c0 2.682 2.184 4.87 4.87 4.87h20.719c2.686 0 4.87-2.189 4.87-4.87v-25.502c0-2.686-2.184-4.87-4.871-4.87zm.015 6.281-.015 24.106-17.375-.015h-3.358l.015-25.516h20.719l.015.014v1.411z" fill="#160f60"/><path d="m122.079 161.935h-20.714c-2.686 0-4.87 2.184-4.87 4.87v25.502c0 2.682 2.184 4.87 4.87 4.87h20.714c2.686 0 4.87-2.189 4.87-4.87v-25.502c0-2.686-2.184-4.87-4.87-4.87zm.014 6.281-.015 24.106-17.37-.015h-3.358l.015-25.516h20.714l.015.014v1.411z" fill="#160f60"/><path d="m71.693 112.221h-20.718c-2.686 0-4.87 2.184-4.87 4.87v25.502c0 2.682 2.184 4.87 4.87 4.87h20.719c2.686 0 4.87-2.189 4.87-4.87v-25.502c0-2.686-2.184-4.87-4.871-4.87zm.015 6.281-.015 24.106-17.375-.015h-3.358l.015-25.517h20.719l.015.015v1.411z" fill="#160f60"/><path d="m122.079 112.221h-20.714c-2.686 0-4.87 2.184-4.87 4.87v25.502c0 2.682 2.184 4.87 4.87 4.87h20.714c2.686 0 4.87-2.189 4.87-4.87v-25.502c0-2.686-2.184-4.87-4.87-4.87zm.014 6.281-.015 24.106-17.37-.015h-3.358l.015-25.517h20.714l.015.015v1.411z" fill="#160f60"/><path d="m172.465 112.221h-20.714c-2.686 0-4.87 2.184-4.87 4.87v25.502c0 2.682 2.184 4.87 4.87 4.87h20.714c2.686 0 4.87-2.189 4.87-4.87v-25.502c0-2.686-2.184-4.87-4.87-4.87zm.014 6.281-.014 24.106-17.37-.015h-3.358l.014-25.517h20.714l.014.015z" fill="#160f60"/><path d="m222.855 112.221h-20.719c-2.686 0-4.87 2.184-4.87 4.87v25.502c0 2.682 2.184 4.87 4.87 4.87h20.719c2.682 0 4.87-2.189 4.87-4.87v-25.502c0-2.686-2.188-4.87-4.87-4.87zm.014 6.281-.014 24.106-17.375-.015h-3.358l.015-25.517h20.719l.014.015v1.411z" fill="#160f60"/><path d="m71.693 69.141h-20.718c-2.686 0-4.87 2.184-4.87 4.87v25.502c0 2.686 2.184 4.87 4.87 4.87h20.719c2.686 0 4.87-2.184 4.87-4.87v-25.502c0-2.686-2.184-4.87-4.871-4.87zm.015 6.281-.015 24.106-17.375-.015h-3.358l.015-25.516h20.719l.015.015v1.41z" fill="#160f60"/><path d="m122.079 69.141h-20.714c-2.686 0-4.87 2.184-4.87 4.87v25.502c0 2.686 2.184 4.87 4.87 4.87h20.714c2.686 0 4.87-2.184 4.87-4.87v-25.502c0-2.686-2.184-4.87-4.87-4.87zm.014 6.281-.015 24.106-17.37-.015h-3.358l.015-25.516h20.714l.015.015v1.41z" fill="#160f60"/><path d="m172.465 69.141h-20.714c-2.686 0-4.87 2.184-4.87 4.87v25.502c0 2.686 2.184 4.87 4.87 4.87h20.714c2.686 0 4.87-2.184 4.87-4.87v-25.502c0-2.686-2.184-4.87-4.87-4.87zm.014 6.281-.014 24.106-17.37-.015h-3.358l.014-25.516h20.714l.014.015z" fill="#160f60"/><path d="m222.855 69.141h-20.719c-2.686 0-4.87 2.184-4.87 4.87v25.502c0 2.686 2.184 4.87 4.87 4.87h20.719c2.682 0 4.87-2.184 4.87-4.87v-25.502c0-2.686-2.188-4.87-4.87-4.87zm.014 6.281-.014 24.106-17.375-.015h-3.358l.015-25.516h20.719l.014.015v1.41z" fill="#160f60"/><path d="m71.693 230.213h-20.718c-2.686 0-4.87 2.184-4.87 4.87v25.502c0 2.686 2.184 4.87 4.87 4.87h20.719c2.686 0 4.87-2.184 4.87-4.87v-25.502c0-2.686-2.184-4.87-4.871-4.87zm.015 6.281-.015 24.106-17.375-.014h-3.358l.015-25.517h20.719l.015.015v1.41z" fill="#160f60"/><path d="m217.849 150.392c-3.981 0-7.89.319-11.703.932.019.034.039.063.063.097.188-.034.382-.068.57-.097 3.677-.604 7.455-.923 11.297-.932zm0 0c-3.981 0-7.89.319-11.703.932.019.034.039.063.063.097.188-.034.382-.068.57-.097 3.677-.604 7.455-.923 11.297-.932zm0 0c-3.981 0-7.89.319-11.703.932.019.034.039.063.063.097.188-.034.382-.068.57-.097 3.677-.604 7.455-.923 11.297-.932zm0 0c-3.981 0-7.89.319-11.703.932.019.034.039.063.063.097.188-.034.382-.068.57-.097 3.677-.604 7.455-.923 11.297-.932zm0 0c-3.981 0-7.89.319-11.703.932.019.034.039.063.063.097.188-.034.382-.068.57-.097 3.677-.604 7.455-.923 11.297-.932zm0 0c-3.981 0-7.89.319-11.703.932.019.034.039.063.063.097.188-.034.382-.068.57-.097 3.677-.604 7.455-.923 11.297-.932zm0 0c-3.981 0-7.89.319-11.703.932.019.034.039.063.063.097.188-.034.382-.068.57-.097 3.677-.604 7.455-.923 11.297-.932zm0 0c-3.981 0-7.89.319-11.703.932.019.034.039.063.063.097.188-.034.382-.068.57-.097 3.677-.604 7.455-.923 11.297-.932zm0 0c-3.981 0-7.89.319-11.703.932.019.034.039.063.063.097.188-.034.382-.068.57-.097 3.677-.604 7.455-.923 11.297-.932zm34.335 8.523c-1.106-.585-2.227-1.14-3.363-1.672v-101.23h4.489c2.686 0 4.87-2.184 4.87-4.87v-9.229h4.624c1.213 0 2.242-.894 2.406-2.097s-.585-2.343-1.754-2.667l-122.548-34.103c-2.614-.73-5.378-.73-7.992 0l-122.543 34.103c-1.169.324-1.918 1.464-1.754 2.667s1.189 2.097 2.406 2.097h4.624v9.229c0 2.686 2.184 4.87 4.87 4.87h4.484v226.682c0 2.686 2.189 4.87 4.87 4.87h55.512c.387.266.86.42 1.367.42h94.954c10.683 6.054 23.014 9.514 36.142 9.514 40.558 0 73.554-32.996 73.554-73.554.001-28.163-15.915-52.675-39.218-65.03zm-117.963-151.191c1.764-.493 3.624-.493 5.387 0l105.415 29.334h-216.217zm-113.716 43.419v-9.229h232.814l-.005 9.243s0 0-.005 0zm63.818 225.638v5.929l-42.814-.014h-11.649v-226.683h214.11v99.177c-3.059-1.169-6.209-2.136-9.446-2.889-4.957-1.155-10.103-1.807-15.389-1.899-.353-.005-.705-.01-1.058-.01h-.227c-3.981 0-7.89.319-11.703.932-10.432 1.677-20.134 5.547-28.619 11.132-.227.15-.454.3-.681.454-.445-.589-1.145-.976-1.937-.976h-23.159c-2.686 0-4.87 2.184-4.87 4.87v27.942c0 1.343 1.087 2.43 2.426 2.43h.034c-1.594 4.063-2.831 8.311-3.687 12.688h-75.869c-2.682 0-4.87 2.184-4.87 4.87v5.344c0 2.686 2.189 4.87 4.87 4.87h27.15v46.96h-7.741c-2.687.003-4.871 2.192-4.871 4.873zm85.59-108.565c-5.793 4.986-10.804 10.857-14.819 17.404-1.213 1.976-2.334 4.015-3.358 6.112l.014-24.942h19.863c-.574.465-1.139.938-1.7 1.426zm-25.323 49.178c-.034.396-.068.788-.097 1.184-.015.159-.024.324-.034.483-.024.343-.043.691-.063 1.034l-71.177-.014h-3.45l.015-5.358h75.09c-.053.43-.106.865-.15 1.3-.005.044-.01.082-.014.126-.043.414-.086.83-.12 1.245zm17.544 54.517h-22.69v-46.96h4.866c.241 17.916 6.919 34.31 17.824 46.96zm-60.344-46.96h32.798v46.96h-32.798zm-12.606 58.179.01-6.363h77.526c2.358 2.285 4.866 4.411 7.513 6.363zm128.665 9.514c-37.881 0-68.698-30.817-68.698-68.698 0-2.638.15-5.238.44-7.799.807-7.093 2.696-13.867 5.503-20.144 4.977-11.142 12.843-20.724 22.632-27.788 11.297-8.156 25.159-12.969 40.123-12.969 5.383 0 10.62.623 15.645 1.797 30.368 7.103 53.053 34.402 53.053 66.901 0 37.883-30.817 68.7-68.698 68.7zm0-142.252c-3.981 0-7.89.319-11.703.932.019.034.039.063.063.097.188-.034.382-.068.57-.097 3.677-.604 7.455-.923 11.297-.932zm0 0c-3.981 0-7.89.319-11.703.932.019.034.039.063.063.097.188-.034.382-.068.57-.097 3.677-.604 7.455-.923 11.297-.932zm0 0c-3.981 0-7.89.319-11.703.932.019.034.039.063.063.097.188-.034.382-.068.57-.097 3.677-.604 7.455-.923 11.297-.932zm0 0c-3.981 0-7.89.319-11.703.932.019.034.039.063.063.097.188-.034.382-.068.57-.097 3.677-.604 7.455-.923 11.297-.932zm0 0c-3.981 0-7.89.319-11.703.932.019.034.039.063.063.097.188-.034.382-.068.57-.097 3.677-.604 7.455-.923 11.297-.932zm0 0c-3.981 0-7.89.319-11.703.932.019.034.039.063.063.097.188-.034.382-.068.57-.097 3.677-.604 7.455-.923 11.297-.932zm0 0c-3.981 0-7.89.319-11.703.932.019.034.039.063.063.097.188-.034.382-.068.57-.097 3.677-.604 7.455-.923 11.297-.932zm0 0c-3.981 0-7.89.319-11.703.932.019.034.039.063.063.097.188-.034.382-.068.57-.097 3.677-.604 7.455-.923 11.297-.932z" fill="#160f60"/><g fill="#fff"><path d="m171.614 166.791c-.575.464-1.14.937-1.701 1.425-5.793 4.986-10.804 10.857-14.819 17.404-1.213 1.976-2.334 4.015-3.358 6.112l.014-24.942h19.864z"/><path d="m222.869 74.011v1.411l-.014 24.106-17.375-.015h-3.358l.014-25.516h20.719z"/><path d="m222.869 117.091v1.411l-.014 24.106-17.375-.015h-3.358l.014-25.516h20.719z"/><path d="m172.479 117.091v1.411l-.014 24.106-17.371-.015h-3.358l.015-25.516h20.714z"/><path d="m172.479 74.011v1.411l-.014 24.106-17.371-.015h-3.358l.015-25.516h20.714z"/><path d="m122.093 74.011v1.411l-.014 24.106-17.37-.015h-3.358l.014-25.516h20.714z"/><path d="m71.708 74.011v1.411l-.015 24.106-17.375-.015h-3.358l.015-25.516h20.718z"/><path d="m71.708 117.091v1.411l-.015 24.106-17.375-.015h-3.358l.015-25.516h20.718z"/><path d="m122.093 117.091v1.411l-.014 24.106-17.37-.015h-3.358l.014-25.516h20.714z"/><path d="m122.093 166.805v1.411l-.014 24.106-17.37-.015h-3.358l.014-25.516h20.714z"/><path d="m71.708 166.805v1.411l-.015 24.106-17.375-.015h-3.358l.015-25.516h20.718z"/><path d="m162.134 271.911h-22.69v-46.96h4.866c.241 17.916 6.919 34.31 17.824 46.96z"/><path d="m101.79 224.951h32.798v46.96h-32.798z"/><path d="m71.708 235.083v1.411l-.015 24.106-17.375-.015h-3.358l.015-25.516h20.718z"/><path d="m243.97 56.013v6.281h-202.461v220.401h-11.649v-226.682z"/><path d="m253.319 41.914-.005 9.243s0 0-.005 0l-232.804-.014v-9.229z"/><path d="m245.023 37.058h-14.36l-82.841-23.052c-1.764-.493-3.624-.493-5.387 0l-82.841 23.052h-30.788l105.415-29.334c1.764-.493 3.624-.493 5.387 0z"/></g><path d="m233.495 157.045c-5.025-1.174-10.263-1.797-15.645-1.797-14.964 0-28.826 4.812-40.123 12.969-9.789 7.064-17.655 16.645-22.632 27.788-2.807 6.276-4.697 13.051-5.503 20.144-.29 2.561-.44 5.16-.44 7.799 0 37.881 30.817 68.698 68.698 68.698s68.698-30.817 68.698-68.698c-.001-32.501-22.686-59.8-53.053-66.903zm-15.646 130.941c-35.311 0-64.04-28.725-64.04-64.04 0-4.755.522-9.388 1.508-13.848.503-2.271 1.126-4.494 1.86-6.668 4.909-14.476 14.863-26.642 27.754-34.397 1.053-.633 2.126-1.237 3.218-1.807 8.881-4.677 18.989-7.32 29.701-7.32 35.311 0 64.04 28.73 64.04 64.04 0 35.315-28.73 64.04-64.041 64.04z" fill="#6ea9ff"/><path d="m217.849 159.906c-10.712 0-20.82 2.643-29.701 7.32-1.092.57-2.165 1.174-3.218 1.807-12.891 7.755-22.845 19.921-27.754 34.397-.734 2.174-1.358 4.397-1.86 6.668-.986 4.46-1.508 9.093-1.508 13.848 0 35.315 28.73 64.04 64.04 64.04 35.311 0 64.04-28.725 64.04-64.04.002-35.311-28.728-64.04-64.039-64.04zm0 123.224c-32.634 0-59.184-26.551-59.184-59.184 0-32.634 26.551-59.184 59.184-59.184s59.184 26.551 59.184 59.184c.001 32.634-26.55 59.184-59.184 59.184z" fill="#160f60"/><path d="m217.849 164.762c-32.634 0-59.184 26.551-59.184 59.184 0 32.634 26.551 59.184 59.184 59.184s59.184-26.551 59.184-59.184c.001-32.634-26.55-59.184-59.184-59.184zm50.792 51.777-3.788 2.411-7.417 4.725v17.496l7.18 13.973c.387.754.353 1.652-.087 2.377-.44.72-1.227 1.165-2.073 1.165h-14.896c-.846 0-1.633-.444-2.073-1.165-.44-.725-.473-1.623-.087-2.377l7.18-13.973v-14.399l-3.725 2.372-4.329 2.754-.208.135v11.756c0 1.643-.594 3.155-1.59 4.189-.377.401-.821.73-1.314.966-.589.285-1.208.425-1.822.425-.932 0-1.86-.324-2.662-.957-1.348-1.068-3.203-1.947-5.494-2.619h-.005c-3.571-1.058-8.19-1.619-13.582-1.619-5.296 0-9.852.541-13.398 1.565-2.377.676-4.3 1.575-5.682 2.672-1.329 1.053-3.005 1.251-4.484.531-1.764-.85-2.904-2.875-2.904-5.155v-11.756l-24.323-15.495c-.759-.483-1.189-1.358-1.111-2.256.077-.904.647-1.686 1.483-2.034l49.487-20.603h.005c.145-.058.299-.106.454-.135.072-.015.14-.015.213-.024.087-.01.174-.024.261-.024s.174.014.266.024c.068.01.135.01.208.024.155.029.309.077.454.135h.005l49.487 20.603c.836.348 1.406 1.131 1.483 2.034.076.901-.354 1.776-1.112 2.259z" fill="#fff"/><path d="m269.752 214.282c-.077-.904-.647-1.686-1.483-2.034l-49.487-20.603s0 0-.005 0c-.145-.058-.3-.106-.454-.135-.072-.015-.14-.015-.208-.024-.092-.01-.179-.024-.266-.024s-.174.014-.261.024c-.072.01-.14.01-.213.024-.155.029-.309.077-.454.135h-.005l-49.487 20.603c-.836.348-1.406 1.131-1.483 2.034-.077.899.353 1.773 1.111 2.256l24.323 15.495v11.756c0 2.281 1.14 4.305 2.904 5.155 1.479.72 3.155.522 4.484-.531 1.382-1.097 3.305-1.996 5.682-2.672 3.547-1.024 8.103-1.565 13.398-1.565 5.392 0 10.011.56 13.582 1.619h.005c2.29.672 4.146 1.551 5.494 2.619.802.633 1.73.957 2.662.957.614 0 1.232-.14 1.822-.425.493-.237.937-.565 1.314-.966.995-1.034 1.59-2.546 1.59-4.189v-11.756l.208-.135 4.329-2.754 3.725-2.372v14.399l-7.18 13.973c-.387.754-.353 1.652.087 2.377.44.72 1.227 1.165 2.073 1.165h14.896c.846 0 1.633-.444 2.073-1.165.44-.725.474-1.623.087-2.377l-7.18-13.973v-17.496l7.417-4.725 3.788-2.411c.759-.485 1.189-1.36 1.112-2.259zm-11.272 39.544h-6.943l3.469-6.755zm-19.018-23.676v13.64c0 .164-.019.304-.043.42-5.59-4.03-14.756-4.89-21.569-4.89-4.049 0-8.929.304-13.398 1.396-3.049.744-5.904 1.86-8.17 3.493-.024-.116-.044-.256-.044-.42v-13.64c0-4.291 8.876-9.074 21.612-9.074 4.465 0 8.451.585 11.751 1.536h.01.005c5.547 1.599 9.142 4.213 9.755 6.769v.005c.057.258.091.509.091.765zm4.952-3.933-.831.527c-.184-.411-.396-.812-.643-1.203-3.46-5.537-13.099-9.32-25.091-9.32-12.843 0-22.99 4.339-25.734 10.524l-9.311-5.933-9.209-5.866 44.254-18.424 44.254 18.424-2.716 1.73z" fill="#160f60"/><path d="m239.37 229.382c-3.566-1.232-8.117-2.025-13.307-2.025-12.737 0-21.612 4.784-21.612 9.074v4.286c-3.049.744-5.904 1.86-8.17 3.493-.024-.116-.044-.256-.044-.42v-13.64c0-4.291 8.876-9.074 21.612-9.074 4.465 0 8.451.585 11.751 1.536h.01.005c5.547 1.6 9.141 4.214 9.755 6.77z" fill="#fff"/></g></svg>