<svg id="&#x428;&#x430;&#x440;_1" enable-background="new 0 0 300 300" viewBox="0 0 300 300" xmlns="http://www.w3.org/2000/svg"><g><path d="m297.328 35.093c-1.546-.822-3.269-1.342-5.099-1.481-.358-.037-.715-.051-1.082-.051h-41.4c-7.333 0-13.295 5.963-13.295 13.295v47.418l15.775-8.127 27.31-.516c9.901 0 17.962-8.057 17.962-17.962v-30.101c.001-.841-.055-1.667-.171-2.475zm-28.847 5.874c1.026-.2 2.09-.302 3.158-.302.237 0 .469.005.697.014.172.901.255 1.839.255 2.81 0 .664-.033 1.305-.102 1.923-.376-.037-.771-.056-1.18-.056-1.142 0-2.159.125-3.023.376-.413.121-.803.246-1.161.376.158-.748.237-1.537.237-2.35 0-.882-.093-1.714-.274-2.48.445-.116.91-.218 1.393-.311zm5.777 40.569c-.097.511-.297.938-.594 1.268s-.692.562-1.165.692c-.399.111-.892.167-1.458.167-.594 0-1.077-.056-1.486-.162-.478-.135-.873-.367-1.17-.701-.293-.316-.497-.748-.594-1.263-.023-.107-.037-.223-.056-.348l6.59-.125c-.016.165-.04.323-.067.472z" fill="#ff8b78"/><path d="m279.347 210.825c-.474-1.639-1.05-3.232-1.709-4.779-2.888-3.037-6.283-5.596-10.045-7.537-5.127-2.638-10.936-4.128-17.089-4.128h-36.937c-20.646 0-37.443 16.797-37.443 37.443v43.768c0 .047 0 .088.005.135.018 1.7.497 3.297 1.314 4.667h17.312v-4.667h4.667v4.667h65.227v-4.667h2.266c.831 0 1.635-.107 2.401-.311v4.769c3.125-.534 5.902-2.108 7.96-4.347 2.317-2.508 3.729-5.861 3.729-9.534v-43.768c0-4.063-.576-7.991-1.658-11.711zm-4.885 0c.009.028.018.056.023.084-.019-.056-.032-.107-.051-.158.009.023.019.046.028.074z" fill="#ffe471"/><path d="m164.514 222.537v43.768c0 .683.074 1.347.214 1.988h-4.737c-.098-.65-.144-1.314-.144-1.988v-2.633h-13.783c.005-.098.005-.195.005-.297v-4.37h-12.984c.868-1.44 1.375-3.121 1.375-4.918v-60.152c0-.102 0-.204-.009-.302h-4.667c-.158-2.573-2.299-4.621-4.909-4.621h-14.345c1.69-1.737 3.534-3.302 5.512-4.667 6.162-4.277 13.579-6.683 21.338-6.683h36.7c6.037 0 11.874 1.44 17.094 4.119 2.015 1.036 3.943 2.257 5.749 3.65-18.273 2.467-32.409 18.164-32.409 37.106z" fill="#ffe471"/><path d="m133.085 259.005c.868-1.44 1.375-3.121 1.375-4.918v-55.787h-101.645c-2.717 0-4.923 2.211-4.923 4.923v60.152c0 .102.005.2.009.297h113.491c.005-.098.009-.195.009-.297v-4.37zm-38.084-23.475c.111.292.163.548.149.78-.014.348-.172.65-.432.85-.2.153-.45.246-.766.283-.195.019-.441.033-.738.033-.307 0-.548-.014-.729-.037-.237-.028-.427-.074-.585-.139-.223-.098-.404-.241-.529-.422-.074-.107-.139-.228-.2-.367l-1.519-4.217 2.08-5.652zm-21.566-.009 4.495-12.223c.172.177.334.358.488.548.929 1.138 1.635 2.531 2.094 4.142.223.771.39 1.593.506 2.461h-1.686l-2.071 5.972c-.042.149-.125.316-.241.455-.125.158-.283.279-.469.371-.162.084-.358.139-.59.176-.399.065-1.101.061-1.495.005-.316-.046-.562-.139-.752-.288-.265-.2-.418-.497-.436-.841-.01-.225.036-.476.157-.778zm-3.845-11.475c0 1.003-.06 1.992-.176 2.935-.121.966-.311 1.89-.567 2.758-.26.878-.599 1.714-1.003 2.484-.283.529-.604 1.031-.961 1.491.706.562 1.347 1.017 1.899 1.351.72.441 1.314.78 1.779 1.012.455.223.799.385 1.045.483.362.139.632.302.822.497.204.2.353.45.441.738.074.242.111.52.111.85 0 .251-.023.478-.065.683-.056.246-.135.446-.241.613-.116.181-.26.33-.427.432-.19.112-.395.167-.613.167-.228 0-.529-.061-1.268-.358-.525-.214-1.142-.511-1.885-.905-.72-.39-1.523-.868-2.378-1.43-.72-.469-1.444-1.008-2.155-1.607-.613.348-1.342.659-2.173.924-.882.279-1.899.451-3.032.502-.195-1.138-.297-2.364-.307-3.669v-.005c.706-.019 1.351-.107 1.937-.26.019 0 .037-.005.056-.014.014-.005.033-.009.046-.014.065-.019.13-.037.195-.056.005-.005.005-.005.009-.005h.005c.019 0 .033-.009.046-.014.018-.005.037-.014.056-.019.028-.009.06-.019.093-.032.028-.009.06-.019.088-.032.009-.005.014-.005.023-.009.084-.033.163-.061.241-.098.019-.009.033-.014.046-.023.033-.014.06-.028.093-.042.093-.042.181-.084.269-.135.933-.511 1.69-1.203 2.261-2.062.59-.878 1.017-1.918 1.272-3.084.265-1.217.399-2.508.399-3.84 0-.246-.005-.492-.014-.734 0-.056-.005-.111-.005-.167-.009-.176-.019-.353-.033-.529-.009-.158-.019-.311-.037-.46-.005-.07-.009-.139-.018-.209-.005-.023-.005-.051-.009-.074-.014-.135-.028-.265-.046-.4 0-.019-.005-.042-.009-.065-.023-.177-.051-.353-.079-.525h.005c1.166-.469 2.484-.738 3.943-.808.214 1.164.321 2.422.321 3.764z" fill="#6ea9ff"/><path d="m66.186 87.392 11.266-6.39-29.897-11.076-29.902 11.076 11.271 6.39c2.642-4.291 10.676-6.52 18.631-6.52s15.984 2.229 18.631 6.52z" fill="#6ea9ff"/><path d="m32.68 90.526v7.774c4.128-2.224 10.254-2.717 14.874-2.717 4.616 0 10.741.492 14.87 2.717v-7.774c0-1.69-5.248-4.987-14.87-4.987-9.626 0-14.874 3.297-14.874 4.987z" fill="#6ea9ff"/><path d="m144.239 90.484c-16.885 0-30.626 13.741-30.626 30.626s13.741 30.621 30.626 30.621 30.626-13.737 30.626-30.621-13.741-30.626-30.626-30.626zm0 56.581c-14.312 0-25.954-11.642-25.954-25.954s11.642-25.959 25.954-25.959 25.959 11.647 25.959 25.959-11.646 25.954-25.959 25.954z" fill="#160f60"/><path d="m170.198 121.111c0 14.312-11.647 25.954-25.959 25.954s-25.954-11.642-25.954-25.954 11.642-25.959 25.954-25.959 25.959 11.646 25.959 25.959z" fill="#fff"/><path d="m103.949 135.827-9.343-30.835v-37.532c0-9.905-8.057-17.962-17.962-17.962h-56.177c-9.905 0-17.967 8.057-17.967 17.962v37.88c0 9.905 8.062 17.962 17.967 17.962h29.869l50.701 15.431c.223.07.455.102.678.102.613 0 1.207-.237 1.653-.683.609-.607.832-1.503.581-2.325zm-52.587-17.089c-.223-.07-.45-.102-.683-.102h-30.212c-7.333 0-13.3-5.963-13.3-13.295v-37.881c0-7.333 5.967-13.295 13.3-13.295h56.177c7.333 0 13.295 5.963 13.295 13.295v37.88c0 .227.033.455.102.678l8.178 26.981z" fill="#160f60"/><path d="m90.041 106.018c-.07-.223-.102-.451-.102-.678v-37.88c0-7.333-5.963-13.295-13.295-13.295h-56.177c-7.333 0-13.3 5.963-13.3 13.295v37.88c0 7.333 5.967 13.295 13.3 13.295h30.213c.232 0 .46.032.683.102l46.856 14.261zm-10.175-20.344v11.624l5.015 8.693c.418.72.418 1.611 0 2.331-.418.724-1.184 1.165-2.02 1.165h-10.662c-.831 0-1.602-.441-2.02-1.165-.413-.72-.418-1.612 0-2.331l5.02-8.693v-9.65l-8.108 4.593v6.975c0 1.695-.864 3.195-2.257 3.919-.548.283-1.138.427-1.723.427-.752 0-1.505-.237-2.169-.706-2.387-1.681-7.142-2.605-13.388-2.605s-11.001.924-13.393 2.605c-1.175.826-2.628.933-3.887.279-1.398-.724-2.262-2.224-2.262-3.919v-6.976l-17.029-9.655c-.789-.446-1.245-1.31-1.175-2.215.074-.906.664-1.686 1.519-2.002l35.415-13.118c.037-.014.074-.019.111-.033.084-.023.172-.051.26-.065.07-.014.135-.023.2-.028.084-.009.163-.014.246-.014.074 0 .149.005.223.009.074.009.144.019.218.033.084.019.167.042.246.065.037.014.079.014.116.033l35.419 13.119c.85.316 1.44 1.096 1.514 2.002s-.385 1.769-1.175 2.215l-4.351 2.466c.056.199.097.403.097.622z" fill="#fff"/><path d="m79.866 97.297v-11.623c0-.218-.042-.423-.098-.622l4.351-2.466c.789-.446 1.249-1.31 1.175-2.215-.074-.906-.664-1.686-1.514-2.002l-35.417-13.119c-.037-.019-.079-.019-.116-.033-.079-.023-.162-.046-.246-.065-.074-.014-.144-.023-.218-.033-.074-.005-.149-.009-.223-.009-.084 0-.163.005-.246.014-.065.005-.13.014-.2.028-.088.014-.177.042-.26.065-.037.014-.074.019-.111.033l-35.415 13.119c-.855.316-1.444 1.096-1.519 2.002-.07.906.385 1.769 1.175 2.215l17.029 9.655v6.975c0 1.695.864 3.195 2.262 3.919 1.258.655 2.712.548 3.887-.279 2.392-1.681 7.147-2.605 13.393-2.605s11.001.924 13.388 2.605c.664.469 1.416.706 2.169.706.585 0 1.175-.144 1.723-.427 1.393-.724 2.257-2.224 2.257-3.919v-6.976l8.108-4.593v9.65l-5.02 8.693c-.418.72-.413 1.611 0 2.331.418.724 1.189 1.165 2.02 1.165h10.662c.836 0 1.602-.441 2.02-1.165.418-.72.418-1.612 0-2.331zm-17.442 1.003c-4.128-2.224-10.254-2.717-14.87-2.717-4.621 0-10.746.492-14.874 2.717v-7.774c0-1.69 5.248-4.987 14.874-4.987 9.622 0 14.87 3.297 14.87 4.987zm3.762-10.908c-2.647-4.291-10.676-6.52-18.631-6.52s-15.989 2.229-18.631 6.52l-11.271-6.39 29.902-11.076 29.897 11.076zm10.058 17.428 1.286-2.229 1.291 2.229z" fill="#160f60"/><path d="m78.822 104.82h-2.578l1.287-2.229z" fill="#fff"/><path d="m220.426 107.207c-16.885 0-30.626 13.737-30.626 30.621 0 16.89 13.741 30.626 30.626 30.626s30.621-13.736 30.621-30.626c.001-16.884-13.736-30.621-30.621-30.621zm0 56.581c-14.312 0-25.959-11.647-25.959-25.959s11.647-25.954 25.959-25.954 25.954 11.642 25.954 25.954-11.641 25.959-25.954 25.959z" fill="#160f60"/><path d="m246.381 137.829c0 14.312-11.642 25.959-25.954 25.959s-25.959-11.647-25.959-25.959 11.647-25.954 25.959-25.954c14.312-.001 25.954 11.641 25.954 25.954z" fill="#fff"/><path d="m297.328 35.093c-1.207-8.74-8.73-15.487-17.79-15.487h-41.4c-9.905 0-17.967 8.057-17.967 17.962v61.266c0 .813.427 1.57 1.119 1.992.376.228.794.344 1.217.344.367 0 .734-.088 1.068-.26l12.877-6.636 15.775-8.127 27.31-.516c9.901 0 17.962-8.057 17.962-17.962v-30.101c.001-.841-.055-1.667-.171-2.475zm-4.495 32.576c0 7.333-5.967 13.295-13.342 13.295l-5.169.098-6.59.125-16.137.307c-.358.005-.706.093-1.026.255l-14.117 7.277-11.61 5.981v-57.44c0-7.333 5.963-13.295 13.295-13.295h41.4c5.949 0 11.006 3.933 12.692 9.339.395 1.249.604 2.577.604 3.956z" fill="#160f60"/><path d="m292.229 33.611c-.358-.037-.715-.051-1.082-.051h-23.21c-.706-.497-1.5-.915-2.364-1.254-1.556-.618-3.427-.929-5.545-.929-1.068 0-2.132.102-3.158.302-1.017.195-1.964.446-2.814.734-.859.293-1.611.618-2.248.957-.121.065-.232.13-.339.19h-1.723c-7.333 0-13.295 5.963-13.295 13.295v42.171l-11.61 5.981v-57.44c0-7.333 5.963-13.295 13.295-13.295h41.4c5.95.001 11.008 3.934 12.693 9.339z" fill="#fff"/><g fill="#160f60"><path d="m262.769 70.702c0 .604-.042 1.124-.121 1.546-.098.511-.297.938-.594 1.268s-.692.562-1.165.692c-.399.111-.892.167-1.458.167-.594 0-1.077-.056-1.486-.162-.478-.135-.873-.367-1.17-.701-.293-.316-.497-.748-.594-1.263-.079-.409-.121-.919-.121-1.546s.042-1.138.121-1.56c.098-.534.302-.966.613-1.286.292-.306.683-.534 1.147-.659.808-.218 2.131-.223 2.944-.005.469.13.859.358 1.156.669.306.325.511.757.608 1.286.078.43.12.955.12 1.554z"/><path d="m272.59 43.489c0 .664-.033 1.305-.102 1.923-.125 1.138-.367 2.197-.724 3.153-.557 1.491-1.351 2.772-2.354 3.813-1.012 1.04-2.234 1.848-3.632 2.41-1.18.474-2.475.771-3.873.887l-.163 7.328c0 .525-.279.989-.766 1.254-.372.2-.896.293-1.667.293-.344 0-.641-.019-.892-.056-.321-.042-.58-.121-.794-.237-.255-.135-.455-.325-.585-.548-.125-.214-.195-.46-.195-.72l-.153-9.032c0-.469.06-.855.19-1.189.135-.358.334-.66.599-.896.269-.237.594-.399.966-.492.316-.074.664-.111 1.073-.111h.785c1.328 0 2.457-.204 3.357-.608.887-.399 1.607-.934 2.141-1.588.539-.664.938-1.453 1.18-2.35.056-.2.102-.404.144-.613.158-.748.237-1.537.237-2.35 0-.882-.093-1.714-.274-2.48-.06-.237-.125-.469-.2-.697-.307-.924-.775-1.732-1.389-2.401-.608-.659-1.393-1.18-2.331-1.546-.957-.376-2.127-.567-3.469-.567-1.142 0-2.159.125-3.023.376-.896.26-1.672.548-2.299.855-.655.32-1.189.608-1.602.864-.984.622-1.556.618-2.071.376-.242-.102-.46-.307-.618-.594-.116-.214-.195-.455-.251-.748-.046-.251-.074-.553-.074-.91 0-.436.033-.775.098-1.045.079-.348.283-.678.594-.98.209-.2.534-.423 1.017-.701.107-.06.218-.125.339-.19.636-.339 1.389-.664 2.248-.957.85-.288 1.797-.539 2.814-.734 1.026-.2 2.09-.302 3.158-.302 2.118 0 3.989.311 5.545.929.864.339 1.658.757 2.364 1.254.585.399 1.11.85 1.579 1.347 1.04 1.101 1.82 2.405 2.327 3.882.209.608.372 1.235.492 1.89.171.899.254 1.837.254 2.808z"/><path d="m72.868 237.796c-.088-.288-.237-.539-.441-.738-.19-.195-.46-.358-.822-.497-.246-.098-.59-.26-1.045-.483-.464-.232-1.059-.571-1.779-1.012-.553-.334-1.193-.79-1.899-1.351.358-.46.678-.961.961-1.491.404-.771.743-1.607 1.003-2.484.255-.868.446-1.792.567-2.758.116-.943.176-1.932.176-2.935 0-1.342-.107-2.6-.32-3.761-.098-.553-.223-1.078-.367-1.584-.46-1.611-1.166-3.004-2.094-4.142-.938-1.152-2.127-2.048-3.525-2.666-1.389-.608-3.014-.915-4.83-.915-1.936 0-3.65.33-5.104.975-1.458.655-2.698 1.588-3.673 2.786-.966 1.184-1.695 2.624-2.164 4.286-.46 1.625-.692 3.455-.692 5.438 0 1.987.209 3.803.622 5.401.423 1.639 1.096 3.051 1.997 4.198.919 1.165 2.104 2.071 3.52 2.693 1.402.613 3.083.929 5.001.929.265 0 .525-.005.78-.019 1.133-.051 2.15-.223 3.032-.502.831-.265 1.56-.576 2.173-.924.711.599 1.435 1.138 2.155 1.607.855.562 1.658 1.04 2.378 1.43.743.395 1.361.692 1.885.905.738.297 1.04.358 1.268.358.218 0 .423-.056.613-.167.167-.102.311-.251.427-.432.107-.167.186-.367.241-.613.042-.204.065-.432.065-.683.003-.328-.035-.607-.109-.849zm-7.695-9.701c-.255 1.166-.683 2.206-1.272 3.084-.571.859-1.328 1.551-2.261 2.062-.088.051-.177.093-.269.135-.033.014-.06.028-.093.042-.014.009-.028.014-.046.023-.079.037-.158.065-.241.098-.009.005-.014.005-.023.009-.028.014-.06.023-.088.032-.032.014-.065.023-.093.032-.019.005-.037.014-.056.019-.014.005-.028.014-.046.014h-.005c-.005 0-.005 0-.009.005-.065.019-.13.037-.195.056-.014.005-.033.009-.046.014-.019.009-.037.014-.056.014-.088.028-.172.051-.265.07-.125.028-.255.056-.385.074-.121.023-.246.042-.372.056-.149.019-.297.033-.45.042-.149.014-.306.019-.464.023-.102.009-.204.009-.306.009-1.421 0-2.605-.241-3.525-.72-.906-.469-1.644-1.129-2.187-1.96-.562-.859-.966-1.89-1.203-3.07-.251-1.226-.371-2.573-.371-4.003 0-1.342.135-2.628.404-3.826.265-1.161.692-2.183 1.286-3.042.576-.841 1.337-1.523 2.262-2.02.924-.497 2.09-.752 3.469-.752 1.393 0 2.568.241 3.488.72.91.474 1.653 1.133 2.197 1.955.571.854.984 1.881 1.235 3.046.028.125.051.246.074.376.023.111.042.223.06.339.005.014.005.028.009.042.028.172.056.348.074.525.005.023.009.046.009.065.019.135.033.265.046.4.005.023.005.051.009.074.009.07.014.139.018.209.019.149.028.302.037.46.014.176.023.353.033.529 0 .056.005.111.005.167.009.241.014.488.014.734-.002 1.332-.137 2.623-.402 3.839z"/><path d="m95.001 235.53-3.269-8.888-5.313-14.424c-.074-.2-.186-.376-.339-.534-.158-.158-.362-.274-.599-.348-.158-.051-.358-.093-.585-.116-.376-.042-.943-.046-1.347 0-.228.023-.418.065-.58.116-.228.07-.427.181-.59.334-.167.153-.288.339-.372.557l-4.077 11.071-4.495 12.223c-.121.302-.167.553-.158.78.018.344.172.641.436.841.19.149.436.241.752.288.395.056 1.096.06 1.495-.005.232-.037.427-.093.59-.176.186-.093.344-.214.469-.371.116-.139.2-.307.241-.455l2.071-5.972h9.655l.664 1.844 1.519 4.217c.06.139.125.26.2.367.125.181.306.325.529.422.158.065.348.112.585.139.181.023.423.037.729.037.297 0 .543-.014.738-.033.316-.037.567-.13.766-.283.26-.2.418-.502.432-.85.015-.233-.036-.488-.147-.781zm-14.443-8.568 3.543-10.105 3.627 10.105z"/><path d="m279.347 210.825c-.474-1.639-1.05-3.232-1.709-4.779-6.427-15.051-21.376-25.62-38.744-25.62h-36.937c-2.183 0-4.323.167-6.413.488.084-.618-.074-1.263-.501-1.783-3-3.659-6.534-6.734-10.439-9.148-.163-.181-.344-.348-.562-.478-6.441-3.789-13.82-5.796-21.334-5.796h-37.179c-7.514 0-14.888 2.006-21.329 5.796-.237.139-.436.32-.604.52-5.679 3.52-10.537 8.391-14.057 14.322h-68.334c-5.289 0-9.59 4.3-9.59 9.589v60.152c0 5.285 4.3 9.585 9.59 9.585h138.642v2.633c0 .673.046 1.338.144 1.988.966 6.831 6.85 12.102 13.941 12.102h92.984c.817 0 1.621-.07 2.401-.209 3.125-.534 5.902-2.108 7.96-4.347 2.317-2.508 3.729-5.861 3.729-9.534v-43.768c-.001-4.065-.577-7.993-1.659-11.713zm-149.555 43.262c0 2.712-2.206 4.918-4.918 4.918h-103.669c-2.717 0-4.923-2.206-4.923-4.918v-60.152c0-2.712 2.206-4.923 4.923-4.923h103.669c2.61 0 4.751 2.048 4.909 4.621.005.098.009.2.009.302zm30.055-31.55v36.468h-26.763c.868-1.44 1.375-3.121 1.375-4.918v-60.152c0-.102 0-.204-.009-.302-.158-5.15-4.393-9.288-9.576-9.288h-29.78c6.966-9.938 18.385-15.97 30.677-15.97h36.7c11.122 0 21.561 4.885 28.704 13.407.009.014.023.023.033.037-18.028 4.765-31.361 21.214-31.361 40.718zm116.491 43.768c0 4.37-2.986 8.048-7.021 9.111-.766.204-1.57.311-2.401.311h-9.209v-53.023c0-1.291-1.045-2.336-2.336-2.336-1.286 0-2.331 1.045-2.331 2.336v53.023h-65.227v-53.023c0-1.291-1.045-2.336-2.336-2.336-1.286 0-2.331 1.045-2.331 2.336v53.023h-9.213c-4.509 0-8.289-3.19-9.204-7.435-.139-.641-.214-1.305-.214-1.988v-43.768c0-18.942 14.136-34.638 32.409-37.104 1.649-.223 3.33-.339 5.034-.339h36.937c11.507 0 21.821 5.22 28.699 13.416.186.223.371.451.557.683.181.227.362.46.539.692.163.209.32.418.474.632.125.172.251.344.372.52.037.051.07.102.107.153.056.074.111.153.163.232.018.023.037.051.056.079s.037.056.056.084c.074.111.149.218.218.33.009.009.014.023.023.032.181.279.362.562.543.845.014.023.033.046.046.074.139.223.274.446.409.678.065.107.13.218.19.325.079.139.163.283.241.423.098.172.19.348.283.525.088.158.172.311.251.469.051.102.102.2.153.302.167.321.33.646.483.975.065.135.125.26.186.395v.005c.014.028.028.06.042.088.065.144.13.288.195.436.121.269.237.543.348.822.098.227.19.46.279.692.014.033.028.07.042.102.019.046.033.093.051.139.014.033.028.07.042.102.042.111.084.223.121.334.037.098.074.2.107.297.005.005.005.005.005.009.009.032.023.065.033.098.07.195.139.39.2.59.014.023.023.051.028.079.009.023.019.046.028.074.074.232.149.46.223.697.056.195.121.39.176.59.005.009.005.019.009.028.023.083.046.163.07.246.037.13.074.26.107.39.014.046.028.098.042.149.009.037.019.074.028.116.009.028.014.051.023.079.009.032.014.065.023.098.033.135.07.274.102.413 0 .005 0 .005.005.009.088.353.167.71.241 1.068.079.362.153.729.218 1.096.023.13.046.26.065.39.023.111.042.223.06.339.042.246.079.488.111.734.023.153.046.306.06.46.014.088.023.177.033.265.005.009.005.018.005.032.009.074.018.144.028.218.009.07.019.139.023.209.005.037.009.079.014.116.023.204.042.413.06.618.009.088.014.181.023.269.005.074.014.144.014.218.005.014.005.028.005.042.014.181.028.362.037.543.019.251.028.502.037.757.005.102.009.204.009.307.005.037.005.07.005.107.005.116.009.227.009.344.005.256.009.511.009.766v43.768z"/></g><path d="m267.594 198.51c-5.127-2.638-10.936-4.128-17.089-4.128h-36.937c-20.646 0-37.443 16.797-37.443 37.443v43.768c0 .047 0 .088.005.135h-2.197c-4.509 0-8.289-3.19-9.204-7.435-.139-.641-.214-1.305-.214-1.988v-43.768c0-18.942 14.136-34.638 32.409-37.104 1.649-.223 3.33-.339 5.034-.339h36.937c11.507-.001 21.821 5.219 28.699 13.416z" fill="#fff"/><path d="m191.175 181.782c-5.22-2.68-11.057-4.119-17.094-4.119h-36.7c-7.76 0-15.176 2.406-21.338 6.683h-20.949c6.966-9.938 18.385-15.97 30.677-15.97h36.7c11.122 0 21.561 4.885 28.704 13.406z" fill="#fff"/><path d="m129.792 193.935v4.365h-96.977c-2.717 0-4.923 2.211-4.923 4.923v55.782h-6.687c-2.717 0-4.923-2.206-4.923-4.918v-60.152c0-2.712 2.206-4.923 4.923-4.923h103.669c2.61 0 4.751 2.048 4.909 4.621.005.098.009.2.009.302z" fill="#fff"/></g></svg>