<svg id="&#x428;&#x430;&#x440;_1" enable-background="new 0 0 300 300" viewBox="0 0 300 300" xmlns="http://www.w3.org/2000/svg"><g><path d="m296.718 90.404c-1.072 2.54-3.175 4.562-5.765 5.723l-33.412-11.231-10.092-3.389-85.842-28.854c-.437-.147-.913-.147-1.346 0l-4.55 1.531-5.71-1.922-91.876 30.876c.008.076.025.147.025.223v3.612l-4.125 1.388-.105.038-9.94 3.339-.046.017-4.18 1.404v-3.843l-19.687 6.618c-.849-.677-1.531-1.539-1.959-2.548-.156-.374-.273-.753-.345-1.135-.219-1.127-.08-2.288.404-3.36.757-1.674 2.3-3.011 4.239-3.662l132.731-44.609c.189-.067.37-.156.534-.269 1.316-.912 2.969-1.417 4.655-1.417h1.219c1.686 0 3.339.505 4.651 1.417.164.114.345.202.534.269l124.93 41.984.004.004 5.605 1.884c.438 1.964.253 4.007-.551 5.912z" fill="#6ea9ff"/><path d="m202.399 79.606h-6.047v-.677h-75.263c-1.257 0-2.283 1.026-2.283 2.283v83.172c0 2.695.98 5.294 2.754 7.325l3.288 3.826 3.541 4.112v.004l4.579 5.332 2.292 2.666c-.185-1.615-.231-2.632-.236-2.729-.004-.101 0-.198.008-.294.244-2.494.74-4.827 1.476-6.98 2.653-7.783 8.414-13.182 16.471-15.196.673-.168 1.35-.311 2.031-.42h.008c2.893-.5 5.841-.53 8.612-.164.521.5.976 1.039 1.358 1.61.736 1.106 1.27 2.203 1.631 3.309 2.262-.833 5.26-1.203 8.225-.008.408.42.769.862 1.076 1.325.736 1.106 1.27 2.203 1.631 3.309.723-.265 1.526-.484 2.376-.618.236.303.467.622.694.963.643.963 1.148 1.968 1.552 3.007l3.212-3.507c1.249.446 2.498 1.161 3.692 2.229l3.238-3.528c2.603-2.838 4.037-6.522 4.037-10.373v-58.687h6.707v-19.684c0-.627-.252-1.19-.66-1.607z" fill="#ff8b78"/><path d="m203.185 265.293v4.625h-76.436v-20.297c0-.181.008-.362.013-.542.055-.257.063-.526.021-.786.694-13.405 11.82-24.098 25.393-24.098h25.578c1.413 0 2.796.113 4.146.341 3.326.547 6.438 1.741 9.2 3.452 2.308 3.28 3.965 7.052 4.789 11.118 1.026-.95 2.237-1.8 3.591-2.498.004-.05.013-.101.017-.156 1.913 3.137 3.162 6.719 3.553 10.554-.833.618-1.388.967-1.501 1.034-.34.21-.723.311-1.106.311-.404 0-.803-.109-1.152-.336-.681-.442-1.051-1.241-.946-2.048.009-.055.202-1.564.484-3.847-1.459 1.324-2.224 2.784-2.35 3.978v19.195z" fill="#ff8b78"/><g fill="#ffe471"><path d="m252.496 174.519c2.788 0 5.046-2.258 5.046-5.046v-85.527l-10.092-3.393v88.92c0 2.788 2.258 5.046 5.046 5.046z"/><path d="m48.98 174.939c2.788 0 5.046-2.258 5.046-5.046v-89.833l-10.092 3.393v86.44c0 .231.017.454.046.677.328 2.469 2.443 4.369 5 4.369z"/><path d="m209.144 92.982v-5.458c0-2.035-1.653-3.692-3.688-3.692h-9.104v12.838h9.104c2.035 0 3.688-1.657 3.688-3.688z"/><path d="m94.544 96.67h9.104v-12.838h-9.104c-2.035 0-3.688 1.657-3.688 3.692v5.458c0 2.031 1.653 3.688 3.688 3.688z"/><path d="m173.596 184.833c.013.008.025.017.038.025.088.046.168.097.244.151.038.029.076.051.109.08.071.059.13.122.193.185.034.034.067.067.101.105.05.067.097.134.143.206.029.046.059.088.084.135.038.067.067.139.097.21.021.055.046.113.063.172.021.063.034.13.046.193.017.076.029.147.038.223.004.021.008.042.013.063.029.479.046.967.046 1.455 0 5.357-2.014 10.252-5.328 13.969 1.762 3.04 5.386 3.692 8.427 3.62-.698-1.253-1.161-2.922-1.161-5.109 0-2.111.492-4.617 1.06-7.523 1.203-6.143 2.7-13.792-.702-18.897-1.833-2.746-4.121-4.028-6.799-3.81-1.438.118-2.624.622-3.213.921-.189 1.922-.677 3.414-1.303 4.567.533 1.579 2.556 6.456 7.804 9.059z"/><path d="m128.83 205.185c2.775.698 6.366 1.182 8.855.147.879-.37 1.564-.908 2.077-1.636-4.302-3.852-7.014-9.444-7.014-15.659 0-1.43.143-2.855.425-4.238.029-.143.076-.282.13-.412.24-.854 1.795-5.811 6.555-8.414 3.578-1.955 7.956-2.077 13.01-.366.206.067.378.16.513.248 3.305 1.198 5.866 1.316 7.413.336 1.211-.77 1.926-2.309 2.115-4.579.13-1.598-.324-3.12-1.438-4.789-2.296-3.444-10.655-5.841-18.401-3.902-4.945 1.24-13.414 5.269-14.751 18.333.055.883.408 5.853 1.993 11.408 1.651 5.769 1.151 10.298-1.482 13.523z"/><path d="m220.038 196.842c1.421.9 3.788.786 6.858-.324.13-.084.294-.172.488-.236 4.802-1.627 8.952-1.505 12.354.353 4.499 2.46 5.988 7.131 6.227 7.981.055.13.097.265.126.408.269 1.312.408 2.662.408 4.016 0 6.08-2.742 11.526-7.047 15.184-.555 4.31 1.438 8.246 4.302 11.559.114.105.219.223.307.349 2.367 2.649 5.26 4.882 7.796 6.568-1.03-3.255-1.821-7.077-2.393-10.487-1.215-7.207-1.968-16.121-.921-19.797 1.484-5.193 1.821-9.844 1.871-10.701-1.253-12.215-9.171-15.979-13.788-17.139-7.249-1.812-15.049.416-17.189 3.62-1.03 1.547-1.455 2.956-1.333 4.432.177 2.095.829 3.516 1.934 4.214z"/><path d="m204.72 195.989c-3.175 4.764-1.77 11.933-.643 17.694.538 2.741 1.001 5.109 1.001 7.106 0 4.196-1.144 14.347-1.896 20.574 3.768-3.532 8.927-9.991 8.797-18.787-3.301-3.557-5.323-8.313-5.323-13.535 0-.463.017-.925.046-1.379 0-.021.008-.042.008-.063.008-.076.025-.147.042-.223.013-.063.025-.126.042-.189.021-.067.046-.126.076-.189.025-.063.05-.126.08-.189.033-.059.076-.118.114-.172.034-.055.071-.109.109-.16.046-.059.101-.109.151-.16.046-.042.089-.088.139-.13.055-.046.114-.084.172-.122.055-.038.114-.08.172-.109.021-.013.042-.029.063-.038 4.894-2.435 6.757-6.888 7.266-8.397-.58-1.081-1.026-2.472-1.211-4.247-1.451-.742-5.82-2.356-9.205 2.715z"/><path d="m84.755 199.197c1.051-1.489 1.867-3.145 2.443-4.937-1.379-.412-2.834-.635-4.344-.635-8.031 0-14.625 6.24-15.196 14.128.126-.034.248-.055.379-.067 2.64-.172 11.643-1.294 16.718-8.489z"/><path d="m83.426 174.06c-5.975-1.043-12.19.315-16.626 3.637-7.775 5.824-9.835 14.334-5.656 23.35 2.107 4.537 2.536 9.474 1.152 13.216-1.093 2.948-3.847 4.958-7.186 5.243-3.175.269-6.602-1.833-7.998-4.903-.698-1.539-.463-2.973-.29-4.02.168-.992.147-1.139.008-1.274h-.017c-.677 0-2.586 1.215-3.629 2.477-3.334 4.037-2.393 7.691-1.018 10.046 2.721 4.651 9.999 8.658 17.484 7.316 4.76-.854 8.435-2.031 11.353-4.857-4.625-3.562-7.615-9.154-7.615-15.432 0-8.099 4.974-15.058 12.03-17.984-.273-.597-.429-1.257-.429-1.959v-2.073c0-2.594 2.111-4.705 4.705-4.705h7.295c2.594 0 4.705 2.111 4.705 4.705v2.073c0 .841-.223 1.632-.614 2.313 2.346 1.102 4.44 2.653 6.164 4.545 1.022-3.074 1.371-9.709-1.686-14.351-2.469-3.763-6.897-6.446-12.132-7.363z"/></g><path d="m263.311 262.119c0 4.079-3.318 7.401-7.4 7.401h-48.499v-18.796c.025-.248.13-.597.286-1.001.585-1.497 1.564-2.771 2.792-3.721 1.228-.955 2.708-1.589 4.302-1.812 4.907-.685 9.852-1.03 14.805-1.03h16.836c1.917 0 3.822.231 5.664.685.227.248.454.492.69.732 1.249 1.295 2.586 2.481 3.915 3.549.29.231.58.454.866.673.214.168.429.328.639.484.109.08.214.16.319.235.248.181.492.357.732.526.177.126.349.248.521.362.122.084.24.168.357.244.332.227.66.442.976.643v.004c1.438 3.4 2.199 7.079 2.199 10.822z" fill="#6ea9ff"/><path d="m122.523 265.293v4.625h-59.436c-.555 0-1.076-.143-1.531-.399-.98-.538-1.644-1.581-1.644-2.775 0-.328.008-.656.021-.98.004-.122.008-.244.017-.362 0-.038.004-.072.008-.109.017-.37.051-.74.093-1.106.017-.164.038-.332.059-.496.004-.025.004-.055.013-.084.013-.126.034-.257.055-.383.004-.046.013-.097.021-.143.017-.126.038-.252.063-.378.122-.719.277-1.43.471-2.124.034-.134.072-.265.109-.395.063-.223.135-.446.206-.668.013-.055.034-.109.051-.164.08-.236.164-.475.248-.711.168-.458.349-.912.551-1.358.055-.13.114-.265.177-.395.16-.353.332-.698.513-1.043.088-.172.181-.341.278-.513.042-.08.088-.16.135-.24.021-.042.042-.08.067-.118.021-.042.046-.084.071-.122.101-.172.202-.345.311-.513.135-.223.273-.442.42-.656.084-.126.168-.252.257-.374v-.004c.097-.139.193-.273.294-.412.151-.21.307-.416.471-.622.134-.177.277-.349.416-.521.299-.366.614-.723.938-1.068.134-.143.269-.286.408-.425.126-.13.252-.257.378-.378.008-.013.021-.021.029-.029.004-.008.013-.013.017-.017h.004c.126-.126.252-.248.383-.366.135-.126.273-.252.412-.374.114-.105.231-.206.349-.303.151-.13.303-.256.454-.378.017-.017.034-.029.05-.038.151-.126.307-.248.463-.366.135-.105.273-.21.416-.311.147-.109.299-.219.45-.324.168-.118.345-.236.522-.349.088-.063.177-.118.265-.172.105-.071.21-.135.315-.198.265-.168.53-.324.799-.475.156-.088.315-.177.475-.261.227-.122.454-.24.685-.349.198-.101.399-.193.601-.286.084-.038.168-.076.252-.114.235-.105.475-.206.715-.299.088-.042.181-.076.269-.109.21-.084.42-.16.631-.235.198-.071.399-.139.601-.206.034-.013.063-.021.092-.029.198-.063.395-.122.593-.181.092-.029.189-.059.286-.084.219-.063.446-.122.664-.172.265-.072.53-.13.799-.185.202-.042.408-.084.614-.122.627-.118 1.257-.206 1.896-.269.193-.021.387-.038.584-.051.387-.029.778-.05 1.169-.059.202-.004.408-.008.61-.008h24.346c.715 0 1.425.038 2.132.114 2.023.214 3.995.727 5.845 1.514v.004c-.004.071-.004.134-.004.206v20.297h6.708z" fill="#6ea9ff"/><path d="m87.471 186.843v2.073c0 .261-.219.484-.479.484h-7.295c-.261 0-.479-.223-.479-.484v-2.073c0-.261.219-.479.479-.479h7.295c.261 0 .479.218.479.479z" fill="#e5e5e5"/><path d="m297.269 84.492c-.143-.669-.362-1.324-.652-1.964-1.236-2.746-3.696-4.907-6.745-5.929l-44.105-14.826-51.135-17.185-37.217-12.509c-1.993-1.308-4.339-1.997-6.803-1.997h-1.219c-2.468 0-4.815.69-6.808 1.997l-37.217 12.509-49.239 16.55-46.002 15.462c-3.049 1.022-5.508 3.183-6.745 5.929-1.14 2.523-1.177 5.323-.101 7.876 2.279 5.398 8.969 8.161 14.919 6.155l1.867-.627 19.687-6.618v94.315c0 1.165.946 2.111 2.115 2.111 1.165 0 2.111-.946 2.111-2.111v-95.736l9.94-3.343v80.313c0 .227.038.446.105.652.273.845 1.068 1.459 2.01 1.459.029 0 .063 0 .092-.004 1.127-.046 2.023-.971 2.023-2.107v-81.503c0-.076-.017-.147-.025-.223l91.877-30.876 5.71 1.922 87.785 29.501v81.179c0 1.165.946 2.111 2.111 2.111.055 0 .109 0 .16-.008.723-.055 1.346-.471 1.682-1.068.177-.303.273-.656.273-1.034v-79.759l9.818 3.301.092.029c-.013.088-.029.177-.029.269v96.296c0 1.165.946 2.111 2.115 2.111s2.115-.946 2.115-2.111v-95.152l19.966 6.711c1.299.437 2.657.66 4.037.66 1.804 0 3.549-.391 5.117-1.093 2.59-1.161 4.693-3.183 5.765-5.723.803-1.905.988-3.948.55-5.912zm-4.444 4.268c-1.068 2.531-3.877 4.234-6.989 4.234-.921 0-1.821-.147-2.687-.442l-25.608-8.607-10.092-3.393-1.682-.563-95.093-31.961c-.437-.147-.913-.147-1.346 0l-93.2 31.326-2.102.706-10.092 3.393-26.171 8.797-.912.307c-3.898 1.312-8.237-.391-9.675-3.797-.614-1.455-.593-3.053.059-4.495.757-1.674 2.3-3.011 4.239-3.662l44.656-15.007 62.501-21.008 25.574-8.595c.189-.067.37-.156.534-.269 1.316-.912 2.969-1.417 4.655-1.417h1.219c1.686 0 3.339.505 4.651 1.417.164.114.345.202.534.269l25.574 8.595 64.398 21.642 42.759 14.372c1.241.416 2.317 1.114 3.133 2.002l.004.004c.454.5.828 1.055 1.102 1.657.65 1.443.671 3.04.057 4.495z" fill="#160f60"/><path d="m291.66 82.604-124.931-41.985c-.189-.067-.37-.156-.534-.269-1.312-.912-2.964-1.417-4.651-1.417h-1.219c-1.686 0-3.339.505-4.655 1.417-.164.114-.345.202-.534.269l-132.731 44.609c-1.938.652-3.482 1.989-4.239 3.662-.484 1.072-.622 2.233-.404 3.36l-.912.307c-3.898 1.312-8.237-.391-9.675-3.797-.614-1.455-.593-3.053.059-4.495.757-1.674 2.3-3.011 4.239-3.662l44.656-15.007 62.501-21.008 25.574-8.595c.189-.067.37-.156.534-.269 1.316-.912 2.969-1.417 4.655-1.417h1.219c1.686 0 3.339.505 4.651 1.417.164.114.345.202.534.269l25.574 8.595 64.398 21.642 42.759 14.372c1.24.417 2.316 1.115 3.132 2.002z" fill="#fff"/><path d="m205.456 79.606h-9.104v-3.019c0-3.587-2.918-6.509-6.509-6.509h-79.687c-3.591 0-6.509 2.922-6.509 6.509v3.019h-9.104c-4.365 0-7.913 3.553-7.913 7.918v5.458c0 4.365 3.549 7.914 7.913 7.914h9.104v58.864c0 3.721 1.35 7.308 3.789 10.092l18.396 21.411c.13.513.269 1.03.416 1.56 2.111 7.384-.349 9.974-2.733 11.399-.681.412-1.076 1.173-1.018 1.968.055.795.559 1.488 1.295 1.795.278.118 5.265 2.161 10.348 2.161 1.774 0 3.557-.248 5.159-.912 1.619-.673 2.914-1.699 3.873-3.044 3.116 1.825 6.74 2.88 10.605 2.88 4.697 0 9.036-1.547 12.543-4.159 2.636 3.793 7.178 4.962 11.328 4.962 2.422 0 4.714-.395 6.404-.891 1.009-.29 1.648-1.283 1.501-2.325-.147-1.039-1.039-1.812-2.09-1.812-.105 0-2.485-.051-2.485-4.327 0-1.699.475-4.133.98-6.711.845-4.323 1.821-9.31 1.358-14.044l5.761-6.278 3.238-3.528c2.603-2.838 4.037-6.522 4.037-10.373v-58.687h9.104c4.365 0 7.914-3.549 7.914-7.914v-5.458c0-4.366-3.55-7.919-7.914-7.919zm-101.809 17.064h-9.104c-2.035 0-3.688-1.657-3.688-3.688v-5.458c0-2.035 1.652-3.692 3.688-3.692h9.104zm34.039 108.662c-2.489 1.034-6.08.551-8.855-.147 2.632-3.225 3.133-7.754 1.484-13.523-1.585-5.555-1.938-10.525-1.993-11.408.021-.202.042-.404.067-.601v-.004c.029-.219.055-.437.088-.652.017-.122.034-.244.055-.366.034-.21.067-.416.105-.618.025-.151.055-.299.084-.45.029-.164.063-.324.097-.479.05-.227.101-.454.156-.677.168-.69.357-1.354.572-1.985.038-.118.08-.236.122-.353.05-.151.105-.303.164-.45.046-.126.092-.248.143-.37.046-.114.092-.227.139-.336.076-.181.151-.357.231-.534.5-1.106 1.068-2.102 1.686-2.998.156-.231.32-.454.488-.673.08-.109.164-.214.248-.32.164-.21.336-.416.513-.614.135-.151.265-.299.399-.442.114-.126.231-.244.349-.362.05-.055.105-.105.16-.16.05-.055.105-.105.156-.156.181-.177.366-.345.551-.509.185-.168.37-.324.555-.471.378-.307.757-.589 1.135-.854.092-.067.181-.126.273-.185.29-.193.58-.374.87-.542.088-.055.172-.101.261-.151.294-.168.589-.324.883-.471.092-.051.181-.092.273-.135.378-.185.753-.349 1.119-.496.177-.076.349-.143.517-.206.677-.252 1.32-.458 1.922-.618.126-.034.248-.067.37-.097 1.909-.479 3.856-.694 5.744-.694.265 0 .53.004.795.013.025 0 .055 0 .08.004.257.008.505.021.757.038.248.017.496.038.744.063.008 0 .021 0 .034.004.202.017.404.038.601.063.122.017.24.029.357.046.008 0 .021.004.029.004.193.029.383.055.572.088.114.017.231.038.345.059.198.034.395.071.589.114.193.038.387.08.576.126.122.029.244.059.362.088s.235.059.353.092h.008c.008 0 .013.004.021.004.177.05.357.101.53.156.181.055.362.114.542.172.177.059.353.122.526.185.252.092.496.189.732.29.156.063.311.13.458.202.051.025.101.046.151.072.139.063.273.13.408.202.202.101.395.21.585.319.139.08.273.164.404.248.109.067.214.139.315.21.143.101.282.202.416.307.084.067.168.135.248.202.08.072.16.139.235.21.076.067.147.139.219.21.072.072.139.143.202.214.067.076.13.147.189.223.101.118.189.244.273.366 1.114 1.669 1.568 3.191 1.438 4.789-.189 2.271-.904 3.81-2.115 4.579-1.547.98-4.108.862-7.413-.336-.135-.088-.307-.181-.513-.248-5.054-1.711-9.432-1.589-13.01.366-.134.076-.269.151-.399.231-.063.034-.122.076-.185.114-.135.08-.265.164-.391.252-.135.088-.265.181-.391.277-.13.088-.252.185-.374.282-.088.071-.177.139-.261.214-.093.072-.181.147-.265.227-.067.059-.135.118-.198.181-.13.114-.261.235-.383.366l-.164.164c-.118.122-.231.244-.341.366-.134.151-.265.303-.391.454-.013.013-.025.025-.029.038-.202.244-.387.492-.568.736-.067.093-.13.185-.189.273s-.118.177-.177.265c-.059.084-.114.172-.168.261-.084.13-.16.261-.235.387-.071.126-.143.248-.206.37-.046.08-.088.16-.13.24s-.08.156-.118.231c-.16.32-.299.618-.416.891-.038.092-.076.181-.113.269-.067.164-.126.315-.177.454-.025.067-.046.134-.071.193-.042.122-.08.231-.109.332-.017.051-.034.097-.046.139-.025.084-.042.151-.059.206-.055.13-.101.269-.13.412-.038.198-.076.391-.109.589-.038.198-.067.399-.097.597-.038.248-.067.496-.092.748-.021.189-.038.374-.055.559-.004.092-.013.189-.021.282-.008.097-.013.189-.017.282s-.008.185-.013.278c-.008.122-.013.244-.013.37-.004.177-.008.353-.008.534 0 6.215 2.712 11.807 7.014 15.659-.515.732-1.2 1.27-2.079 1.64zm16.092-.488c-9.263 0-16.803-7.539-16.803-16.807 0-1.114.109-2.224.324-3.301.025-.072.059-.139.076-.21.008-.038 1.068-3.961 4.512-5.845 2.435-1.333 5.576-1.388 9.339-.168.114.071.248.139.408.198 4.512 1.695 8.179 1.808 10.92.341 1.186 2.569 3.574 6.358 8.031 8.952v.034c0 9.267-7.539 16.806-16.807 16.806zm24.132.782c-3.04.071-6.665-.58-8.427-3.62 3.313-3.717 5.328-8.612 5.328-13.969 0-.488-.017-.975-.046-1.455-.004-.021-.008-.042-.013-.063-.008-.076-.021-.147-.038-.223-.013-.063-.025-.13-.046-.193-.017-.059-.042-.118-.063-.172-.029-.072-.059-.143-.097-.21-.025-.046-.055-.088-.084-.135-.046-.072-.093-.139-.143-.206-.034-.038-.067-.072-.101-.105-.063-.063-.122-.126-.193-.185-.034-.029-.071-.051-.109-.08-.076-.055-.156-.105-.244-.151-.013-.008-.025-.017-.038-.025-5.248-2.603-7.27-7.48-7.804-9.057.627-1.152 1.114-2.645 1.303-4.567.589-.299 1.775-.803 3.213-.921 2.678-.219 4.966 1.064 6.799 3.81 3.402 5.105 1.905 12.753.702 18.897-.568 2.906-1.06 5.412-1.06 7.523 0 2.185.463 3.854 1.161 5.107zm14.217-46.043c0 2.792-1.039 5.458-2.927 7.514l-3.814 4.159-3.212 3.507c-.404-1.039-.908-2.044-1.552-3.007-.227-.341-.458-.66-.694-.963-1.577-2.048-3.326-3.309-5.084-4.016-2.964-1.194-5.963-.824-8.225.008-.362-1.106-.896-2.203-1.631-3.309-.383-.572-.837-1.11-1.358-1.61-.122-.118-.248-.235-.378-.353-.025-.021-.055-.042-.08-.067-.118-.101-.24-.202-.366-.303-.286-.235-.593-.458-.908-.669-.206-.143-.416-.278-.631-.404-.109-.067-.219-.13-.328-.194-.105-.063-.214-.122-.324-.185-.143-.08-.29-.156-.442-.231-.088-.042-.177-.088-.265-.13-.139-.071-.282-.139-.429-.206-.088-.038-.177-.08-.265-.118-.13-.059-.269-.118-.404-.172-.122-.05-.248-.101-.378-.151-.177-.071-.357-.139-.542-.202-.164-.059-.332-.118-.5-.172-.168-.059-.336-.114-.509-.164-.008-.004-.013-.004-.021-.008-.336-.101-.677-.198-1.022-.286-.168-.046-.332-.088-.5-.126s-.332-.076-.496-.109c-.042-.008-.08-.017-.122-.025-.109-.025-.223-.05-.336-.071-.025-.004-.046-.008-.071-.013-.172-.034-.345-.067-.521-.097-.109-.021-.223-.038-.341-.059-.143-.021-.286-.046-.429-.063-.244-.034-.492-.067-.74-.097-.202-.025-.404-.046-.605-.067-.181-.017-.362-.034-.547-.046-.122-.008-.244-.017-.366-.025-.248-.017-.496-.029-.744-.038-.139-.004-.282-.008-.42-.013-1.182-.029-2.38.017-3.578.139-.416.038-.837.088-1.257.151-.912.13-1.821.311-2.716.534-8.898 2.229-14.99 8.578-17.198 17.711-.349 1.421-.597 2.914-.748 4.466-.008.097-.013.193-.008.294.004.097.051 1.114.236 2.729l-13.7-15.941c-1.774-2.031-2.754-4.63-2.754-7.325v-83.173c0-1.257 1.026-2.283 2.283-2.283h79.687c1.261 0 2.283 1.026 2.283 2.283v82.996zm17.017-66.601c0 2.031-1.653 3.688-3.688 3.688h-9.104v-12.838h9.104c2.035 0 3.688 1.657 3.688 3.692z" fill="#160f60"/><path d="m118.806 81.213v83.172c0 2.695.98 5.294 2.754 7.325l3.288 3.826c-.349 1.421-.597 2.914-.748 4.466-.008.097-.013.193-.008.294.004.097.051 1.114.236 2.729l-13.7-15.941c-1.774-2.031-2.754-4.63-2.754-7.325v-83.172c0-1.257 1.026-2.283 2.283-2.283h79.687c1.261 0 2.283 1.026 2.283 2.283v2.342h-71.037c-1.258 0-2.284 1.026-2.284 2.284z" fill="#fff"/><path d="m170.585 188.004v.034c0 9.268-7.539 16.807-16.807 16.807-9.263 0-16.803-7.539-16.803-16.807 0-1.114.109-2.224.324-3.301.025-.072.059-.139.076-.21.008-.038 1.068-3.961 4.512-5.845 2.435-1.333 5.576-1.388 9.339-.168.114.071.248.139.408.198 4.512 1.695 8.179 1.808 10.92.341 1.185 2.568 3.574 6.356 8.031 8.951z" fill="#fff"/><path d="m261.112 251.295v-.004c-.635-1.497-1.4-2.943-2.288-4.314-.029-.042-.055-.092-.088-.135-.534-.812-1.11-1.598-1.728-2.355-1.001-2.233-2.3-6.501-3.41-13.165-1.27-7.636-1.699-15.268-.988-17.744 1.779-6.227 2.027-11.593 2.035-11.82.004-.097.004-.198-.008-.294-.723-7.455-3.852-13.388-8.868-17.173-2.317-1.749-5.042-3.04-8.115-3.81-8.578-2.149-18.325.261-21.731 5.374-.673 1.009-1.169 2.014-1.509 3.023-3.633-1.295-9.154-1.312-13.208 4.768-4.142 6.211-2.552 14.326-1.274 20.848.471 2.422.921 4.705.921 6.295 0 3.095-.694 9.902-1.354 15.659v.004c-.004.055-.013.105-.017.156-1.354.698-2.565 1.547-3.591 2.498-.824-4.066-2.481-7.838-4.789-11.118-5.37-7.64-14.25-12.644-24.279-12.644h-25.578c-14.494 0-26.583 10.453-29.144 24.212-4.306-3.368-9.642-5.248-15.188-5.248h-24.348c-6.143 0-11.828 2.002-16.437 5.391-6.892 5.067-11.374 13.229-11.374 22.42 0 4.079 3.322 7.401 7.401 7.401h203.755c4.083 0 7.4-3.322 7.4-7.401.001-3.743-.76-7.422-2.198-10.824zm-149.522-6.299v20.297h-59.435c-1.749 0-3.175-1.425-3.175-3.175 0-.328.008-.656.021-.98.004-.122.008-.244.017-.362.021-.408.055-.812.101-1.215.017-.164.038-.332.059-.496.004-.025.004-.055.013-.084.013-.126.034-.257.055-.383.004-.046.013-.097.021-.143.017-.126.038-.252.063-.378.122-.719.277-1.43.471-2.123.034-.134.072-.265.109-.395.063-.223.135-.446.206-.669.013-.055.034-.109.051-.164.08-.236.164-.475.248-.711.168-.458.349-.912.551-1.358.055-.13.114-.265.177-.395.16-.353.332-.698.513-1.043.088-.172.181-.341.278-.513.042-.08.088-.16.135-.24.021-.042.042-.08.067-.118.021-.042.046-.084.071-.122.101-.172.202-.345.311-.513.135-.223.273-.442.42-.656.084-.126.168-.252.257-.374v-.004c.097-.139.193-.273.294-.412.151-.21.307-.416.471-.622.134-.177.277-.349.416-.521.299-.366.614-.723.938-1.068.134-.143.269-.286.408-.425.126-.13.252-.257.378-.378.008-.013.021-.021.029-.029.004-.008.013-.013.017-.017h.004c.126-.126.252-.248.383-.366.135-.126.273-.252.412-.374.114-.105.231-.206.349-.303.151-.13.303-.256.454-.378.017-.017.034-.029.05-.038.151-.126.307-.248.463-.366.135-.105.273-.21.416-.311.147-.109.299-.219.45-.324.168-.118.345-.236.522-.349.088-.063.177-.118.265-.172.105-.071.21-.135.315-.198.265-.168.53-.324.799-.475.156-.088.315-.177.475-.261.227-.122.454-.24.685-.349.198-.101.399-.193.601-.286.084-.038.168-.076.252-.114.236-.105.475-.206.715-.299.088-.042.181-.076.269-.109.21-.084.42-.16.631-.236.198-.071.399-.139.601-.206.034-.013.063-.021.092-.029.198-.063.395-.122.593-.181.092-.029.189-.059.286-.084.219-.063.446-.122.664-.172.265-.072.53-.13.799-.185.202-.042.408-.084.614-.122.627-.118 1.257-.206 1.896-.269.193-.021.387-.038.584-.051.387-.029.778-.05 1.169-.059.202-.004.408-.008.61-.008h24.346c4.802 0 9.423 1.699 13.065 4.739.563.467 1.106.971 1.619 1.501.001.076-.004.148-.004.223zm80.663 20.297h-76.436v-20.297c0-.071 0-.134.004-.206v-.004c0-.109.004-.223.008-.332.055-.257.063-.526.021-.786.694-13.405 11.82-24.098 25.393-24.098h25.578c5.639 0 10.857 1.846 15.079 4.966 6.278 4.634 10.352 12.081 10.352 20.461v20.296zm27.184-77.096c2.14-3.204 9.94-5.433 17.189-3.62.16.042.328.084.496.135.172.046.345.097.521.151.177.055.357.114.538.177.181.059.366.126.555.198.139.05.277.105.416.164.286.109.576.235.87.374.16.071.324.147.488.231.013.008.025.013.042.021.177.088.349.181.53.277.151.084.307.168.458.261.05.025.101.055.151.088.151.088.307.181.458.282.156.097.315.202.471.311.046.029.093.063.134.092.122.084.248.172.374.269.143.105.286.215.429.328.071.055.139.109.21.168.13.105.265.219.4.336.063.055.126.109.185.164.097.084.193.172.286.265.097.088.194.181.29.278.097.092.189.189.282.286.092.097.185.193.277.294.093.101.185.202.278.307l.013.013c.113.13.227.265.336.404.076.092.156.189.231.29.08.101.156.202.231.303.353.471.689.976 1.013 1.518.093.16.185.32.273.484.096.177.193.357.286.542.101.198.198.395.294.601.071.151.139.307.206.462.03.067.059.139.093.21.055.135.114.269.164.408.114.282.219.572.32.87.051.143.101.294.147.45.059.185.118.374.172.568.042.139.08.278.118.416.08.303.156.61.227.925.042.185.08.37.118.559.055.257.105.521.147.786.025.126.046.256.063.387.021.122.038.24.055.366.025.147.042.299.063.45.025.219.051.442.076.669-.05.858-.387 5.508-1.871 10.701-1.047 3.675-.294 12.589.921 19.797.572 3.41 1.362 7.232 2.393 10.487-.16-.105-.32-.21-.479-.324-.16-.105-.324-.219-.488-.336-.147-.101-.294-.206-.446-.311-.282-.202-.563-.408-.849-.622-.231-.172-.463-.349-.694-.526-.025-.021-.055-.042-.08-.063-.256-.202-.517-.408-.774-.618-.219-.177-.433-.357-.652-.542-.055-.042-.105-.088-.16-.139-.122-.105-.248-.215-.37-.324-.122-.105-.248-.215-.37-.328-.122-.109-.244-.223-.366-.336-.122-.109-.244-.223-.362-.341-.589-.559-1.16-1.148-1.707-1.758-.088-.126-.193-.244-.307-.349-2.864-3.313-4.857-7.249-4.302-11.559.185-.16.37-.32.551-.488.164-.147.319-.294.475-.45.172-.168.345-.341.513-.517.202-.21.399-.429.589-.648.076-.084.151-.172.223-.256.076-.088.147-.177.219-.265.143-.172.282-.349.416-.53.139-.177.269-.357.4-.542.055-.076.105-.147.155-.223.126-.177.244-.357.362-.538.114-.181.227-.366.337-.551.029-.042.055-.088.08-.13.046-.08.092-.156.134-.235.122-.206.236-.416.345-.627.071-.134.139-.273.206-.408.067-.143.139-.282.202-.425.067-.143.135-.29.198-.437.114-.256.223-.521.319-.782.055-.139.105-.273.156-.412.046-.126.088-.248.13-.374.067-.193.13-.387.185-.584.055-.16.101-.324.143-.488.046-.16.088-.32.126-.484.025-.088.046-.177.063-.265.021-.088.042-.177.059-.269.033-.156.067-.311.097-.467.038-.198.076-.395.105-.593.051-.273.088-.547.118-.82.013-.088.021-.177.029-.265.013-.101.021-.198.03-.299.008-.088.017-.172.021-.261.025-.265.038-.534.046-.803.004-.101.008-.202.008-.303.009-.147.009-.299.009-.446 0-1.354-.139-2.704-.408-4.016-.029-.143-.071-.277-.126-.408-.017-.051-.038-.122-.059-.202-.008-.029-.021-.059-.03-.088-.008-.034-.021-.067-.033-.101-.021-.071-.046-.147-.076-.227-.021-.059-.042-.118-.067-.181-.017-.05-.038-.101-.059-.156-.071-.198-.164-.416-.269-.656-.042-.101-.088-.206-.139-.311-.088-.193-.189-.391-.299-.601-.046-.093-.097-.185-.151-.282-.03-.055-.059-.109-.093-.168-.088-.16-.185-.32-.29-.484-.067-.114-.139-.227-.214-.341-.051-.08-.105-.16-.16-.24-.059-.084-.118-.172-.181-.256-.076-.109-.156-.219-.24-.328-.101-.13-.206-.265-.315-.395-.261-.319-.551-.635-.862-.946-.076-.071-.151-.147-.227-.219-.156-.151-.32-.299-.488-.437-.059-.05-.118-.101-.177-.147-.08-.067-.164-.135-.252-.202-.105-.084-.219-.168-.332-.248-.105-.076-.21-.147-.319-.223-.084-.059-.172-.114-.265-.172-.202-.126-.412-.252-.631-.37-3.402-1.859-7.552-1.98-12.354-.353-.194.063-.357.151-.488.236-3.07 1.11-5.437 1.224-6.858.324-1.106-.698-1.758-2.119-1.934-4.213-.119-1.475.306-2.884 1.336-4.431zm-1.064 12.556c2.599 1.333 6.047 1.211 10.26-.37.151-.055.286-.126.4-.193 3.482-1.127 6.387-1.081 8.641.135 3.229 1.741 4.218 5.416 4.226 5.441.017.071.046.13.067.198.202 1.005.307 2.039.307 3.078 0 8.654-7.043 15.697-15.697 15.697-8.641 0-15.672-7.018-15.697-15.655 4.113-2.419 6.358-5.913 7.493-8.331zm19.221 33.635c-.698-.055-1.392-.08-2.094-.08h-21.853c1.161-2.477 2.035-5.273 2.384-8.376 3.061 1.917 6.673 3.032 10.546 3.032 3.078 0 6-.706 8.607-1.959.223 2.648 1.11 5.116 2.41 7.383zm-32.874-38.399c3.385-5.071 7.754-3.456 9.205-2.716.185 1.774.631 3.166 1.211 4.247-.509 1.51-2.372 5.962-7.266 8.397-.021.008-.042.025-.063.038-.059.029-.118.071-.172.109-.059.038-.118.076-.172.122-.05.042-.092.088-.139.13-.05.05-.105.101-.151.16-.038.051-.076.105-.109.16-.038.055-.08.114-.114.172-.03.063-.055.126-.08.189-.03.063-.055.122-.076.189-.017.063-.029.126-.042.189-.017.076-.034.147-.042.223 0 .021-.008.042-.008.063-.029.454-.046.917-.046 1.379 0 5.222 2.023 9.978 5.323 13.535.13 8.797-5.029 15.255-8.797 18.787.753-6.227 1.896-16.378 1.896-20.574 0-1.997-.463-4.365-1.001-7.106-1.127-5.76-2.532-12.929.643-17.693zm51.19 69.304h-59.432v-19.195c.126-1.194.891-2.653 2.35-3.978-.282 2.283-.475 3.793-.484 3.847-.105.807.265 1.606.946 2.048.349.227.749.336 1.152.336.383 0 .765-.101 1.106-.311.114-.067.669-.416 1.501-1.034 1.917-1.421 5.311-4.281 8.174-8.473h24.277c1.917 0 3.822.231 5.664.685.227.248.458.492.69.732 1.119 1.161 2.309 2.233 3.498 3.208.139.118.278.231.416.341.29.231.58.454.866.673.214.168.429.328.639.484.105.08.21.16.319.235.248.181.492.357.732.526.177.122.349.244.521.362.118.08.24.164.357.244.374.256.744.496 1.102.727.471.303.929.584 1.367.849.219.135.433.265.639.383.294.172.58.341.849.492.008.004.017.013.025.017.256.143.496.278.723.4.706.387 1.283.681 1.682.879 2.266 3.692 3.494 7.972 3.494 12.35.002 1.748-1.419 3.173-3.173 3.173z" fill="#160f60"/><path d="m109.976 243.273c-.706-.076-1.417-.114-2.132-.114h-24.346c-.202 0-.408.004-.61.008-.391.008-.782.029-1.169.059-.198.013-.391.029-.584.051-.639.063-1.27.151-1.896.269-.206.038-.412.08-.614.122-.269.055-.534.114-.799.185-.219.05-.446.109-.664.172-.097.025-.193.055-.286.084-.198.059-.395.118-.593.181-.029.008-.059.017-.092.029-.202.067-.404.135-.601.206-.21.076-.42.151-.631.235-.088.034-.181.067-.269.109-.24.092-.479.193-.715.299-.084.038-.168.076-.252.114-.202.092-.404.185-.601.286-.231.109-.458.227-.685.349-.16.084-.32.172-.475.261-.269.151-.534.307-.799.475-.105.063-.21.126-.315.198-.088.055-.177.109-.265.172-.177.114-.353.231-.522.349-.151.105-.303.214-.45.324-.143.101-.282.206-.416.311-.156.118-.311.24-.463.366-.017.008-.034.021-.05.038-.151.122-.303.248-.454.378-.118.097-.235.198-.349.303-.139.122-.277.248-.412.374-.13.118-.256.24-.383.366h-.004c-.004.004-.013.008-.017.017-.008.008-.021.017-.029.029-.126.122-.252.248-.378.378-.139.139-.273.282-.408.425-.324.345-.639.702-.938 1.068-.139.172-.282.345-.416.521-.164.206-.32.412-.471.622-.101.139-.198.273-.294.412v.004c-.088.122-.172.248-.257.374-.147.214-.286.433-.42.656-.109.168-.21.341-.311.513-.025.038-.05.08-.071.122-.025.038-.046.076-.067.118-.046.08-.092.16-.135.24-.097.172-.189.341-.278.513-.181.345-.353.69-.513 1.043-.063.13-.122.265-.177.395-.202.446-.383.9-.551 1.358-.084.236-.168.475-.248.711-.017.055-.038.109-.051.164-.071.223-.143.446-.206.668-.038.13-.076.261-.109.395-.193.694-.349 1.404-.471 2.124-.025.126-.046.252-.063.378-.008.046-.017.097-.021.143-.021.126-.042.257-.055.383-.008.029-.008.059-.013.084-.021.164-.042.332-.059.496-.042.366-.076.736-.093 1.106h-7.804c-1.749 0-3.175-1.425-3.175-3.175 0-.328.008-.656.021-.98.004-.122.008-.244.017-.362.021-.408.055-.812.101-1.215.017-.164.038-.332.059-.496.004-.025.004-.055.013-.084.013-.126.034-.257.055-.383.004-.046.013-.097.021-.143.017-.126.038-.252.063-.378.122-.719.277-1.43.471-2.123.034-.134.072-.265.109-.395.063-.223.135-.446.206-.669.013-.055.034-.109.051-.164.08-.236.164-.475.248-.711.168-.458.349-.912.551-1.358.055-.13.114-.265.177-.395.16-.353.332-.698.513-1.043.088-.172.181-.341.278-.513.042-.08.088-.16.135-.24.021-.042.042-.08.067-.118.021-.042.046-.084.071-.122.101-.172.202-.345.311-.513.135-.223.273-.442.42-.656.084-.126.168-.252.257-.374v-.004c.097-.139.193-.273.294-.412.151-.21.307-.416.471-.622.134-.177.277-.349.416-.521.299-.366.614-.723.938-1.068.134-.143.269-.286.408-.425.126-.13.252-.257.378-.378.008-.013.021-.021.029-.029.004-.008.013-.013.017-.017h.004c.126-.126.252-.248.383-.366.135-.126.273-.252.412-.374.114-.105.231-.206.349-.303.151-.13.303-.256.454-.378.017-.017.034-.029.05-.038.151-.126.307-.248.463-.366.135-.105.273-.21.416-.311.147-.109.299-.219.45-.324.168-.118.345-.236.522-.349.088-.063.177-.118.265-.172.105-.071.21-.135.315-.198.265-.168.53-.324.799-.475.156-.088.315-.177.475-.261.227-.122.454-.24.685-.349.198-.101.399-.193.601-.286.084-.038.168-.076.252-.114.236-.105.475-.206.715-.299.088-.042.181-.076.269-.109.21-.084.42-.16.631-.236.198-.071.399-.139.601-.206.034-.013.063-.021.092-.029.198-.063.395-.122.593-.181.092-.029.189-.059.286-.084.219-.063.446-.122.664-.172.265-.072.53-.13.799-.185.202-.042.408-.084.614-.122.627-.118 1.257-.206 1.896-.269.193-.021.387-.038.584-.051.387-.029.778-.05 1.169-.059.202-.004.408-.008.61-.008h24.346c4.802.002 9.423 1.7 13.065 4.741z" fill="#fff"/><path d="m181.9 224.536c-1.35-.227-2.733-.341-4.146-.341h-25.578c-13.573 0-24.699 10.693-25.393 24.098.042.261.034.53-.021.786-.004.181-.013.362-.013.542v15.672h-10.933v-20.297c0-.071 0-.134.004-.206v-.004c0-.109.004-.223.008-.332.055-.257.063-.526.021-.786.694-13.405 11.82-24.098 25.393-24.098h25.578c5.64 0 10.859 1.846 15.08 4.966z" fill="#fff"/><path d="m245.352 243.159h-15.756c-4.953 0-9.898.345-14.805 1.03-1.594.223-3.074.858-4.302 1.812-1.228.95-2.208 2.224-2.792 3.721-.156.404-.261.753-.286 1.001v14.57h-10.933v-19.195c.126-1.194.891-2.653 2.35-3.978-.282 2.283-.475 3.793-.484 3.847-.105.807.265 1.606.946 2.048.349.227.749.336 1.152.336.383 0 .765-.101 1.106-.311.114-.067.669-.416 1.501-1.034 1.917-1.421 5.311-4.281 8.174-8.473h24.277c1.917 0 3.822.231 5.664.685.227.248.458.492.69.732 1.118 1.161 2.308 2.233 3.498 3.209z" fill="#fff"/><path d="m242.274 209.041c0 8.654-7.043 15.697-15.697 15.697-8.641 0-15.672-7.018-15.697-15.655 4.112-2.418 6.358-5.912 7.493-8.33 2.599 1.333 6.047 1.211 10.26-.37.151-.055.286-.126.4-.193 3.482-1.127 6.387-1.081 8.641.135 3.229 1.741 4.218 5.416 4.226 5.441.017.071.046.13.067.198.202 1.004.307 2.038.307 3.077z" fill="#fff"/><path d="m99.977 199.613c.753-1.034 1.232-2.313 1.531-3.397 1.257-4.567 1.039-11.87-2.414-17.118-3.116-4.73-8.561-8.086-14.94-9.2-7.106-1.24-14.536.412-19.885 4.419-3.915 2.931-6.648 6.497-8.141 10.449-1.753 4.638-1.787 9.81 0 15.095.332.984.727 1.976 1.186 2.964 1.266 2.729 2.195 6.782 1.018 9.97-.374 1.009-1.161 1.774-2.203 2.182-.42.168-.883.277-1.379.32-1.375.118-3.141-1.022-3.789-2.439-.16-.357-.092-.833.034-1.581.21-1.266.559-3.385-1.371-5.147-.837-.761-1.913-1.114-3.107-1.034-2.864.206-5.727 2.956-6.589 3.999-3.755 4.55-4.268 9.97-1.404 14.868 3.335 5.71 10.432 9.448 17.606 9.65.206.008.412.013.618.013 1.224 0 2.447-.101 3.65-.32 5.824-1.043 10.546-2.649 14.318-6.77 2.481 1.144 5.235 1.787 8.141 1.787 10.731 0 19.46-8.729 19.46-19.464-.002-3.342-.848-6.491-2.34-9.246zm-40.325 29.535c-.126.021-.248.042-.374.063-.248.038-.496.071-.744.097-.126.013-.248.025-.37.038-.244.021-.488.038-.732.046h-.013c-.437.021-.875.025-1.308.008-.042 0-.08-.004-.122-.004-.164-.004-.332-.017-.492-.029-.198-.013-.391-.029-.589-.05-.16-.017-.315-.034-.475-.055-.071-.008-.143-.017-.214-.029-.008 0-.017 0-.025-.004-.017 0-.034-.004-.05-.008-.021-.004-.046-.004-.067-.008-.114-.013-.219-.029-.328-.051-.139-.025-.282-.046-.416-.076-.013-.004-.025-.004-.034-.008-.181-.034-.366-.071-.547-.114-.122-.029-.244-.059-.366-.088-.025-.004-.046-.008-.072-.017-.084-.017-.172-.042-.256-.067-.164-.042-.32-.084-.479-.135-.055-.013-.109-.029-.164-.051-.147-.042-.299-.092-.446-.143-.147-.046-.29-.097-.433-.151-.126-.046-.248-.092-.37-.139-.042-.013-.08-.029-.122-.046-.126-.046-.248-.097-.37-.151-.265-.109-.526-.223-.778-.345-.143-.067-.286-.139-.429-.21-.13-.063-.261-.13-.387-.202-.143-.076-.286-.156-.425-.235-.139-.08-.278-.16-.412-.244-.202-.118-.4-.244-.593-.374-.092-.059-.181-.118-.269-.181-.177-.122-.349-.244-.517-.37-.059-.042-.118-.088-.177-.135-.025-.017-.05-.038-.076-.055-.105-.08-.21-.164-.311-.244-.008-.008-.017-.013-.025-.021-.126-.101-.248-.206-.366-.311-.101-.08-.202-.172-.294-.261-.278-.248-.538-.505-.786-.77-.092-.097-.181-.193-.265-.29-.097-.105-.194-.214-.282-.324-.126-.151-.248-.303-.362-.454-.097-.122-.185-.244-.269-.37-.177-.248-.336-.496-.484-.748-1.375-2.355-2.317-6.009 1.018-10.046 1.043-1.261 2.952-2.477 3.629-2.477h.017c.139.135.16.282-.008 1.274-.172 1.047-.408 2.481.29 4.02 1.396 3.069 4.823 5.172 7.998 4.903.21-.017.416-.042.618-.076.101-.013.202-.029.303-.051.051-.008.101-.017.147-.029.101-.021.202-.042.303-.067.109-.025.223-.055.328-.084.134-.038.265-.08.395-.122.189-.063.378-.13.559-.206.134-.055.269-.114.404-.177.177-.08.349-.168.517-.265.067-.038.13-.071.193-.109.067-.038.139-.08.206-.126.139-.088.277-.181.412-.278.017-.008.034-.021.05-.034.101-.076.202-.151.299-.231.429-.341.82-.727 1.165-1.152.076-.092.151-.189.223-.286.248-.328.467-.677.66-1.047.063-.118.122-.24.181-.362.08-.177.156-.357.223-.542 1.383-3.742.955-8.679-1.152-13.216-4.18-9.015-2.119-17.526 5.656-23.35 4.436-3.322 10.651-4.68 16.626-3.637 5.235.917 9.663 3.599 12.135 7.363 3.057 4.642 2.708 11.277 1.686 14.351-1.724-1.892-3.818-3.444-6.164-4.545.391-.681.614-1.472.614-2.313v-2.073c0-2.594-2.111-4.705-4.705-4.705h-7.295c-2.594 0-4.705 2.111-4.705 4.705v2.073c0 .702.156 1.362.429 1.959-7.056 2.927-12.03 9.886-12.03 17.984 0 6.278 2.99 11.87 7.615 15.432-2.92 2.827-6.595 4.005-11.355 4.858zm27.34-39.748h-7.295c-.261 0-.479-.223-.479-.484v-2.073c0-.261.219-.479.479-.479h7.295c.261 0 .479.219.479.479v2.073c0 .261-.218.484-.479.484zm.206 4.861c-.576 1.791-1.392 3.448-2.443 4.937-5.075 7.195-14.078 8.317-16.719 8.49-.13.013-.252.034-.379.067.572-7.888 7.165-14.128 15.196-14.128 1.511-.001 2.966.221 4.345.634zm-4.344 29.837c-7.367 0-13.531-5.256-14.936-12.211.084.008.168.021.256.021.046 0 .093 0 .139-.004 3.112-.202 13.737-1.547 19.897-10.268 1.203-1.707 2.157-3.583 2.851-5.601 4.222 2.712 7.026 7.447 7.026 12.825.002 8.405-6.831 15.238-15.233 15.238z" fill="#160f60"/><path d="m98.089 208.86c0 8.406-6.833 15.238-15.234 15.238-7.367 0-13.531-5.256-14.936-12.211.084.008.168.021.256.021.046 0 .093 0 .139-.004 3.112-.202 13.737-1.547 19.897-10.268 1.203-1.707 2.157-3.583 2.851-5.601 4.222 2.712 7.027 7.447 7.027 12.825z" fill="#fff"/><path d="m171.745 105.479c0-6.85-3.183-12.972-8.149-16.958-3.726-2.998-8.456-4.789-13.599-4.789-11.992 0-21.748 9.755-21.748 21.748 0 11.088 8.347 20.263 19.086 21.584.181.021.366.042.551.059v7.619h-10.142c-1.169 0-2.115.946-2.115 2.111 0 1.169.946 2.115 2.115 2.115h10.142v9.629c0 1.165.946 2.111 2.111 2.111 1.169 0 2.115-.946 2.115-2.111v-9.629h9.112c.778 0 1.455-.416 1.821-1.039.189-.315.294-.685.294-1.076s-.105-.757-.294-1.072c-.366-.622-1.043-1.039-1.821-1.039h-9.112v-7.619c11.001-1.07 19.633-10.367 19.633-21.644zm-21.747 17.522c-.177 0-.349-.004-.521-.008-.164-.004-.328-.013-.488-.021-.139-.008-.278-.017-.412-.029-.122-.008-.244-.021-.366-.034-.883-.088-1.745-.244-2.586-.463-.139-.034-.278-.071-.416-.113-.278-.076-.551-.16-.824-.257-.269-.092-.538-.189-.803-.294-.467-.181-.925-.387-1.367-.61-.017-.004-.029-.013-.042-.021-.168-.084-.332-.168-.492-.257-.185-.097-.37-.202-.551-.311-.164-.097-.328-.198-.488-.299-1.034-.652-1.993-1.413-2.864-2.262-.126-.126-.256-.252-.378-.383-.139-.143-.277-.286-.408-.437-.135-.147-.265-.294-.395-.45-.223-.265-.437-.538-.648-.816-.08-.105-.16-.214-.236-.324-.084-.113-.164-.227-.24-.345-.332-.488-.635-.992-.917-1.514-.092-.168-.177-.336-.261-.505-.08-.164-.16-.324-.231-.488-.097-.202-.185-.408-.269-.614-.08-.189-.151-.378-.223-.568-.063-.16-.118-.324-.177-.488-.076-.223-.143-.446-.21-.673-.055-.185-.109-.379-.16-.568-.177-.698-.315-1.417-.408-2.145-.021-.147-.038-.294-.05-.441-.021-.168-.034-.341-.046-.513-.017-.21-.025-.42-.034-.635-.008-.21-.013-.425-.013-.639 0-9.663 7.863-17.522 17.522-17.522.257 0 .509.004.765.017.252.013.505.025.753.051.24.017.475.042.711.076l.101.013c.21.025.416.059.622.092.29.051.58.105.866.172.21.046.42.097.631.151.235.063.467.126.698.202.021.004.038.008.059.017.189.059.378.118.563.185.025.008.051.017.071.025h.004c.059.021.118.042.172.063.156.055.307.114.458.177.164.063.328.13.488.206.08.029.16.067.24.105.189.084.378.172.563.265.143.071.286.143.429.219.181.097.362.198.538.299.114.067.231.135.345.206.244.147.479.299.711.458.118.076.236.156.349.24.458.328.904.677 1.329 1.043.105.092.206.185.307.277.185.164.366.336.542.513.261.252.509.517.744.786.105.109.202.219.29.332.198.227.387.463.568.702.088.114.172.227.252.341.126.164.24.332.353.5.059.084.118.168.172.257.097.151.193.299.286.454.101.164.198.328.29.496.046.08.088.156.13.235.076.135.147.273.219.412.097.189.189.383.277.576.114.235.214.475.315.715.076.181.147.366.214.551.08.21.156.425.223.639.071.215.139.433.202.652 0 .004.004.008.004.008.059.21.114.425.168.639 0 .004 0 .013.004.021.046.189.088.374.126.563.017.071.029.143.042.214.034.172.067.349.097.526 0 .017.004.038.008.055.025.172.05.341.071.513.004.013.004.021.004.034.017.122.034.244.042.366.021.172.038.345.051.517.013.189.025.383.034.576 0 .042.004.084.004.126.008.214.013.429.013.643.005 9.662-7.853 17.526-17.516 17.526z" fill="#160f60"/></g></svg>