<svg id="&#x428;&#x430;&#x440;_1" enable-background="new 0 0 300 300" viewBox="0 0 300 300" xmlns="http://www.w3.org/2000/svg"><g><path d="m81.318 123.617v-5.146h-8.167v-36.196h-52.192v208.486h60.359v-91.824h-8.167v-75.32zm-36.713 114.994v23.292h-18.818v-23.292zm-18.818-50.825h18.817v23.298h-18.817zm0-27.527v-23.292h18.817v23.292zm0-74.118h18.817v23.298h-18.817z" fill="#6ea9ff"/><path d="m204.063 217.965c0 2.78-2.258 5.038-5.038 5.038h-14.183v52.197h13.021c2.78 0 5.038 2.263 5.038 5.038v5.376h23.948v-81.532h-22.786z" fill="#ffe471"/><path d="m98.261 217.965v-13.881h-25.11v81.532h23.948v-5.376c0-2.775 2.258-5.038 5.038-5.038h13.026v-52.197h-11.863c-2.776-.001-5.039-2.259-5.039-5.04z" fill="#ffe471"/><path d="m231.995 64.835v-38.162h-145.531v96.944h16.293v-5.832h-8.167v-23.292h18.817v7.143h5.146v16.257c0 .195-.01.389-.036.579h13.349v5.146h18.054v-5.842l-8.167-.005.015-23.277h18.787l.015.016-.005 7.128h5.151v16.134c0 .241-.02.471-.051.701h13.364v5.146h18.054v-5.842l-8.167-.005.015-23.277h18.787l.015.016-.005 7.128h5.151v16.134c0 .241-.02.471-.056.701h13.369v11.588c0 .241-.02.471-.056.701h5.858v-60.777h8.167v-5.151zm-137.405-23.292h18.817v23.292h-18.817zm47.164 0h18.817v23.292h-18.817zm47.179 0h18.787l.015.015-.015 23.277-18.802-.015z" fill="#6ea9ff"/><path d="m245.308 82.275v208.486h47.333c2.678 0 4.859-2.181 4.859-4.859v-203.627zm26.273 155.245v23.298h-18.817v-23.298zm-18.818-101.644h18.817v23.298h-18.817zm18.818 74.117h-18.817v-23.293h18.817zm-18.802-124.937h18.787l.015.015-.015 23.277-18.802-.015z" fill="#6ea9ff"/><path d="m103.407 204.084h95.51v13.774h-95.51z" fill="#6ea9ff"/><path d="m102.245 280.347h95.51v5.269h-95.51z" fill="#6ea9ff"/><path d="m160.556 89.347h-18.787c-2.847 0-5.161 2.314-5.161 5.161v23.262c0 .241.02.471.051.701h-4.793v5.146h18.054v-5.842l-8.167-.005.015-23.277h18.787l.015.016-.005 7.128h5.151v-7.128c.001-2.848-2.313-5.162-5.16-5.162zm-47.041 0h-19.027c-2.78 0-5.044 2.258-5.044 5.038v23.508c0 .195.015.389.036.579h-8.162v5.146h21.439v-5.832h-8.167v-23.293h18.817v7.143h5.146v-7.251c0-2.78-2.258-5.038-5.038-5.038zm52.151 29.124c.031-.23.051-.461.051-.701v-16.134h-5.151l-.01 16.15-10.635-.01v5.842h29.109v-5.146h-13.364zm-47.149 0c.026-.189.036-.384.036-.579v-16.257h-5.146v16.15h-10.65v5.832h29.109v-5.146zm47.149 0c.031-.23.051-.461.051-.701v-23.262c0-2.847-2.314-5.161-5.161-5.161h-18.787c-2.847 0-5.161 2.314-5.161 5.161v23.262c0 .241.02.471.051.701h-18.141c.026-.189.036-.384.036-.579v-16.257h-5.146v16.15h-10.65v5.832h76.273v-5.146zm-5.11-.686-10.635-.01-8.167-.005.015-23.277h18.787l.015.016-.005 7.128zm-47.041-28.438h-19.027c-2.78 0-5.044 2.258-5.044 5.038v23.508c0 .195.015.389.036.579h-8.162v5.146h21.439v-5.832h-8.167v-23.293h18.817v7.143h5.146v-7.251c0-2.78-2.258-5.038-5.038-5.038zm52.151 29.124c.031-.23.051-.461.051-.701v-23.262c0-2.847-2.314-5.161-5.161-5.161h-18.787c-2.847 0-5.161 2.314-5.161 5.161v23.262c0 .241.02.471.051.701h-18.141c.026-.189.036-.384.036-.579v-16.257h-5.146v16.15h-10.65v5.832h76.273v-5.146zm-5.11-.686-10.635-.01-8.167-.005.015-23.277h18.787l.015.016-.005 7.128zm-47.041-28.438h-19.027c-2.78 0-5.044 2.258-5.044 5.038v23.508c0 .195.015.389.036.579h-8.162v5.146h21.439v-5.832h-8.167v-23.293h18.817v7.143h5.146v-7.251c0-2.78-2.258-5.038-5.038-5.038zm52.151 29.124c.031-.23.051-.461.051-.701v-23.262c0-2.847-2.314-5.161-5.161-5.161h-18.787c-2.847 0-5.161 2.314-5.161 5.161v23.262c0 .241.02.471.051.701h-18.141c.026-.189.036-.384.036-.579v-16.257h-5.146v16.15h-10.65v5.832h76.273v-5.146zm-5.11-.686-10.635-.01-8.167-.005.015-23.277h18.787l.015.016-.005 7.128zm-47.041-28.438h-19.027c-2.78 0-5.044 2.258-5.044 5.038v23.508c0 .195.015.389.036.579h-8.162v5.146h21.439v-5.832h-8.167v-23.293h18.817v7.143h5.146v-7.251c0-2.78-2.258-5.038-5.038-5.038zm52.151 29.124c.031-.23.051-.461.051-.701v-23.262c0-2.847-2.314-5.161-5.161-5.161h-18.787c-2.847 0-5.161 2.314-5.161 5.161v23.262c0 .241.02.471.051.701h-18.141c.026-.189.036-.384.036-.579v-16.257h-5.146v16.15h-10.65v5.832h76.273v-5.146zm-5.11-.686-10.635-.01-8.167-.005.015-23.277h18.787l.015.016-.005 7.128zm-47.041-28.438h-19.027c-2.78 0-5.044 2.258-5.044 5.038v23.508c0 .195.015.389.036.579h-8.162v5.146h21.439v-5.832h-8.167v-23.293h18.817v7.143h5.146v-7.251c0-2.78-2.258-5.038-5.038-5.038zm52.151 29.124c.031-.23.051-.461.051-.701v-23.262c0-2.847-2.314-5.161-5.161-5.161h-18.787c-2.847 0-5.161 2.314-5.161 5.161v23.262c0 .241.02.471.051.701h-18.141c.026-.189.036-.384.036-.579v-16.257h-5.146v16.15h-10.65v5.832h76.273v-5.146zm-5.11-.686-10.635-.01-8.167-.005.015-23.277h18.787l.015.016-.005 7.128zm-47.041-28.438h-19.027c-2.78 0-5.044 2.258-5.044 5.038v23.508c0 .195.015.389.036.579h-8.162v5.146h21.439v-5.832h-8.167v-23.293h18.817v7.143h5.146v-7.251c0-2.78-2.258-5.038-5.038-5.038zm52.151 29.124c.031-.23.051-.461.051-.701v-23.262c0-2.847-2.314-5.161-5.161-5.161h-18.787c-2.847 0-5.161 2.314-5.161 5.161v23.262c0 .241.02.471.051.701h-18.141c.026-.189.036-.384.036-.579v-16.257h-5.146v16.15h-10.65v5.832h76.273v-5.146zm-5.11-.686-10.635-.01-8.167-.005.015-23.277h18.787l.015.016-.005 7.128zm-47.041-28.438h-19.027c-2.78 0-5.044 2.258-5.044 5.038v23.508c0 .195.015.389.036.579h-8.162v5.146h21.439v-5.832h-8.167v-23.293h18.817v7.143h5.146v-7.251c0-2.78-2.258-5.038-5.038-5.038zm52.151 29.124c.031-.23.051-.461.051-.701v-23.262c0-2.847-2.314-5.161-5.161-5.161h-18.787c-2.847 0-5.161 2.314-5.161 5.161v23.262c0 .241.02.471.051.701h-18.141c.026-.189.036-.384.036-.579v-16.257h-5.146v16.15h-10.65v5.832h76.273v-5.146zm-5.11-.686-10.635-.01-8.167-.005.015-23.277h18.787l.015.016-.005 7.128zm-47.041-28.438h-19.027c-2.78 0-5.044 2.258-5.044 5.038v23.508c0 .195.015.389.036.579h-8.162v5.146h21.439v-5.832h-8.167v-23.293h18.817v7.143h5.146v-7.251c0-2.78-2.258-5.038-5.038-5.038zm52.151 29.124c.031-.23.051-.461.051-.701v-23.262c0-2.847-2.314-5.161-5.161-5.161h-18.787c-2.847 0-5.161 2.314-5.161 5.161v23.262c0 .241.02.471.051.701h-18.141c.026-.189.036-.384.036-.579v-16.257h-5.146v16.15h-10.65v5.832h76.273v-5.146zm-5.11-.686-10.635-.01-8.167-.005.015-23.277h18.787l.015.016-.005 7.128zm-47.041-28.438h-19.027c-2.78 0-5.044 2.258-5.044 5.038v23.508c0 .195.015.389.036.579h-8.162v5.146h21.439v-5.832h-8.167v-23.293h18.817v7.143h5.146v-7.251c0-2.78-2.258-5.038-5.038-5.038zm52.151 29.124c.031-.23.051-.461.051-.701v-23.262c0-2.847-2.314-5.161-5.161-5.161h-18.787c-2.847 0-5.161 2.314-5.161 5.161v23.262c0 .241.02.471.051.701h-18.141c.026-.189.036-.384.036-.579v-16.257h-5.146v16.15h-10.65v5.832h76.273v-5.146zm-5.11-.686-10.635-.01-8.167-.005.015-23.277h18.787l.015.016-.005 7.128zm-47.041-28.438h-19.027c-2.78 0-5.044 2.258-5.044 5.038v23.508c0 .195.015.389.036.579h-8.162v5.146h21.439v-5.832h-8.167v-23.293h18.817v7.143h5.146v-7.251c0-2.78-2.258-5.038-5.038-5.038zm52.151 29.124c.031-.23.051-.461.051-.701v-23.262c0-2.847-2.314-5.161-5.161-5.161h-18.787c-2.847 0-5.161 2.314-5.161 5.161v23.262c0 .241.02.471.051.701h-18.141c.026-.189.036-.384.036-.579v-16.257h-5.146v16.15h-10.65v5.832h76.273v-5.146zm-5.11-.686-10.635-.01-8.167-.005.015-23.277h18.787l.015.016-.005 7.128zm-47.041-28.438h-19.027c-2.78 0-5.044 2.258-5.044 5.038v23.508c0 .195.015.389.036.579h-8.162v5.146h21.439v-5.832h-8.167v-23.293h18.817v7.143h5.146v-7.251c0-2.78-2.258-5.038-5.038-5.038zm52.151 29.124c.031-.23.051-.461.051-.701v-23.262c0-2.847-2.314-5.161-5.161-5.161h-18.787c-2.847 0-5.161 2.314-5.161 5.161v23.262c0 .241.02.471.051.701h-18.141c.026-.189.036-.384.036-.579v-16.257h-5.146v16.15h-10.65v5.832h76.273v-5.146zm-5.11-.686-10.635-.01-8.167-.005.015-23.277h18.787l.015.016-.005 7.128zm-47.041-28.438h-19.027c-2.78 0-5.044 2.258-5.044 5.038v23.508c0 .195.015.389.036.579h-8.162v5.146h21.439v-5.832h-8.167v-23.293h18.817v7.143h5.146v-7.251c0-2.78-2.258-5.038-5.038-5.038zm52.151 29.124c.031-.23.051-.461.051-.701v-23.262c0-2.847-2.314-5.161-5.161-5.161h-18.787c-2.847 0-5.161 2.314-5.161 5.161v23.262c0 .241.02.471.051.701h-18.141c.026-.189.036-.384.036-.579v-16.257h-5.146v16.15h-10.65v5.832h76.273v-5.146zm-5.11-.686-10.635-.01-8.167-.005.015-23.277h18.787l.015.016-.005 7.128zm-47.041-28.438h-19.027c-2.78 0-5.044 2.258-5.044 5.038v23.508c0 .195.015.389.036.579h-8.162v5.146h21.439v-5.832h-8.167v-23.293h18.817v7.143h5.146v-7.251c0-2.78-2.258-5.038-5.038-5.038zm52.151 29.124c.031-.23.051-.461.051-.701v-23.262c0-2.847-2.314-5.161-5.161-5.161h-18.787c-2.847 0-5.161 2.314-5.161 5.161v23.262c0 .241.02.471.051.701h-18.141c.026-.189.036-.384.036-.579v-16.257h-5.146v16.15h-10.65v5.832h76.273v-5.146zm-5.11-.686-10.635-.01-8.167-.005.015-23.277h18.787l.015.016-.005 7.128zm-47.041-28.438h-19.027c-2.78 0-5.044 2.258-5.044 5.038v23.508c0 .195.015.389.036.579h-8.162v5.146h21.439v-5.832h-8.167v-23.293h18.817v7.143h5.146v-7.251c0-2.78-2.258-5.038-5.038-5.038zm52.151 29.124c.031-.23.051-.461.051-.701v-16.134h-5.151l-.01 16.15-10.635-.01v5.842h29.109v-5.146h-13.364zm-47.149 0c.026-.189.036-.384.036-.579v-16.257h-5.146v16.15h-10.65v5.832h29.109v-5.146zm42.039-29.124h-18.787c-2.847 0-5.161 2.314-5.161 5.161v23.262c0 .241.02.471.051.701h-4.793v5.146h18.054v-5.842l-8.167-.005.015-23.277h18.787l.015.016-.005 7.128h5.151v-7.128c.001-2.848-2.313-5.162-5.16-5.162zm-47.041 0h-19.027c-2.78 0-5.044 2.258-5.044 5.038v23.508c0 .195.015.389.036.579h-8.162v5.146h21.439v-5.832h-8.167v-23.293h18.817v7.143h5.146v-7.251c0-2.78-2.258-5.038-5.038-5.038zm52.151 29.124c.031-.23.051-.461.051-.701v-16.134h-5.151l-.01 16.15-10.635-.01v5.842h29.109v-5.146h-13.364zm-47.149 0c.026-.189.036-.384.036-.579v-16.257h-5.146v16.15h-10.65v5.832h29.109v-5.146zm42.039-29.124h-18.787c-2.847 0-5.161 2.314-5.161 5.161v23.262c0 .241.02.471.051.701h-4.793v5.146h18.054v-5.842l-8.167-.005.015-23.277h18.787l.015.016-.005 7.128h5.151v-7.128c.001-2.848-2.313-5.162-5.16-5.162zm-47.041 0h-19.027c-2.78 0-5.044 2.258-5.044 5.038v23.508c0 .195.015.389.036.579h-8.162v5.146h21.439v-5.832h-8.167v-23.293h18.817v7.143h5.146v-7.251c0-2.78-2.258-5.038-5.038-5.038zm52.151 29.124c.031-.23.051-.461.051-.701v-16.134h-5.151l-.01 16.15-10.635-.01v5.842h29.109v-5.146h-13.364zm-47.149 0c.026-.189.036-.384.036-.579v-16.257h-5.146v16.15h-10.65v5.832h29.109v-5.146zm42.039-29.124h-18.787c-2.847 0-5.161 2.314-5.161 5.161v23.262c0 .241.02.471.051.701h-4.793v5.146h18.054v-5.842l-8.167-.005.015-23.277h18.787l.015.016-.005 7.128h5.151v-7.128c.001-2.848-2.313-5.162-5.16-5.162zm-47.041 0h-19.027c-2.78 0-5.044 2.258-5.044 5.038v23.508c0 .195.015.389.036.579h-8.162v5.146h21.439v-5.832h-8.167v-23.293h18.817v7.143h5.146v-7.251c0-2.78-2.258-5.038-5.038-5.038zm52.151 29.124c.031-.23.051-.461.051-.701v-16.134h-5.151l-.01 16.15-10.635-.01v5.842h29.109v-5.146h-13.364zm-47.149 0c.026-.189.036-.384.036-.579v-16.257h-5.146v16.15h-10.65v5.832h29.109v-5.146zm42.039-29.124h-18.787c-2.847 0-5.161 2.314-5.161 5.161v23.262c0 .241.02.471.051.701h-4.793v5.146h18.054v-5.842l-8.167-.005.015-23.277h18.787l.015.016-.005 7.128h5.151v-7.128c.001-2.848-2.313-5.162-5.16-5.162zm-47.041 0h-19.027c-2.78 0-5.044 2.258-5.044 5.038v23.508c0 .195.015.389.036.579h-3.016v5.146h16.293v-5.832h-8.167v-23.293h18.817v7.143h5.146v-7.251c0-2.78-2.258-5.038-5.038-5.038zm52.151 29.124c.031-.23.051-.461.051-.701v-16.134h-5.151l-.01 16.15-10.635-.01v5.842h29.109v-5.146h-13.364zm-47.149 0c.026-.189.036-.384.036-.579v-16.257h-5.146v16.15h-10.65v5.832h29.109v-5.146zm42.039-29.124h-18.787c-2.847 0-5.161 2.314-5.161 5.161v23.262c0 .241.02.471.051.701h-4.793v5.146h18.054v-5.842l-8.167-.005.015-23.277h18.787l.015.016-.005 7.128h5.151v-7.128c.001-2.848-2.313-5.162-5.16-5.162zm-47.041 0h-19.027c-2.78 0-5.044 2.258-5.044 5.038v23.508c0 .195.015.389.036.579h-3.016v5.146h16.293v-5.832h-8.167v-23.293h18.817v7.143h5.146v-7.251c0-2.78-2.258-5.038-5.038-5.038zm52.151 29.124c.031-.23.051-.461.051-.701v-16.134h-5.151l-.01 16.15-10.635-.01v5.842h29.109v-5.146h-13.364zm-47.149 0c.026-.189.036-.384.036-.579v-16.257h-5.146v16.15h-10.65v5.832h29.109v-5.146zm42.039-29.124h-18.787c-2.847 0-5.161 2.314-5.161 5.161v23.262c0 .241.02.471.051.701h-4.793v5.146h18.054v-5.842l-8.167-.005.015-23.277h18.787l.015.016-.005 7.128h5.151v-7.128c.001-2.848-2.313-5.162-5.16-5.162zm-47.041 0h-19.027c-2.78 0-5.044 2.258-5.044 5.038v23.508c0 .195.015.389.036.579h-3.016v5.146h16.293v-5.832h-8.167v-23.293h18.817v7.143h5.146v-7.251c0-2.78-2.258-5.038-5.038-5.038zm52.151 29.124c.031-.23.051-.461.051-.701v-16.134h-5.151l-.01 16.15-10.635-.01v5.842h29.109v-5.146h-13.364zm-47.149 0c.026-.189.036-.384.036-.579v-16.257h-5.146v16.15h-10.65v5.832h29.109v-5.146zm42.039-29.124h-18.787c-2.847 0-5.161 2.314-5.161 5.161v23.262c0 .241.02.471.051.701h-4.793v5.146h18.054v-5.842l-8.167-.005.015-23.277h18.787l.015.016-.005 7.128h5.151v-7.128c.001-2.848-2.313-5.162-5.16-5.162zm-47.041 0h-19.027c-2.78 0-5.044 2.258-5.044 5.038v23.508c0 .195.015.389.036.579h-3.016v5.146h16.293v-5.832h-8.167v-23.293h18.817v7.143h5.146v-7.251c0-2.78-2.258-5.038-5.038-5.038zm52.151 29.124c.031-.23.051-.461.051-.701v-16.134h-5.151l-.01 16.15-10.635-.01v5.842h29.109v-5.146h-13.364zm-47.149 0c.026-.189.036-.384.036-.579v-16.257h-5.146v16.15h-10.65v5.832h29.109v-5.146zm42.039-29.124h-18.787c-2.847 0-5.161 2.314-5.161 5.161v23.262c0 .241.02.471.051.701h-4.793v5.146h18.054v-5.842l-8.167-.005.015-23.277h18.787l.015.016-.005 7.128h5.151v-7.128c.001-2.848-2.313-5.162-5.16-5.162zm-47.041 0h-19.027c-2.78 0-5.044 2.258-5.044 5.038v23.508c0 .195.015.389.036.579h-3.016v5.146h16.293v-5.832h-8.167v-23.293h18.817v7.143h5.146v-7.251c0-2.78-2.258-5.038-5.038-5.038zm52.151 29.124c.031-.23.051-.461.051-.701v-16.134h-5.151l-.01 16.15-10.635-.01v5.842h29.109v-5.146h-13.364zm-47.149 0c.026-.189.036-.384.036-.579v-16.257h-5.146v16.15h-10.65v5.832h29.109v-5.146zm42.039-29.124h-18.787c-2.847 0-5.161 2.314-5.161 5.161v23.262c0 .241.02.471.051.701h-4.793v5.146h18.054v-5.842l-8.167-.005.015-23.277h18.787l.015.016-.005 7.128h5.151v-7.128c.001-2.848-2.313-5.162-5.16-5.162zm-47.041 0h-19.027c-2.78 0-5.044 2.258-5.044 5.038v23.508c0 .195.015.389.036.579h-3.016v5.146h16.293v-5.832h-8.167v-23.293h18.817v7.143h5.146v-7.251c0-2.78-2.258-5.038-5.038-5.038zm47.041 0h-18.787c-2.847 0-5.161 2.314-5.161 5.161v23.262c0 .241.02.471.051.701h-18.141c.026-.189.036-.384.036-.579v-23.507c0-2.78-2.258-5.038-5.038-5.038h-19.028c-2.78 0-5.044 2.258-5.044 5.038v23.508c0 .195.015.389.036.579h-3.016v5.146h63.457v-5.842l-8.167-.005.015-23.277h18.787l.015.016-.005 7.128h5.151v-7.128c0-2.849-2.314-5.163-5.161-5.163zm-47.149 28.438h-18.817v-23.292h18.817zm47.149-28.438h-18.787c-2.847 0-5.161 2.314-5.161 5.161v23.262c0 .241.02.471.051.701h-18.141c.026-.189.036-.384.036-.579v-23.507c0-2.78-2.258-5.038-5.038-5.038h-19.028c-2.78 0-5.044 2.258-5.044 5.038v23.508c0 .195.015.389.036.579h-3.016v5.146h63.457v-5.842l-8.167-.005.015-23.277h18.787l.015.016-.005 7.128h5.151v-7.128c0-2.849-2.314-5.163-5.161-5.163zm-47.149 28.438h-18.817v-23.292h18.817zm179.234-52.95h-60.646v-50.742c0-2.678-2.181-4.854-4.859-4.854h-154.272c-2.678 0-4.859 2.176-4.859 4.854v50.743h-60.646c-2.678 0-4.859 2.181-4.859 4.859v216.208c0 2.678 2.181 4.859 4.859 4.859h285.282c2.678 0 4.859-2.181 4.859-4.859v-216.208c0-2.678-2.181-4.86-4.859-4.86zm-219.49-50.451h153.698v104.087h-14.025c.036-.23.056-.461.056-.701v-23.262c0-2.847-2.314-5.161-5.161-5.161h-18.787c-2.847 0-5.161 2.314-5.161 5.161v23.262c0 .241.02.471.051.701h-18.157c.031-.23.051-.461.051-.701v-23.262c0-2.847-2.314-5.161-5.161-5.161h-18.787c-2.847 0-5.161 2.314-5.161 5.161v23.262c0 .241.02.471.051.701h-18.141c.026-.189.036-.384.036-.579v-23.507c0-2.78-2.258-5.038-5.038-5.038h-19.027c-2.78 0-5.044 2.258-5.044 5.038v23.508c0 .195.015.389.036.579h-16.329zm134.579 87.252-.01 16.15-10.635-.01-8.167-.005.015-23.277h18.787l.015.016zm-47.164 0-.01 16.15-10.635-.01-8.167-.005.015-23.277h18.787l.015.016zm-47.159 16.149h-18.817v-23.292h18.817zm-45.402 167.831h-60.359v-215.63h60.359zm29.094-5.377v5.376h-23.948v-81.532h25.11v13.881c0 2.78 2.263 5.038 5.038 5.038h11.864v52.197h-13.026c-2.78.002-5.038 2.265-5.038 5.04zm6.308-62.381v-13.774h95.51v13.774zm76.289 5.146v52.197h-27.123v-52.197zm-32.269 0v52.197h-27.117v-52.197zm50.328 62.612h-95.51v-5.269h95.51zm29.094 0h-23.948v-5.376c0-2.775-2.258-5.038-5.038-5.038h-13.021v-52.197h14.183c2.78 0 5.038-2.258 5.038-5.038v-13.881h22.786zm0-86.678h-153.698v-75.32h153.698zm65.505 86.678h-60.359v-215.63h60.359zm-131.798-196.269h-18.787c-2.847 0-5.161 2.314-5.161 5.161v23.262c0 .241.02.471.051.701h-18.141c.026-.189.036-.384.036-.579v-23.507c0-2.78-2.258-5.038-5.038-5.038h-19.028c-2.78 0-5.044 2.258-5.044 5.038v23.508c0 .195.015.389.036.579h-3.016v5.146h63.457v-5.842l-8.167-.005.015-23.277h18.787l.015.016-.005 7.128h5.151v-7.128c0-2.849-2.314-5.163-5.161-5.163zm-47.149 28.438h-18.817v-23.292h18.817zm.108-28.438h-19.027c-2.78 0-5.044 2.258-5.044 5.038v23.508c0 .195.015.389.036.579h-3.016v5.146h16.293v-5.832h-8.167v-23.293h18.817v7.143h5.146v-7.251c0-2.78-2.258-5.038-5.038-5.038zm47.041 0h-18.787c-2.847 0-5.161 2.314-5.161 5.161v23.262c0 .241.02.471.051.701h-4.793v5.146h18.054v-5.842l-8.167-.005.015-23.277h18.787l.015.016-.005 7.128h5.151v-7.128c.001-2.848-2.313-5.162-5.16-5.162zm-42.039 29.124c.026-.189.036-.384.036-.579v-16.257h-5.146v16.15h-10.65v5.832h29.109v-5.146zm47.149 0c.031-.23.051-.461.051-.701v-16.134h-5.151l-.01 16.15-10.635-.01v5.842h29.109v-5.146h-13.364zm-52.151-29.124h-19.027c-2.78 0-5.044 2.258-5.044 5.038v23.508c0 .195.015.389.036.579h-3.016v5.146h16.293v-5.832h-8.167v-23.293h18.817v7.143h5.146v-7.251c0-2.78-2.258-5.038-5.038-5.038zm47.041 0h-18.787c-2.847 0-5.161 2.314-5.161 5.161v23.262c0 .241.02.471.051.701h-4.793v5.146h18.054v-5.842l-8.167-.005.015-23.277h18.787l.015.016-.005 7.128h5.151v-7.128c.001-2.848-2.313-5.162-5.16-5.162zm-42.039 29.124c.026-.189.036-.384.036-.579v-16.257h-5.146v16.15h-10.65v5.832h29.109v-5.146zm47.149 0c.031-.23.051-.461.051-.701v-16.134h-5.151l-.01 16.15-10.635-.01v5.842h29.109v-5.146h-13.364zm-52.151-29.124h-19.027c-2.78 0-5.044 2.258-5.044 5.038v23.508c0 .195.015.389.036.579h-3.016v5.146h16.293v-5.832h-8.167v-23.293h18.817v7.143h5.146v-7.251c0-2.78-2.258-5.038-5.038-5.038zm47.041 0h-18.787c-2.847 0-5.161 2.314-5.161 5.161v23.262c0 .241.02.471.051.701h-4.793v5.146h18.054v-5.842l-8.167-.005.015-23.277h18.787l.015.016-.005 7.128h5.151v-7.128c.001-2.848-2.313-5.162-5.16-5.162zm-42.039 29.124c.026-.189.036-.384.036-.579v-16.257h-5.146v16.15h-10.65v5.832h29.109v-5.146zm47.149 0c.031-.23.051-.461.051-.701v-16.134h-5.151l-.01 16.15-10.635-.01v5.842h29.109v-5.146h-13.364zm-52.151-29.124h-19.027c-2.78 0-5.044 2.258-5.044 5.038v23.508c0 .195.015.389.036.579h-3.016v5.146h16.293v-5.832h-8.167v-23.293h18.817v7.143h5.146v-7.251c0-2.78-2.258-5.038-5.038-5.038zm47.041 0h-18.787c-2.847 0-5.161 2.314-5.161 5.161v23.262c0 .241.02.471.051.701h-4.793v5.146h18.054v-5.842l-8.167-.005.015-23.277h18.787l.015.016-.005 7.128h5.151v-7.128c.001-2.848-2.313-5.162-5.16-5.162zm-42.039 29.124c.026-.189.036-.384.036-.579v-16.257h-5.146v16.15h-10.65v5.832h29.109v-5.146zm47.149 0c.031-.23.051-.461.051-.701v-16.134h-5.151l-.01 16.15-10.635-.01v5.842h29.109v-5.146h-13.364zm-52.151-29.124h-19.027c-2.78 0-5.044 2.258-5.044 5.038v23.508c0 .195.015.389.036.579h-3.016v5.146h16.293v-5.832h-8.167v-23.293h18.817v7.143h5.146v-7.251c0-2.78-2.258-5.038-5.038-5.038zm47.041 0h-18.787c-2.847 0-5.161 2.314-5.161 5.161v23.262c0 .241.02.471.051.701h-4.793v5.146h18.054v-5.842l-8.167-.005.015-23.277h18.787l.015.016-.005 7.128h5.151v-7.128c.001-2.848-2.313-5.162-5.16-5.162zm-42.039 29.124c.026-.189.036-.384.036-.579v-16.257h-5.146v16.15h-10.65v5.832h29.109v-5.146zm47.149 0c.031-.23.051-.461.051-.701v-16.134h-5.151l-.01 16.15-10.635-.01v5.842h29.109v-5.146h-13.364zm-52.151-29.124h-19.027c-2.78 0-5.044 2.258-5.044 5.038v23.508c0 .195.015.389.036.579h-3.016v5.146h16.293v-5.832h-8.167v-23.293h18.817v7.143h5.146v-7.251c0-2.78-2.258-5.038-5.038-5.038zm47.041 0h-18.787c-2.847 0-5.161 2.314-5.161 5.161v23.262c0 .241.02.471.051.701h-4.793v5.146h18.054v-5.842l-8.167-.005.015-23.277h18.787l.015.016-.005 7.128h5.151v-7.128c.001-2.848-2.313-5.162-5.16-5.162zm-42.039 29.124c.026-.189.036-.384.036-.579v-16.257h-5.146v16.15h-10.65v5.832h29.109v-5.146zm47.149 0c.031-.23.051-.461.051-.701v-16.134h-5.151l-.01 16.15-10.635-.01v5.842h29.109v-5.146h-13.364zm-52.151-29.124h-19.027c-2.78 0-5.044 2.258-5.044 5.038v23.508c0 .195.015.389.036.579h-3.016v5.146h16.293v-5.832h-8.167v-23.293h18.817v7.143h5.146v-7.251c0-2.78-2.258-5.038-5.038-5.038zm47.041 0h-18.787c-2.847 0-5.161 2.314-5.161 5.161v23.262c0 .241.02.471.051.701h-4.793v5.146h18.054v-5.842l-8.167-.005.015-23.277h18.787l.015.016-.005 7.128h5.151v-7.128c.001-2.848-2.313-5.162-5.16-5.162zm-42.039 29.124c.026-.189.036-.384.036-.579v-16.257h-5.146v16.15h-10.65v5.832h29.109v-5.146zm47.149 0c.031-.23.051-.461.051-.701v-16.134h-5.151l-.01 16.15-10.635-.01v5.842h29.109v-5.146h-13.364zm-52.151-29.124h-19.027c-2.78 0-5.044 2.258-5.044 5.038v23.508c0 .195.015.389.036.579h-8.162v5.146h21.439v-5.832h-8.167v-23.293h18.817v7.143h5.146v-7.251c0-2.78-2.258-5.038-5.038-5.038zm47.041 0h-18.787c-2.847 0-5.161 2.314-5.161 5.161v23.262c0 .241.02.471.051.701h-4.793v5.146h18.054v-5.842l-8.167-.005.015-23.277h18.787l.015.016-.005 7.128h5.151v-7.128c.001-2.848-2.313-5.162-5.16-5.162zm-42.039 29.124c.026-.189.036-.384.036-.579v-16.257h-5.146v16.15h-10.65v5.832h29.109v-5.146zm47.149 0c.031-.23.051-.461.051-.701v-16.134h-5.151l-.01 16.15-10.635-.01v5.842h29.109v-5.146h-13.364zm-52.151-29.124h-19.027c-2.78 0-5.044 2.258-5.044 5.038v23.508c0 .195.015.389.036.579h-8.162v5.146h21.439v-5.832h-8.167v-23.293h18.817v7.143h5.146v-7.251c0-2.78-2.258-5.038-5.038-5.038zm47.041 0h-18.787c-2.847 0-5.161 2.314-5.161 5.161v23.262c0 .241.02.471.051.701h-4.793v5.146h18.054v-5.842l-8.167-.005.015-23.277h18.787l.015.016-.005 7.128h5.151v-7.128c.001-2.848-2.313-5.162-5.16-5.162zm-42.039 29.124c.026-.189.036-.384.036-.579v-16.257h-5.146v16.15h-10.65v5.832h29.109v-5.146zm47.149 0c.031-.23.051-.461.051-.701v-16.134h-5.151l-.01 16.15-10.635-.01v5.842h29.109v-5.146h-13.364zm-52.151-29.124h-19.027c-2.78 0-5.044 2.258-5.044 5.038v23.508c0 .195.015.389.036.579h-8.162v5.146h21.439v-5.832h-8.167v-23.293h18.817v7.143h5.146v-7.251c0-2.78-2.258-5.038-5.038-5.038zm47.041 0h-18.787c-2.847 0-5.161 2.314-5.161 5.161v23.262c0 .241.02.471.051.701h-4.793v5.146h18.054v-5.842l-8.167-.005.015-23.277h18.787l.015.016-.005 7.128h5.151v-7.128c.001-2.848-2.313-5.162-5.16-5.162zm-42.039 29.124c.026-.189.036-.384.036-.579v-16.257h-5.146v16.15h-10.65v5.832h29.109v-5.146zm47.149 0c.031-.23.051-.461.051-.701v-16.134h-5.151l-.01 16.15-10.635-.01v5.842h29.109v-5.146h-13.364zm-52.151-29.124h-19.027c-2.78 0-5.044 2.258-5.044 5.038v23.508c0 .195.015.389.036.579h-8.162v5.146h21.439v-5.832h-8.167v-23.293h18.817v7.143h5.146v-7.251c0-2.78-2.258-5.038-5.038-5.038zm52.151 29.124c.031-.23.051-.461.051-.701v-23.262c0-2.847-2.314-5.161-5.161-5.161h-18.787c-2.847 0-5.161 2.314-5.161 5.161v23.262c0 .241.02.471.051.701h-18.141c.026-.189.036-.384.036-.579v-16.257h-5.146v16.15h-10.65v5.832h76.273v-5.146zm-5.11-.686-10.635-.01-8.167-.005.015-23.277h18.787l.015.016-.005 7.128zm-47.041-28.438h-19.027c-2.78 0-5.044 2.258-5.044 5.038v23.508c0 .195.015.389.036.579h-8.162v5.146h21.439v-5.832h-8.167v-23.293h18.817v7.143h5.146v-7.251c0-2.78-2.258-5.038-5.038-5.038zm52.151 29.124c.031-.23.051-.461.051-.701v-23.262c0-2.847-2.314-5.161-5.161-5.161h-18.787c-2.847 0-5.161 2.314-5.161 5.161v23.262c0 .241.02.471.051.701h-18.141c.026-.189.036-.384.036-.579v-16.257h-5.146v16.15h-10.65v5.832h76.273v-5.146zm-5.11-.686-10.635-.01-8.167-.005.015-23.277h18.787l.015.016-.005 7.128zm-47.041-28.438h-19.027c-2.78 0-5.044 2.258-5.044 5.038v23.508c0 .195.015.389.036.579h-8.162v5.146h21.439v-5.832h-8.167v-23.293h18.817v7.143h5.146v-7.251c0-2.78-2.258-5.038-5.038-5.038zm52.151 29.124c.031-.23.051-.461.051-.701v-23.262c0-2.847-2.314-5.161-5.161-5.161h-18.787c-2.847 0-5.161 2.314-5.161 5.161v23.262c0 .241.02.471.051.701h-18.141c.026-.189.036-.384.036-.579v-16.257h-5.146v16.15h-10.65v5.832h76.273v-5.146zm-5.11-.686-10.635-.01-8.167-.005.015-23.277h18.787l.015.016-.005 7.128zm-47.041-28.438h-19.027c-2.78 0-5.044 2.258-5.044 5.038v23.508c0 .195.015.389.036.579h-8.162v5.146h21.439v-5.832h-8.167v-23.293h18.817v7.143h5.146v-7.251c0-2.78-2.258-5.038-5.038-5.038zm52.151 29.124c.031-.23.051-.461.051-.701v-23.262c0-2.847-2.314-5.161-5.161-5.161h-18.787c-2.847 0-5.161 2.314-5.161 5.161v23.262c0 .241.02.471.051.701h-18.141c.026-.189.036-.384.036-.579v-16.257h-5.146v16.15h-10.65v5.832h76.273v-5.146zm-5.11-.686-10.635-.01-8.167-.005.015-23.277h18.787l.015.016-.005 7.128zm-47.041-28.438h-19.027c-2.78 0-5.044 2.258-5.044 5.038v23.508c0 .195.015.389.036.579h-8.162v5.146h21.439v-5.832h-8.167v-23.293h18.817v7.143h5.146v-7.251c0-2.78-2.258-5.038-5.038-5.038zm52.151 29.124c.031-.23.051-.461.051-.701v-23.262c0-2.847-2.314-5.161-5.161-5.161h-18.787c-2.847 0-5.161 2.314-5.161 5.161v23.262c0 .241.02.471.051.701h-18.141c.026-.189.036-.384.036-.579v-16.257h-5.146v16.15h-10.65v5.832h76.273v-5.146zm-5.11-.686-10.635-.01-8.167-.005.015-23.277h18.787l.015.016-.005 7.128zm-47.041-28.438h-19.027c-2.78 0-5.044 2.258-5.044 5.038v23.508c0 .195.015.389.036.579h-8.162v5.146h21.439v-5.832h-8.167v-23.293h18.817v7.143h5.146v-7.251c0-2.78-2.258-5.038-5.038-5.038zm52.151 29.124c.031-.23.051-.461.051-.701v-23.262c0-2.847-2.314-5.161-5.161-5.161h-18.787c-2.847 0-5.161 2.314-5.161 5.161v23.262c0 .241.02.471.051.701h-18.141c.026-.189.036-.384.036-.579v-16.257h-5.146v16.15h-10.65v5.832h76.273v-5.146zm-5.11-.686-10.635-.01-8.167-.005.015-23.277h18.787l.015.016-.005 7.128zm-47.041-28.438h-19.027c-2.78 0-5.044 2.258-5.044 5.038v23.508c0 .195.015.389.036.579h-8.162v5.146h21.439v-5.832h-8.167v-23.293h18.817v7.143h5.146v-7.251c0-2.78-2.258-5.038-5.038-5.038zm52.151 29.124c.031-.23.051-.461.051-.701v-23.262c0-2.847-2.314-5.161-5.161-5.161h-18.787c-2.847 0-5.161 2.314-5.161 5.161v23.262c0 .241.02.471.051.701h-18.141c.026-.189.036-.384.036-.579v-16.257h-5.146v16.15h-10.65v5.832h76.273v-5.146zm-5.11-.686-10.635-.01-8.167-.005.015-23.277h18.787l.015.016-.005 7.128zm-47.041-28.438h-19.027c-2.78 0-5.044 2.258-5.044 5.038v23.508c0 .195.015.389.036.579h-8.162v5.146h21.439v-5.832h-8.167v-23.293h18.817v7.143h5.146v-7.251c0-2.78-2.258-5.038-5.038-5.038zm52.151 29.124c.031-.23.051-.461.051-.701v-23.262c0-2.847-2.314-5.161-5.161-5.161h-18.787c-2.847 0-5.161 2.314-5.161 5.161v23.262c0 .241.02.471.051.701h-18.141c.026-.189.036-.384.036-.579v-16.257h-5.146v16.15h-10.65v5.832h76.273v-5.146zm-5.11-.686-10.635-.01-8.167-.005.015-23.277h18.787l.015.016-.005 7.128zm-47.041-28.438h-19.027c-2.78 0-5.044 2.258-5.044 5.038v23.508c0 .195.015.389.036.579h-8.162v5.146h21.439v-5.832h-8.167v-23.293h18.817v7.143h5.146v-7.251c0-2.78-2.258-5.038-5.038-5.038zm52.151 29.124c.031-.23.051-.461.051-.701v-23.262c0-2.847-2.314-5.161-5.161-5.161h-18.787c-2.847 0-5.161 2.314-5.161 5.161v23.262c0 .241.02.471.051.701h-18.141c.026-.189.036-.384.036-.579v-16.257h-5.146v16.15h-10.65v5.832h76.273v-5.146zm-5.11-.686-10.635-.01-8.167-.005.015-23.277h18.787l.015.016-.005 7.128zm-47.041-28.438h-19.027c-2.78 0-5.044 2.258-5.044 5.038v23.508c0 .195.015.389.036.579h-8.162v5.146h21.439v-5.832h-8.167v-23.293h18.817v7.143h5.146v-7.251c0-2.78-2.258-5.038-5.038-5.038zm52.151 29.124c.031-.23.051-.461.051-.701v-23.262c0-2.847-2.314-5.161-5.161-5.161h-18.787c-2.847 0-5.161 2.314-5.161 5.161v23.262c0 .241.02.471.051.701h-18.141c.026-.189.036-.384.036-.579v-16.257h-5.146v16.15h-10.65v5.832h76.273v-5.146zm-5.11-.686-10.635-.01-8.167-.005.015-23.277h18.787l.015.016-.005 7.128zm-47.041-28.438h-19.027c-2.78 0-5.044 2.258-5.044 5.038v23.508c0 .195.015.389.036.579h-8.162v5.146h21.439v-5.832h-8.167v-23.293h18.817v7.143h5.146v-7.251c0-2.78-2.258-5.038-5.038-5.038zm52.151 29.124c.031-.23.051-.461.051-.701v-23.262c0-2.847-2.314-5.161-5.161-5.161h-18.787c-2.847 0-5.161 2.314-5.161 5.161v23.262c0 .241.02.471.051.701h-18.141c.026-.189.036-.384.036-.579v-16.257h-5.146v16.15h-10.65v5.832h76.273v-5.146zm-5.11-.686-10.635-.01-8.167-.005.015-23.277h18.787l.015.016-.005 7.128zm-47.041-28.438h-19.027c-2.78 0-5.044 2.258-5.044 5.038v23.508c0 .195.015.389.036.579h-8.162v5.146h21.439v-5.832h-8.167v-23.293h18.817v7.143h5.146v-7.251c0-2.78-2.258-5.038-5.038-5.038zm52.151 29.124c.031-.23.051-.461.051-.701v-23.262c0-2.847-2.314-5.161-5.161-5.161h-18.787c-2.847 0-5.161 2.314-5.161 5.161v23.262c0 .241.02.471.051.701h-18.141c.026-.189.036-.384.036-.579v-16.257h-5.146v16.15h-10.65v5.832h76.273v-5.146zm-5.11-.686-10.635-.01-8.167-.005.015-23.277h18.787l.015.016-.005 7.128zm-47.041-28.438h-19.027c-2.78 0-5.044 2.258-5.044 5.038v23.508c0 .195.015.389.036.579h-8.162v5.146h21.439v-5.832h-8.167v-23.293h18.817v7.143h5.146v-7.251c0-2.78-2.258-5.038-5.038-5.038zm52.151 29.124c.031-.23.051-.461.051-.701v-23.262c0-2.847-2.314-5.161-5.161-5.161h-18.787c-2.847 0-5.161 2.314-5.161 5.161v23.262c0 .241.02.471.051.701h-18.141c.026-.189.036-.384.036-.579v-16.257h-5.146v16.15h-10.65v5.832h76.273v-5.146zm-5.11-.686-10.635-.01-8.167-.005.015-23.277h18.787l.015.016-.005 7.128z" fill="#160f60"/><g fill="#fff"><path d="m120.31 223.004h27.118v52.197h-27.118z"/><path d="m226.137 130.76c.036-.23.056-.461.056-.701v-6.441h-153.042v75.32h153.698v-68.178zm-34.803 54.517c0 2.678-2.207 4.859-4.91 4.859-.533 0-.922-.123-2.366-.584-2.627-.83-8.705-2.755-13.031-2.755-.097 0-.2 0-.297.005-3.968.082-11.828 1.905-15.602 2.785-2.099.487-2.366.548-2.791.548-.435 0-1.362-.077-2.33-.589-.696.374-1.495.589-2.345.589-.533 0-.917-.123-2.36-.584-2.693-.85-8.996-2.852-13.328-2.75-3.968.082-11.828 1.905-15.607 2.785-2.094.487-2.366.548-2.785.548-.609 0-2.156-.138-3.451-1.403-.942-.917-1.459-2.145-1.459-3.456v-43.682c0-2.601 2.074-4.731 4.675-4.849.225-.046.722-.159 1.203-.266 3.113-.696 10.41-2.33 15.638-2.514 6.16-.225 13.134 1.598 16.482 2.468.466.123.988.261 1.224.312.486.026 1.28.149 2.104.584.635-.338 1.347-.548 2.104-.584.23-.046.727-.159 1.208-.266 3.113-.696 10.405-2.33 15.632-2.514 6.165-.225 13.134 1.598 16.488 2.468.466.123.988.261 1.219.312.712.036 2.069.266 3.226 1.393.937.922 1.459 2.145 1.459 3.456z"/><path d="m152.573 223.004h27.123v52.197h-27.123z"/><path d="m292.354 69.986v12.289h-16.457c-.917-1.423-2.514-2.366-4.332-2.366h-18.787c-1.813 0-3.415.942-4.332 2.366h-3.139v203.34h-13.313v-215.629z"/><path d="m207.735 94.508-.005 7.128-.011 16.149-10.635-.01-8.167-.005.016-23.277h18.786z"/><path d="m160.571 94.508-.005 7.128-.01 16.149-10.635-.01-8.167-.005.015-23.277h18.787z"/><path d="m94.59 94.493h18.817v23.293h-18.817z"/><path d="m226.849 14.384v12.289h-140.385v91.798h-13.313v-104.087z"/><path d="m68.005 69.986v12.289h-19.939c-.891-.794-2.064-1.28-3.354-1.28h-19.027c-1.29 0-2.463.487-3.354 1.28h-1.372v2.012c-.205.543-.312 1.132-.312 1.746v23.508c0 .615.108 1.203.312 1.751v23.82c-.205.543-.312 1.132-.312 1.746v23.508c0 .614.108 1.203.312 1.751v23.815c-.205.543-.312 1.132-.312 1.746v23.513c0 .615.108 1.203.312 1.746v23.815c-.205.548-.312 1.137-.312 1.751v23.508c0 .615.108 1.203.312 1.746v21.859h-13.313v-215.63z"/></g><path d="m189.875 138.139c-1.157-1.127-2.514-1.357-3.226-1.393-.23-.051-.753-.189-1.219-.312-3.354-.87-10.323-2.693-16.488-2.468-5.228.184-12.519 1.818-15.632 2.514-.481.108-.978.22-1.208.266-.758.036-1.47.246-2.104.584-.824-.435-1.618-.558-2.104-.584-.236-.051-.758-.189-1.224-.312-3.349-.87-10.323-2.693-16.482-2.468-5.228.184-12.524 1.818-15.638 2.514-.481.108-.978.22-1.203.266-2.601.118-4.675 2.248-4.675 4.849v43.682c0 1.311.517 2.54 1.459 3.456 1.295 1.265 2.842 1.403 3.451 1.403.42 0 .691-.061 2.785-.548 3.779-.881 11.639-2.704 15.607-2.785 4.332-.103 10.635 1.9 13.328 2.75 1.444.461 1.828.584 2.36.584.85 0 1.649-.215 2.345-.589.968.512 1.895.589 2.33.589.425 0 .691-.061 2.791-.548 3.774-.881 11.633-2.704 15.602-2.785.097-.005.2-.005.297-.005 4.327 0 10.405 1.925 13.031 2.755 1.444.461 1.833.584 2.366.584 2.704 0 4.91-2.181 4.91-4.859v-43.682c0-1.313-.522-2.537-1.459-3.458zm-42.448 46.692c-.184-.062-.384-.123-.573-.184-3.18-1.004-9.811-3.098-14.992-2.99-4.501.098-12.407 1.93-16.657 2.919-.502.113-1.014.231-1.388.318v-43.016c.297-.025.686-.113 1.859-.374 2.975-.666 9.944-2.227 14.695-2.396 5.407-.19 12.13 1.562 15.003 2.309 1.157.302 1.639.425 2.053.461zm38.761 0c-.184-.062-.384-.123-.574-.184-3.185-1.004-9.811-3.088-14.992-2.99-4.501.098-12.412 1.93-16.657 2.919-.502.113-1.014.231-1.393.318v-43.016c.297-.025.691-.113 1.859-.374 2.975-.666 9.944-2.227 14.695-2.396 5.412-.185 12.13 1.562 15.003 2.309 1.162.302 1.644.425 2.058.461v42.953z" fill="#160f60"/><path d="m184.13 141.416c-2.873-.748-9.59-2.494-15.003-2.309-4.752.169-11.721 1.731-14.695 2.396-1.167.261-1.562.348-1.859.374v43.016c.379-.087.891-.205 1.393-.318 4.245-.988 12.156-2.821 16.657-2.919 5.182-.097 11.808 1.987 14.992 2.99.189.061.389.123.574.184v-42.955c-.416-.034-.897-.157-2.059-.459zm-.876 16.39c-.492 1.331-1.966 2.017-3.303 1.526-3.477-1.285-7.107-1.884-10.778-1.792-3.594.087-7.112.845-10.461 2.237-.323.133-.661.2-.988.2-1.009 0-1.966-.594-2.376-1.582-.548-1.311.072-2.821 1.383-3.369 3.938-1.639 8.08-2.524 12.314-2.632 4.332-.113 8.597.599 12.688 2.11 1.332.491 2.013 1.971 1.521 3.302zm0-9.816c-.492 1.331-1.971 2.018-3.303 1.526-3.477-1.285-7.102-1.879-10.778-1.792-3.594.092-7.112.845-10.461 2.237-.323.133-.661.2-.988.2-1.009 0-1.966-.594-2.376-1.582-.548-1.316.072-2.821 1.388-3.369 3.938-1.639 8.075-2.524 12.309-2.632 4.327-.113 8.597.599 12.688 2.11 1.332.491 2.013 1.971 1.521 3.302z" fill="#fff"/><path d="m145.374 141.416c-2.873-.748-9.596-2.499-15.003-2.309-4.752.169-11.721 1.731-14.695 2.396-1.173.261-1.562.348-1.859.374v43.016c.374-.087.886-.205 1.388-.318 4.25-.988 12.156-2.821 16.657-2.919 5.182-.108 11.813 1.987 14.992 2.99.189.061.389.123.573.184v-42.955c-.415-.034-.896-.157-2.053-.459zm-1.291 33.267c-.512 1.326-2.002 1.981-3.328 1.469-3.287-1.27-6.718-1.864-10.195-1.777-3.4.092-6.733.84-9.903 2.222-.338.149-.686.22-1.029.22-.993 0-1.935-.579-2.36-1.546-.568-1.301.026-2.816 1.331-3.39 3.779-1.649 7.757-2.54 11.823-2.647 4.163-.113 8.259.604 12.186 2.12 1.327.513 1.987 2.003 1.475 3.329zm0-9.053c-.512 1.321-2.002 1.982-3.328 1.47-3.287-1.27-6.718-1.869-10.195-1.777-3.4.092-6.733.84-9.903 2.222-.338.149-.686.215-1.029.215-.993 0-1.935-.574-2.36-1.541-.568-1.306.026-2.821 1.331-3.39 3.779-1.649 7.757-2.545 11.823-2.652 4.163-.108 8.259.604 12.186 2.125 1.327.512 1.987 2.002 1.475 3.328zm0-9.058c-.512 1.326-2.002 1.987-3.328 1.475-3.287-1.27-6.718-1.874-10.195-1.777-3.405.087-6.733.835-9.903 2.222-.338.143-.686.215-1.029.215-.993 0-1.935-.579-2.36-1.541-.568-1.306.026-2.821 1.326-3.39 3.784-1.654 7.762-2.545 11.828-2.652 4.163-.113 8.259.604 12.186 2.12 1.327.512 1.987 2.002 1.475 3.328zm0-9.053c-.512 1.326-2.002 1.987-3.328 1.475-3.287-1.275-6.718-1.874-10.195-1.777-3.405.087-6.733.835-9.903 2.222-.338.144-.686.215-1.029.215-.993 0-1.935-.579-2.36-1.546-.568-1.301.026-2.816 1.326-3.385 3.784-1.654 7.762-2.545 11.828-2.652 4.158-.107 8.259.604 12.186 2.12 1.327.512 1.987 2.002 1.475 3.328z" fill="#fff"/><path d="m144.083 147.519c-.512 1.326-2.002 1.987-3.328 1.475-3.287-1.275-6.718-1.874-10.195-1.777-3.405.087-6.733.835-9.903 2.222-.338.144-.686.215-1.029.215-.993 0-1.935-.579-2.36-1.546-.568-1.301.026-2.816 1.326-3.385 3.784-1.654 7.762-2.545 11.828-2.652 4.158-.107 8.259.604 12.186 2.12 1.327.512 1.987 2.002 1.475 3.328z" fill="#160f60"/><path d="m144.083 156.572c-.512 1.326-2.002 1.987-3.328 1.475-3.287-1.27-6.718-1.874-10.195-1.777-3.405.087-6.733.835-9.903 2.222-.338.143-.686.215-1.029.215-.993 0-1.935-.579-2.36-1.541-.568-1.306.026-2.821 1.326-3.39 3.784-1.654 7.762-2.545 11.828-2.652 4.163-.113 8.259.604 12.186 2.12 1.327.512 1.987 2.002 1.475 3.328z" fill="#160f60"/><path d="m144.083 165.63c-.512 1.321-2.002 1.982-3.328 1.47-3.287-1.27-6.718-1.869-10.195-1.777-3.4.092-6.733.84-9.903 2.222-.338.149-.686.215-1.029.215-.993 0-1.935-.574-2.36-1.541-.568-1.306.026-2.821 1.331-3.39 3.779-1.649 7.757-2.545 11.823-2.652 4.163-.108 8.259.604 12.186 2.125 1.327.512 1.987 2.002 1.475 3.328z" fill="#160f60"/><path d="m144.083 174.683c-.512 1.326-2.002 1.981-3.328 1.469-3.287-1.27-6.718-1.864-10.195-1.777-3.4.092-6.733.84-9.903 2.222-.338.149-.686.22-1.029.22-.993 0-1.935-.579-2.36-1.546-.568-1.301.026-2.816 1.331-3.39 3.779-1.649 7.757-2.54 11.823-2.647 4.163-.113 8.259.604 12.186 2.12 1.327.513 1.987 2.003 1.475 3.329z" fill="#160f60"/><path d="m183.254 147.99c-.492 1.331-1.971 2.018-3.303 1.526-3.477-1.285-7.102-1.879-10.778-1.792-3.594.092-7.112.845-10.461 2.237-.323.133-.661.2-.988.2-1.009 0-1.966-.594-2.376-1.582-.548-1.316.072-2.821 1.388-3.369 3.938-1.639 8.075-2.524 12.309-2.632 4.327-.113 8.597.599 12.688 2.11 1.332.491 2.013 1.971 1.521 3.302z" fill="#160f60"/><path d="m183.254 157.806c-.492 1.331-1.966 2.017-3.303 1.526-3.477-1.285-7.107-1.884-10.778-1.792-3.594.087-7.112.845-10.461 2.237-.323.133-.661.2-.988.2-1.009 0-1.966-.594-2.376-1.582-.548-1.311.072-2.821 1.383-3.369 3.938-1.639 8.08-2.524 12.314-2.632 4.332-.113 8.597.599 12.688 2.11 1.332.491 2.013 1.971 1.521 3.302z" fill="#160f60"/><path d="m113.515 36.397h-19.027c-2.78 0-5.044 2.258-5.044 5.038v23.508c0 2.78 2.263 5.043 5.044 5.043h19.027c2.78 0 5.038-2.263 5.038-5.043v-23.508c0-2.78-2.258-5.038-5.038-5.038zm-.108 28.438h-18.817v-23.292h18.817z" fill="#160f60"/><path d="m94.59 41.543h18.817v23.292h-18.817z" fill="#fff"/><path d="m160.679 36.397h-19.032c-2.775 0-5.038 2.258-5.038 5.038v23.508c0 2.78 2.263 5.043 5.038 5.043h19.032c2.775 0 5.038-2.263 5.038-5.043v-23.508c0-2.78-2.263-5.038-5.038-5.038zm-.108 28.438h-18.817v-23.292h18.817z" fill="#160f60"/><path d="m141.754 41.543h18.817v23.292h-18.817z" fill="#fff"/><path d="m207.719 36.397h-18.787c-2.847 0-5.161 2.314-5.161 5.161v23.262c0 2.847 2.314 5.166 5.161 5.166h18.787c2.847 0 5.161-2.319 5.161-5.166v-23.262c.001-2.847-2.314-5.161-5.161-5.161zm0 28.438-18.802-.015.015-23.277h18.787l.015.015z" fill="#160f60"/><path d="m207.735 41.558-.016 23.277-18.802-.015.016-23.277h18.786z" fill="#fff"/><path d="m271.688 232.374h-19.027c-2.78 0-5.044 2.263-5.044 5.044v23.507c0 2.775 2.263 5.039 5.044 5.039h19.027c2.78 0 5.038-2.263 5.038-5.039v-23.507c.001-2.781-2.257-5.044-5.038-5.044zm-.107 28.444h-18.817v-23.298h18.817z" fill="#160f60"/><path d="m252.763 237.52h18.817v23.298h-18.817z" fill="#fff"/><path d="m271.688 181.554h-19.027c-2.78 0-5.044 2.258-5.044 5.038v23.508c0 2.78 2.263 5.038 5.044 5.038h19.027c2.78 0 5.038-2.258 5.038-5.038v-23.508c.001-2.78-2.257-5.038-5.038-5.038zm-.107 28.439h-18.817v-23.293h18.817z" fill="#160f60"/><path d="m252.763 186.7h18.817v23.293h-18.817z" fill="#fff"/><path d="m271.688 130.729h-19.027c-2.78 0-5.044 2.263-5.044 5.039v23.513c0 2.775 2.263 5.038 5.044 5.038h19.027c2.78 0 5.038-2.263 5.038-5.038v-23.513c.001-2.775-2.257-5.039-5.038-5.039zm-.107 28.444h-18.817v-23.298h18.817z" fill="#160f60"/><path d="m252.763 135.876h18.817v23.298h-18.817z" fill="#fff"/><path d="m275.897 82.275c-.917-1.423-2.514-2.366-4.332-2.366h-18.787c-1.813 0-3.415.942-4.332 2.366-.527.804-.829 1.767-.829 2.796v23.262c0 2.847 2.32 5.161 5.161 5.161h18.787c2.847 0 5.161-2.314 5.161-5.161v-23.262c.001-1.029-.301-1.992-.829-2.796zm-4.332 26.073-18.802-.015.015-23.277h18.787l.015.015z" fill="#160f60"/><path d="m271.581 85.071-.016 23.277-18.802-.015.016-23.277h18.786z" fill="#fff"/><path d="m44.712 233.465h-19.027c-2.166 0-4.014 1.372-4.726 3.287-.205.548-.312 1.137-.312 1.751v23.508c0 .615.108 1.203.312 1.746.712 1.92 2.56 3.292 4.726 3.292h19.027c2.78 0 5.038-2.258 5.038-5.038v-23.508c.001-2.78-2.257-5.038-5.038-5.038zm-.107 28.438h-18.818v-23.292h18.817v23.292z" fill="#160f60"/><path d="m25.787 238.611h18.817v23.292h-18.817z" fill="#fff"/><path d="m44.712 182.64h-19.027c-2.166 0-4.014 1.372-4.726 3.292-.205.543-.312 1.132-.312 1.746v23.513c0 .615.108 1.203.312 1.746.712 1.92 2.56 3.292 4.726 3.292h19.027c2.78 0 5.038-2.263 5.038-5.038v-23.513c.001-2.775-2.257-5.038-5.038-5.038zm-.107 28.444h-18.818v-23.298h18.817v23.298z" fill="#160f60"/><path d="m25.787 187.786h18.817v23.298h-18.817z" fill="#fff"/><path d="m44.712 131.82h-19.027c-2.166 0-4.014 1.372-4.726 3.292-.205.543-.312 1.132-.312 1.746v23.508c0 .614.108 1.203.312 1.751.712 1.915 2.56 3.287 4.726 3.287h19.027c2.78 0 5.038-2.258 5.038-5.038v-23.508c.001-2.78-2.257-5.038-5.038-5.038zm-.107 28.439h-18.818v-23.292h18.817v23.292z" fill="#160f60"/><path d="m25.787 136.966h18.817v23.292h-18.817z" fill="#fff"/><path d="m48.066 82.275c-.891-.794-2.064-1.28-3.354-1.28h-19.027c-1.29 0-2.463.487-3.354 1.28-.609.543-1.086 1.234-1.372 2.012-.205.543-.312 1.132-.312 1.746v23.508c0 .615.108 1.203.312 1.751.712 1.92 2.56 3.292 4.726 3.292h19.027c2.78 0 5.038-2.263 5.038-5.044v-23.506c.001-1.49-.649-2.837-1.684-3.759zm-3.461 27.164h-18.818v-23.298h18.817v23.298z" fill="#160f60"/><path d="m25.787 86.141h18.817v23.298h-18.817z" fill="#fff"/></g></svg>