<svg id="&#x428;&#x430;&#x440;_1" enable-background="new 0 0 300 300" viewBox="0 0 300 300" xmlns="http://www.w3.org/2000/svg"><g><g fill="#ff8b78"><path d="m75.279 202.501-6.758 14.466-2.669-5.713 4.085-8.753z"/><path d="m71.907 220.57c-.111-.096-.222-.193-.337-.279-.014-.014-.024-.024-.039-.034h-.005c-.063-.053-.125-.101-.188-.149-.308-.246-.621-.467-.949-.679-.178-.115-.356-.226-.54-.332-.096-.058-.193-.116-.294-.169-.005-.005-.014-.01-.019-.01-.014-.01-.024-.014-.039-.024-.034-.019-.067-.039-.101-.058v.005l2.124 4.552c.091-.005.183-.01.275-.01.154 0 .308.01.462.014l9.755-20.897h-.972l-8.642 18.508c-.159-.149-.322-.298-.491-.438z"/><path d="m106.504 213.287c-2.582-3.174-5.819-5.79-9.504-7.654l-.294.631c-2.466-2.833-5.477-5.183-8.859-6.893l-12.221 26.167c.804 1.777 1.252 3.748 1.252 5.824 0 7.847-6.387 14.235-14.235 14.235-.968 0-1.912-.096-2.823-.279-1.142-1.768-1.903-3.81-2.158-5.997-.072-.554-.106-1.122-.106-1.696 0-2.158.487-4.2 1.349-6.036l-3.107-6.657-2.148-4.596c-.058.048-.116.096-.173.145-.154.13-.308.26-.458.4l-7.076-15.155c-1.455.747-2.837 1.609-4.133 2.587-7.11 5.318-11.72 13.806-11.72 23.353v52.622c0 .588.063 1.166.188 1.72.438 1.994 1.628 3.714 3.256 4.841.241.169.487.323.747.462 1.127.612 2.418.959 3.791.959h4.735v-.602l4.841-.043v2.78c0 .751.231 1.464.665 2.057l34.563-.299c3.497-.029 6.493-2.235 7.712-5.313h4.899v-4.841h.429c1.628 0 3.146-.491 4.413-1.339v5.395c4.899-1.802 8.406-6.518 8.406-12.038v-52.622c-.001-4.266-.791-8.351-2.231-12.118zm-20.17 15.179v-4.543c0-1.339 1.084-2.423 2.423-2.423.27 0 .53.043.771.13z"/><path d="m158.871 184.538-3.849 10.053-2.543-6.898-1.546-4.191c.959.241 1.936.443 2.924.602 1.637.266 3.308.415 5.014.434z"/><path d="m158.264 198.927c-.173-.14-.352-.27-.535-.395-.077-.058-.154-.111-.231-.164-.178-.12-.356-.241-.535-.347-.043-.029-.092-.058-.14-.087-.116-.072-.226-.14-.342-.202-.01-.01-.024-.014-.034-.019h-.005c-.111-.063-.222-.125-.332-.183 0-.01 0-.01-.005-.005l1.638 4.446c.096 0 .193-.005.294-.005.173 0 .347.005.52.015l6.889-17.982c-.183.034-.366.063-.549.091l-5.583 15.728c-.188-.173-.381-.342-.573-.511-.159-.129-.313-.255-.477-.38z"/><path d="m123.816 130.061c-.063.732-.096 1.469-.096 2.216 0 1.715.164 3.391.477 5.015z"/><path d="m250.449 203.489-4.017 8.598-2.741 5.868-2.669-5.718-4.085-8.748z"/><path d="m247.178 221.645c-.072-.063-.144-.125-.217-.183-.014-.019-.034-.034-.048-.043-.072-.063-.145-.12-.217-.178-.005-.01-.014-.014-.019-.014-.053-.043-.101-.082-.154-.12-.024-.024-.053-.043-.077-.063-.091-.072-.183-.14-.274-.202-.005-.01-.014-.014-.019-.014-.111-.082-.226-.164-.342-.241-.068-.048-.135-.092-.202-.14-.01-.005-.019-.01-.029-.019-.068-.038-.135-.082-.207-.13-.01-.005-.019-.015-.029-.019-.096-.063-.198-.12-.299-.178-.024-.019-.048-.034-.072-.043-.063-.034-.125-.072-.188-.106-.072-.043-.145-.087-.217-.12l2.124 4.552c.087-.005.178-.01.27-.01.154 0 .308.01.463.014l9.759-20.897h-.978l-8.637 18.507c-.126-.122-.256-.238-.391-.353z"/><path d="m281.669 214.279-.005-.005c0-.005-.005-.005-.005-.01-2.582-3.17-5.814-5.79-9.495-7.65l-.294.631c-2.471-2.833-5.477-5.183-8.859-6.893l-12.216 26.172c.8 1.777 1.248 3.748 1.248 5.824 0 7.847-6.383 14.235-14.235 14.235-.963 0-1.908-.096-2.818-.279-1.142-1.768-1.903-3.805-2.158-5.997 0 0 0 0-.005 0v-.005c-.068-.554-.101-1.117-.101-1.691 0-2.158.482-4.201 1.344-6.036l-3.107-6.652-2.148-4.6-6.99-14.972c-.241.116-.482.236-.718.361-1.455.747-2.837 1.614-4.133 2.592-7.11 5.318-11.72 13.806-11.72 23.349v52.622c0 .588.063 1.166.188 1.72.438 1.994 1.628 3.714 3.252 4.841.246.169.496.323.761.467 1.127.607 2.413.954 3.781.954h4.74v-.602l4.841-.043v2.775c0 .756.231 1.464.665 2.062l34.558-.299c3.502-.034 6.493-2.235 7.712-5.313h4.904v-4.841h.424c1.633 0 3.15-.491 4.417-1.334v5.39c4.904-1.802 8.406-6.518 8.406-12.038v-52.624c.001-4.264-.789-8.349-2.234-12.111zm-18.006 10.55-1.147 2.462-.963 2.057-.048.106v-4.543c0-1.339 1.084-2.423 2.418-2.423.27 0 .525.043.771.13l-.872 1.869z"/><path d="m208.217 86.75v.125l-3.435 60.209c-.12 2.36-.631 4.673-1.508 6.879l-17.611 51.408-4.008 61.52c-.01.862-.149 1.7-.409 2.5.043.173.067.356.067.544v6.657l-4.841-.029v-2.009c-.997.409-2.076.626-3.189.626h-.058l-40.435-.27c-.462-.597-.742-1.349-.742-2.158 0-.048 0-.101-.005-.154l-.164-2.534-3.868-59.458c-.014-.217-.058-.424-.125-.626l-17.462-51.259c-.014-.039-.029-.077-.043-.116-.809-2.023-1.214-4.152-1.204-6.325 0-.058 0-.111-.005-.164l-.766-12.163-2.254-47.087c.024-1.951.838-3.796 2.298-5.193 1.156-1.108 2.601-1.826 4.167-2.086.453-.082.915-.12 1.382-.12h.034c4.331.019 7.842 3.391 7.823 7.524 0 .048 0 .091.005.14l.289 5.463-4.326-6.681 2.746 51.861c0 .024-.005.043-.005.067 0 .019.005.039.005.063 0 5.323 1.431 10.318 3.911 14.639.096.125.173.265.241.414.727 1.219 1.542 2.38 2.437 3.478.655 1.696 1.44 3.333 2.346 4.889l1.811 5.313c-.193-.125-.381-.255-.568-.385-.149-.096-.289-.197-.433-.299-.014-.01-.029-.019-.039-.024-.222-.159-.438-.313-.65-.477-.279-.202-.549-.414-.819-.626l9.846 28.802c.352-.318.723-.617 1.103-.901.067-.048.13-.096.198-.14.063-.053.13-.096.193-.135l1.657 4.851 2.476 7.245c-1.002 2.033-1.566 4.321-1.566 6.734 0 .79.058 1.566.178 2.327.352 2.322 1.233 4.475 2.51 6.335h.005c1.118.255 2.279.395 3.478.395 8.444 0 15.318-6.869 15.318-15.318 0-2.307-.515-4.494-1.435-6.46l13.652-38.465c4.485-5.28 7.288-11.778 7.996-18.69.005-.014 0-.029 0-.043.005-.014.01-.029.01-.043l3.965-60.508c.005-.048.005-.101.005-.149.01-1.989.8-3.863 2.225-5.28 1.426-1.416 3.329-2.182 5.299-2.182 3.772.019 6.893 2.833 7.394 6.469.573-.135 1.166-.207 1.758-.207 1.118.005 2.177.255 3.131.703.01.194.014.387.014.584z"/></g><path d="m210.091 50.367c.626-.405 1.002-1.06 1.084-1.749l-18.479-28.537-2.866 1.859 18.951 29.274z" fill="#ffe471"/><path d="m160.778 69.765c-.467-.183-.93-.381-1.383-.592-2.442.602-7.577 2.259-9.909 4.73-.39.414-.641.988-.785 1.662l-3.02-4.663-3.974-6.137c1.069.352 2.168.573 3.261.573.824 0 1.643-.125 2.442-.4 1.296-.448 2.548-1.151 3.728-1.98 1.363-.949 2.616-2.062 3.69-3.131.087-.087.173-.173.26-.26.077.275.154.544.241.814.665 2.105 1.614 4.138 2.847 6.036.777 1.2 1.644 2.317 2.602 3.348z" fill="#ffe471"/><path d="m141.462 103.442c-.01.072-.024.144-.038.217-.135.626-.511 1.175-1.05 1.527l-2.177 1.411-2.635-4.066-25.155-38.85.149-.096 3.594-2.327 15.357 23.72z" fill="#ffe471"/><path d="m151.274 90.599c-.328 1.542-1.238 2.861-2.558 3.714l-5.217 3.377-2.63-4.061-19.591-30.261c-.202-.318-.173-.636-.14-.795.034-.164.14-.462.453-.67l5.217-3.377 2.702-1.749c.173-.111.371-.164.568-.164.347 0 .694.169.896.477l20.381 31.48c.093.666.064 1.35-.081 2.029z" fill="#ffe471"/><path d="m205.732 59.606-4.066 2.635-2.929-4.523-15.179 9.827c-3.637 2.356-7.736 3.685-11.961 3.945-3.121-1.248-5.858-3.247-7.992-5.843-.491-.588-.944-1.214-1.368-1.864-2.91-4.49-3.887-9.87-2.76-15.145 1.132-5.275 4.225-9.784 8.719-12.693l13.975-9.047 3.594-2.327 18.955 29.274-1.561 1.007c0 .005-.005.005-.005.005l-.352.226z" fill="#ffe471"/><path d="m53.245 231.361c0 5.178 4.215 9.393 9.398 9.393 5.178 0 9.393-4.215 9.393-9.393 0-5.183-4.215-9.398-9.393-9.398-5.183 0-9.398 4.215-9.398 9.398z" fill="#ffe471"/><path d="m148.885 221.5c5.776 0 10.477-4.702 10.477-10.477 0-5.776-4.702-10.477-10.477-10.477-5.781 0-10.482 4.701-10.482 10.477s4.701 10.477 10.482 10.477z" fill="#ffe471"/><path d="m247.202 232.348c0-5.183-4.215-9.398-9.393-9.398s-9.393 4.215-9.393 9.398c0 5.178 4.215 9.393 9.393 9.393s9.393-4.214 9.393-9.393z" fill="#ffe471"/><path d="m69.498 218.894c-.034-.019-.067-.039-.101-.053v-.005c.034.019.068.039.101.058z" fill="#6ea9ff"/><path d="m232.645 219.082-10.14-21.721c-1.821.173-3.584.515-5.294 1.007l10.973 23.498c1.291-1.185 2.804-2.134 4.461-2.784z" fill="#6ea9ff"/><path d="m83.357 197.544-2.317 4.957-8.642 18.508c-.159-.149-.323-.299-.491-.438-.111-.096-.222-.193-.337-.279-.014-.014-.024-.024-.039-.034h-.005c-.063-.058-.125-.106-.188-.149-.308-.246-.621-.467-.949-.679-.178-.115-.356-.231-.54-.332-.096-.063-.198-.12-.294-.169-.005-.005-.014-.01-.019-.01-.014-.01-.024-.014-.039-.024-.034-.019-.067-.039-.101-.058 0 0 0 0-.005 0-.087-.048-.173-.096-.26-.14-.183-.096-.366-.183-.554-.27-.202-.092-.405-.183-.612-.265l.554-1.19v-.005l6.758-14.466 2.832-6.06c1.804.212 3.558.578 5.248 1.103z" fill="#6ea9ff"/><path d="m57.48 218.094c-.149.058-.294.116-.438.183-.101.043-.202.087-.303.135-.101.043-.202.091-.304.145-.014.005-.034.01-.048.024-.082.038-.159.077-.236.116-.096.048-.198.101-.294.159-.053.024-.101.053-.154.082-.058.029-.116.063-.169.096-.058.029-.116.063-.169.101-.125.072-.25.149-.371.226-.149.092-.294.188-.433.289-.135.091-.27.188-.4.289-.019.01-.034.024-.053.039-.116.082-.231.173-.342.265-.039.029-.077.063-.116.092-.058.048-.116.096-.173.145-.154.13-.308.26-.458.4l-7.076-15.155-3.897-8.343c1.705-.491 3.473-.833 5.289-1.007z" fill="#6ea9ff"/><path d="m168.943 172.693-4.046 11.397-5.583 15.728c-.188-.173-.381-.342-.573-.511-.159-.13-.313-.255-.477-.381-.173-.14-.352-.27-.535-.395-.077-.058-.154-.111-.231-.164-.178-.12-.356-.241-.535-.347-.048-.034-.096-.063-.14-.087-.116-.072-.226-.14-.342-.202-.01-.01-.024-.014-.034-.019h-.005c-.111-.067-.222-.13-.332-.183 0-.01 0-.01-.005-.005h-.005c-.12-.072-.241-.135-.366-.193-.096-.053-.198-.101-.299-.145-.005-.005-.005-.005-.01-.01-.019-.01-.038-.019-.058-.024-.145-.072-.289-.14-.438-.202-.231-.101-.467-.197-.703-.284l.795-2.076 3.849-10.053 3.213-8.387c2.4-.89 4.702-2.046 6.86-3.457z" fill="#6ea9ff"/><path d="m143.755 196.591c-.226.082-.453.164-.67.255-.217.092-.434.183-.641.284-.207.092-.414.193-.617.303-.106.053-.212.106-.318.173-.019.01-.039.019-.058.029-.096.048-.188.101-.284.159-.01.005-.019.014-.029.019-.048.024-.096.053-.145.087-.034.014-.063.034-.096.058-.087.048-.173.106-.26.164-.024.01-.043.024-.067.043l-.005.005c-.145.087-.284.178-.419.284-.063.038-.13.082-.193.135-.067.043-.13.091-.198.14-.381.284-.751.583-1.103.901l-9.846-28.802c.27.212.54.424.819.626.212.164.429.318.65.477.01.005.024.014.039.024.145.101.284.202.433.299.188.13.376.26.568.385 0 0 0 0 .005.005.265.173.53.342.804.506.164.106.332.207.501.303.202.125.405.241.612.357.376.217.761.424 1.146.621.029.014.053.029.082.043.183.096.366.188.549.274.275.14.554.27.833.4z" fill="#6ea9ff"/><path d="m258.523 198.527-2.317 4.962-8.637 18.507c-.125-.12-.255-.236-.39-.352-.072-.063-.144-.125-.217-.183-.014-.019-.034-.034-.048-.043-.072-.063-.145-.12-.217-.178-.005-.01-.014-.014-.019-.014-.048-.043-.101-.082-.154-.12-.024-.024-.053-.043-.077-.063-.091-.072-.183-.14-.274-.202-.005-.01-.014-.014-.019-.014-.111-.087-.226-.164-.342-.241-.068-.048-.135-.092-.202-.14-.01-.005-.019-.01-.029-.019-.068-.038-.135-.082-.207-.13-.01-.005-.019-.015-.029-.019-.096-.063-.198-.12-.299-.178-.024-.019-.048-.034-.072-.043-.063-.039-.125-.077-.188-.106-.072-.043-.145-.087-.217-.12-.116-.063-.231-.125-.352-.188-.149-.077-.299-.149-.453-.217-.014-.01-.029-.019-.043-.024-.193-.087-.385-.169-.583-.251l.554-1.19 2.741-5.872 4.017-8.599 2.828-6.06c1.801.206 3.559.577 5.245 1.097z" fill="#6ea9ff"/><path d="m150.214 105.783c-2.307 0-4.547.299-6.686.853-1.493.39-2.934.911-4.311 1.542-8.493 3.892-14.586 12.144-15.4 21.87v.014c-.063.732-.096 1.469-.096 2.216 0 1.715.164 3.391.477 5.015v.005c2.356 12.221 13.127 21.475 26.017 21.475 14.61 0 26.494-11.884 26.494-26.494 0-14.607-11.884-26.496-26.495-26.496zm0 48.147c-11.937 0-21.653-9.711-21.653-21.653 0-11.937 9.716-21.653 21.653-21.653 11.942 0 21.653 9.716 21.653 21.653 0 11.942-9.711 21.653-21.653 21.653z" fill="#160f60"/><path d="m62.74 136.213c-13.093 0-23.744 10.651-23.744 23.739 0 13.093 10.651 23.744 23.744 23.744s23.744-10.651 23.744-23.744c0-13.089-10.651-23.739-23.744-23.739zm0 42.641c-10.424 0-18.902-8.478-18.902-18.902 0-10.42 8.478-18.898 18.902-18.898s18.902 8.478 18.902 18.898c0 10.424-8.478 18.902-18.902 18.902z" fill="#160f60"/><path d="m81.642 159.952c0 10.424-8.478 18.902-18.902 18.902s-18.902-8.478-18.902-18.902c0-10.42 8.478-18.898 18.902-18.898s18.902 8.478 18.902 18.898z" fill="#fff"/><path d="m106.504 213.287c-3.314-8.666-10.077-15.636-18.599-19.23-.067-.039-.125-.087-.193-.116-.173-.082-.357-.135-.535-.173-3.859-1.522-8.054-2.37-12.443-2.37-.096 0-.188.019-.279.029-.092-.01-.178-.029-.275-.029h-24.08c-18.748 0-34.004 15.256-34.004 34.004v52.622c0 7.072 5.752 12.823 12.823 12.823h5.193c.053.154.111.308.169.462.419 1.026 1.041 1.97 1.855 2.775 1.58 1.566 3.671 2.428 5.891 2.428h.077l6.209-.053 34.563-.299c3.497-.029 6.493-2.235 7.712-5.313h5.328c1.551 0 3.035-.279 4.413-.785 4.899-1.802 8.406-6.518 8.406-12.038v-52.622c-.001-4.263-.791-8.348-2.231-12.115zm-28.393-16.846c1.802.212 3.555.578 5.246 1.103l-2.317 4.957-8.642 18.508c-.159-.149-.323-.299-.491-.438-.111-.096-.222-.193-.337-.279-.014-.014-.024-.024-.039-.034h-.005c-.063-.053-.125-.101-.188-.149-.308-.246-.621-.467-.949-.679-.178-.115-.356-.226-.54-.332-.096-.058-.193-.116-.294-.169-.005-.005-.014-.01-.019-.01-.014-.01-.024-.014-.039-.024-.034-.019-.067-.039-.101-.058 0 0 0 0-.005 0-.087-.048-.173-.096-.26-.14-.183-.096-.366-.183-.554-.27-.202-.092-.405-.183-.612-.265l.554-1.19v-.005l6.758-14.466zm-19.345 43.47c-.091-.038-.178-.082-.265-.125-.193-.092-.381-.188-.564-.304-.091-.053-.183-.106-.275-.164-.169-.101-.328-.207-.487-.328-.077-.058-.159-.116-.236-.173-.091-.067-.183-.14-.27-.212-.135-.116-.27-.231-.4-.352-.169-.149-.328-.308-.477-.472-.096-.101-.193-.207-.284-.318-.067-.077-.135-.154-.197-.236-.082-.101-.159-.202-.231-.304-.149-.197-.289-.4-.409-.607-.053-.077-.101-.154-.145-.236-.101-.169-.197-.337-.279-.511-.034-.063-.063-.125-.092-.188-.063-.12-.116-.246-.169-.371-.063-.14-.116-.279-.169-.424-.043-.116-.087-.231-.12-.352-.005-.005-.005-.01-.005-.014s0-.005-.005-.01c-.005-.019-.01-.039-.019-.063-.029-.096-.058-.193-.082-.294-.043-.154-.082-.308-.116-.467-.024-.101-.043-.207-.063-.308-.043-.207-.077-.414-.096-.626-.01-.053-.014-.106-.019-.164-.005-.029-.01-.058-.01-.087-.01-.115-.019-.241-.024-.361-.01-.159-.014-.318-.014-.482 0-.308.014-.616.043-.92.005-.014.005-.029.005-.038.019-.159.034-.318.063-.472.019-.154.048-.308.082-.463.029-.154.068-.303.106-.453.014-.077.039-.154.063-.231 0-.014.005-.024.014-.039.019-.082.043-.164.072-.246.043-.14.087-.274.14-.409.039-.106.077-.212.125-.313.058-.154.125-.303.202-.448.019-.043.039-.087.063-.13.096-.202.202-.405.323-.597.043-.077.091-.159.145-.236.091-.154.193-.308.303-.453.077-.111.159-.217.241-.323.063-.087.13-.169.202-.251.048-.067.106-.13.169-.197.063-.072.13-.145.193-.212.101-.111.207-.217.318-.318.053-.058.111-.111.169-.164.029-.024.058-.053.092-.082.145-.135.299-.265.458-.385.106-.082.207-.159.313-.236.169-.125.337-.241.515-.347.092-.058.183-.111.275-.164.101-.063.207-.12.308-.173.482-.26.983-.472 1.508-.641.058-.019.116-.039.173-.053.125-.043.246-.077.371-.106.149-.043.299-.077.453-.106.154-.034.308-.063.462-.082.13-.024.26-.039.39-.053h.024c.092-.01.188-.019.284-.024.01-.005.019-.005.034-.005.072-.01.14-.014.217-.014.159-.01.318-.014.482-.014 5.178 0 9.393 4.215 9.393 9.398 0 5.178-4.215 9.393-9.393 9.393-.164 0-.323-.005-.482-.014-.116-.005-.231-.01-.347-.024-.072-.005-.145-.01-.212-.019-.13-.014-.26-.029-.39-.053-.154-.019-.308-.048-.462-.082-.313-.063-.617-.145-.92-.236-.125-.043-.25-.082-.376-.13-.236-.079-.468-.176-.689-.282zm14.095-43.672-2.924 6.262-4.085 8.753-2.746 5.882c-.154-.005-.308-.014-.462-.014-.092 0-.183.005-.275.01l-9.755-20.892h20.247zm-25.526.135 10.145 21.72c-.149.058-.294.116-.438.183-.101.043-.202.087-.303.135-.101.043-.202.091-.304.145-.014.005-.034.01-.048.024-.082.038-.159.077-.236.116-.096.048-.198.101-.294.159-.053.024-.101.053-.154.082-.058.029-.116.063-.169.096-.058.029-.116.063-.169.101-.125.072-.25.149-.371.226-.149.092-.294.188-.433.289-.135.091-.27.188-.4.289-.019.01-.034.024-.053.039-.116.087-.231.173-.342.265-.039.029-.077.063-.116.092-.058.048-.116.096-.173.145-.154.13-.308.26-.458.4l-7.076-15.155-3.897-8.343c1.705-.493 3.473-.835 5.289-1.008zm56.558 81.65c0 2.77-1.416 5.212-3.565 6.643-1.267.848-2.784 1.339-4.413 1.339h-4.74v-62.083c0-1.069-.689-1.975-1.647-2.293-.241-.087-.501-.13-.771-.13-1.339 0-2.423 1.084-2.423 2.423v63.866c0 1.927-1.57 3.512-3.502 3.531l-35.184.303-4.841.043-.747.005h-.034c-.934 0-1.816-.361-2.486-1.026-.674-.665-1.045-1.556-1.045-2.505v-64.217c0-1.339-1.084-2.423-2.418-2.423-1.339 0-2.423 1.084-2.423 2.423v62.083h-4.735c-4.403 0-7.982-3.579-7.982-7.982v-52.622c0-11.576 6.778-21.59 16.571-26.301l4.302 9.21 7.943 17.014c-.862 1.835-1.349 3.878-1.349 6.036 0 6.884 4.913 12.64 11.417 13.955.911.183 1.855.279 2.823.279 7.847 0 14.235-6.388 14.235-14.235 0-2.076-.448-4.046-1.252-5.824l12.221-26.167c3.382 1.71 6.392 4.061 8.859 6.893 4.475 5.121 7.187 11.816 7.187 19.138v52.624zm-15.136-56.524c-1.339 0-2.423 1.084-2.423 2.423v4.543l3.194-6.836c-.241-.087-.501-.13-.771-.13z" fill="#160f60"/><path d="m72.861 196.239-2.924 6.262-4.085 8.753-2.746 5.882c-.154-.005-.308-.014-.462-.014-.092 0-.183.005-.275.01l-9.755-20.892h20.247z" fill="#fff"/><path d="m30.089 231.664v52.622c0 .588.063 1.166.188 1.72h-1.358c-4.403 0-7.982-3.579-7.982-7.982v-52.622c0-11.576 6.778-21.59 16.571-26.301l4.302 9.21c-7.11 5.318-11.721 13.806-11.721 23.353z" fill="#fff"/><path d="m210.804 47.019-24.514-37.863c-.347-.54-.896-.915-1.522-1.05s-1.286-.014-1.826.332l-7.284 4.721-6.185-9.552c-.727-1.122-2.226-1.445-3.348-.718l-10.217 6.614c-.838.544-1.72 1.06-2.649 1.604-3.415 1.999-7.283 4.268-9.466 8.396-4.774 9.046-2.592 15.453 1.44 24.004-.149 1.166-.212 2.331-.197 3.492-1.551 1.98-5.164 5.988-8.367 7.1-2.674.93-7.582-2.905-9.543-4.909-.284-.289-.626-.487-.987-.602l-.255-.39c-1.768-2.731-5.424-3.516-8.155-1.749l-7.919 5.13c-.299.193-.578.414-.833.655l-1.233-1.903c-.727-1.122-2.225-1.44-3.348-.718l-7.804 5.053c-.54.352-.915.901-1.05 1.527s-.014 1.281.337 1.821l10.655 16.46c-.535-.067-1.079-.111-1.628-.111h-.058c-3.343 0-6.498 1.257-8.897 3.55-2.433 2.327-3.781 5.429-3.796 8.729 0 .039.005.082.005.125l2.259 47.165c.005.005.005.01.005.019v.014l.761 12.115c-.005 2.751.511 5.443 1.527 8.001l17.337 50.893 4.008 61.602c.019 1.469.419 2.847 1.103 4.042v23.628c0 1.339 1.084 2.423 2.418 2.423 1.339 0 2.423-1.084 2.423-2.423v-19.745c.752.231 1.551.361 2.375.366l6.416.043 40.435.27h.058c1.113 0 2.192-.217 3.189-.626v19.692c0 1.339 1.084 2.423 2.423 2.423 1.334 0 2.418-1.084 2.418-2.423v-24.312c0-.188-.024-.371-.067-.544.26-.8.4-1.638.409-2.5l4.008-61.52 17.611-51.408c.877-2.206 1.387-4.518 1.508-6.879l3.435-60.209v-.124c0-.197-.005-.39-.014-.583-.241-5.805-4.518-10.583-10.102-11.6l10.169-6.585c.54-.347.915-.896 1.05-1.522.135-.631.014-1.286-.332-1.826l-3.256-5.029-2.929-4.523.352-.226s.005 0 .005-.005l1.561-1.007 4.061-2.63 1.31-.848c.626-.405 1.002-1.06 1.084-1.749.065-.539-.056-1.107-.374-1.598zm-34.192-28.71 5.559 8.589 16.325 25.208-17.568 11.373c-4.494 2.91-9.875 3.892-15.15 2.76-.737-.159-1.464-.357-2.173-.592-3.179-1.05-6.007-2.852-8.276-5.265-.173-.178-.337-.366-.501-.554-.631-.718-1.214-1.489-1.744-2.307-2.91-4.49-3.887-9.87-2.76-15.145 1.132-5.275 4.225-9.784 8.719-12.693zm-31.663 202.42c-.12-.048-.241-.101-.361-.154s-.241-.111-.356-.169c-.236-.116-.472-.241-.698-.381-.111-.063-.217-.13-.318-.198-.106-.067-.212-.14-.313-.212-.005 0-.01 0-.01-.005-.198-.135-.385-.275-.568-.429-.058-.048-.12-.091-.178-.145-.231-.193-.453-.395-.665-.612-.12-.12-.236-.241-.352-.366-.087-.096-.173-.193-.26-.294-.053-.068-.111-.14-.169-.212-.01-.01-.019-.019-.024-.029-.14-.173-.27-.347-.395-.53-.058-.087-.116-.169-.173-.255s-.116-.173-.169-.265c-.039-.063-.077-.125-.116-.193-.067-.116-.135-.231-.193-.347-.087-.164-.169-.328-.246-.491-.034-.072-.067-.145-.096-.217-.024-.053-.048-.101-.067-.149-.058-.14-.116-.275-.164-.414-.019-.043-.034-.087-.048-.135-.039-.096-.072-.197-.101-.299-.063-.197-.12-.395-.173-.592-.039-.14-.072-.284-.101-.429-.019-.082-.034-.159-.048-.241-.014-.077-.029-.149-.039-.226-.01-.048-.019-.096-.024-.145-.019-.125-.039-.246-.048-.371-.01-.072-.019-.145-.024-.217-.014-.149-.029-.299-.034-.448-.01-.178-.014-.356-.014-.539 0-.178.005-.357.014-.53.005-.13.014-.265.029-.395.005-.067.014-.135.019-.202.01-.125.029-.251.048-.376.014-.096.029-.188.043-.279.01-.072.024-.144.039-.217.014-.082.034-.169.053-.251 0-.014.005-.029.01-.043.024-.111.048-.217.077-.323.034-.14.072-.274.116-.41.048-.164.101-.323.159-.482.019-.063.043-.125.067-.188.029-.082.063-.164.096-.246.034-.087.072-.173.111-.26.067-.154.14-.308.217-.458.111-.231.231-.453.366-.674.053-.096.116-.188.173-.279.063-.106.13-.207.202-.304.125-.188.255-.366.4-.544.072-.096.149-.193.231-.284.173-.207.356-.41.549-.602.043-.048.091-.092.14-.14.077-.082.159-.159.241-.231.087-.082.173-.159.265-.231.072-.068.149-.13.231-.193.13-.106.265-.212.4-.313.048-.034.101-.072.154-.106.135-.096.27-.188.405-.275.106-.072.217-.14.332-.202.111-.067.222-.13.337-.193.101-.053.207-.111.308-.159.01-.005.024-.01.034-.014.145-.072.284-.14.434-.202.087-.038.178-.077.27-.111.26-.111.525-.207.8-.289.164-.053.328-.101.496-.14.116-.034.231-.058.347-.082.116-.029.236-.053.352-.072.183-.034.366-.063.554-.087.125-.019.251-.034.376-.043.077-.01.154-.014.236-.019h.043c.082-.005.164-.01.246-.014.154-.01.308-.014.462-.014 5.776 0 10.477 4.701 10.477 10.477s-4.702 10.477-10.477 10.477c-.169 0-.337-.005-.506-.015-.135-.005-.27-.014-.4-.029-.092-.005-.183-.014-.275-.024-.294-.034-.583-.077-.867-.135-.068-.01-.135-.024-.198-.043-.125-.024-.25-.053-.371-.087-.169-.038-.332-.087-.496-.14-.14-.043-.279-.091-.414-.14-.14-.044-.275-.097-.41-.155zm-15.323-49.274c.212.164.429.318.65.477.01.005.024.014.039.024.145.101.284.202.433.299.188.13.376.26.568.385 0 0 0 0 .005.005.265.173.53.342.804.506.164.106.332.207.501.303.202.125.405.241.612.357.376.217.761.424 1.146.621.029.014.053.029.082.043.183.096.366.188.549.274.275.14.554.27.833.4l7.905 21.441c-.226.082-.453.164-.67.255-.217.092-.434.183-.641.284-.207.096-.414.197-.617.303-.106.053-.212.111-.318.173-.019.01-.039.019-.058.029-.096.048-.188.101-.284.159-.01.005-.019.014-.029.019-.048.024-.096.053-.145.087-.034.014-.063.034-.096.058-.087.048-.173.106-.26.164-.024.01-.043.024-.067.043l-.005.005c-.14.091-.279.188-.419.284-.063.038-.13.082-.193.135-.067.043-.13.091-.198.14-.381.284-.751.583-1.103.901l-9.846-28.802c.273.214.543.426.822.628zm24.23 12.65-1.378 3.589-3.073 8.025c-.173-.01-.347-.015-.52-.015-.101 0-.198.005-.294.005l-6.811-18.469c2.702.679 5.525 1.045 8.435 1.045 2.052 0 4.085-.188 6.079-.549zm11.041-.015-5.583 15.728c-.188-.173-.381-.342-.573-.511-.159-.13-.313-.255-.477-.381-.173-.14-.352-.27-.535-.395-.077-.058-.154-.111-.231-.164-.178-.12-.356-.241-.535-.347-.043-.029-.092-.058-.14-.087-.116-.072-.226-.14-.342-.202-.01-.01-.024-.014-.034-.019h-.005c-.111-.063-.222-.125-.332-.183 0-.01 0-.01-.005-.005h-.005c-.12-.072-.241-.135-.366-.193-.096-.048-.198-.096-.299-.145-.005-.005-.005-.005-.01-.01-.019-.01-.038-.019-.058-.024-.145-.072-.289-.14-.438-.202-.231-.101-.467-.197-.703-.284l.795-2.076 3.849-10.053 3.213-8.387c2.399-.891 4.702-2.047 6.86-3.459zm-14.683-10.646c-4.008 0-7.833-.8-11.325-2.245-.125-.067-.251-.12-.385-.164-4.451-1.912-8.338-4.885-11.344-8.599-.896-1.098-1.71-2.259-2.437-3.478-.067-.149-.144-.289-.241-.414-2.481-4.321-3.911-9.316-3.911-14.639 0-.024-.005-.043-.005-.063 0-.024.005-.043.005-.067l-2.746-51.861 4.326 6.681 7.072 10.925c.462.713 1.243 1.103 2.033 1.103.453 0 .91-.125 1.315-.385l5.626-3.642 2.177-1.411c.54-.352.915-.901 1.05-1.527.014-.072.029-.145.038-.217.068-.559-.063-1.127-.371-1.604l-1.233-1.903c.323-.135.641-.299.939-.491l2.702-1.753 5.217-3.377c1.32-.853 2.23-2.172 2.558-3.714.145-.679.173-1.363.082-2.028-.111-.853-.414-1.672-.896-2.413l-.25-.395c.038-.376.005-.766-.145-1.146-.819-2.081-1.936-6.363-1.363-9.051.145-.674.395-1.248.785-1.662 2.331-2.471 7.467-4.128 9.909-4.73.453.212.915.41 1.383.592.612.246 1.243.462 1.879.66 5.766 6.725 10.477 11.195 19.447 11.195.602 0 1.228-.019 1.869-.063.25-.014.496-.038.737-.067-.737 1.57-1.137 3.295-1.156 5.077l-3.955 60.373c-1.538 14.86-14.438 26.503-29.386 26.503zm-2.138-151.682c1.537-2.91 4.494-4.644 7.63-6.479.934-.544 1.903-1.113 2.832-1.715l8.184-5.299 4.87 7.52-15.179 9.827c-4.032 2.611-7.153 6.262-9.104 10.549-1.83-4.903-2.105-8.964.767-14.403zm-12.26 37.314c.824 0 1.643-.125 2.442-.4 2.905-1.012 5.641-3.304 7.678-5.371.665 2.399 1.696 4.706 3.088 6.85.641.992 1.344 1.927 2.115 2.804.877 1.021 1.84 1.96 2.871 2.813-2.722 1.012-5.935 2.572-8.045 4.807-.096.106-.193.212-.284.323-1.156 1.387-1.705 3.136-1.888 4.952l-11.238-17.351c1.069.351 2.167.573 3.261.573zm-23.83-2.765c.034-.164.14-.462.453-.67l7.919-5.125c.173-.111.371-.164.568-.164.347 0 .694.169.896.477l4.986 7.698 19.591 30.261c.202.318.178.636.14.795-.034.164-.14.462-.453.67l-5.217 3.377-2.702 1.749c-.318.202-.636.178-.795.145-.164-.039-.462-.14-.67-.458l-24.577-37.959c-.202-.319-.173-.637-.139-.796zm-10.733 1.108 3.743-2.423 5.559 8.589 9.798 15.131 12.289 18.979v.005l3.069 4.735-.149.096-3.589 2.327zm102.061 28.252c.043.328.067.66.067.997l-3.43 60.156c-.096 1.855-.501 3.671-1.19 5.39-.019.043-.034.082-.043.12l-17.737 51.775c-.072.202-.116.414-.13.626l-4.032 61.915c-.005.053-.005.101-.005.154 0 .949-.371 1.84-1.045 2.51-.665.66-1.546 1.026-2.486 1.026h-.024l-41.379-.275-5.472-.039c-1.936-.014-3.512-1.599-3.512-3.536 0-.048 0-.101-.005-.154l-4.032-61.992c-.014-.217-.058-.424-.125-.626l-17.462-51.259c-.014-.039-.029-.077-.043-.116-.809-2.023-1.214-4.152-1.204-6.325 0-.058 0-.111-.005-.164l-.766-12.163-2.254-47.087c.024-1.951.838-3.796 2.298-5.193 1.488-1.426 3.459-2.206 5.549-2.206h.034c3.926.019 7.178 2.789 7.736 6.383.058.371.087.752.087 1.142 0 .048 0 .091.005.14l3.025 57.16c.024 6.2 1.705 12.014 4.62 17.033l14.774 43.224c-1.002 2.033-1.566 4.321-1.566 6.734 0 7.25 5.063 13.339 11.84 14.923h.005c1.118.255 2.279.395 3.478.395 8.444 0 15.318-6.869 15.318-15.318 0-2.307-.515-4.494-1.435-6.46l13.652-38.465c4.485-5.28 7.288-11.778 7.996-18.69.005-.014 0-.029 0-.043.005-.014.01-.029.01-.043l3.965-60.508c.005-.048.005-.101.005-.149.01-1.989.8-3.863 2.225-5.28 1.426-1.416 3.329-2.182 5.299-2.182 3.771.02 6.893 2.834 7.394 6.47zm.293-20.434-8.184 5.299c-.93.602-1.845 1.253-2.726 1.883-2.958 2.105-5.752 4.099-9.032 4.307-6.132.395-9.731-1.513-13.449-5.188.462-.005.925-.019 1.383-.048 4.225-.26 8.324-1.59 11.961-3.945l15.179-9.827 2.929 4.523zm-1.05-15.762-21.879-33.797 2.866-1.859 21.884 33.797z" fill="#160f60"/><path d="m191.343 11.516h3.419v40.262h-3.419z" fill="#fff" transform="matrix(.839 -.544 .544 .839 13.813 110.031)"/><path d="m144.968 65.338c-1.094 0-2.192-.222-3.261-.573l3.974 6.137c-1.156 1.387-1.705 3.136-1.888 4.952l-11.238-17.351c1.069.352 2.168.573 3.261.573.824 0 1.643-.125 2.442-.4 2.905-1.012 5.641-3.304 7.678-5.371.665 2.399 1.696 4.706 3.088 6.85.641.992 1.344 1.927 2.115 2.804-1.18.829-2.433 1.532-3.728 1.98-.8.274-1.619.399-2.443.399z" fill="#fff"/><path d="m140.869 93.629-2.702 1.749c-.318.202-.636.178-.795.145-.164-.039-.462-.14-.67-.458l-24.577-37.959c-.202-.318-.173-.636-.14-.795.034-.164.14-.462.453-.67l7.919-5.125c.173-.111.371-.164.568-.164.347 0 .694.169.896.477l4.986 7.698-5.217 3.377c-.313.207-.419.506-.453.67-.034.159-.063.477.14.795z" fill="#fff"/><path d="m182.171 26.898-13.975 9.047c-4.494 2.91-7.587 7.418-8.719 12.693-1.127 5.275-.149 10.655 2.76 15.145.424.65.877 1.276 1.368 1.864-3.179-1.05-6.007-2.852-8.276-5.265-.087-.27-.164-.539-.241-.814-.087.087-.173.173-.26.26-.631-.718-1.214-1.489-1.744-2.307-2.91-4.49-3.887-9.87-2.76-15.145 1.132-5.275 4.225-9.784 8.719-12.693l17.568-11.373z" fill="#fff"/><path d="m135.561 102.531-3.589 2.327-30.719-47.439 3.743-2.423 5.559 8.589-.149.096z" fill="#fff"/><path d="m131.88 270.066-5.472-.039c-1.936-.014-3.512-1.599-3.512-3.536 0-.048 0-.101-.005-.154l-4.032-61.992c-.014-.217-.058-.424-.125-.626l-17.462-51.259c-.014-.039-.029-.077-.043-.116-.809-2.023-1.214-4.152-1.204-6.325 0-.058 0-.111-.005-.164l-.766-12.163-2.254-47.087c.024-1.951.838-3.796 2.298-5.193 1.488-1.426 3.459-2.206 5.549-2.206h.034c3.926.019 7.178 2.789 7.736 6.383-1.566.26-3.011.978-4.167 2.086-1.46 1.397-2.274 3.242-2.298 5.193l2.254 47.087.766 12.163c.005.053.005.106.005.164-.01 2.173.395 4.302 1.204 6.325.014.038.029.077.043.116l17.462 51.259c.067.202.111.41.125.626z" fill="#fff"/><path d="m153.856 184.105c-.988-.159-1.965-.361-2.924-.602l1.546 4.191-3.073 8.025c-.173-.01-.347-.015-.52-.015-.101 0-.198.005-.294.005l-6.811-18.469c2.702.679 5.525 1.045 8.435 1.045 2.052 0 4.085-.188 6.079-.549z" fill="#fff"/><path d="m171.867 132.277c0 11.942-9.711 21.653-21.653 21.653-11.937 0-21.653-9.711-21.653-21.653 0-11.937 9.716-21.653 21.653-21.653 11.942 0 21.653 9.716 21.653 21.653z" fill="#fff"/><path d="m237.905 137.195c-13.088 0-23.739 10.656-23.739 23.744 0 13.093 10.651 23.744 23.739 23.744 13.093 0 23.744-10.651 23.744-23.744 0-13.088-10.651-23.744-23.744-23.744zm0 42.647c-10.419 0-18.898-8.478-18.898-18.902 0-10.419 8.478-18.902 18.898-18.902 10.424 0 18.903 8.483 18.903 18.902 0 10.423-8.478 18.902-18.903 18.902z" fill="#160f60"/><path d="m256.808 160.939c0 10.424-8.478 18.902-18.903 18.902-10.419 0-18.898-8.478-18.898-18.902 0-10.419 8.478-18.902 18.898-18.902 10.425 0 18.903 8.483 18.903 18.902z" fill="#fff"/><path d="m263.923 222.488c-1.334 0-2.418 1.084-2.418 2.423v4.543l.048-.106.963-2.057 1.147-2.462.159-.342.872-1.869c-.246-.087-.501-.13-.771-.13zm0 0c-1.334 0-2.418 1.084-2.418 2.423v4.543l.048-.106.963-2.057 1.147-2.462.159-.342.872-1.869c-.246-.087-.501-.13-.771-.13zm17.746-8.209-.005-.005c0-.005-.005-.005-.005-.01-3.309-8.661-10.073-15.627-18.589-19.225-.063-.034-.125-.082-.193-.111-.173-.082-.352-.135-.535-.173-3.854-1.522-8.049-2.37-12.443-2.37-.096 0-.183.019-.275.029-.091-.01-.183-.029-.274-.029h-24.086c-18.748 0-33.999 15.256-33.999 34.004v52.622c0 7.072 5.747 12.823 12.818 12.823h5.193c.053.159.111.313.178.467.419 1.021 1.036 1.965 1.845 2.77 1.58 1.566 3.671 2.428 5.896 2.428h.072l6.214-.053 34.558-.299c3.502-.034 6.493-2.235 7.712-5.313h5.328c1.551 0 3.04-.275 4.417-.785 4.904-1.802 8.406-6.518 8.406-12.038v-52.621c.002-4.264-.788-8.349-2.233-12.111zm-28.392-16.85c1.802.207 3.56.578 5.246 1.098l-2.317 4.962-8.637 18.507c-.125-.12-.255-.236-.39-.352-.072-.063-.144-.125-.217-.183-.014-.019-.034-.034-.048-.043-.072-.063-.145-.12-.217-.178-.005-.01-.014-.014-.019-.014-.053-.043-.101-.082-.154-.12-.024-.024-.053-.043-.077-.063-.091-.072-.183-.14-.274-.202-.005-.01-.014-.014-.019-.014-.111-.082-.226-.164-.342-.241-.068-.048-.135-.092-.202-.14-.01-.005-.019-.01-.029-.019-.068-.038-.135-.082-.207-.13-.01-.005-.019-.015-.029-.019-.096-.063-.198-.12-.299-.178-.024-.019-.048-.034-.072-.043-.063-.034-.125-.072-.188-.106-.072-.043-.145-.087-.217-.12-.116-.063-.231-.125-.352-.188-.149-.077-.299-.149-.453-.217-.014-.01-.029-.019-.043-.024-.193-.087-.385-.169-.583-.251l.554-1.19v-.005l2.741-5.867 4.017-8.599zm-20.03 43.123c-.14-.072-.279-.154-.414-.246 0 0 0 0-.005 0-.087-.053-.173-.111-.26-.169s-.169-.116-.251-.178c-.145-.101-.284-.207-.419-.318s-.27-.226-.4-.342c-.116-.101-.227-.207-.328-.313-.091-.092-.183-.188-.27-.284-.096-.101-.188-.207-.275-.313-.106-.12-.202-.241-.294-.366-.048-.063-.096-.13-.145-.197-.164-.217-.313-.448-.453-.684-.067-.106-.125-.212-.183-.323-.145-.265-.279-.535-.395-.819-.053-.12-.106-.246-.149-.376-.01-.019-.014-.034-.019-.053-.058-.154-.111-.313-.159-.472-.014-.039-.024-.077-.034-.116-.034-.082-.053-.169-.072-.255-.014-.039-.024-.077-.029-.12-.014-.043-.029-.092-.034-.14-.019-.077-.039-.154-.053-.231-.01-.058-.019-.116-.029-.173-.01-.005-.01-.01-.005-.019-.01-.019-.014-.043-.014-.067-.029-.154-.058-.313-.072-.477-.005-.019-.005-.039-.005-.063-.01-.053-.014-.106-.019-.159-.005-.029-.01-.058-.01-.087-.01-.116-.019-.241-.024-.361-.01-.159-.014-.318-.014-.482 0-.308.014-.617.043-.92.019-.183.043-.361.072-.54.019-.144.048-.289.077-.433.029-.145.058-.284.096-.424.005-.01.005-.019.01-.029.038-.149.077-.299.125-.448.082-.27.178-.535.294-.795.014-.039.034-.077.048-.116.005-.029.019-.053.034-.082.038-.096.082-.193.13-.284.058-.116.111-.231.178-.342.01-.024.019-.043.034-.068.005-.014.014-.029.024-.043.005-.01.01-.014.014-.024.005-.01.01-.014.014-.024.019-.048.048-.096.077-.14.005-.01.014-.019.019-.029 0-.005.005-.014.01-.019.01-.019.024-.043.039-.063.014-.024.029-.048.043-.072s.024-.048.043-.072c.029-.048.058-.096.096-.145.038-.068.082-.13.125-.193.038-.067.087-.13.135-.193.068-.091.135-.183.202-.27.135-.178.275-.347.429-.511.043-.053.091-.101.135-.149.053-.053.101-.111.159-.164.053-.053.106-.111.159-.159.14-.14.284-.27.434-.395.077-.072.159-.14.246-.202.096-.082.197-.159.299-.231.202-.149.414-.294.626-.424.193-.12.39-.231.588-.332.13-.067.26-.135.395-.193.13-.067.265-.125.4-.173.101-.043.202-.087.303-.12.154-.058.308-.111.462-.159.14-.043.284-.087.429-.12.125-.039.246-.063.366-.087.01-.005.019-.005.029-.005.077-.019.149-.034.222-.043.26-.053.525-.091.79-.116.149-.014.303-.029.458-.034.159-.01.318-.014.482-.014 5.178 0 9.393 4.215 9.393 9.398 0 5.178-4.215 9.393-9.393 9.393-.323 0-.645-.014-.959-.048-.159-.014-.318-.034-.472-.063-.154-.019-.308-.048-.462-.082-.154-.029-.303-.063-.453-.106-.149-.039-.299-.077-.443-.125-.535-.164-1.05-.381-1.542-.641-.075-.037-.152-.081-.229-.124zm14.784-43.325-2.924 6.262-4.085 8.748-2.751 5.887c-.154-.005-.308-.014-.463-.014-.092 0-.183.005-.27.01l-9.755-20.892h20.248zm-25.526.134 10.14 21.721c-.202.082-.405.164-.607.255-.019.01-.043.019-.063.029-.178.077-.356.164-.535.255-.13.063-.26.13-.385.202-.14.072-.279.154-.419.236-.159.091-.318.188-.477.289-.145.091-.289.188-.434.289-.313.212-.617.443-.91.684-.058.048-.116.096-.173.145-.159.13-.308.265-.458.4l-7.076-15.155-3.897-8.343c1.71-.491 3.473-.833 5.294-1.007zm56.558 81.651c0 2.77-1.421 5.212-3.565 6.648-1.267.843-2.784 1.334-4.417 1.334h-4.735v-62.083c0-1.069-.689-1.975-1.647-2.293h-.005c-.246-.087-.501-.13-.771-.13-1.334 0-2.418 1.084-2.418 2.423v63.861c0 1.932-1.57 3.516-3.502 3.536l-35.184.304-4.841.043-.751.005h-.029c-.939 0-1.821-.366-2.486-1.026-.674-.67-1.045-1.556-1.045-2.51v-64.212c0-1.339-1.084-2.423-2.423-2.423-1.334 0-2.418 1.084-2.418 2.423v62.083h-4.74c-4.398 0-7.982-3.579-7.982-7.982v-52.623c0-11.576 6.778-21.59 16.571-26.302l4.302 9.215 7.943 17.009c-.862 1.835-1.344 3.878-1.344 6.036 0 6.884 4.909 12.645 11.417 13.955.91.183 1.855.279 2.818.279 7.852 0 14.235-6.388 14.235-14.235 0-2.076-.448-4.046-1.248-5.824l12.216-26.172c3.382 1.71 6.388 4.061 8.859 6.893 4.475 5.121 7.192 11.821 7.192 19.143v52.625zm-15.14-56.524c-1.334 0-2.418 1.084-2.418 2.423v4.543l.048-.106.963-2.057 1.147-2.462.159-.342.872-1.869c-.246-.087-.501-.13-.771-.13zm0 0c-1.334 0-2.418 1.084-2.418 2.423v4.543l.048-.106.963-2.057 1.147-2.462.159-.342.872-1.869c-.246-.087-.501-.13-.771-.13zm.771.13c-.246-.087-.501-.13-.771-.13-1.334 0-2.418 1.084-2.418 2.423v4.543l.048-.106.963-2.057 1.147-2.462.159-.342.877-1.869z" fill="#160f60"/><path d="m205.255 232.652v52.622c0 .588.063 1.166.188 1.72h-1.358c-4.398 0-7.982-3.579-7.982-7.982v-52.622c0-11.576 6.778-21.59 16.571-26.302l4.302 9.215c-7.111 5.318-11.721 13.806-11.721 23.349z" fill="#fff"/><path d="m245.107 203.489h-8.17l4.085 8.748-2.751 5.887c-.154-.005-.308-.014-.463-.014-.092 0-.183.005-.27.01l-9.755-20.892h20.246z" fill="#fff"/></g></svg>